<?xml version="1.0" encoding="UTF-8" standalone="no"?>
<svg width="25px" height="20px" viewBox="0 0 25 20" version="1.1" xmlns="http://www.w3.org/2000/svg" xmlns:xlink="http://www.w3.org/1999/xlink">
    <!-- Generator: Sketch 49.3 (51167) - http://www.bohemiancoding.com/sketch -->
    <title>btn/player/mute/hover</title>
    <desc>Created with Sketch.</desc>
    <defs></defs>
    <g id="btn/player/mute/hover" stroke="none" stroke-width="1" fill="none" fill-rule="evenodd">
        <path d="M21.2146176,10 L24.6939683,6.5225 C25.0691678,6.1475 25.1041865,5.57333333 24.7723433,5.24083333 C24.4396663,4.90916667 23.8651941,4.94416667 23.4899945,5.31916667 L20.0106438,8.79666667 L16.5312931,5.31916667 C16.1560936,4.94416667 15.5816213,4.90916667 15.2489444,5.24083333 C14.9171012,5.57333333 14.9521198,6.1475 15.3273194,6.5225 L18.8066701,10 L15.3273194,13.4775 C14.9521198,13.8525 14.9171012,14.4266667 15.2489444,14.7591667 C15.5816213,15.0908333 16.1560936,15.0558333 16.5312931,14.6808333 L20.0106438,11.2033333 L23.4899945,14.6808333 C23.8651941,15.0558333 24.4396663,15.0908333 24.7723433,14.7591667 C25.1041865,14.4266667 25.0691678,13.8525 24.6939683,13.4775 L21.2146176,10 L21.2146176,10 Z M11.6728756,0 L5.83643778,3.88916667 L5.83643778,16.1108333 L11.6728756,20 C12.5933652,20 13.3404292,19.2533333 13.3404292,18.3333333 L13.3404292,1.66666667 C13.3404292,0.746666667 12.5933652,0 11.6728756,0 L11.6728756,0 Z M0,6.66666667 L0,13.3333333 C0,14.2533333 0.747064036,15 1.66755365,15 L4.16888413,15 L4.16888413,5 L1.66755365,5 C0.747064036,5 0,5.74666667 0,6.66666667 L0,6.66666667 Z" id="Fill-128-Copy" fill="#FA7F8E"></path>
    </g>
</svg>