<?xml version="1.0" encoding="utf-8"?>
<!-- Generator: Adobe Illustrator 16.0.0, SVG Export Plug-In . SVG Version: 6.00 Build 0)  -->
<!DOCTYPE svg PUBLIC "-//W3C//DTD SVG 1.1//EN" "http://www.w3.org/Graphics/SVG/1.1/DTD/svg11.dtd">
<svg version="1.1" id="Layer_1" xmlns="http://www.w3.org/2000/svg" xmlns:xlink="http://www.w3.org/1999/xlink" x="0px" y="0px"
	 width="95px" height="35px" viewBox="0 0 95 35" enable-background="new 0 0 95 35" xml:space="preserve">
<path fill="#384C62" d="M12.082,15.774c0,8.947-0.352,14.19-1.055,15.729c-0.123,0.264-0.211,0.396-0.264,0.396
	c-0.105,0-0.176-0.176-0.211-0.527L10.5,28.392c0-1.125-0.02-2.505-0.059-4.14s-0.096-3.556-0.166-5.761
	c-0.053-0.773-0.141-1.271-0.264-1.49c-0.201-0.36-0.633-0.541-1.291-0.541H4.752c-0.201,0-0.475,0.045-0.816,0.133
	c-0.361,0.078-0.615,0.118-0.766,0.118c-0.043,0-0.066-0.022-0.066-0.065c0-0.035,0.012-0.121,0.033-0.258
	c0.021-0.136,0.055-0.322,0.1-0.561c0.053-0.254,0.092-0.461,0.119-0.619c0.025-0.158,0.043-0.268,0.053-0.33l0.5-4.455h0.291
	c0,1.309,0.715,1.964,2.148,1.964c0.131,0,0.303-0.007,0.514-0.02c0.211-0.014,0.457-0.028,0.738-0.046
	c0.291-0.018,0.545-0.033,0.766-0.047c0.219-0.013,0.404-0.02,0.553-0.02c0.984,0,1.723,0.211,2.215,0.633
	C11.766,13.433,12.082,14.396,12.082,15.774z M7.719,21.497c0,0.158-0.031,0.305-0.092,0.441c-0.062,0.137-0.145,0.255-0.244,0.355
	c-0.102,0.102-0.221,0.183-0.355,0.244C6.891,22.6,6.742,22.63,6.584,22.63s-0.307-0.03-0.447-0.092s-0.264-0.143-0.369-0.244
	c-0.105-0.101-0.189-0.219-0.25-0.355c-0.062-0.137-0.094-0.283-0.094-0.441s0.033-0.304,0.1-0.436s0.152-0.248,0.258-0.35
	c0.105-0.101,0.229-0.18,0.369-0.237c0.141-0.057,0.285-0.085,0.434-0.085c0.326,0,0.596,0.107,0.812,0.322
	C7.611,20.928,7.719,21.188,7.719,21.497z M7.719,25.043c0,0.149-0.031,0.292-0.092,0.429c-0.062,0.136-0.145,0.257-0.244,0.362
	c-0.102,0.105-0.221,0.188-0.355,0.251c-0.137,0.061-0.285,0.092-0.443,0.092s-0.307-0.031-0.447-0.092
	c-0.141-0.062-0.264-0.146-0.369-0.251s-0.189-0.227-0.25-0.362c-0.062-0.137-0.094-0.279-0.094-0.429
	c0-0.158,0.033-0.304,0.1-0.435c0.066-0.133,0.152-0.248,0.258-0.35s0.229-0.18,0.369-0.237s0.285-0.086,0.434-0.086
	c0.326,0,0.596,0.108,0.812,0.323C7.611,24.474,7.719,24.735,7.719,25.043z M21.139,28.247c0,0.158-0.029,0.305-0.092,0.441
	c-0.061,0.136-0.143,0.254-0.244,0.355c-0.1,0.102-0.219,0.183-0.355,0.244s-0.283,0.092-0.441,0.092
	c-0.15,0-0.293-0.03-0.428-0.092c-0.137-0.062-0.258-0.143-0.363-0.244s-0.189-0.22-0.25-0.355
	c-0.062-0.137-0.094-0.283-0.094-0.441s0.031-0.304,0.094-0.436c0.061-0.132,0.145-0.248,0.25-0.35s0.227-0.18,0.363-0.237
	c0.135-0.058,0.277-0.085,0.428-0.085C20.762,27.14,21.139,27.509,21.139,28.247z M24.619,28.247c0,0.158-0.029,0.305-0.092,0.441
	c-0.061,0.136-0.143,0.254-0.244,0.355s-0.219,0.183-0.355,0.244s-0.283,0.092-0.441,0.092s-0.307-0.03-0.441-0.092
	c-0.137-0.062-0.256-0.143-0.355-0.244c-0.102-0.102-0.184-0.22-0.244-0.355c-0.062-0.137-0.094-0.283-0.094-0.441
	c0-0.309,0.113-0.57,0.338-0.785c0.223-0.215,0.488-0.322,0.797-0.322c0.324,0,0.596,0.107,0.811,0.322S24.619,27.938,24.619,28.247
	z M22.445,15.774c0,1.125-0.01,2.084-0.027,2.875s-0.043,1.428-0.078,1.911c-0.15,2.092-0.471,3.639-0.963,4.641
	c-0.123,0.264-0.211,0.396-0.264,0.396c-0.098,0-0.162-0.162-0.197-0.488c-0.045-0.387-0.08-0.852-0.105-1.396
	c-0.027-0.545-0.049-1.174-0.066-1.886c-0.018-0.826-0.035-1.514-0.053-2.063c-0.018-0.549-0.035-0.973-0.053-1.271
	c-0.07-0.801-0.158-1.297-0.264-1.49c-0.203-0.36-0.637-0.541-1.305-0.541H15.18c-0.219,0-0.51,0.045-0.869,0.133
	c-0.387,0.078-0.646,0.118-0.777,0.118c-0.045,0-0.066-0.022-0.066-0.065c0-0.045,0.01-0.135,0.033-0.271
	c0.021-0.136,0.055-0.319,0.098-0.548c0.053-0.254,0.094-0.461,0.119-0.619c0.027-0.158,0.045-0.268,0.053-0.33l0.502-4.455h0.275
	c0,1.309,0.721,1.964,2.162,1.964c0.133,0,0.305-0.007,0.516-0.02c0.211-0.014,0.461-0.028,0.75-0.046
	c0.291-0.018,0.543-0.033,0.76-0.047c0.215-0.013,0.396-0.02,0.547-0.02c0.984,0,1.723,0.211,2.215,0.633
	C22.129,13.433,22.445,14.396,22.445,15.774z M28.521,14.602c0,5.405-0.176,8.824-0.527,10.257c-0.105,0.413-0.25,0.619-0.434,0.619
	c-0.193,0-0.34-0.153-0.436-0.461c-0.01-0.018-0.025-0.18-0.047-0.488c-0.021-0.307-0.055-0.764-0.098-1.371
	c-0.045-0.703-0.096-1.472-0.152-2.307s-0.117-1.744-0.178-2.729c-0.035-0.58-0.102-0.972-0.197-1.174
	c-0.158-0.325-0.488-0.488-0.99-0.488c-0.658,0-0.984,0.005-0.975,0.014C24.162,16.412,24,16.179,24,15.774
	c0-1.67,0.158-3.453,0.475-5.352h0.277c0,0.773,0.092,1.27,0.277,1.489c0.219,0.272,0.721,0.409,1.502,0.409
	C27.859,12.321,28.521,13.081,28.521,14.602z M27.652,8.432c0,0.158-0.031,0.306-0.092,0.441c-0.062,0.137-0.145,0.255-0.244,0.356
	c-0.102,0.102-0.221,0.182-0.357,0.244c-0.135,0.061-0.283,0.092-0.441,0.092c-0.148,0-0.291-0.031-0.428-0.092
	c-0.137-0.062-0.258-0.143-0.363-0.244s-0.188-0.22-0.25-0.356c-0.061-0.136-0.092-0.283-0.092-0.441
	c0-0.141,0.031-0.278,0.092-0.415c0.062-0.137,0.145-0.255,0.25-0.356c0.105-0.101,0.227-0.183,0.363-0.243
	c0.137-0.062,0.279-0.093,0.428-0.093c0.344,0,0.617,0.104,0.824,0.31C27.549,7.841,27.652,8.106,27.652,8.432z M40.559,13.362
	c0,0.044-0.002,0.086-0.006,0.125c-0.006,0.04-0.012,0.082-0.02,0.125c-0.344,1.23-0.615,2.213-0.818,2.947
	c-0.201,0.734-0.334,1.236-0.395,1.51c-0.387,1.695-0.58,3.217-0.58,4.561c0,0.344-0.029,0.643-0.086,0.896
	c-0.059,0.256-0.15,0.478-0.277,0.666c-0.127,0.189-0.299,0.352-0.514,0.488c-0.217,0.137-0.482,0.257-0.799,0.362l-5.326,1.78
	c-0.342,0.123-0.83,0.417-1.463,0.883l-0.197-0.079c0.123-0.343,0.316-1.837,0.58-4.482c0.088,0.026,0.242,0.04,0.461,0.04
	c1.072,0,2.271-0.273,3.6-0.818c-0.748-1.266-1.174-2.145-1.279-2.637c-0.053-0.264-0.078-1.213-0.078-2.848
	c0-0.352-0.281-0.558-0.844-0.619c0.043,0.009-0.357,0.014-1.201,0.014c-0.359,0-0.689,0.053-0.988,0.158
	c-0.166-0.643-0.25-1.517-0.25-2.624c0-0.369,0.014-0.703,0.039-1.002c0.027-0.299,0.062-0.567,0.105-0.804
	c0.08,0.035,0.168,0.053,0.264,0.053c0.105,0,0.18-0.105,0.225-0.316c0.025-0.123,0.031-0.334,0.014-0.633
	c-0.01-0.203-0.016-0.346-0.021-0.429c-0.004-0.083-0.006-0.112-0.006-0.086c-0.316-0.132-0.475-0.356-0.475-0.673
	c0-0.457,0.221-0.686,0.66-0.686c0.457,0,0.686,0.229,0.686,0.686c0,0.291-0.115,0.484-0.344,0.58v0.857
	c0.035,0.422,0.158,0.633,0.369,0.633c0.168,0,0.365-0.448,0.594-1.345l0.355-1.675c-0.193-0.219-0.289-0.439-0.289-0.658
	c0-0.439,0.223-0.66,0.672-0.66c0.447,0,0.672,0.225,0.672,0.673c0,0.387-0.201,0.62-0.605,0.698l-0.291,2.65
	c-0.025,0.255,0.07,0.383,0.291,0.383c0.148,0,0.316-0.207,0.5-0.62l0.316-0.831c-0.141-0.219-0.211-0.422-0.211-0.605
	c0-0.422,0.221-0.633,0.66-0.633c0.447,0,0.672,0.224,0.672,0.672c0,0.466-0.246,0.699-0.738,0.699
	c-0.123,0.615-0.186,0.957-0.186,1.027c0,0.115,0.023,0.238,0.066,0.369c0.229,0.123,0.344,0.277,0.344,0.462
	c0,0.396-0.053,0.993-0.158,1.793c-0.105,0.809-0.158,1.406-0.158,1.793c0,0.466,0.229,1.09,0.686,1.872s0.686,1.49,0.686,2.123
	c0,0.422-0.084,1.129-0.252,2.122c0.783-0.281,1.332-0.856,1.648-1.728c0.088-0.395,0.176-0.784,0.264-1.166
	c0.088-0.383,0.18-0.771,0.277-1.167c0.211-0.87,0.584-1.429,1.121-1.675c0.018-0.008,0.037-0.021,0.059-0.039
	s0.047-0.035,0.072-0.053c-0.176-0.088-0.426-0.132-0.752-0.132c-0.053,0-0.121,0.003-0.203,0.007
	c-0.084,0.004-0.168,0.006-0.252,0.006c-0.082,0-0.164,0.003-0.242,0.007c-0.08,0.005-0.141,0.007-0.186,0.007
	c-0.834,0-1.252-0.457-1.252-1.371c0-1.714,0.225-3.199,0.672-4.456l0.197,0.065c-0.025,0.133-0.039,0.273-0.039,0.422
	c0,0.801,0.273,1.223,0.818,1.266c0.254,0.018,0.568,0.035,0.941,0.053s0.816,0.045,1.326,0.08
	C40.27,12.47,40.559,12.782,40.559,13.362z M52.357,9.737c0,0.457-0.25,0.686-0.75,0.686c-0.098,0.518-0.17,0.914-0.219,1.186
	c-0.049,0.273-0.072,0.432-0.072,0.475c0,0.141,0.053,0.211,0.158,0.211c0.098,0,0.26-0.061,0.488-0.184v3.611
	c0,0.404-0.062,0.607-0.186,0.607c-0.053,0-0.145-0.022-0.275-0.066c-0.133-0.044-0.234-0.066-0.305-0.066
	c-0.492,0-0.738,0.203-0.738,0.607c0,0.078,0.119,0.716,0.357,1.911c0.43,2.145,0.645,3.802,0.645,4.97
	c0,1.283-0.197,3.389-0.592,6.315c-0.176,1.257-0.352,1.886-0.527,1.886c-0.186,0-0.277-0.321-0.277-0.963
	c0-2.496-0.432-5.217-1.293-8.16c-0.078-0.246-0.117-0.457-0.117-0.633c0-0.15,0.029-0.352,0.092-0.607l0.553-2.346
	c0.203-0.967,0.305-1.763,0.305-2.387c0-0.334-0.217-0.527-0.646-0.58c0.035,0.009-0.299,0.014-1.002,0.014
	c-0.352,0-0.527-0.181-0.527-0.541v-3.375c0.105,0.044,0.18,0.066,0.225,0.066c0.184,0,0.285-0.273,0.303-0.818l-0.027-1.055
	c-0.324-0.131-0.486-0.359-0.486-0.686c0-0.457,0.223-0.686,0.672-0.686c0.457,0,0.686,0.229,0.686,0.686
	c0,0.299-0.137,0.502-0.408,0.607c0,0.166,0,0.329,0,0.487s0.004,0.321,0.012,0.487c0.035,0.502,0.154,0.752,0.357,0.752
	c0.166,0,0.275-0.114,0.328-0.343l0.66-2.689c-0.193-0.202-0.291-0.417-0.291-0.646c0-0.449,0.225-0.673,0.674-0.673
	c0.447,0,0.672,0.229,0.672,0.686c0,0.378-0.203,0.61-0.607,0.698l-0.289,2.65c-0.045,0.264,0.078,0.396,0.369,0.396
	c0.184,0,0.383-0.276,0.594-0.831l0.355-1.107c-0.141-0.219-0.211-0.422-0.211-0.605c0-0.422,0.219-0.633,0.658-0.633
	C52.129,9.052,52.357,9.28,52.357,9.737z M62.998,27.39c0.229,0,0.342,0.132,0.342,0.396v0.87c0,0.272-0.113,0.408-0.342,0.408
	h-2.084c0,0.422,0.08,0.809,0.238,1.16l0.303,0.673c0.07,0.158,0.105,0.312,0.105,0.462c0,0.307-0.107,0.564-0.324,0.771
	c-0.215,0.206-0.467,0.31-0.758,0.31c-0.148,0-0.289-0.028-0.422-0.085c-0.131-0.058-0.248-0.137-0.35-0.237
	c-0.1-0.102-0.18-0.216-0.236-0.343c-0.057-0.128-0.086-0.267-0.086-0.415c0-0.15,0.035-0.304,0.105-0.462l0.291-0.673
	c0.184-0.395,0.275-0.781,0.275-1.16h-2.109c-0.236,0-0.355-0.136-0.355-0.408v-0.87c0-0.264,0.119-0.396,0.355-0.396H62.998z
	 M64.936,15.722c0,0.439-0.098,0.62-0.291,0.541c-0.254-0.053-0.398-0.079-0.434-0.079l-0.752,0.026
	c-0.098,0-0.145,0.035-0.145,0.105c0.105,0.141,0.223,0.343,0.355,0.606c0.562,1.002,0.887,1.898,0.975,2.689
	c0.027,0.202,0.045,0.402,0.053,0.6c0.01,0.198,0.01,0.385,0,0.561c-0.035,1.397-0.654,3.028-1.857,4.892l-0.172-0.105
	c0.131-0.643,0.197-1.301,0.197-1.979c0-1.502-0.324-2.799-0.975-3.889c-0.168-0.255-0.252-0.461-0.252-0.619
	s0.041-0.33,0.119-0.515c0.098-0.229,0.205-0.521,0.322-0.877c0.119-0.355,0.254-0.771,0.402-1.245c0-0.15-0.307-0.225-0.922-0.225
	h-0.83c-0.221,0-0.348-0.132-0.383-0.396c-0.158-1.362-0.426-2.272-0.805-2.729c-0.166-0.193-0.277-0.166-0.33,0.08
	c-0.236,0.967-0.355,1.902-0.355,2.808c0,0.281-0.148,0.378-0.447,0.29c-0.309-0.097-0.668-0.123-1.082-0.079
	c-0.342,0.018-0.514,0.188-0.514,0.515c0,0.193,0.088,0.527,0.264,1.002c0.359,0.949,0.541,1.902,0.541,2.86
	c0,0.51-0.221,1.296-0.66,2.36c-0.43,1.045-0.932,1.986-1.502,2.82l-0.133-0.158c0.15-0.615,0.225-1.291,0.225-2.029
	c0-1.389-0.229-2.566-0.686-3.533c-0.053-0.105-0.08-0.225-0.08-0.356c0-0.123,0.053-0.272,0.158-0.448
	c0.07-0.141,0.129-0.246,0.172-0.316c0.045-0.07,0.07-0.109,0.08-0.119c0.553-1.248,0.83-1.959,0.83-2.135
	c0-0.291-0.215-0.436-0.646-0.436h-0.566c-0.256,0-0.443,0.035-0.566,0.105c-0.088,0.079-0.133,0.053-0.133-0.079v-4.153
	c0.246,0.141,0.65,0.211,1.213,0.211c0.281,0,0.471-0.131,0.566-0.395c0.088-0.264,0.172-0.734,0.252-1.411
	c-0.326-0.114-0.488-0.339-0.488-0.673c0-0.447,0.225-0.672,0.672-0.672c0.449,0,0.672,0.225,0.672,0.672
	c0,0.326-0.145,0.541-0.434,0.646l0.117,1.385c0.01,0.299,0.217,0.447,0.621,0.447c0.141,0.053,0.5,0.053,1.08,0
	c0.273-1.002,0.594-1.748,0.963-2.24c0.246-0.326,0.418-0.488,0.514-0.488c0.098,0,0.215,0.057,0.355,0.172
	c0.791,0.668,1.402,1.529,1.834,2.584c1.572,0.061,2.543-0.01,2.912-0.211L64.936,15.722z M72.977,28.247
	c0,0.158-0.029,0.305-0.092,0.441c-0.061,0.136-0.143,0.254-0.244,0.355s-0.219,0.183-0.355,0.244s-0.283,0.092-0.441,0.092
	s-0.309-0.03-0.449-0.092s-0.264-0.143-0.369-0.244s-0.188-0.22-0.25-0.355c-0.061-0.137-0.092-0.283-0.092-0.441
	s0.033-0.304,0.098-0.436c0.066-0.132,0.152-0.248,0.258-0.35s0.229-0.18,0.369-0.237s0.285-0.085,0.436-0.085
	c0.324,0,0.596,0.107,0.811,0.322S72.977,27.938,72.977,28.247z M72.977,31.793c0,0.149-0.029,0.292-0.092,0.429
	c-0.061,0.136-0.143,0.257-0.244,0.362s-0.219,0.188-0.355,0.251c-0.137,0.061-0.283,0.092-0.441,0.092s-0.309-0.031-0.449-0.092
	c-0.141-0.062-0.264-0.146-0.369-0.251s-0.188-0.227-0.25-0.362c-0.061-0.137-0.092-0.279-0.092-0.429
	c0-0.158,0.033-0.304,0.098-0.435c0.066-0.133,0.152-0.249,0.258-0.35c0.105-0.102,0.229-0.181,0.369-0.237
	c0.141-0.058,0.285-0.086,0.436-0.086c0.324,0,0.596,0.107,0.811,0.323C72.869,31.224,72.977,31.485,72.977,31.793z M75.613,18.372
	c0,0.826-0.316,1.568-0.949,2.229c-0.141,0.148-0.367,0.347-0.678,0.593c-0.312,0.246-0.711,0.536-1.193,0.87
	c-0.756,0.519-1.209,0.971-1.357,1.357c0.316,0.334,0.475,0.699,0.475,1.095c0,0.826-0.365,1.239-1.096,1.239
	c-0.791,0-1.186-0.426-1.186-1.279c0-0.65,0.383-1.344,1.146-2.082l2.137-1.873c0.764-0.746,1.146-1.463,1.146-2.148
	c0-1.336-0.936-2.004-2.809-2.004h-1.596c-0.123,0-0.281,0.004-0.475,0.014c-0.193,0.008-0.416,0.021-0.672,0.039
	c-0.254,0.018-0.477,0.031-0.666,0.039c-0.189,0.01-0.344,0.014-0.467,0.014c-0.449,0-0.674-1.116-0.674-3.349
	c0-0.562,0.033-1.162,0.1-1.8c0.066-0.637,0.16-1.32,0.283-2.05c0.238-1.318,0.355-1.956,0.355-1.911
	c0-0.379-0.404-0.615-1.213-0.713c-0.809-0.096-1.213-0.404-1.213-0.922c0-0.643,0.168-1.323,0.502-2.044
	c0.369-0.782,0.812-1.306,1.332-1.569l0.064,0.04c-0.148,0.58-0.223,0.884-0.223,0.909c0,0.344,0.416,0.62,1.252,0.831
	c0.834,0.202,1.252,0.589,1.252,1.16c0,0.062-0.127,0.54-0.383,1.437c-0.492,1.768-0.738,3.023-0.738,3.771v0.224
	c0,0.642,0.035,1.077,0.105,1.306c0.141,0.395,0.488,0.593,1.043,0.593h3.928c0.941,0,1.596,0.224,1.965,0.673
	c0.334,0.412,0.5,1.125,0.5,2.135V18.372z M86.438,28.247c0,0.158-0.031,0.305-0.092,0.441c-0.062,0.136-0.143,0.254-0.244,0.355
	s-0.221,0.183-0.355,0.244c-0.137,0.062-0.283,0.092-0.441,0.092s-0.307-0.03-0.441-0.092c-0.137-0.062-0.256-0.143-0.357-0.244
	c-0.1-0.102-0.182-0.22-0.244-0.355c-0.061-0.137-0.092-0.283-0.092-0.441c0-0.309,0.113-0.57,0.336-0.785
	c0.225-0.215,0.49-0.322,0.799-0.322C86.061,27.14,86.438,27.509,86.438,28.247z M88.322,30.54c0,0.158-0.029,0.306-0.092,0.442
	c-0.061,0.136-0.143,0.255-0.244,0.355s-0.219,0.183-0.355,0.244s-0.283,0.093-0.441,0.093c-0.15,0-0.293-0.031-0.428-0.093
	c-0.137-0.062-0.256-0.144-0.357-0.244s-0.182-0.22-0.244-0.355c-0.061-0.137-0.092-0.284-0.092-0.442s0.031-0.303,0.092-0.435
	c0.062-0.132,0.143-0.249,0.244-0.35s0.221-0.181,0.357-0.237c0.135-0.057,0.277-0.086,0.428-0.086c0.324,0,0.596,0.104,0.811,0.311
	C88.215,29.949,88.322,30.216,88.322,30.54z M90.182,32.808c0,0.158-0.031,0.306-0.092,0.442c-0.062,0.136-0.143,0.255-0.244,0.355
	s-0.221,0.183-0.355,0.244c-0.137,0.062-0.283,0.093-0.441,0.093c-0.15,0-0.293-0.031-0.43-0.093s-0.256-0.144-0.361-0.244
	s-0.189-0.22-0.252-0.355c-0.061-0.137-0.092-0.284-0.092-0.442c0-0.281,0.115-0.535,0.344-0.764S88.75,31.7,89.049,31.7
	C89.805,31.7,90.182,32.069,90.182,32.808z M91.896,13.587c0,0.123-0.023,0.241-0.066,0.355c-0.959,2.391-1.662,4.83-2.109,7.316
	c-0.07,0.422-0.145,0.781-0.225,1.075c-0.078,0.294-0.154,0.529-0.225,0.705c-0.281,0.694-0.676,1.112-1.186,1.253l-4.957,1.437
	c-0.334,0.097-0.822,0.387-1.463,0.87l-0.186-0.092c0.035-0.098,0.053-0.238,0.053-0.422c0-0.633-0.289-1.723-0.869-3.27
	c-0.58-1.539-0.871-2.738-0.871-3.6c0-0.281,0.057-0.664,0.172-1.146c0.123-0.52,0.184-0.889,0.184-1.107
	c0-0.246-0.303-0.369-0.908-0.369c-1.16,0-1.82,0.03-1.979,0.092c-0.158-0.615-0.236-1.428-0.236-2.439
	c0-0.711,0.047-1.322,0.145-1.832c0.061,0.026,0.119,0.039,0.172,0.039c0.096,0,0.145-0.426,0.145-1.278
	c-0.316-0.114-0.475-0.343-0.475-0.686c0-0.457,0.219-0.686,0.658-0.686c0.457,0,0.686,0.229,0.686,0.686
	c0,0.299-0.113,0.497-0.342,0.593c0,0.123,0,0.244,0,0.363c0,0.118,0.004,0.239,0.014,0.362c0.035,0.343,0.148,0.515,0.342,0.515
	c0.186,0,0.348-0.348,0.488-1.042l0.236-1.331c-0.201-0.221-0.303-0.439-0.303-0.66c0-0.439,0.225-0.658,0.672-0.658
	c0.449,0,0.674,0.224,0.674,0.672c0,0.396-0.203,0.633-0.607,0.712l-0.053,1.991c-0.018,0.254,0.092,0.382,0.33,0.382
	c0.148,0,0.289-0.188,0.422-0.567l0.236-0.777c-0.131-0.22-0.197-0.418-0.197-0.594c0-0.43,0.215-0.646,0.646-0.646
	c0.447,0,0.672,0.229,0.672,0.686c0,0.475-0.246,0.712-0.738,0.712c-0.025,0.606-0.039,0.918-0.039,0.936
	c0,0.123,0.014,0.225,0.039,0.304c0.238,0.123,0.355,0.276,0.355,0.462l-0.012,0.131c-0.018,0.422-0.07,1.072-0.158,1.951
	c-0.045,0.422-0.08,0.796-0.105,1.121c-0.027,0.325-0.041,0.602-0.041,0.83c0,0.686,0.229,1.609,0.686,2.77
	c0.414,1.062,0.84,1.938,1.279,2.623l0.277-0.092c0.896-3.385,1.344-5.129,1.344-5.234c0-0.272-0.781-0.501-2.346-0.686
	l-0.092-0.066c0.184-2.496,0.549-4.284,1.094-5.365l0.184,0.092c-0.018,0.088-0.025,0.172-0.025,0.251
	c0,0.703,0.271,1.143,0.816,1.318c0.256,0.026,0.508,0.053,0.76,0.079c0.25,0.026,0.502,0.057,0.758,0.092
	c0.545,0.105,0.816,0.439,0.816,1.002c0,0.361-0.312,1.67-0.936,3.93l-1.188,4.337c0.414-0.105,0.91-0.255,1.49-0.448
	s1.252-0.431,2.018-0.712c0.246-0.114,0.422-0.343,0.527-0.686c0.457-1.459,0.953-2.487,1.49-3.085
	c0.035-0.035,0.074-0.109,0.117-0.225l-0.092-0.145c-0.377-0.272-1.262-0.408-2.65-0.408l-0.131-0.053
	c0.299-2.426,0.746-4.206,1.344-5.34l0.225,0.092c-0.025,0.123-0.039,0.246-0.039,0.369c0,0.633,0.197,0.98,0.594,1.042l2.004,0.304
	C91.668,12.751,91.896,13.05,91.896,13.587z M88.164,18.491c0,0.158-0.029,0.305-0.092,0.441c-0.061,0.137-0.143,0.255-0.244,0.355
	c-0.102,0.102-0.219,0.183-0.355,0.244s-0.283,0.092-0.441,0.092s-0.307-0.03-0.441-0.092c-0.137-0.062-0.256-0.143-0.355-0.244
	c-0.102-0.101-0.184-0.219-0.244-0.355c-0.062-0.137-0.094-0.283-0.094-0.441c0-0.281,0.119-0.537,0.357-0.766
	c0.246-0.229,0.504-0.342,0.777-0.342c0.324,0,0.596,0.104,0.811,0.31S88.164,18.165,88.164,18.491z M89.773,8.432
	c0,0.158-0.031,0.306-0.092,0.441c-0.062,0.137-0.145,0.255-0.244,0.356c-0.102,0.102-0.221,0.182-0.355,0.244
	c-0.137,0.061-0.285,0.092-0.443,0.092c-0.148,0-0.291-0.031-0.428-0.092c-0.137-0.062-0.258-0.143-0.363-0.244
	s-0.188-0.22-0.25-0.356c-0.061-0.136-0.092-0.283-0.092-0.441c0-0.141,0.031-0.278,0.092-0.415c0.062-0.137,0.145-0.255,0.25-0.356
	c0.105-0.101,0.227-0.183,0.363-0.243c0.137-0.062,0.279-0.093,0.428-0.093c0.344,0,0.617,0.104,0.824,0.31
	C89.67,7.841,89.773,8.106,89.773,8.432z"/>
</svg>
