<?xml version="1.0" encoding="UTF-8" standalone="no"?>
<svg width="94px" height="34px" viewBox="0 0 94 34" version="1.1" xmlns="http://www.w3.org/2000/svg" xmlns:xlink="http://www.w3.org/1999/xlink">
    <!-- Generator: Sketch 49.3 (51167) - http://www.bohemiancoding.com/sketch -->
    <title>btn/chp12/hover</title>
    <desc>Created with Sketch.</desc>
    <defs></defs>
    <g id="btn/chp12/hover" stroke="none" stroke-width="1" fill="none" fill-rule="evenodd">
        <path d="M89.793,25.592 C90.021,25.592 90.136,25.723 90.136,25.986 L90.136,26.858 C90.136,27.129 90.021,27.266 89.793,27.266 L87.71,27.266 C87.71,27.688 87.789,28.074 87.947,28.426 L88.251,29.098 C88.321,29.256 88.356,29.41 88.356,29.561 C88.356,29.867 88.248,30.125 88.033,30.33 C87.818,30.537 87.565,30.641 87.275,30.641 C87.126,30.641 86.985,30.611 86.853,30.555 C86.721,30.498 86.605,30.418 86.503,30.319 C86.403,30.217 86.324,30.102 86.266,29.975 C86.209,29.848 86.181,29.709 86.181,29.561 C86.181,29.41 86.216,29.256 86.287,29.098 L86.576,28.426 C86.761,28.031 86.853,27.645 86.853,27.266 L84.744,27.266 C84.506,27.266 84.388,27.129 84.388,26.858 L84.388,25.986 C84.388,25.723 84.506,25.592 84.744,25.592 L89.793,25.592 Z M85.268,17.437 C85.268,17.595 85.236,17.742 85.176,17.879 C85.113,18.015 85.032,18.133 84.932,18.234 C84.83,18.336 84.711,18.416 84.576,18.478 C84.44,18.539 84.292,18.57 84.134,18.57 C83.976,18.57 83.828,18.539 83.692,18.478 C83.556,18.416 83.438,18.336 83.336,18.234 C83.234,18.133 83.154,18.015 83.092,17.879 C83.031,17.742 83,17.595 83,17.437 C83,17.156 83.119,16.9 83.356,16.672 C83.602,16.443 83.861,16.33 84.134,16.33 C84.459,16.33 84.729,16.433 84.945,16.638 C85.16,16.845 85.268,17.111 85.268,17.437 Z M91.231,18.705 C91.081,19.109 91.007,19.755 91.007,20.642 L91.007,22.316 C91.007,22.923 91.05,23.371 91.138,23.662 L91.073,23.728 C90.835,23.666 90.523,23.634 90.136,23.634 L82.939,23.634 C82.138,23.634 81.515,23.718 81.066,23.886 L81,23.859 C81.123,23.49 81.185,22.949 81.185,22.238 L81.185,20.511 C81.185,20.054 81.132,19.671 81.027,19.363 L81.093,19.298 C81.568,19.482 82.152,19.574 82.846,19.574 L87.856,19.574 L87.738,15.554 C87.738,15.449 87.73,15.365 87.718,15.302 C87.704,15.242 87.68,15.195 87.645,15.164 C87.61,15.134 87.557,15.115 87.487,15.105 C87.416,15.097 87.323,15.091 87.21,15.091 L81.568,15.091 C81.206,15.091 81.027,14.916 81.027,14.564 L81.027,9.041 L81.343,9.041 C81.343,10.306 81.923,10.939 83.083,10.939 L83.083,9.634 C82.82,9.449 82.688,9.23 82.688,8.974 C82.688,8.544 82.916,8.33 83.373,8.33 C83.83,8.33 84.059,8.544 84.059,8.974 C84.059,9.291 83.901,9.519 83.584,9.66 L83.584,10.939 L87.579,10.939 C88.388,10.939 88.989,10.855 89.385,10.689 L89.385,19.271 C89.385,19.562 89.499,19.707 89.728,19.707 C89.939,19.707 90.206,19.57 90.532,19.298 C90.673,19.183 90.796,19.07 90.902,18.955 C91.007,18.841 91.095,18.726 91.165,18.613 L91.231,18.705 Z M78.978,13.682 C78.978,14.807 78.97,15.766 78.952,16.557 C78.934,17.348 78.908,17.984 78.873,18.467 C78.723,20.559 78.402,22.106 77.91,23.108 C77.787,23.371 77.699,23.504 77.646,23.504 C77.551,23.504 77.484,23.342 77.449,23.016 C77.405,22.629 77.37,22.164 77.344,21.619 C77.317,21.074 77.295,20.445 77.277,19.733 C77.26,18.906 77.242,18.219 77.224,17.67 C77.207,17.121 77.189,16.697 77.172,16.399 C77.101,15.598 77.014,15.102 76.908,14.908 C76.707,14.547 76.271,14.367 75.603,14.367 L71.715,14.367 C71.494,14.367 71.205,14.412 70.844,14.5 C70.457,14.578 70.198,14.617 70.066,14.617 C70.022,14.617 70,14.596 70,14.553 C70,14.508 70.012,14.418 70.033,14.281 C70.055,14.147 70.088,13.963 70.133,13.734 C70.185,13.481 70.224,13.274 70.251,13.115 C70.277,12.957 70.295,12.848 70.304,12.785 L70.805,8.33 L71.082,8.33 C71.082,9.639 71.803,10.293 73.244,10.293 C73.375,10.293 73.547,10.287 73.758,10.274 C73.969,10.26 74.219,10.246 74.51,10.229 C74.799,10.211 75.052,10.195 75.267,10.182 C75.482,10.168 75.665,10.162 75.814,10.162 C76.799,10.162 77.537,10.373 78.029,10.795 C78.662,11.34 78.978,12.303 78.978,13.682 Z M81.267,26.437 C81.267,26.596 81.236,26.742 81.174,26.879 C81.113,27.014 81.031,27.133 80.93,27.234 C80.83,27.336 80.711,27.416 80.575,27.478 C80.438,27.539 80.291,27.57 80.132,27.57 C79.974,27.57 79.828,27.539 79.691,27.478 C79.554,27.416 79.436,27.336 79.336,27.234 C79.234,27.133 79.153,27.014 79.091,26.879 C79.03,26.742 79,26.596 79,26.437 C79,26.129 79.111,25.867 79.336,25.652 C79.559,25.437 79.826,25.33 80.132,25.33 C80.459,25.33 80.728,25.437 80.944,25.652 C81.159,25.867 81.267,26.129 81.267,26.437 Z M78.268,26.437 C78.268,26.596 78.236,26.742 78.175,26.879 C78.113,27.014 78.032,27.133 77.931,27.234 C77.83,27.336 77.711,27.416 77.575,27.478 C77.44,27.539 77.291,27.57 77.133,27.57 C76.984,27.57 76.842,27.539 76.705,27.478 C76.568,27.416 76.447,27.336 76.342,27.234 C76.236,27.133 76.153,27.014 76.092,26.879 C76.03,26.742 76,26.596 76,26.437 C76,26.279 76.03,26.133 76.092,26.002 C76.153,25.869 76.236,25.754 76.342,25.652 C76.447,25.551 76.568,25.473 76.705,25.414 C76.842,25.357 76.984,25.33 77.133,25.33 C77.889,25.33 78.268,25.699 78.268,26.437 Z M64.293,23.437 C64.293,23.588 64.263,23.73 64.201,23.867 C64.139,24.002 64.058,24.123 63.957,24.228 C63.855,24.334 63.737,24.418 63.601,24.48 C63.465,24.541 63.318,24.572 63.16,24.572 C63.002,24.572 62.851,24.541 62.711,24.48 C62.57,24.418 62.447,24.334 62.342,24.228 C62.236,24.123 62.153,24.002 62.092,23.867 C62.03,23.73 62,23.588 62,23.437 C62,23.279 62.032,23.135 62.098,23.004 C62.164,22.871 62.25,22.756 62.355,22.654 C62.461,22.553 62.584,22.474 62.724,22.416 C62.865,22.359 63.01,22.33 63.16,22.33 C63.484,22.33 63.755,22.439 63.971,22.654 C64.185,22.869 64.293,23.131 64.293,23.437 Z M64.293,19.437 C64.293,19.596 64.263,19.742 64.201,19.879 C64.139,20.016 64.058,20.133 63.957,20.234 C63.855,20.336 63.737,20.416 63.601,20.478 C63.465,20.539 63.318,20.57 63.16,20.57 C63.002,20.57 62.851,20.539 62.711,20.478 C62.57,20.416 62.447,20.336 62.342,20.234 C62.236,20.133 62.153,20.016 62.092,19.879 C62.03,19.742 62,19.596 62,19.437 C62,19.279 62.032,19.133 62.098,19.002 C62.164,18.869 62.25,18.754 62.355,18.652 C62.461,18.551 62.584,18.473 62.724,18.414 C62.865,18.357 63.01,18.33 63.16,18.33 C63.484,18.33 63.755,18.437 63.971,18.652 C64.185,18.867 64.293,19.129 64.293,19.437 Z M68.977,13.682 C68.977,22.629 68.626,27.871 67.922,29.41 C67.799,29.674 67.711,29.805 67.659,29.805 C67.553,29.805 67.483,29.629 67.448,29.277 L67.395,26.299 C67.395,25.174 67.376,23.793 67.335,22.158 C67.296,20.524 67.242,18.604 67.171,16.399 C67.119,15.625 67.031,15.127 66.908,14.908 C66.705,14.547 66.275,14.367 65.615,14.367 L61.647,14.367 C61.445,14.367 61.172,14.412 60.83,14.5 C60.469,14.578 60.214,14.617 60.065,14.617 C60.021,14.617 60,14.596 60,14.553 C60,14.518 60.009,14.432 60.032,14.295 C60.054,14.158 60.087,13.973 60.13,13.734 C60.183,13.481 60.223,13.274 60.25,13.115 C60.276,12.957 60.293,12.848 60.302,12.785 L60.803,8.33 L61.093,8.33 C61.093,9.639 61.81,10.293 63.242,10.293 C63.375,10.293 63.545,10.287 63.756,10.274 C63.967,10.26 64.213,10.246 64.495,10.229 C64.785,10.211 65.04,10.195 65.259,10.182 C65.479,10.168 65.664,10.162 65.813,10.162 C66.797,10.162 67.536,10.373 68.028,10.795 C68.661,11.34 68.977,12.303 68.977,13.682 Z" id="Fill-24" fill="#384C62"></path>
    </g>
</svg>