<?xml version="1.0" encoding="UTF-8" standalone="no"?>
<svg width="94px" height="34px" viewBox="0 0 94 34" version="1.1" xmlns="http://www.w3.org/2000/svg" xmlns:xlink="http://www.w3.org/1999/xlink">
    <!-- Generator: Sketch 49.3 (51167) - http://www.bohemiancoding.com/sketch -->
    <title>btn/chp7/hover</title>
    <desc>Created with Sketch.</desc>
    <defs></defs>
    <g id="btn/chp7/hover" stroke="none" stroke-width="1" fill="none" fill-rule="evenodd">
        <path d="M92,23.3838854 C92,23.6427808 91.9462675,23.8524259 91.8385603,24.0130614 C91.5604581,23.8433946 91.2332221,23.7587419 90.8564892,23.7587419 L86.6186374,23.7587419 C85.7575855,23.7587419 85.0893173,23.8433946 84.6140747,24.0130614 C84.7574825,22.9511086 84.8630113,22.0542468 84.930298,21.3223555 C84.9975847,20.590705 85.031228,20.0195697 85.031228,19.6089495 C85.1476485,19.6447132 85.2911774,19.6624144 85.4616935,19.6624144 L90.6950495,19.635682 L90.3048835,17.3331987 C90.1703101,16.476556 89.9147175,15.8874786 89.5381056,15.5662075 C89.1613727,15.2449363 88.546958,15.0843007 87.6949825,15.0843007 L85.8921589,15.0843007 C85.1835913,15.0843007 84.5826097,15.3433166 84.0894563,15.8607461 C83.5869844,16.3874478 83.3359905,16.9942263 83.3359905,17.6813227 L83.3359905,21.6436266 C82.4928495,22.3845491 81.8381354,23.375095 81.3718482,24.6153846 L81.2104086,24.6153846 L81.2104086,20.5325438 C81.2104086,19.6135254 81.483912,18.5693942 82.03104,17.4001503 C82.5871234,16.213446 82.8652257,15.6733781 82.8652257,15.7804283 C82.8652257,15.5306846 82.5510597,15.3476516 81.9234539,15.2315701 C81.7169951,15.2137484 81.508479,15.1914714 81.2977845,15.1646185 C81.0869689,15.1378861 80.8784528,15.1111536 80.672236,15.0843007 C80.2774712,15.0220454 80.0846876,14.6292469 80.093764,13.9063869 L80.2686368,8.53846154 L80.5512168,8.53846154 C80.5512168,9.07383316 80.6992233,9.5604361 80.9951153,9.99754788 C81.3090392,10.4794546 81.7215938,10.7695379 82.2327791,10.8676773 L83.5244175,11.1086306 C83.99966,11.2872083 84.2373418,11.5951132 84.2373418,12.0322249 C84.2373418,12.0679886 84.2126539,12.3223082 84.1633991,12.7953041 C84.1140232,13.2684204 84.0400805,13.968883 83.9414498,14.8969327 C84.7216608,14.7275068 85.1791135,14.2811229 85.3136869,13.5582628 L85.8921589,10.5597724 C85.999745,10.7652029 86.1970064,10.8676773 86.484064,10.8676773 L89.2958251,10.8676773 C90.5515207,10.8676773 91.3676745,11.7109538 91.7444074,13.3976273 C91.9146814,14.1385498 92,15.4725234 92,17.4001503 L92,23.3838854 Z M78.3925234,7.25432077 C78.3925234,7.43350945 78.3578286,7.60034029 78.2887059,7.75454464 C78.2194497,7.90901764 78.1279088,8.04347631 78.0143501,8.15778633 C77.9005245,8.27223068 77.7669495,8.36451151 77.6137587,8.4339572 C77.4603009,8.50380586 77.2948334,8.53846154 77.1168224,8.53846154 C76.9485527,8.53846154 76.7878891,8.50380586 76.6346982,8.4339572 C76.4812405,8.36451151 76.345397,8.27223068 76.2267675,8.15778633 C76.1080045,8.04347631 76.0139283,7.90901764 75.944939,7.75454464 C75.8755494,7.60034029 75.8411215,7.43350945 75.8411215,7.25432077 C75.8411215,7.09514641 75.8755494,6.9383899 75.944939,6.7839169 C76.0139283,6.62971255 76.1080045,6.4953882 76.2267675,6.38080953 C76.345397,6.26649951 76.4812405,6.17421868 76.6346982,6.10450434 C76.7878891,6.03492433 76.9485527,6 77.1168224,6 C77.5024684,6 77.811519,6.11713083 78.0439741,6.3508552 C78.2761624,6.58498254 78.3925234,6.88613773 78.3925234,7.25432077 Z M78.3925234,13.6124186 C78.3925234,19.0806095 78.227029,22.539394 77.8965977,23.9885324 C77.7973457,24.4063939 77.6609578,24.6153846 77.487434,24.6153846 C77.3055463,24.6153846 77.1691584,24.4597813 77.0782703,24.1485747 C77.0700178,24.1309388 77.0555204,23.9664576 77.0350008,23.655131 C77.0142583,23.3440443 76.983256,22.8815534 76.9419939,22.268138 C76.9005087,21.5568257 76.8530016,20.7789291 76.7993609,19.9340883 C76.7454971,19.0894874 76.6897376,18.1693043 76.6319707,17.1734191 C76.598961,16.5866375 76.5369563,16.1910907 76.4460682,15.986419 C76.2973017,15.6575765 75.98739,15.4929753 75.5162216,15.4929753 C74.8963982,15.4929753 74.5905012,15.4975342 74.5988652,15.5062922 C74.2929681,15.4441468 74.1401869,15.2085224 74.1401869,14.7994188 C74.1401869,13.110217 74.2889535,11.3051226 74.5864865,9.38461538 L74.8468837,9.38461538 C74.8468837,10.1671909 74.9335341,10.6695125 75.1071694,10.8917001 C75.3137029,11.1673951 75.7847597,11.3051226 76.5204515,11.3051226 C77.7683507,11.3051226 78.3925234,12.0743813 78.3925234,13.6124186 Z M72.4392523,8.71922981 C72.2517879,9.88947516 72.1579352,11.8935734 72.1579352,14.7314066 C72.1579352,15.0807599 71.9749285,15.2552598 71.608915,15.2552598 L71.2539855,15.2552598 C71.1154353,15.2552598 70.9479703,15.2510181 70.7517109,15.2421812 C70.5642465,15.2335799 70.4011187,15.2291025 70.2628095,15.2291025 L69.9080005,15.2291025 C69.6400565,15.2291025 69.4659651,15.3296079 69.385606,15.530383 C69.3587393,15.643967 69.3319931,15.757551 69.3052469,15.8708994 C69.2783802,15.9844834 69.2560917,16.0980674 69.2382609,16.2115336 L70.0954649,16.3424381 C70.9525485,16.4560221 71.5285559,16.8708865 71.8232461,17.5867958 C72.019385,18.0497332 72.1178159,18.8006367 72.1178159,19.839742 C72.1178159,21.0971784 71.9883016,21.9878232 71.7293934,22.5117944 C71.3363928,23.2715348 70.5776196,23.651405 69.452592,23.651405 L64.1353969,23.651405 C63.2602416,23.651405 62.702306,23.690641 62.4612286,23.7692308 C62.5684544,22.9747317 62.6219468,22.6342153 62.6219468,22.7475637 L62.6219468,20.7042295 C62.6219468,20.54705 62.6130314,20.3878674 62.5952006,20.2260926 C62.5772493,20.0646713 62.5503827,19.8966518 62.5148415,19.7217984 C63.648664,19.9052531 64.3317767,19.9969215 64.5640592,19.9969215 L65.7292061,19.9969215 C66.1934095,19.9969215 66.7380925,19.9926798 67.3631346,19.9838429 C67.9880562,19.9752416 68.5327392,19.9707642 68.9971835,19.9707642 L70.1623305,19.9707642 C70.3944924,19.9707642 70.5106336,19.818062 70.5106336,19.5123042 C70.5106336,19.1455127 70.3097961,18.9404959 69.9080005,18.8966647 L67.2695228,18.6478167 C66.4746061,18.5867829 65.9478744,18.2024354 65.6890868,17.4951274 C65.5371635,17.0760212 65.4613825,16.3687132 65.4613825,15.3732034 C65.4613825,15.2248608 65.4165645,15.1505128 65.3274105,15.1505128 L65.3140374,15.1635914 C65.0281421,15.1635914 64.5996003,15.1766701 64.0282916,15.2029452 C63.7423963,15.2116643 63.4926445,15.2182626 63.2783133,15.2226221 C63.0639822,15.2270995 62.8853127,15.2291025 62.7425458,15.2291025 C62.4478555,15.2291025 62.3005104,15.0633217 62.3005104,14.7314066 L62.2737642,11.5353831 C62.2648488,11.4043608 62.336172,11.2821755 62.4880953,11.1685915 C62.6397777,11.0464062 62.7157995,10.8892267 62.7157995,10.6970529 L62.7157995,9.37410533 C62.3943631,9.24320092 62.2336449,9.01190897 62.2336449,8.67999383 C62.2336449,8.22601121 62.4566504,7.99884317 62.903264,7.99884317 C63.3673469,7.99884317 63.5997498,8.22601121 63.5997498,8.67999383 C63.5997498,8.99435293 63.4611996,9.20384712 63.1844606,9.30871204 C63.2022915,9.48344762 63.2156646,9.6558267 63.2247004,9.82608491 C63.2334954,9.99634312 63.2425312,10.16884 63.2515671,10.3434578 C63.3138545,10.8935862 63.4344534,11.1685915 63.6131229,11.1685915 C63.8005873,11.1685915 63.9880518,10.723328 64.1756367,9.83256532 C64.2291291,9.55320047 64.282742,9.27383561 64.3363549,8.99435293 C64.3898474,8.71498808 64.4388821,8.43562322 64.4837001,8.15602272 C64.2871997,7.95524764 64.1890098,7.74563563 64.1890098,7.52730451 C64.1890098,7.07332189 64.416714,6.84615385 64.8721225,6.84615385 C65.3274105,6.84615385 65.5551147,7.06884451 65.5551147,7.51422585 C65.5551147,7.90717473 65.3452413,8.14294406 64.9256149,8.22153383 C64.7381505,9.99422225 64.6444183,10.9066649 64.6444183,10.9590973 C64.6444183,11.2124227 64.7736916,11.3388497 65.0328407,11.3388497 C65.2470514,11.3388497 65.4389735,11.0464062 65.6087276,10.4612835 L65.8765512,9.30871204 C65.7425792,9.09049875 65.6757137,8.89832495 65.6757137,8.73230846 C65.6757137,8.31320227 65.9032974,8.10359026 66.3587059,8.10359026 C66.8141144,8.10359026 67.0418186,8.3220392 67.0418186,8.75858361 C67.0418186,9.21268405 66.7917054,9.44845338 66.2917199,9.46589159 C66.2201557,9.94614935 66.1665428,10.3129409 66.1310016,10.5661484 C66.0952196,10.8194738 66.0775092,10.9635747 66.0775092,10.9983333 C66.0775092,11.1643498 66.1264235,11.2471813 66.2247339,11.2471813 C66.3140084,11.2471813 66.4300291,11.1774284 66.573037,11.0376871 L66.573037,14.0764132 C66.573037,14.8361537 66.6443602,15.3252483 66.7873681,15.5434616 C66.9567608,15.7880679 67.3943385,15.9714048 68.0998602,16.0935901 C68.1444372,15.6744839 68.1802193,15.281535 68.2069655,14.9147434 C68.2338322,14.5479519 68.2472053,14.2031937 68.2472053,13.8799977 C68.2472053,13.0330662 68.1534731,12.0855115 67.9658882,11.0376871 C68.117691,11.0988387 68.7112882,11.1293555 69.7472823,11.1293555 L70.3766616,11.1293555 C70.7872521,11.1293555 71.1668796,10.7844796 71.5150623,10.0946098 C71.5150623,10.0771716 71.7160203,9.55756002 72.1178159,8.53589294 L72.4392523,8.71922981 Z M69.8878505,26.716465 C69.8878505,27.0492476 69.7568315,27.3440565 69.495298,27.6007635 C69.2429699,27.8668356 68.9531897,28 68.6260837,28 C68.2896462,28 67.9906607,27.8668356 67.7290011,27.6007635 C67.4674676,27.3440565 67.3364486,27.0492476 67.3364486,26.716465 C67.3364486,26.545327 67.3715047,26.3835541 67.4416168,26.2316595 C67.511729,26.07938 67.6076919,25.9463439 67.7290011,25.8322947 C67.8505624,25.7182455 67.9882648,25.6276732 68.1424863,25.5613476 C68.2967078,25.4946371 68.4578649,25.4615385 68.6260837,25.4615385 C68.9906417,25.4615385 69.2920232,25.5826436 69.5303541,25.8251105 C69.7685589,26.0675774 69.8878505,26.3646955 69.8878505,26.716465 Z M60.5327103,13.0412364 C60.5327103,14.1424125 60.320676,15.1917098 59.897267,16.1893605 C59.4329681,17.2988929 58.7975249,18.1117762 57.9910473,18.6278945 C57.9257552,18.6709527 57.8646401,18.6923077 57.8077019,18.6923077 C57.6610696,18.6923077 57.5877535,18.6107176 57.5877535,18.4471892 C57.5877535,18.4988359 57.803525,18.1549505 58.2353978,17.4150688 C58.6670507,16.6754192 58.883042,16.0044771 58.883042,15.4023585 C58.883042,14.8862402 58.7199219,14.6282391 58.394341,14.6282391 L57.2089717,14.6411218 C56.9807793,14.6411218 56.8259031,14.7487093 56.7446728,14.9636522 C56.6548687,15.1701227 56.6019976,15.2732999 56.5857295,15.2732999 C56.3820491,15.0927107 56.2803738,14.2368852 56.2803738,12.7058234 C56.2803738,10.8994675 56.3861162,9.57058199 56.5980405,8.7190507 L56.854592,8.7190507 C56.854592,9.37281596 56.9563773,9.83310942 57.1601676,10.0995829 C57.380116,10.4179351 57.7791229,10.5769371 58.357628,10.5769371 L58.7975249,9.75128721 C58.6508926,9.51057903 58.5775764,9.30410852 58.5775764,9.13199173 C58.5775764,8.73645968 58.7853238,8.53846154 59.2007087,8.53846154 C59.6242276,8.53846154 59.8361519,8.76222497 59.8361519,9.20940366 C59.8361519,9.67387527 59.6040025,9.90611108 59.1395936,9.90611108 L58.9441572,10.6028185 C59.6120266,10.6028185 60.0641245,10.8436427 60.3004509,11.3252912 C60.4552172,11.6522319 60.5327103,12.2241749 60.5327103,13.0412364 Z M55.4299065,20.4579997 C55.4299065,20.859026 55.197765,21.5822847 54.7336073,22.6282461 L53.772594,24.6153846 L53.6332841,24.4977816 C53.6425547,24.4540332 53.649445,24.4105201 53.6542056,24.367007 C53.6587156,24.3232587 53.6610959,24.2797455 53.6610959,24.2362324 C53.6610959,23.4694606 53.3592994,22.8287593 52.755957,22.3144812 L45.3190349,15.9868498 C45.0589562,16.4836051 44.9290421,16.7931363 44.9290421,16.9150906 C44.9290421,17.4379537 45.5000626,18.2269525 46.6421037,19.2813813 C47.7840194,20.3448656 48.35504,21.220773 48.35504,21.9091035 C48.35504,22.5542738 48.1135025,23.051029 47.6308035,23.3996044 C47.1943324,23.722072 46.6188018,23.8833057 45.9039613,23.8833057 L42.6728972,23.8833057 L42.6728972,23.661036 C43.2947809,23.5302614 43.6708677,23.4387662 43.800907,23.3864329 C44.2372529,23.2122628 44.4554885,22.942011 44.4554885,22.5759128 C44.4554885,22.227455 44.1675979,21.7436361 43.5920673,21.1246913 C43.0255569,20.5148019 42.7425522,19.9394879 42.7425522,19.3989843 C42.7425522,18.9806703 42.8724662,18.571059 43.1324196,18.1701502 L44.7619203,15.5553643 L43.5502242,14.5749078 C43.0395881,14.1042604 42.78427,13.6727749 42.78427,13.2805688 C42.78427,12.9756241 43.0580041,12.3176351 43.6059733,11.3064842 L44.6922653,9.38461538 L44.8454812,9.48928209 L44.8454812,9.60688512 C44.8176693,10.3042711 45.170329,10.9664938 45.9039613,11.5940236 L52.4356193,17.1241888 C52.6954474,16.4531459 52.825612,16.0390656 52.825612,15.8821831 C52.825612,15.5162025 52.3845055,15.0500241 51.5025432,14.483295 C50.6297261,13.925739 50.1933803,13.420046 50.1933803,12.9668039 C50.1933803,12.6444539 50.4718749,12.0299781 51.0289895,11.1234939 C51.2239232,10.8358369 51.4189822,10.5481798 51.613916,10.2605228 C51.8088497,9.97298338 51.9990228,9.68109264 52.1849365,9.38461538 L52.3102152,9.47611055 C52.2824033,9.62440798 52.2684974,9.7725878 52.2684974,9.92065002 C52.2684974,10.5046667 52.760467,11.0625755 53.7447821,11.5940236 C54.7287214,12.1170043 55.2210669,12.6879671 55.2210669,13.3066766 C55.2210669,13.7861442 54.9052392,14.5531512 54.2739596,15.6076977 L52.9788279,17.5556743 L54.8310741,19.1636607 C55.2300869,19.5123537 55.4299065,19.9438392 55.4299065,20.4579997 Z M35.8691589,23.3838854 C35.8691589,23.6427808 35.8154263,23.8524259 35.7077191,24.0130614 C35.4296167,23.8433946 35.1023805,23.7587419 34.7256473,23.7587419 L30.4877928,23.7587419 C29.6268614,23.7587419 28.9585927,23.8433946 28.4832288,24.0130614 C28.6266367,22.9511086 28.7321655,22.0542468 28.7994523,21.3223555 C28.866739,20.590705 28.9003824,20.0195697 28.9003824,19.6089495 C29.016803,19.6447132 29.1603319,19.6624144 29.3308481,19.6624144 L34.5642076,19.635682 L34.1740413,17.3331987 C34.0395888,16.476556 33.783875,15.8874786 33.4072629,15.5662075 C33.0305297,15.2449363 32.4161146,15.0843007 31.5641386,15.0843007 L29.7613138,15.0843007 C29.0527457,15.0843007 28.4517638,15.3433166 27.95861,15.8607461 C27.4562588,16.3874478 27.2051437,16.9942263 27.2051437,17.6813227 L27.2051437,21.6436266 C26.3621232,22.3845491 25.7072876,23.375095 25.2410002,24.6153846 L25.0795604,24.6153846 L25.0795604,20.5325438 C25.0795604,19.6135254 25.3530641,18.5693942 25.9001924,17.4001503 C26.4562762,16.213446 26.7343786,15.6733781 26.7343786,15.7804283 C26.7343786,15.5306846 26.4203335,15.3476516 25.7926062,15.2315701 C25.5861473,15.2137484 25.377631,15.1914714 25.1670574,15.1646185 C24.9561207,15.1378861 24.7476044,15.1111536 24.5415085,15.0843007 C24.1466225,15.0220454 23.9539597,14.6292469 23.9629152,13.9063869 L24.1379091,8.53846154 L24.4203682,8.53846154 C24.4203682,9.07383316 24.5683748,9.5604361 24.8643881,9.99754788 C25.1781912,10.4794546 25.590867,10.7695379 26.1020526,10.8676773 L27.3935708,11.1086306 C27.8688137,11.2872083 28.1066167,11.5951132 28.1066167,12.0322249 C28.1066167,12.0679886 28.0818077,12.3223082 28.0325528,12.7953041 C27.983177,13.2684204 27.9092341,13.968883 27.8106034,14.8969327 C28.590936,14.7275068 29.048268,14.2811229 29.1828415,13.5582628 L29.7613138,10.5597724 C29.869021,10.7652029 30.0661615,10.8676773 30.3533403,10.8676773 L33.1649822,10.8676773 C34.4206786,10.8676773 35.236954,11.7109538 35.6135661,13.3976273 C35.7838403,14.1385498 35.8691589,15.4725234 35.8691589,17.4001503 L35.8691589,23.3838854 Z M27.680437,28 C27.4697679,28 27.364486,27.8621606 27.364486,27.5869614 L27.364486,26.7074264 C27.364486,26.440977 27.4697679,26.3076923 27.680437,26.3076923 L32.163025,26.3076923 C32.365798,26.3076923 32.4672897,26.440977 32.4672897,26.7074264 L32.4672897,27.5869614 C32.4672897,27.8621606 32.365798,28 32.163025,28 L27.680437,28 Z M15.4579439,17.4082349 C15.4579439,17.5874141 15.4232509,17.7542361 15.3541319,17.9084323 C15.2847459,18.0628971 15.1932098,18.1972143 15.079657,18.3115183 C14.9658373,18.4260909 14.8324028,18.5182325 14.6792199,18.5878089 C14.5257702,18.6575195 14.3603114,18.6923077 14.1823097,18.6923077 C14.004308,18.6923077 13.8385823,18.6575195 13.6853995,18.5878089 C13.5319498,18.5182325 13.3983818,18.4260909 13.284829,18.3115183 C13.1710093,18.1972143 13.0794732,18.0628971 13.0104876,17.9084323 C12.9411016,17.7542361 12.9065421,17.5874141 12.9065421,17.4082349 C12.9065421,17.0897687 13.04011,16.8011209 13.3071125,16.5421573 C13.5838558,16.2834623 13.8756771,16.1538462 14.1823097,16.1538462 C14.5479204,16.1538462 14.8521511,16.2711051 15.0946017,16.5048171 C15.3367854,16.7387977 15.4579439,17.0400713 15.4579439,17.4082349 Z M23.1121495,8.71922981 C22.9246851,9.88947516 22.8308324,11.8935734 22.8308324,14.7314066 C22.8308324,15.0807599 22.6478257,15.2552598 22.2818122,15.2552598 L21.9268827,15.2552598 C21.7883325,15.2552598 21.6208675,15.2510181 21.4246081,15.2421812 C21.2371437,15.2335799 21.0740159,15.2291025 20.9357067,15.2291025 L20.5808977,15.2291025 C20.3129536,15.2291025 20.1388623,15.3296079 20.0585032,15.530383 C20.031757,15.643967 20.0048903,15.757551 19.9781441,15.8708994 C19.9513979,15.9844834 19.9289889,16.0980674 19.9111581,16.2115336 L20.7683621,16.3424381 C21.6255662,16.4560221 22.2014531,16.8708865 22.4961433,17.5867958 C22.6922822,18.0497332 22.7907131,18.8006367 22.7907131,19.839742 C22.7907131,21.0971784 22.6611988,21.9878232 22.4022906,22.5117944 C22.00929,23.2715348 21.2505168,23.651405 20.1254892,23.651405 L14.8084146,23.651405 C13.9331388,23.651405 13.3753236,23.690641 13.1342463,23.7692308 C13.2413516,22.9747317 13.2949645,22.6342153 13.2949645,22.7475637 L13.2949645,20.7042295 C13.2949645,20.54705 13.2859286,20.3878674 13.2680978,20.2260926 C13.2501465,20.0646713 13.2232799,19.8966518 13.1877387,19.7217984 C14.3215612,19.9052531 15.0046739,19.9969215 15.2369564,19.9969215 L16.4022238,19.9969215 C16.8663067,19.9969215 17.4111101,19.9926798 18.0361522,19.9838429 C18.6610739,19.9752416 19.2057569,19.9707642 19.6700807,19.9707642 L20.8352277,19.9707642 C21.0673896,19.9707642 21.1835308,19.818062 21.1835308,19.5123042 C21.1835308,19.1455127 20.9826933,18.9404959 20.5808977,18.8966647 L17.94242,18.6478167 C17.1476238,18.5867829 16.6207716,18.2024354 16.361984,17.4951274 C16.2100607,17.0760212 16.1342797,16.3687132 16.1342797,15.3732034 C16.1342797,15.2248608 16.0894617,15.1505128 16.0003077,15.1505128 L15.9869346,15.1635914 C15.7010393,15.1635914 15.2724975,15.1766701 14.7011888,15.2029452 C14.4152935,15.2116643 14.1655417,15.2182626 13.9512105,15.2226221 C13.7368794,15.2270995 13.5582099,15.2291025 13.415443,15.2291025 C13.1207527,15.2291025 12.9735281,15.0633217 12.9735281,14.7314066 L12.9466614,11.5353831 C12.937746,11.4043608 13.0090692,11.2821755 13.1609925,11.1685915 C13.3126748,11.0464062 13.3886967,10.8892267 13.3886967,10.6970529 L13.3886967,9.37410533 C13.0672603,9.24320092 12.9065421,9.01190897 12.9065421,8.67999383 C12.9065421,8.22601121 13.1295476,7.99884317 13.5761612,7.99884317 C14.0403646,7.99884317 14.272647,8.22601121 14.272647,8.67999383 C14.272647,8.99435293 14.1340968,9.20384712 13.8573578,9.30871204 C13.8751886,9.48344762 13.8885618,9.6558267 13.8975976,9.82608491 C13.9063926,9.99634312 13.9154284,10.16884 13.9244643,10.3434578 C13.9867517,10.8935862 14.1073506,11.1685915 14.2860201,11.1685915 C14.4734845,11.1685915 14.660949,10.723328 14.8485339,9.83256532 C14.9020263,9.55320047 14.9556392,9.27383561 15.0092521,8.99435293 C15.0627445,8.71498808 15.1117793,8.43562322 15.1565972,8.15602272 C14.9600969,7.95524764 14.861907,7.74563563 14.861907,7.52730451 C14.861907,7.07332189 15.0896112,6.84615385 15.5450197,6.84615385 C16.0003077,6.84615385 16.2280119,7.06884451 16.2280119,7.51422585 C16.2280119,7.90717473 16.0181385,8.14294406 15.5985121,8.22153383 C15.4110477,9.99422225 15.3173155,10.9066649 15.3173155,10.9590973 C15.3173155,11.2124227 15.4465888,11.3388497 15.7057379,11.3388497 C15.9199486,11.3388497 16.1118707,11.0464062 16.2816248,10.4612835 L16.5494484,9.30871204 C16.4154764,9.09049875 16.3486109,8.89832495 16.3486109,8.73230846 C16.3486109,8.31320227 16.5761946,8.10359026 17.0316031,8.10359026 C17.4870116,8.10359026 17.7147158,8.3220392 17.7147158,8.75858361 C17.7147158,9.21268405 17.4646026,9.44845338 16.9646171,9.46589159 C16.8930529,9.94614935 16.83944,10.3129409 16.8038988,10.5661484 C16.7681168,10.8194738 16.7504064,10.9635747 16.7504064,10.9983333 C16.7504064,11.1643498 16.7993207,11.2471813 16.8976311,11.2471813 C16.9869056,11.2471813 17.1029263,11.1774284 17.2459342,11.0376871 L17.2459342,14.0764132 C17.2459342,14.8361537 17.3172574,15.3252483 17.4602653,15.5434616 C17.6297785,15.7880679 18.0672357,15.9714048 18.7727574,16.0935901 C18.8173344,15.6744839 18.8531165,15.281535 18.8798627,14.9147434 C18.9067294,14.5479519 18.9201025,14.2031937 18.9201025,13.8799977 C18.9201025,13.0330662 18.8263703,12.0855115 18.6387854,11.0376871 C18.7905882,11.0988387 19.3841854,11.1293555 20.4201795,11.1293555 L21.0495588,11.1293555 C21.4601493,11.1293555 21.8397768,10.7844796 22.1879595,10.0946098 C22.1879595,10.0771716 22.3889175,9.55756002 22.7907131,8.53589294 L23.1121495,8.71922981 Z M15.7739937,28 C15.5633289,28 15.4579439,27.8621606 15.4579439,27.5869614 L15.4579439,26.7074264 C15.4579439,26.440977 15.5633289,26.3076923 15.7739937,26.3076923 L20.2563839,26.3076923 C20.459258,26.3076923 20.5607477,26.440977 20.5607477,26.7074264 L20.5607477,27.5869614 C20.5607477,27.8621606 20.459258,28 20.2563839,28 L15.7739937,28 Z M3.55140187,20.6480101 C3.55140187,21.0815927 3.37389034,21.6215238 3.01930237,22.267697 L2.07616362,23.7692308 L1.93106535,23.6863853 C1.94716321,23.6075811 1.95521214,23.5327118 1.95521214,23.4617774 C1.95521214,23.0125615 1.79390724,22.4686956 1.47151499,21.8302858 C1.15717166,21.1841126 1,20.7742457 1,20.6007914 C1,20.4274434 1.2094897,19.9309025 1.62879542,19.1111687 C2.04777483,18.283565 2.31382458,17.8619998 2.4268359,17.8461538 L3.14025385,19.2057124 C3.41413499,19.7731878 3.55140187,20.2539891 3.55140187,20.6480101 Z M11.2056075,19.1987864 C11.2056075,19.9795811 11.0315161,20.9200783 10.683213,22.0201583 C10.5045435,22.588096 10.317079,23.0870767 10.1206992,23.5173398 C9.92419888,23.9478423 9.71432545,24.3135779 9.49131987,24.6153846 L9.30373495,24.4955478 C9.41096076,24.2027199 9.46445318,23.7724568 9.46445318,23.2046388 C9.46445318,21.6520283 9.21879766,20.2767188 8.72784805,19.0789497 C8.59387603,18.7508052 8.52689002,18.5067022 8.52689002,18.3469996 C8.52689002,18.0631505 8.69206595,17.5929019 9.02253829,16.9362538 C9.35276967,16.2797255 9.51806608,15.8361738 9.51806608,15.6053593 C9.51806608,15.4456568 9.31710806,15.3658055 8.91531249,15.3658055 L1.44191489,15.3658055 C1.14722464,15.3658055 1,15.1574978 1,14.7402839 L1,9.25724274 L1.28119666,9.25724274 C1.28119666,10.5348632 1.77672445,11.1736734 2.76790051,11.1736734 L5.0179557,11.1736734 L5.0179557,9.85606745 C4.75001167,9.66978771 4.61616013,9.44807172 4.61616013,9.19068006 C4.61616013,8.75598743 4.84820159,8.53846154 5.31252547,8.53846154 C5.77672886,8.53846154 6.00901128,8.75598743 6.00901128,9.19068006 C6.00901128,9.51008516 5.84829305,9.74089964 5.5268566,9.88264464 L5.5268566,11.1736734 L9.67878431,11.1736734 C10.2680443,11.1736734 10.6698399,11.1336879 10.884171,11.0538366 L10.9779032,11.1469765 C10.683213,13.5604723 10.5359884,14.882388 10.5359884,15.1129631 C10.5359884,15.5567542 10.6474309,16.2175923 10.8707979,17.0959564 C11.0938035,17.9743204 11.2056075,18.6752638 11.2056075,19.1987864 Z" id="Fill-1" fill="#384C62"></path>
    </g>
</svg>