<?xml version="1.0" encoding="UTF-8" standalone="no"?>
<svg width="94px" height="34px" viewBox="0 0 94 34" version="1.1" xmlns="http://www.w3.org/2000/svg" xmlns:xlink="http://www.w3.org/1999/xlink">
    <!-- Generator: Sketch 49.3 (51167) - http://www.bohemiancoding.com/sketch -->
    <title>img/indexclose/chp11-normal</title>
    <desc>Created with Sketch.</desc>
    <defs></defs>
    <g id="img/indexclose/chp11-normal" stroke="none" stroke-width="1" fill="none" fill-rule="evenodd">
        <path d="M91.48,8.215 C91.296,9.393 91.204,11.41 91.204,14.268 C91.204,14.619 91.023,14.795 90.664,14.795 L90.314,14.795 C90.177,14.795 90.013,14.789 89.82,14.781 C89.634,14.772 89.474,14.768 89.338,14.768 L88.989,14.768 C88.725,14.768 88.554,14.869 88.474,15.07 C88.449,15.186 88.421,15.299 88.396,15.414 C88.369,15.527 88.347,15.643 88.33,15.756 L89.173,15.889 C90.017,16.002 90.584,16.42 90.875,17.141 C91.068,17.608 91.164,18.363 91.164,19.408 C91.164,20.674 91.037,21.57 90.782,22.098 C90.395,22.863 89.648,23.244 88.541,23.244 L83.306,23.244 C82.445,23.244 81.896,23.285 81.659,23.363 C81.764,22.565 81.817,22.221 81.817,22.336 L81.817,20.279 C81.817,20.121 81.808,19.961 81.791,19.797 C81.773,19.635 81.747,19.465 81.711,19.289 C82.828,19.475 83.5,19.567 83.728,19.567 L84.876,19.567 C85.333,19.567 85.869,19.563 86.484,19.553 C87.099,19.545 87.635,19.541 88.092,19.541 L89.24,19.541 C89.468,19.541 89.582,19.387 89.582,19.078 C89.582,18.709 89.384,18.504 88.989,18.459 L86.392,18.209 C85.609,18.147 85.091,17.76 84.835,17.049 C84.687,16.627 84.612,15.914 84.612,14.912 C84.612,14.764 84.568,14.69 84.48,14.69 L84.466,14.701 C84.185,14.701 83.763,14.715 83.201,14.742 C82.919,14.75 82.673,14.758 82.462,14.762 C82.251,14.766 82.076,14.768 81.935,14.768 C81.646,14.768 81.501,14.602 81.501,14.268 L81.474,11.051 C81.465,10.918 81.536,10.795 81.685,10.682 C81.834,10.559 81.91,10.401 81.91,10.207 L81.91,8.875 C81.593,8.742 81.435,8.51 81.435,8.176 C81.435,7.719 81.654,7.49 82.093,7.49 C82.55,7.49 82.779,7.719 82.779,8.176 C82.779,8.492 82.643,8.703 82.371,8.809 C82.388,8.985 82.402,9.158 82.41,9.33 C82.419,9.5 82.427,9.674 82.437,9.85 C82.498,10.404 82.617,10.682 82.792,10.682 C82.977,10.682 83.162,10.233 83.346,9.336 L83.504,8.492 C83.557,8.211 83.605,7.93 83.65,7.649 C83.457,7.447 83.359,7.236 83.359,7.016 C83.359,6.559 83.584,6.33 84.032,6.33 C84.48,6.33 84.705,6.555 84.705,7.002 C84.705,7.399 84.498,7.635 84.084,7.715 C83.9,9.498 83.808,10.418 83.808,10.471 C83.808,10.725 83.935,10.852 84.19,10.852 C84.401,10.852 84.589,10.559 84.757,9.969 L85.021,8.809 C84.888,8.59 84.823,8.397 84.823,8.229 C84.823,7.807 85.046,7.596 85.496,7.596 C85.943,7.596 86.168,7.817 86.168,8.256 C86.168,8.713 85.921,8.949 85.429,8.967 C85.359,9.451 85.306,9.82 85.271,10.074 C85.236,10.33 85.218,10.475 85.218,10.51 C85.218,10.676 85.267,10.76 85.363,10.76 C85.451,10.76 85.566,10.69 85.707,10.549 L85.707,13.608 C85.707,14.373 85.777,14.865 85.918,15.084 C86.084,15.33 86.515,15.516 87.209,15.639 C87.253,15.217 87.289,14.82 87.314,14.451 C87.341,14.082 87.354,13.735 87.354,13.41 C87.354,12.557 87.261,11.604 87.078,10.549 C87.226,10.611 87.811,10.641 88.831,10.641 L89.451,10.641 C89.855,10.641 90.228,10.295 90.571,9.6 C90.571,9.582 90.769,9.059 91.164,8.031 L91.48,8.215 Z M89.793,25.592 C90.021,25.592 90.136,25.723 90.136,25.986 L90.136,26.858 C90.136,27.129 90.021,27.266 89.793,27.266 L87.71,27.266 C87.71,27.688 87.789,28.074 87.947,28.426 L88.251,29.098 C88.321,29.256 88.356,29.41 88.356,29.561 C88.356,29.867 88.248,30.125 88.033,30.33 C87.818,30.537 87.565,30.641 87.275,30.641 C87.126,30.641 86.985,30.611 86.853,30.555 C86.721,30.498 86.605,30.418 86.503,30.319 C86.403,30.217 86.324,30.102 86.266,29.975 C86.209,29.848 86.181,29.709 86.181,29.561 C86.181,29.41 86.216,29.256 86.287,29.098 L86.576,28.426 C86.761,28.031 86.853,27.645 86.853,27.266 L84.744,27.266 C84.506,27.266 84.388,27.129 84.388,26.858 L84.388,25.986 C84.388,25.723 84.506,25.592 84.744,25.592 L89.793,25.592 Z M80.117,21.426 C80.117,22.639 79.843,23.496 79.298,23.996 C78.781,24.463 77.915,24.695 76.702,24.695 L71.613,24.695 C71.138,24.695 70.712,24.809 70.334,25.037 L70.281,24.973 C70.421,24.682 70.492,24.299 70.492,23.824 L70.492,21.848 C70.492,21.338 70.421,20.959 70.281,20.713 L70.334,20.621 C70.449,20.762 70.73,20.832 71.177,20.832 L77.229,20.832 C78.02,20.832 78.416,20.367 78.416,19.436 C78.416,19.26 78.412,19.041 78.402,18.781 C78.394,18.524 78.38,18.217 78.363,17.865 C78.345,17.514 78.332,17.207 78.324,16.944 C78.314,16.68 78.31,16.459 78.31,16.283 C78.31,15.977 78.321,15.674 78.343,15.375 C78.365,15.076 78.398,14.785 78.442,14.504 L71.797,14.504 L71.797,15.414 C71.797,15.889 71.956,16.125 72.272,16.125 L73.669,16.125 C74.091,16.125 74.464,16.043 74.791,15.875 L74.856,15.942 C74.733,16.195 74.668,16.561 74.658,17.035 L74.658,18.182 C74.623,18.93 74.359,19.303 73.867,19.303 C73.947,19.303 73.599,19.289 72.826,19.264 C72.562,19.254 72.325,19.252 72.114,19.256 C71.903,19.262 71.714,19.272 71.546,19.289 C71.089,19.342 70.791,19.453 70.65,19.619 L70.584,19.553 C70.672,19.176 70.736,18.725 70.775,18.201 C70.816,17.68 70.835,17.08 70.835,16.403 L70.835,12.078 C70.835,11.42 70.82,10.744 70.789,10.055 C70.757,9.365 70.712,8.647 70.65,7.899 L70.835,7.873 C71.046,8.067 71.244,8.602 71.428,9.481 C71.586,10.194 71.845,10.549 72.207,10.549 L77.545,10.549 C78.424,10.549 79.14,10.418 79.695,10.154 L79.853,10.207 C79.544,11.358 79.391,12.51 79.391,13.66 C79.391,14.531 79.509,15.826 79.748,17.549 C79.871,18.42 79.962,19.176 80.024,19.817 C80.085,20.459 80.117,20.994 80.117,21.426 Z M66.366,18.539 C66.366,18.697 66.335,18.844 66.273,18.981 C66.212,19.117 66.13,19.235 66.029,19.336 C65.928,19.438 65.81,19.518 65.673,19.58 C65.537,19.641 65.39,19.672 65.232,19.672 C65.074,19.672 64.926,19.641 64.791,19.58 C64.654,19.518 64.535,19.438 64.435,19.336 C64.334,19.235 64.251,19.117 64.191,18.981 C64.128,18.844 64.098,18.697 64.098,18.539 C64.098,18.258 64.216,18.002 64.455,17.774 C64.701,17.545 64.959,17.432 65.232,17.432 C65.557,17.432 65.828,17.535 66.043,17.74 C66.257,17.947 66.366,18.213 66.366,18.539 Z M68.593,12.803 C68.593,18.209 68.418,21.627 68.066,23.061 C67.96,23.473 67.816,23.68 67.631,23.68 C67.438,23.68 67.293,23.526 67.197,23.219 C67.187,23.201 67.171,23.039 67.15,22.731 C67.128,22.424 67.095,21.967 67.051,21.36 C67.007,20.656 66.957,19.887 66.9,19.053 C66.842,18.217 66.783,17.309 66.722,16.324 C66.687,15.744 66.621,15.352 66.524,15.151 C66.366,14.824 66.037,14.662 65.535,14.662 C64.876,14.662 64.55,14.666 64.56,14.676 C64.234,14.613 64.072,14.381 64.072,13.977 C64.072,12.307 64.23,10.524 64.546,8.625 L64.824,8.625 C64.824,9.399 64.916,9.895 65.1,10.113 C65.32,10.387 65.821,10.524 66.603,10.524 C67.93,10.524 68.593,11.283 68.593,12.803 Z M62.582,7.94 C62.582,8.397 62.332,8.625 61.831,8.625 C61.734,9.143 61.662,9.539 61.613,9.811 C61.564,10.084 61.541,10.242 61.541,10.285 C61.541,10.426 61.593,10.496 61.699,10.496 C61.795,10.496 61.959,10.436 62.187,10.313 L62.187,13.924 C62.187,14.328 62.125,14.531 62.001,14.531 C61.949,14.531 61.857,14.508 61.725,14.465 C61.593,14.42 61.492,14.399 61.421,14.399 C60.929,14.399 60.683,14.602 60.683,15.006 C60.683,15.084 60.802,15.721 61.04,16.916 C61.47,19.061 61.685,20.719 61.685,21.887 C61.685,23.17 61.488,25.276 61.092,28.201 C60.917,29.459 60.741,30.088 60.565,30.088 C60.38,30.088 60.289,29.766 60.289,29.125 C60.289,26.629 59.857,23.908 58.996,20.965 C58.917,20.719 58.877,20.508 58.877,20.332 C58.877,20.182 58.908,19.981 58.97,19.725 L59.523,17.379 C59.726,16.412 59.827,15.615 59.827,14.992 C59.827,14.658 59.611,14.465 59.181,14.412 C59.216,14.42 58.882,14.426 58.179,14.426 C57.828,14.426 57.652,14.244 57.652,13.885 L57.652,10.51 C57.757,10.553 57.832,10.576 57.876,10.576 C58.06,10.576 58.162,10.303 58.179,9.758 L58.152,8.703 C57.828,8.572 57.665,8.344 57.665,8.018 C57.665,7.561 57.888,7.332 58.337,7.332 C58.794,7.332 59.023,7.561 59.023,8.018 C59.023,8.317 58.886,8.52 58.614,8.625 L58.614,9.111 C58.614,9.27 58.619,9.434 58.626,9.6 C58.662,10.102 58.781,10.352 58.983,10.352 C59.15,10.352 59.259,10.236 59.312,10.008 L59.972,7.319 C59.779,7.117 59.681,6.903 59.681,6.674 C59.681,6.225 59.906,6 60.354,6 C60.802,6 61.027,6.229 61.027,6.686 C61.027,7.065 60.824,7.297 60.419,7.385 L60.13,10.035 C60.085,10.299 60.209,10.43 60.5,10.43 C60.683,10.43 60.881,10.154 61.092,9.6 L61.449,8.492 C61.308,8.274 61.238,8.07 61.238,7.887 C61.238,7.465 61.457,7.254 61.896,7.254 C62.353,7.254 62.582,7.483 62.582,7.94 Z" id="Fill-24" fill="#FBF9ED"></path>
    </g>
</svg>