<?xml version="1.0" encoding="UTF-8" standalone="no"?>
<svg width="50px" height="50px" viewBox="0 0 50 50" version="1.1" xmlns="http://www.w3.org/2000/svg" xmlns:xlink="http://www.w3.org/1999/xlink">
    <!-- Generator: Sketch 49.3 (51167) - http://www.bohemiancoding.com/sketch -->
    <title>btn/music/Playlist/normal</title>
    <desc>Created with Sketch.</desc>
    <defs></defs>
    <g id="btn/music/Playlist/normal" stroke="none" stroke-width="1" fill="none" fill-rule="evenodd">
        <path d="M9,26 L20,26 C20.552,26 21,25.553 21,25 C21,24.448 20.552,24 20,24 L9,24 C8.448,24 8,24.448 8,25 C8,25.553 8.448,26 9,26 L9,26 Z M15,30 L9,30 C8.448,30 8,30.447 8,31 C8,31.553 8.448,32 9,32 L15,32 C15.552,32 16,31.553 16,31 C16,30.447 15.552,30 15,30 L15,30 Z M9,20 L27,20 C27.552,20 28,19.553 28,19 C28,18.447 27.552,18 27,18 L9,18 C8.448,18 8,18.447 8,19 C8,19.553 8.448,20 9,20 L9,20 Z M9,14 L27,14 C27.552,14 28,13.553 28,13 C28,12.447 27.552,12 27,12 L9,12 C8.448,12 8,12.447 8,13 C8,13.553 8.448,14 9,14 L9,14 Z" id="Fill-120" fill="#FBF9ED"></path>
        <path d="M40.1434432,18.0087025 C40.1434432,18.0087025 38.4597798,17.7401311 36.9636902,18.0833057 L35.0597699,18.5202671 C32.5668398,19.0924616 31.5564997,20.4102141 32.0299338,22.4725774 C32.3525037,23.8777222 32.5791552,24.083769 33.7623852,25.4465203 C33.630231,26.1688685 33.5248392,26.9565832 33.445973,27.8096646 C33.3761066,28.5665908 33.3358445,29.3860415 33.3211607,30.2613854 C33.6825717,31.2736201 34.197452,32.8698912 34.4629445,33.6784475 C34.8049349,34.718392 35.2305283,35.5425794 34.9183791,37.1902438 C34.8757487,37.5156557 34.7945142,37.8436728 34.6742017,38.1690847 C34.6742017,38.1693216 34.6739649,38.1697953 34.6739649,38.1702689 L34.6737281,38.1700321 C34.2133199,39.4143656 33.2025062,40.6148846 31.7824407,41.4395457 C29.1111735,42.9898707 26.0043658,42.6251441 24.842451,40.6238844 C23.6810099,38.6228615 24.9040282,35.7436527 27.5748218,34.1930909 C29.0495963,33.3369307 30.6555776,33.0676488 31.9955926,33.3326677 C32.4893946,32.2463034 32.690231,31.1222823 32.7913598,30.3456988 C32.497447,29.7971878 32.1710877,29.2126779 31.8082558,28.5881428 C31.3646629,27.8250589 30.8656506,26.9880824 30.3105083,26.07745 C30.7029446,24.6157015 31.2471925,24.286737 30.890992,22.7338069 C30.8180467,22.4166842 30.6259731,21.8523053 30.3147713,21.040907 C30.0030958,20.2295087 28.4077721,12.0792897 32.200929,11.7105369 L32.5500244,11.6302497 C32.4827632,11.2491814 32.4088705,10.8311668 32.3276359,10.3709955 C32.6044966,10.4742558 32.851516,10.5102548 33.0694046,10.4801767 C33.3663963,10.4392041 33.49784,10.2949713 33.4637357,10.0470046 C33.4540254,9.97784864 33.2797145,9.59322785 32.9405661,8.89314221 C32.3861343,8.9698769 32.0730378,8.75104093 32.0017503,8.23592379 C31.9304629,7.72104348 32.1474042,7.42831485 32.6523374,7.35844838 C33.1575074,7.28858192 33.4421837,7.48657637 33.5066029,7.95195806 C33.5326548,8.14024226 33.4817352,8.38939317 33.3528967,8.69988447 L33.92817,9.57404417 C34.2386613,9.9956113 34.4979962,10.1917111 34.7061745,10.1628171 C34.9536676,10.1287128 35.0616646,9.99774282 35.0301655,9.76967027 C35.0244814,9.73035558 34.778883,8.71977865 34.292423,6.73793946 C33.8246729,6.71165072 33.5613119,6.48594652 33.502103,6.05987952 C33.4322366,5.5549463 33.6498884,5.26742805 34.1548216,5.19756159 C34.6599916,5.12769512 34.9467994,5.34013654 35.0154817,5.8353595 C35.0467439,6.06319522 34.9662199,6.31660917 34.7724885,6.59560135 L35.9389031,9.55320265 C36.0324532,9.79264331 36.1586865,9.90111395 36.3168925,9.87908825 C36.4952297,9.8546942 36.6292785,9.61927975 36.7188023,9.17260806 L36.832957,8.24847607 C36.5099135,8.17197821 36.3251818,7.97043123 36.280183,7.64359829 C36.2088956,7.12871798 36.4308104,6.83551567 36.9456907,6.7642282 C37.4409137,6.69554591 37.7241689,6.91911859 37.7954564,7.4339989 C37.843534,7.78072602 37.6993012,8.05261314 37.3632316,8.25060759 C37.3487847,8.72735738 37.3355219,9.08734729 37.3236801,9.33105099 C37.3118383,9.57499152 37.3075753,9.70690887 37.3104173,9.72656621 C37.3350482,9.90490332 37.4463609,9.98045383 37.6443553,9.95298092 C37.6642495,9.95013889 37.6869857,9.94208649 37.7083009,9.93663927 C37.7248794,9.92906054 37.7409842,9.92124497 37.7577995,9.91390307 C38.6767211,9.5067829 39.6539043,9.3291563 39.9904475,8.55991471 L40.3468848,8.71054206 C39.6799562,10.9514792 39.7872426,13.883976 40.0321305,15.2114388 C40.250256,16.3186446 40.6829544,16.8799446 40.1434432,18.0087025" id="Fill-1" fill="#FBF9ED" transform="translate(32.403552, 23.792387) rotate(11.000000) translate(-32.403552, -23.792387) "></path>
    </g>
</svg>