<?xml version="1.0" encoding="UTF-8" standalone="no"?>
<svg width="100px" height="41px" viewBox="0 0 100 41" version="1.1" xmlns="http://www.w3.org/2000/svg" xmlns:xlink="http://www.w3.org/1999/xlink">
    <!-- Generator: Sketch 49.3 (51167) - http://www.bohemiancoding.com/sketch -->
    <title>img/general/nav_down</title>
    <desc>Created with Sketch.</desc>
    <defs>
        <path d="M81.2436441,16.311024 C83.0806312,12.7085327 84,7.51198595 84,1.18926863 C84,0.396668872 83.7531778,0 83.2605838,0 L16.7075254,0 C16.1890238,0 15.9555055,0.396668872 16.0069705,1.18926863 C16.2404888,7.04188721 16.8507172,13.0841689 17.8366055,15.6276466 C19.4712334,19.7847364 22.5066209,21.8625433 26.9438182,21.8625433 L39.3591481,21.8625433 C41.0459413,21.8625433 42.7712457,22.3414979 44.5354115,23.2983001 C45.1841512,23.6813162 46.0664092,24.7890371 47.1818353,26.6207248 C48.1421661,28.2074002 49.0888429,29 50.022916,29 C50.3866723,28.6996386 50.6979133,28.3918974 50.9569891,28.0771453 C51.216765,27.7631311 51.4376796,27.4277153 51.6186825,27.0720048 C52.2936799,25.6229642 53.409106,24.405652 54.9656611,23.4211752 C56.5750816,22.3824562 58.1183328,21.8625433 59.5971652,21.8625433 L73.1415753,21.8625433 C76.7339756,21.8625433 79.433965,19.8603802 81.2436441,16.311393 L81.2436441,16.311024 Z" id="path-1"></path>
        <filter x="-11.8%" y="-17.2%" width="129.4%" height="169.0%" filterUnits="objectBoundingBox" id="filter-2">
            <feOffset dx="2" dy="5" in="SourceAlpha" result="shadowOffsetOuter1"></feOffset>
            <feGaussianBlur stdDeviation="2.5" in="shadowOffsetOuter1" result="shadowBlurOuter1"></feGaussianBlur>
            <feColorMatrix values="0 0 0 0 0   0 0 0 0 0   0 0 0 0 0  0 0 0 0.15 0" type="matrix" in="shadowBlurOuter1"></feColorMatrix>
        </filter>
    </defs>
    <g id="img/general/nav_down" stroke="none" stroke-width="1" fill="none" fill-rule="evenodd">
        <g id="Fill-1">
            <use fill="black" fill-opacity="1" filter="url(#filter-2)" xlink:href="#path-1"></use>
            <use fill="#384C62" fill-rule="evenodd" xlink:href="#path-1"></use>
        </g>
    </g>
</svg>