<?xml version="1.0" encoding="UTF-8" standalone="no"?>
<svg width="40px" height="40px" viewBox="0 0 40 40" version="1.1" xmlns="http://www.w3.org/2000/svg" xmlns:xlink="http://www.w3.org/1999/xlink">
    <!-- Generator: Sketch 49.3 (51167) - http://www.bohemiancoding.com/sketch -->
    <title>btn/tools/mail/hover</title>
    <desc>Created with Sketch.</desc>
    <defs></defs>
    <g id="btn/tools/mail/hover" stroke="none" stroke-width="1" fill="none" fill-rule="evenodd">
        <rect id="btn/tools/facebook/normal" fill="#FBF9ED" x="0" y="0" width="40" height="40" rx="3"></rect>
        <path d="M28.6589844,17.6229167 C28.7960938,17.5098958 29,17.615625 29,17.7942708 L29,25.25 C29,26.2161458 28.2441406,27 27.3125,27 L12.6875,27 C11.7558594,27 11,26.2161458 11,25.25 L11,17.7979167 C11,17.615625 11.2003906,17.5135417 11.3410156,17.6265625 C12.1285156,18.2609375 13.1726562,19.0666667 16.7585937,21.7682292 C17.5003906,22.3296875 18.7519531,23.5109375 20,23.5036458 C21.2550781,23.5145833 22.53125,22.3078125 23.2449219,21.7682292 C26.8308594,19.0666667 27.8714844,18.2572917 28.6589844,17.6229167 Z M20,22.3333333 C20.815625,22.3479167 21.9898437,21.26875 22.5804687,20.8239583 C27.2457031,17.3130208 27.6007812,17.0067708 28.6765625,16.1317708 C28.8804687,15.9677083 29,15.7125 29,15.4427083 L29,14.75 C29,13.7838542 28.2441406,13 27.3125,13 L12.6875,13 C11.7558594,13 11,13.7838542 11,14.75 L11,15.4427083 C11,15.7125 11.1195312,15.9640625 11.3234375,16.1317708 C12.3992187,17.003125 12.7542969,17.3130208 17.4195312,20.8239583 C18.0101562,21.26875 19.184375,22.3479167 20,22.3333333 Z" id="Shape" fill="#384C62" fill-rule="nonzero"></path>
    </g>
</svg>