<?xml version="1.0" encoding="UTF-8" standalone="no"?>
<svg width="16px" height="22px" viewBox="0 0 16 22" version="1.1" xmlns="http://www.w3.org/2000/svg" xmlns:xlink="http://www.w3.org/1999/xlink">
    <!-- Generator: Sketch 49.1 (51147) - http://www.bohemiancoding.com/sketch -->
    <title>btn/player/pause/hover</title>
    <desc>Created with Sketch.</desc>
    <defs></defs>
    <g id="btn/player/pause/hover" stroke="none" stroke-width="1" fill="none" fill-rule="evenodd">
        <path d="M11,0 C10.1325714,0 9.42857143,0.704 9.42857143,1.57142857 L9.42857143,20.4285714 C9.42857143,21.296 10.1325714,22 11,22 L14.1428571,22 C15.0102857,22 15.7142857,21.296 15.7142857,20.4285714 L15.7142857,1.57142857 C15.7142857,0.704 15.0102857,0 14.1428571,0 L11,0 Z M1.57142857,0 C0.704,0 0,0.704 0,1.57142857 L0,20.4285714 C0,21.296 0.704,22 1.57142857,22 L4.71428571,22 C5.58171429,22 6.28571429,21.296 6.28571429,20.4285714 L6.28571429,1.57142857 C6.28571429,0.704 5.58171429,0 4.71428571,0 L1.57142857,0 Z" id="pause" fill="#FA7F8E"></path>
    </g>
</svg>