<?xml version="1.0" encoding="UTF-8" standalone="no"?>
<svg width="94px" height="34px" viewBox="0 0 94 34" version="1.1" xmlns="http://www.w3.org/2000/svg" xmlns:xlink="http://www.w3.org/1999/xlink">
    <!-- Generator: Sketch 49.3 (51167) - http://www.bohemiancoding.com/sketch -->
    <title>btn/chp6/hover</title>
    <desc>Created with Sketch.</desc>
    <defs></defs>
    <g id="btn/chp6/hover" stroke="none" stroke-width="1" fill="none" fill-rule="evenodd">
        <path d="M91.653,14.646 C91.653,15.771 91.643,16.729 91.626,17.52 C91.608,18.311 91.583,18.948 91.548,19.432 C91.397,21.523 91.077,23.07 90.585,24.072 C90.462,24.336 90.374,24.468 90.321,24.468 C90.224,24.468 90.159,24.305 90.124,23.98 C90.079,23.593 90.044,23.127 90.018,22.583 C89.991,22.038 89.969,21.409 89.952,20.697 C89.934,19.871 89.917,19.184 89.899,18.634 C89.882,18.085 89.864,17.661 89.846,17.362 C89.776,16.562 89.688,16.065 89.583,15.872 C89.381,15.512 88.946,15.332 88.278,15.332 L84.388,15.332 C84.169,15.332 83.879,15.375 83.518,15.463 C83.132,15.542 82.872,15.582 82.741,15.582 C82.696,15.582 82.674,15.56 82.674,15.516 C82.674,15.472 82.685,15.382 82.708,15.246 C82.729,15.11 82.762,14.927 82.806,14.699 C82.859,14.444 82.899,14.237 82.924,14.079 C82.952,13.921 82.969,13.811 82.977,13.75 L83.479,9.293 L83.756,9.293 C83.756,10.603 84.476,11.258 85.918,11.258 C86.049,11.258 86.221,11.251 86.432,11.238 C86.643,11.225 86.893,11.209 87.183,11.192 C87.473,11.174 87.725,11.159 87.942,11.146 C88.157,11.133 88.339,11.126 88.489,11.126 C89.473,11.126 90.212,11.337 90.704,11.759 C91.337,12.304 91.653,13.266 91.653,14.646 Z M93.485,26.261 C93.714,26.261 93.828,26.393 93.828,26.656 L93.828,27.526 C93.828,27.799 93.714,27.935 93.485,27.935 L91.402,27.935 C91.402,28.357 91.481,28.744 91.639,29.095 L91.942,29.768 C92.012,29.926 92.048,30.08 92.048,30.229 C92.048,30.537 91.94,30.793 91.725,31 C91.509,31.207 91.257,31.31 90.967,31.31 C90.817,31.31 90.676,31.281 90.546,31.225 C90.413,31.167 90.298,31.088 90.196,30.987 C90.094,30.886 90.016,30.771 89.958,30.645 C89.901,30.517 89.873,30.378 89.873,30.229 C89.873,30.08 89.908,29.926 89.978,29.768 L90.268,29.095 C90.453,28.7 90.546,28.313 90.546,27.935 L88.436,27.935 C88.198,27.935 88.08,27.799 88.08,27.526 L88.08,26.656 C88.08,26.393 88.198,26.261 88.436,26.261 L93.485,26.261 Z M81.159,14.593 C81.159,15.033 81.061,15.213 80.868,15.134 C80.614,15.081 80.468,15.055 80.433,15.055 L79.682,15.081 C79.585,15.081 79.537,15.116 79.537,15.187 C79.642,15.327 79.76,15.529 79.893,15.793 C80.456,16.795 80.78,17.691 80.868,18.482 C80.895,18.685 80.913,18.885 80.921,19.082 C80.93,19.28 80.93,19.467 80.921,19.643 C80.885,21.04 80.266,22.67 79.062,24.534 L78.891,24.428 C79.022,23.787 79.089,23.127 79.089,22.451 C79.089,20.948 78.763,19.651 78.113,18.562 C77.946,18.307 77.862,18.1 77.862,17.942 C77.862,17.784 77.902,17.612 77.981,17.428 C78.078,17.199 78.186,16.907 78.303,16.551 C78.423,16.195 78.557,15.78 78.706,15.305 C78.706,15.156 78.399,15.081 77.784,15.081 L76.953,15.081 C76.733,15.081 76.606,14.949 76.571,14.686 C76.413,13.323 76.144,12.414 75.766,11.957 C75.599,11.763 75.489,11.79 75.436,12.036 C75.2,13.002 75.081,13.938 75.081,14.844 C75.081,15.125 74.931,15.222 74.632,15.134 C74.325,15.037 73.965,15.011 73.551,15.055 C73.209,15.072 73.038,15.244 73.038,15.569 C73.038,15.762 73.126,16.096 73.301,16.571 C73.661,17.52 73.841,18.474 73.841,19.432 C73.841,19.941 73.622,20.728 73.182,21.792 C72.752,22.837 72.251,23.778 71.679,24.613 L71.548,24.455 C71.697,23.839 71.772,23.163 71.772,22.424 C71.772,21.036 71.544,19.858 71.087,18.891 C71.034,18.786 71.007,18.667 71.007,18.535 C71.007,18.412 71.059,18.263 71.165,18.087 C71.235,17.946 71.293,17.841 71.337,17.771 C71.381,17.7 71.407,17.661 71.416,17.652 C71.969,16.404 72.247,15.692 72.247,15.516 C72.247,15.226 72.031,15.081 71.6,15.081 L71.034,15.081 C70.778,15.081 70.59,15.116 70.466,15.187 C70.379,15.266 70.335,15.239 70.335,15.107 L70.335,10.955 C70.581,11.095 70.985,11.166 71.548,11.166 C71.829,11.166 72.018,11.034 72.114,10.77 C72.202,10.506 72.286,10.036 72.365,9.359 C72.04,9.245 71.878,9.021 71.878,8.687 C71.878,8.239 72.101,8.015 72.549,8.015 C72.998,8.015 73.221,8.239 73.221,8.687 C73.221,9.012 73.077,9.228 72.787,9.333 L72.905,10.717 C72.915,11.016 73.121,11.166 73.525,11.166 C73.666,11.218 74.026,11.218 74.606,11.166 C74.879,10.164 75.2,9.417 75.569,8.924 C75.815,8.599 75.986,8.437 76.083,8.437 C76.179,8.437 76.298,8.494 76.438,8.608 C77.229,9.276 77.84,10.137 78.271,11.192 C79.844,11.253 80.815,11.183 81.184,10.981 L81.159,14.593 Z M77.837,30.664 C77.837,30.813 77.805,30.956 77.744,31.093 C77.682,31.229 77.6,31.35 77.501,31.455 C77.399,31.561 77.28,31.644 77.143,31.706 C77.007,31.767 76.86,31.798 76.702,31.798 C76.544,31.798 76.395,31.767 76.255,31.706 C76.114,31.644 75.991,31.561 75.885,31.455 C75.78,31.35 75.696,31.229 75.634,31.093 C75.573,30.956 75.542,30.813 75.542,30.664 C75.542,30.506 75.575,30.361 75.641,30.229 C75.708,30.097 75.793,29.98 75.898,29.88 C76.004,29.778 76.127,29.699 76.267,29.643 C76.408,29.585 76.553,29.557 76.702,29.557 C77.028,29.557 77.298,29.664 77.512,29.88 C77.728,30.095 77.837,30.356 77.837,30.664 Z M77.837,27.118 C77.837,27.276 77.805,27.423 77.744,27.56 C77.682,27.695 77.6,27.814 77.501,27.915 C77.399,28.016 77.28,28.098 77.143,28.159 C77.007,28.221 76.86,28.251 76.702,28.251 C76.544,28.251 76.395,28.221 76.255,28.159 C76.114,28.098 75.991,28.016 75.885,27.915 C75.78,27.814 75.696,27.695 75.634,27.56 C75.573,27.423 75.542,27.276 75.542,27.118 C75.542,26.959 75.575,26.814 75.641,26.683 C75.708,26.551 75.793,26.434 75.898,26.333 C76.004,26.232 76.127,26.153 76.267,26.096 C76.408,26.039 76.553,26.01 76.702,26.01 C77.028,26.01 77.298,26.118 77.512,26.333 C77.728,26.548 77.837,26.81 77.837,27.118 Z M68.489,8.885 C68.304,10.063 68.212,12.08 68.212,14.936 C68.212,15.288 68.032,15.463 67.672,15.463 L67.323,15.463 C67.186,15.463 67.021,15.459 66.828,15.45 C66.643,15.441 66.483,15.437 66.346,15.437 L65.997,15.437 C65.733,15.437 65.562,15.538 65.483,15.74 L65.404,16.083 C65.378,16.197 65.356,16.312 65.339,16.426 L66.182,16.558 C67.026,16.672 67.592,17.089 67.882,17.81 C68.076,18.276 68.173,19.032 68.173,20.078 C68.173,21.343 68.046,22.24 67.79,22.767 C67.403,23.532 66.657,23.914 65.549,23.914 L60.315,23.914 C59.454,23.914 58.905,23.954 58.667,24.033 C58.772,23.233 58.825,22.89 58.825,23.004 L58.825,20.948 C58.825,20.79 58.817,20.629 58.799,20.467 C58.782,20.304 58.755,20.135 58.719,19.959 C59.837,20.144 60.508,20.236 60.737,20.236 L61.883,20.236 C62.341,20.236 62.878,20.231 63.493,20.223 C64.108,20.214 64.643,20.209 65.1,20.209 L66.248,20.209 C66.476,20.209 66.591,20.056 66.591,19.748 C66.591,19.379 66.393,19.172 65.997,19.128 L63.4,18.878 C62.618,18.816 62.099,18.43 61.844,17.718 C61.695,17.296 61.62,16.584 61.62,15.582 C61.62,15.433 61.577,15.358 61.489,15.358 L61.475,15.371 C61.194,15.371 60.772,15.384 60.21,15.411 C59.928,15.419 59.682,15.426 59.471,15.431 C59.26,15.435 59.085,15.437 58.944,15.437 C58.654,15.437 58.508,15.27 58.508,14.936 L58.483,11.719 C58.473,11.587 58.544,11.464 58.694,11.35 C58.842,11.227 58.918,11.069 58.918,10.875 L58.918,9.544 C58.601,9.412 58.443,9.179 58.443,8.845 C58.443,8.388 58.663,8.16 59.102,8.16 C59.559,8.16 59.788,8.388 59.788,8.845 C59.788,9.162 59.651,9.373 59.38,9.478 C59.397,9.654 59.41,9.827 59.419,9.999 C59.427,10.17 59.436,10.344 59.445,10.52 C59.507,11.073 59.626,11.35 59.801,11.35 C59.985,11.35 60.171,10.902 60.354,10.005 L60.512,9.162 C60.565,8.88 60.614,8.599 60.658,8.318 C60.465,8.116 60.368,7.905 60.368,7.685 C60.368,7.228 60.592,7 61.04,7 C61.489,7 61.713,7.224 61.713,7.672 C61.713,8.067 61.507,8.305 61.092,8.384 C60.909,10.168 60.816,11.086 60.816,11.139 C60.816,11.394 60.944,11.521 61.198,11.521 C61.409,11.521 61.598,11.227 61.765,10.638 L62.029,9.478 C61.897,9.258 61.831,9.065 61.831,8.898 C61.831,8.476 62.055,8.265 62.504,8.265 C62.952,8.265 63.176,8.485 63.176,8.924 C63.176,9.381 62.93,9.619 62.438,9.636 C62.368,10.12 62.315,10.489 62.28,10.744 C62.245,10.999 62.227,11.144 62.227,11.179 C62.227,11.346 62.275,11.429 62.372,11.429 C62.46,11.429 62.574,11.359 62.715,11.218 L62.715,14.277 C62.715,15.042 62.785,15.534 62.925,15.753 C63.092,16 63.523,16.184 64.217,16.307 C64.261,15.885 64.297,15.49 64.323,15.121 C64.349,14.751 64.362,14.404 64.362,14.079 C64.362,13.227 64.27,12.273 64.086,11.218 C64.235,11.28 64.819,11.311 65.839,11.311 L66.459,11.311 C66.863,11.311 67.237,10.963 67.579,10.269 C67.579,10.251 67.777,9.729 68.173,8.7 L68.489,8.885 Z M66.801,26.261 C67.03,26.261 67.144,26.393 67.144,26.656 L67.144,27.526 C67.144,27.799 67.03,27.935 66.801,27.935 L64.718,27.935 C64.718,28.357 64.798,28.744 64.956,29.095 L65.258,29.768 C65.329,29.926 65.364,30.08 65.364,30.229 C65.364,30.537 65.257,30.793 65.042,31 C64.826,31.207 64.573,31.31 64.284,31.31 C64.133,31.31 63.993,31.281 63.862,31.225 C63.729,31.167 63.614,31.088 63.512,30.987 C63.411,30.886 63.333,30.771 63.274,30.645 C63.217,30.517 63.189,30.378 63.189,30.229 C63.189,30.08 63.224,29.926 63.295,29.768 L63.585,29.095 C63.769,28.7 63.862,28.313 63.862,27.935 L61.753,27.935 C61.514,27.935 61.396,27.799 61.396,27.526 L61.396,26.656 C61.396,26.393 61.514,26.261 61.753,26.261 L66.801,26.261 Z M50.071,21.053 C50.071,21.537 49.878,22.139 49.491,22.859 L48.464,24.534 L48.305,24.441 C48.323,24.354 48.331,24.27 48.331,24.191 C48.331,23.69 48.155,23.084 47.803,22.372 C47.462,21.651 47.29,21.194 47.29,21 C47.29,20.807 47.518,20.253 47.975,19.339 C48.432,18.417 48.722,17.946 48.845,17.929 L49.624,19.445 C49.923,20.078 50.071,20.614 50.071,21.053 Z M57.046,19.168 C57.046,19.941 56.874,20.873 56.532,21.963 C56.356,22.525 56.171,23.02 55.977,23.446 C55.784,23.873 55.578,24.235 55.358,24.534 L55.174,24.415 C55.279,24.125 55.332,23.699 55.332,23.136 C55.332,21.598 55.09,20.236 54.606,19.049 C54.475,18.724 54.409,18.482 54.409,18.324 C54.409,18.043 54.571,17.577 54.897,16.927 C55.221,16.276 55.384,15.837 55.384,15.608 C55.384,15.45 55.186,15.371 54.792,15.371 L47.434,15.371 C47.145,15.371 47,15.165 47,14.751 L47,9.32 L47.276,9.32 C47.276,10.585 47.764,11.218 48.74,11.218 L50.955,11.218 L50.955,9.913 C50.691,9.729 50.559,9.509 50.559,9.254 C50.559,8.823 50.788,8.608 51.245,8.608 C51.702,8.608 51.93,8.823 51.93,9.254 C51.93,9.57 51.772,9.799 51.456,9.939 L51.456,11.218 L55.543,11.218 C56.123,11.218 56.518,11.179 56.729,11.1 L56.821,11.192 C56.532,13.583 56.386,14.892 56.386,15.121 C56.386,15.56 56.497,16.215 56.715,17.085 C56.936,17.955 57.046,18.649 57.046,19.168 Z" id="Fill-12" fill="#384C62"></path>
    </g>
</svg>