<?xml version="1.0" encoding="UTF-8" standalone="no"?>
<svg width="94px" height="34px" viewBox="0 0 94 34" version="1.1" xmlns="http://www.w3.org/2000/svg" xmlns:xlink="http://www.w3.org/1999/xlink">
    <!-- Generator: Sketch 49.1 (51147) - http://www.bohemiancoding.com/sketch -->
    <title>img/indexclose/chp9-normal</title>
    <desc>Created with Sketch.</desc>
    <defs></defs>
    <g id="img/indexclose/chp9-normal" stroke="none" stroke-width="1" fill="none" fill-rule="evenodd">
        <path d="M87.205,17.43 C87.205,17.588 87.175,17.736 87.113,17.871 C87.052,18.008 86.971,18.127 86.869,18.227 C86.768,18.328 86.649,18.41 86.514,18.471 C86.377,18.534 86.23,18.564 86.072,18.564 C85.914,18.564 85.766,18.534 85.63,18.471 C85.494,18.41 85.375,18.328 85.274,18.227 C85.173,18.127 85.092,18.008 85.03,17.871 C84.969,17.736 84.937,17.588 84.937,17.43 C84.937,17.149 85.057,16.894 85.294,16.665 C85.54,16.437 85.799,16.323 86.072,16.323 C86.396,16.323 86.667,16.426 86.883,16.633 C87.098,16.839 87.205,17.105 87.205,17.43 M91.926,17.456 C91.926,18.986 91.68,20.317 91.187,21.451 C90.519,22.963 89.508,23.719 88.154,23.719 C88.041,23.719 87.504,23.705 86.547,23.679 C85.844,23.653 85.271,23.653 84.832,23.679 C84.525,23.697 84.241,23.732 83.982,23.784 C83.723,23.837 83.492,23.899 83.29,23.969 L83.225,23.943 C83.348,23.574 83.408,23.034 83.408,22.321 L83.408,20.594 C83.408,20.216 83.355,19.873 83.25,19.566 L83.316,19.539 C83.536,19.618 83.91,19.659 84.437,19.659 L88.115,19.659 C88.906,19.659 89.535,19.469 90,19.091 C90.51,18.687 90.766,18.098 90.766,17.325 C90.766,15.892 89.799,15.176 87.865,15.176 L83.791,15.176 C83.431,15.176 83.25,15 83.25,14.649 L83.25,9.124 L83.566,9.124 C83.566,10.39 84.046,11.023 85.004,11.023 L88.405,11.023 C89.882,11.023 90.889,11.779 91.424,13.29 C91.758,14.24 91.926,15.628 91.926,17.456 M80.548,7.108 C80.548,7.266 80.518,7.412 80.455,7.549 C80.394,7.686 80.312,7.804 80.212,7.905 C80.11,8.006 79.992,8.087 79.855,8.149 C79.719,8.21 79.572,8.241 79.414,8.241 C79.265,8.241 79.121,8.21 78.985,8.149 C78.85,8.087 78.728,8.006 78.623,7.905 C78.517,7.804 78.434,7.686 78.373,7.549 C78.31,7.412 78.28,7.266 78.28,7.108 C78.28,6.967 78.31,6.828 78.373,6.692 C78.434,6.556 78.517,6.438 78.623,6.336 C78.728,6.235 78.85,6.154 78.985,6.092 C79.121,6.031 79.265,6 79.414,6 C79.757,6 80.031,6.104 80.238,6.309 C80.444,6.516 80.548,6.782 80.548,7.108 M81.418,13.278 C81.418,18.682 81.242,22.102 80.891,23.534 C80.785,23.948 80.641,24.154 80.455,24.154 C80.262,24.154 80.117,24 80.02,23.692 C80.012,23.674 79.996,23.512 79.975,23.204 C79.952,22.897 79.92,22.44 79.875,21.833 C79.832,21.13 79.781,20.362 79.724,19.526 C79.666,18.692 79.607,17.782 79.546,16.797 C79.511,16.217 79.445,15.826 79.348,15.623 C79.189,15.299 78.86,15.136 78.359,15.136 C77.7,15.136 77.375,15.141 77.384,15.149 C77.059,15.088 76.896,14.855 76.896,14.451 C76.896,12.781 77.055,10.996 77.371,9.098 L77.647,9.098 C77.647,9.871 77.74,10.368 77.924,10.588 C78.144,10.86 78.644,10.996 79.428,10.996 C80.754,10.996 81.418,11.756 81.418,13.278 M75.34,14.451 C75.34,15.576 75.332,16.534 75.314,17.325 C75.297,18.116 75.269,18.752 75.234,19.237 C75.086,21.328 74.765,22.875 74.272,23.877 C74.149,24.141 74.061,24.272 74.009,24.272 C73.912,24.272 73.846,24.11 73.81,23.784 C73.767,23.398 73.732,22.932 73.705,22.387 C73.68,21.842 73.657,21.213 73.64,20.502 C73.622,19.676 73.604,18.989 73.587,18.438 C73.569,17.889 73.552,17.465 73.534,17.166 C73.464,16.367 73.376,15.869 73.27,15.676 C73.068,15.317 72.633,15.136 71.965,15.136 L68.076,15.136 C67.856,15.136 67.566,15.18 67.206,15.268 C66.819,15.347 66.56,15.387 66.428,15.387 C66.385,15.387 66.362,15.365 66.362,15.321 C66.362,15.277 66.373,15.187 66.394,15.051 C66.417,14.914 66.45,14.732 66.494,14.503 C66.547,14.248 66.586,14.041 66.613,13.883 C66.639,13.725 66.656,13.616 66.666,13.554 L67.166,9.098 L67.443,9.098 C67.443,10.408 68.164,11.063 69.605,11.063 C69.737,11.063 69.908,11.055 70.119,11.043 C70.33,11.03 70.581,11.014 70.871,10.996 C71.161,10.979 71.414,10.963 71.629,10.95 C71.844,10.938 72.027,10.93 72.176,10.93 C73.16,10.93 73.898,11.141 74.391,11.563 C75.023,12.108 75.34,13.071 75.34,14.451 M77.516,26.922 C77.516,27.08 77.484,27.227 77.424,27.364 C77.361,27.5 77.28,27.618 77.18,27.719 C77.078,27.821 76.959,27.903 76.824,27.963 C76.687,28.026 76.54,28.056 76.382,28.056 C76.224,28.056 76.076,28.026 75.939,27.963 C75.804,27.903 75.685,27.821 75.584,27.719 C75.482,27.618 75.402,27.5 75.34,27.364 C75.279,27.227 75.248,27.08 75.248,26.922 C75.248,26.615 75.359,26.353 75.584,26.137 C75.809,25.922 76.074,25.815 76.382,25.815 C76.707,25.815 76.976,25.922 77.193,26.137 C77.408,26.353 77.516,26.615 77.516,26.922 M74.035,26.922 C74.035,27.08 74.004,27.227 73.943,27.364 C73.881,27.5 73.801,27.618 73.699,27.719 C73.598,27.821 73.479,27.903 73.344,27.963 C73.207,28.026 73.059,28.056 72.901,28.056 C72.752,28.056 72.609,28.026 72.473,27.963 C72.337,27.903 72.216,27.821 72.11,27.719 C72.005,27.618 71.922,27.5 71.859,27.364 C71.799,27.227 71.767,27.08 71.767,26.922 C71.767,26.764 71.799,26.619 71.859,26.487 C71.922,26.356 72.005,26.239 72.11,26.137 C72.216,26.036 72.337,25.957 72.473,25.901 C72.609,25.843 72.752,25.815 72.901,25.815 C73.657,25.815 74.035,26.184 74.035,26.922 M60.614,23.719 C60.614,23.867 60.584,24.01 60.521,24.147 C60.461,24.284 60.379,24.405 60.277,24.51 C60.177,24.616 60.059,24.699 59.922,24.76 C59.785,24.822 59.639,24.852 59.48,24.852 C59.322,24.852 59.173,24.822 59.032,24.76 C58.892,24.699 58.768,24.616 58.663,24.51 C58.558,24.405 58.475,24.284 58.412,24.147 C58.351,24.01 58.32,23.867 58.32,23.719 C58.32,23.561 58.353,23.415 58.42,23.284 C58.484,23.152 58.57,23.035 58.676,22.934 C58.781,22.833 58.904,22.754 59.045,22.698 C59.185,22.64 59.331,22.612 59.48,22.612 C59.806,22.612 60.076,22.719 60.291,22.934 C60.506,23.15 60.614,23.41 60.614,23.719 M60.614,20.172 C60.614,20.33 60.584,20.478 60.521,20.614 C60.461,20.75 60.379,20.869 60.277,20.969 C60.177,21.071 60.059,21.153 59.922,21.213 C59.785,21.276 59.639,21.306 59.48,21.306 C59.322,21.306 59.173,21.276 59.032,21.213 C58.892,21.153 58.768,21.071 58.663,20.969 C58.558,20.869 58.475,20.75 58.412,20.614 C58.351,20.478 58.32,20.33 58.32,20.172 C58.32,20.014 58.353,19.869 58.42,19.737 C58.484,19.606 58.57,19.489 58.676,19.387 C58.781,19.287 58.904,19.207 59.045,19.151 C59.185,19.094 59.331,19.065 59.48,19.065 C59.806,19.065 60.076,19.172 60.291,19.387 C60.506,19.604 60.614,19.865 60.614,20.172 M64.978,14.451 C64.978,23.398 64.627,28.641 63.924,30.178 C63.801,30.442 63.713,30.575 63.66,30.575 C63.555,30.575 63.484,30.399 63.449,30.047 L63.396,27.067 C63.396,25.942 63.377,24.563 63.336,22.928 C63.297,21.293 63.242,19.372 63.172,17.166 C63.119,16.393 63.031,15.897 62.908,15.676 C62.706,15.317 62.275,15.136 61.616,15.136 L57.648,15.136 C57.445,15.136 57.174,15.18 56.83,15.268 C56.471,15.347 56.215,15.387 56.066,15.387 C56.021,15.387 56,15.365 56,15.321 C56,15.285 56.011,15.2 56.033,15.063 C56.055,14.928 56.088,14.741 56.132,14.503 C56.184,14.248 56.225,14.041 56.25,13.883 C56.277,13.725 56.295,13.616 56.303,13.554 L56.805,9.098 L57.094,9.098 C57.094,10.408 57.81,11.063 59.243,11.063 C59.375,11.063 59.547,11.055 59.758,11.043 C59.969,11.03 60.215,11.014 60.496,10.996 C60.785,10.979 61.041,10.963 61.26,10.95 C61.48,10.938 61.664,10.93 61.814,10.93 C62.799,10.93 63.537,11.141 64.029,11.563 C64.662,12.108 64.978,13.071 64.978,14.451" id="Fill-19" fill="#FBF9ED"></path>
    </g>
</svg>