<?xml version="1.0" encoding="UTF-8" standalone="no"?>
<svg width="94px" height="34px" viewBox="0 0 94 34" version="1.1" xmlns="http://www.w3.org/2000/svg" xmlns:xlink="http://www.w3.org/1999/xlink">
    <!-- Generator: Sketch 49.1 (51147) - http://www.bohemiancoding.com/sketch -->
    <title>img/indexclose/chp8-hover</title>
    <desc>Created with Sketch.</desc>
    <defs></defs>
    <g id="img/indexclose/chp8-hover" stroke="none" stroke-width="1" fill="none" fill-rule="evenodd">
        <path d="M91.602,23.35 C91.602,23.604 91.549,23.811 91.444,23.969 C91.171,23.802 90.851,23.719 90.482,23.719 L86.329,23.719 C85.485,23.719 84.83,23.802 84.365,23.969 C84.505,22.923 84.609,22.039 84.673,21.319 C84.74,20.598 84.773,20.036 84.773,19.631 C84.887,19.666 85.028,19.684 85.195,19.684 L90.324,19.659 L89.941,17.391 C89.809,16.547 89.558,15.967 89.189,15.651 C88.82,15.334 88.218,15.176 87.383,15.176 L85.617,15.176 C84.922,15.176 84.333,15.43 83.85,15.94 C83.358,16.459 83.112,17.057 83.112,17.733 L83.112,21.635 C82.286,22.366 81.644,23.34 81.187,24.563 L81.029,24.563 L81.029,20.541 C81.029,19.636 81.296,18.608 81.833,17.456 C82.378,16.288 82.65,15.756 82.65,15.862 C82.65,15.616 82.343,15.435 81.728,15.321 C81.525,15.303 81.321,15.282 81.115,15.254 C80.908,15.229 80.704,15.202 80.501,15.176 C80.115,15.114 79.925,14.727 79.935,14.016 L80.106,8.729 L80.382,8.729 C80.382,9.256 80.528,9.735 80.818,10.166 C81.125,10.641 81.53,10.926 82.031,11.023 L83.296,11.26 C83.762,11.436 83.996,11.739 83.996,12.17 C83.996,12.205 83.97,12.455 83.923,12.921 C83.874,13.387 83.802,14.077 83.705,14.991 C84.47,14.825 84.917,14.385 85.05,13.672 L85.617,10.719 C85.722,10.922 85.915,11.023 86.197,11.023 L88.953,11.023 C90.183,11.023 90.982,11.854 91.351,13.514 C91.519,14.245 91.602,15.558 91.602,17.456 L91.602,23.35 Z M89.044,26.065 C89.273,26.065 89.387,26.198 89.387,26.461 L89.387,27.33 C89.387,27.604 89.273,27.74 89.044,27.74 L86.961,27.74 C86.961,28.162 87.04,28.548 87.199,28.9 L87.501,29.573 C87.572,29.731 87.607,29.884 87.607,30.034 C87.607,30.341 87.499,30.598 87.285,30.805 C87.069,31.011 86.816,31.115 86.527,31.115 C86.376,31.115 86.236,31.086 86.105,31.03 C85.972,30.971 85.857,30.893 85.755,30.791 C85.654,30.69 85.576,30.577 85.517,30.45 C85.46,30.321 85.432,30.183 85.432,30.034 C85.432,29.884 85.467,29.731 85.538,29.573 L85.828,28.9 C86.012,28.504 86.105,28.118 86.105,27.74 L83.996,27.74 C83.757,27.74 83.639,27.604 83.639,27.33 L83.639,26.461 C83.639,26.198 83.757,26.065 83.996,26.065 L89.044,26.065 Z M78.471,14.451 C78.471,15.576 78.462,16.534 78.445,17.325 C78.427,18.116 78.401,18.752 78.366,19.237 C78.216,21.329 77.896,22.875 77.404,23.877 C77.281,24.141 77.193,24.272 77.14,24.272 C77.042,24.272 76.977,24.11 76.942,23.785 C76.898,23.398 76.863,22.932 76.836,22.387 C76.81,21.842 76.789,21.213 76.771,20.502 C76.753,19.676 76.736,18.989 76.718,18.438 C76.701,17.889 76.683,17.465 76.665,17.166 C76.595,16.367 76.507,15.87 76.402,15.676 C76.199,15.317 75.764,15.136 75.096,15.136 L71.206,15.136 C70.988,15.136 70.697,15.18 70.337,15.268 C69.951,15.347 69.691,15.387 69.559,15.387 C69.515,15.387 69.494,15.365 69.494,15.321 C69.494,15.277 69.503,15.187 69.526,15.051 C69.548,14.914 69.581,14.732 69.624,14.503 C69.677,14.248 69.717,14.041 69.744,13.883 C69.77,13.725 69.788,13.616 69.796,13.554 L70.297,9.098 L70.574,9.098 C70.574,10.408 71.294,11.063 72.736,11.063 C72.869,11.063 73.04,11.055 73.25,11.043 C73.461,11.03 73.712,11.014 74.001,10.996 C74.292,10.979 74.544,10.963 74.76,10.95 C74.975,10.938 75.158,10.93 75.307,10.93 C76.291,10.93 77.03,11.141 77.522,11.563 C78.155,12.108 78.471,13.071 78.471,14.451 Z M67.186,7.108 C67.186,7.266 67.156,7.412 67.093,7.549 C67.033,7.686 66.951,7.804 66.85,7.905 C66.748,8.006 66.63,8.087 66.494,8.149 C66.357,8.21 66.21,8.241 66.052,8.241 C65.903,8.241 65.759,8.21 65.623,8.149 C65.488,8.087 65.367,8.006 65.261,7.905 C65.156,7.804 65.072,7.686 65.011,7.549 C64.949,7.412 64.918,7.266 64.918,7.108 C64.918,6.967 64.949,6.829 65.011,6.692 C65.072,6.556 65.156,6.438 65.261,6.336 C65.367,6.235 65.488,6.154 65.623,6.092 C65.759,6.031 65.903,6 66.052,6 C66.395,6 66.669,6.104 66.876,6.309 C67.082,6.516 67.186,6.782 67.186,7.108 Z M68.056,13.278 C68.056,18.682 67.88,22.102 67.529,23.534 C67.423,23.948 67.279,24.154 67.093,24.154 C66.9,24.154 66.755,24 66.659,23.692 C66.65,23.674 66.634,23.512 66.613,23.204 C66.59,22.897 66.558,22.44 66.513,21.833 C66.47,21.13 66.419,20.362 66.362,19.526 C66.304,18.692 66.246,17.782 66.184,16.797 C66.149,16.217 66.083,15.827 65.986,15.623 C65.828,15.299 65.498,15.136 64.998,15.136 C64.338,15.136 64.013,15.141 64.022,15.149 C63.697,15.088 63.535,14.855 63.535,14.451 C63.535,12.781 63.693,10.996 64.009,9.098 L64.286,9.098 C64.286,9.871 64.378,10.368 64.562,10.588 C64.783,10.86 65.283,10.996 66.066,10.996 C67.392,10.996 68.056,11.756 68.056,13.278 Z M61.978,14.451 C61.978,15.576 61.97,16.534 61.953,17.325 C61.935,18.116 61.908,18.752 61.873,19.237 C61.724,21.329 61.403,22.875 60.911,23.877 C60.788,24.141 60.7,24.272 60.647,24.272 C60.55,24.272 60.484,24.11 60.449,23.785 C60.406,23.398 60.371,22.932 60.343,22.387 C60.318,21.842 60.295,21.213 60.278,20.502 C60.26,19.676 60.243,18.989 60.225,18.438 C60.207,17.889 60.19,17.465 60.172,17.166 C60.102,16.367 60.014,15.87 59.909,15.676 C59.706,15.317 59.271,15.136 58.603,15.136 L54.714,15.136 C54.495,15.136 54.205,15.18 53.844,15.268 C53.457,15.347 53.199,15.387 53.066,15.387 C53.023,15.387 53,15.365 53,15.321 C53,15.277 53.011,15.187 53.033,15.051 C53.055,14.914 53.088,14.732 53.132,14.503 C53.185,14.248 53.224,14.041 53.251,13.883 C53.277,13.725 53.294,13.616 53.304,13.554 L53.804,9.098 L54.081,9.098 C54.081,10.408 54.802,11.063 56.244,11.063 C56.375,11.063 56.546,11.055 56.757,11.043 C56.968,11.03 57.219,11.014 57.509,10.996 C57.799,10.979 58.052,10.963 58.267,10.95 C58.482,10.938 58.665,10.93 58.814,10.93 C59.798,10.93 60.537,11.141 61.029,11.563 C61.662,12.108 61.978,13.071 61.978,14.451 Z" id="Fill-17" fill="#0A9CA3"></path>
    </g>
</svg>