<?xml version="1.0" encoding="UTF-8" standalone="no"?>
<svg width="60px" height="84px" viewBox="0 0 60 84" version="1.1" xmlns="http://www.w3.org/2000/svg" xmlns:xlink="http://www.w3.org/1999/xlink">
    <!-- Generator: Sketch 49.3 (51167) - http://www.bohemiancoding.com/sketch -->
    <title>img/musicinfo/tav-icon</title>
    <desc>Created with Sketch.</desc>
    <defs></defs>
    <g id="img/musicinfo/tav-icon" stroke="none" stroke-width="1" fill="none" fill-rule="evenodd" fill-opacity="0.1">
        <path d="M57.6728982,57.1339839 C56.8213198,55.4958641 55.6059406,52.3131152 54.8275289,50.4636251 C55.1364547,49.223857 55.488061,48.0653852 55.8945424,46.9983717 C56.3437043,45.8134786 56.8355467,44.7220762 57.3721021,43.7200996 C54.9921538,41.8116697 53.6365385,39.8768186 53.3072886,37.9216433 C52.8398351,35.151473 53.0674646,30.6761134 54.1791911,29.0318963 C55.4616397,26.6905638 54.5307975,25.5361568 54.0613115,23.2618937 C53.5328858,20.5323715 53.3011914,14.5062856 54.738103,9.90288438 L53.9698532,9.59192616 C53.2463164,11.1731386 51.1407431,11.5369394 49.1632113,12.3763234 C48.3116329,12.7340269 43.9948011,13.9616006 39.1251546,15.2989242 C39.0967009,15.2135631 39.0377611,14.7176559 38.9402056,13.8010405 C38.8426501,12.8823926 38.6820899,11.5308422 38.4605576,9.74232425 C39.6027702,8.80741717 39.9828302,7.70585273 39.6027702,6.43966335 C39.0377611,4.55562233 37.8488032,3.88696052 36.0399612,4.42961311 C34.1579526,4.99462218 33.4974204,6.21813102 34.0624295,8.10217204 C34.4221655,9.29519478 35.2269985,9.94150011 36.4789611,10.041088 L36.588711,13.5591841 C36.5297712,14.8985401 36.2940121,15.7663777 35.8854983,16.1830211 C35.5745401,16.2683822 35.2635819,16.3537433 34.9526236,16.437072 C34.5786608,16.3334192 34.225022,16.0021369 33.8957721,15.433063 L27.8229409,5.05965919 C28.3838851,3.90728459 28.538348,2.91343771 28.288362,2.08015095 C27.7457094,0.269276575 26.5506543,-0.358737099 24.7031966,0.194077527 C22.8577713,0.748924559 22.211466,1.95007692 22.766313,3.79550222 C23.2337665,5.35232576 24.3495578,6.04334404 26.1116544,5.87058947 C29.0769358,12.9921426 30.5829492,16.6260858 30.6256297,16.7703867 C30.7191204,17.0813449 30.7313149,17.3557198 30.6642455,17.5894466 C29.8512828,17.8048817 29.0769358,18.0121872 28.3554314,18.2032334 C27.7904224,17.9207289 27.1400522,17.416692 26.394159,16.676896 L23.7398358,13.7461655 C24.040632,12.5104622 24.0873774,11.5491338 23.8800719,10.8601479 C23.3699378,9.16105593 22.1911419,8.58588484 20.3436842,9.14073187 C18.4982589,9.69354649 17.8580508,10.9129905 18.4230598,12.7949991 C18.9880689,14.6790402 20.2847444,15.3151835 22.3110539,14.7074938 C23.9837246,17.1240254 24.8596919,18.461349 24.9348909,18.7153999 C24.9735067,18.8434415 24.9938307,18.9653859 25.0060252,19.0832655 C24.1625764,19.300733 23.5914701,19.4450339 23.3983915,19.4877144 L16.7910373,20.9327556 C8.62279469,21.6928757 12.0595944,38.439907 12.7302887,40.1085129 C13.4009829,41.7750864 13.8155938,42.9355907 13.9720892,43.5859608 C14.7383065,46.7768393 13.5656078,47.4536308 12.7201266,50.4575279 C13.9172142,52.3293745 14.9923573,54.0487905 15.9455561,55.6157761 C16.7280327,56.9002572 17.4312454,58.1014095 18.0633239,59.2273628 C17.8458563,60.8228021 17.4149861,63.1336485 16.350005,65.3672635 C13.4639875,64.8225785 10.0048313,65.3753931 6.83021197,67.1354574 C1.07850098,70.3202387 -1.55549812,76.2365746 0.944362136,80.3501658 C3.4482872,84.4617246 10.1389701,85.2116826 15.8906811,82.0269013 C18.9494532,80.3318741 21.1261608,77.8645324 22.1179752,75.3077647 C22.3781233,74.6370705 22.5529103,73.9623115 22.6443686,73.2936497 C23.3170952,69.9076601 22.4004798,68.2146653 21.6627161,66.0765735 C21.0916099,64.4160972 19.9839482,61.1357927 19.2055364,59.0546083 C19.2360225,57.2559283 19.323416,55.5710632 19.4738141,54.016272 C19.6425039,52.2643375 19.8701334,50.6465417 20.1546704,49.1608524 C17.6060324,46.360196 17.1182547,45.9374554 16.4252041,43.0494054 C15.4049359,38.8118374 17.5796111,36.1026393 22.9492296,34.9279082 L27.0485939,34.0295844 C29.1602645,33.5682281 40.1982653,31.5561455 47.5637073,30.2249191 C48.396994,32.3243952 49.2993826,34.7429592 49.6286325,35.541695 C50.1306369,36.7591067 50.4314331,37.6675925 50.5310211,38.2671524 C50.8887246,40.3808554 50.3684285,42.4762667 48.9681003,44.551354 C50.0005629,45.8236406 50.925308,46.9943069 51.7382706,48.059288 C52.5309093,49.0958154 53.2219275,50.0571438 53.8133579,50.9432731 C53.6263765,52.502129 53.2747701,54.8312671 52.394738,57.2010534 C49.4274242,57.0222016 46.0353374,58.0465345 43.1168014,60.2537282 C37.9036782,64.1945648 36.1862945,70.4096646 39.2796175,74.1370985 C42.3749729,77.8645324 49.1083364,77.6897454 54.323492,73.7489088 C57.0977271,71.6514651 58.8699858,68.9097484 59.4634486,66.239166 C59.7825364,64.7738008 59.7642448,63.3876994 59.3760551,62.1296396 C59.0976153,60.1012977 58.4655369,58.6542242 57.6728982,57.1339839 Z" id="Path" fill="#011023" style="mix-blend-mode: multiply;"></path>
    </g>
</svg>