<?xml version="1.0" encoding="UTF-8" standalone="no"?>
<svg width="40px" height="40px" viewBox="0 0 40 40" version="1.1" xmlns="http://www.w3.org/2000/svg" xmlns:xlink="http://www.w3.org/1999/xlink">
    <!-- Generator: Sketch 49.3 (51167) - http://www.bohemiancoding.com/sketch -->
    <title>btn/tools/share/hover</title>
    <desc>Created with Sketch.</desc>
    <defs></defs>
    <g id="btn/tools/share/hover" stroke="none" stroke-width="1" fill="none" fill-rule="evenodd">
        <rect id="Rectangle" fill="#FBF9ED" x="0" y="0" width="40" height="40" rx="2"></rect>
        <path d="M26.8504738,18.6217325 L21.6716461,13.1461326 C21.4663387,12.9512891 21.1334918,12.9512891 20.9281844,13.1461326 C20.8099771,13.2610402 20.7679824,13.4109198 20.7856098,13.5607994 L20.7856098,16.5084307 C16.4860785,16.5084307 13,19.8657329 13,24.0074048 C13,25.0715496 13.232267,26.0807387 13.6459925,27 C14.2603594,23.8725132 17.3550058,21.4994201 20.7767961,21.4994201 L20.7767961,24.4970113 C20.7586502,24.6418949 20.8104955,24.7418146 20.9281844,24.8517263 C21.1547484,25.0715496 21.5078149,24.9816219 21.700161,24.8217504 L26.8504738,19.3811223 C26.9598674,19.2762066 27.0065282,19.136319 26.9992699,19.0014274 C27.0065282,18.8615398 26.9598674,18.7266482 26.8504738,18.6217325" id="Fill-11" fill="#384C62"></path>
    </g>
</svg>