<?xml version="1.0" encoding="utf-8"?>
<!-- Generator: Adobe Illustrator 16.0.0, SVG Export Plug-In . SVG Version: 6.00 Build 0)  -->
<!DOCTYPE svg PUBLIC "-//W3C//DTD SVG 1.1//EN" "http://www.w3.org/Graphics/SVG/1.1/DTD/svg11.dtd">
<svg version="1.1" id="Layer_1" xmlns="http://www.w3.org/2000/svg" xmlns:xlink="http://www.w3.org/1999/xlink" x="0px" y="0px"
	 width="95px" height="35px" viewBox="0 0 95 35" enable-background="new 0 0 95 35" xml:space="preserve">
<path fill="#384C62" d="M34.132,20.244c0,0.773-0.172,1.705-0.514,2.795c-0.176,0.562-0.361,1.057-0.555,1.483
	s-0.399,0.789-0.619,1.087l-0.185-0.119c0.105-0.29,0.158-0.716,0.158-1.279c0-1.538-0.241-2.9-0.726-4.087
	c-0.131-0.325-0.197-0.567-0.197-0.725c0-0.281,0.162-0.747,0.488-1.397c0.324-0.65,0.487-1.09,0.487-1.318
	c0-0.158-0.198-0.237-0.593-0.237h-7.357c-0.289,0-0.435-0.207-0.435-0.62v-5.432h0.276c0,1.266,0.488,1.898,1.464,1.898h2.215
	v-1.305c-0.264-0.185-0.396-0.404-0.396-0.659c0-0.431,0.229-0.646,0.686-0.646s0.686,0.215,0.686,0.646
	c0,0.316-0.158,0.545-0.475,0.686v1.279h4.087c0.58,0,0.976-0.04,1.187-0.119l0.092,0.092c-0.289,2.391-0.435,3.7-0.435,3.929
	c0,0.439,0.11,1.094,0.329,1.964C34.022,19.031,34.132,19.726,34.132,20.244z M27.157,22.129c0,0.483-0.193,1.085-0.58,1.806
	L25.55,25.61l-0.158-0.092c0.018-0.088,0.025-0.171,0.025-0.25c0-0.501-0.176-1.107-0.527-1.819
	c-0.342-0.721-0.514-1.178-0.514-1.371s0.229-0.747,0.686-1.661c0.457-0.923,0.747-1.393,0.87-1.411l0.778,1.516
	C27.009,21.154,27.157,21.69,27.157,22.129z M43.888,27.337c0.229,0,0.343,0.132,0.343,0.396v0.87c0,0.272-0.114,0.409-0.343,0.409
	h-2.083c0,0.422,0.079,0.809,0.237,1.16l0.303,0.672c0.07,0.158,0.105,0.312,0.105,0.461c0,0.308-0.107,0.564-0.322,0.771
	c-0.216,0.207-0.469,0.31-0.758,0.31c-0.15,0-0.291-0.029-0.422-0.085c-0.133-0.058-0.248-0.137-0.35-0.237
	c-0.102-0.102-0.18-0.216-0.238-0.343c-0.057-0.128-0.085-0.266-0.085-0.416s0.035-0.303,0.105-0.461l0.29-0.672
	c0.185-0.396,0.277-0.782,0.277-1.16h-2.109c-0.238,0-0.356-0.136-0.356-0.409v-0.87c0-0.264,0.118-0.396,0.356-0.396H43.888z
	 M45.575,9.961c-0.185,1.178-0.277,3.195-0.277,6.051c0,0.352-0.18,0.527-0.54,0.527c-0.097,0-0.214,0-0.349,0
	c-0.137,0-0.302-0.004-0.495-0.013c-0.185-0.009-0.345-0.013-0.481-0.013s-0.252,0-0.35,0c-0.264,0-0.435,0.101-0.514,0.303
	c-0.026,0.114-0.053,0.229-0.079,0.343s-0.048,0.229-0.065,0.343l0.844,0.132c0.844,0.114,1.41,0.532,1.7,1.252
	c0.193,0.466,0.29,1.222,0.29,2.268c0,1.266-0.127,2.162-0.383,2.689c-0.387,0.765-1.133,1.147-2.24,1.147h-5.234
	c-0.861,0-1.41,0.04-1.648,0.119c0.105-0.8,0.158-1.143,0.158-1.028v-2.057c0-0.158-0.008-0.318-0.025-0.481
	s-0.045-0.332-0.08-0.508c1.117,0.185,1.789,0.277,2.018,0.277c0.308,0,0.689,0,1.146,0s0.994-0.004,1.609-0.013
	s1.15-0.013,1.607-0.013s0.84,0,1.147,0c0.229,0,0.343-0.154,0.343-0.461c0-0.369-0.197-0.576-0.594-0.62l-2.597-0.25
	c-0.782-0.062-1.301-0.448-1.556-1.16c-0.149-0.422-0.225-1.134-0.225-2.136c0-0.149-0.043-0.224-0.131-0.224l-0.014,0.013
	c-0.281,0-0.703,0.013-1.266,0.04c-0.281,0.009-0.527,0.016-0.738,0.02s-0.387,0.006-0.527,0.006c-0.29,0-0.436-0.167-0.436-0.501
	l-0.025-3.217c-0.01-0.132,0.061-0.255,0.211-0.369c0.148-0.123,0.224-0.281,0.224-0.475V10.62
	c-0.316-0.132-0.475-0.365-0.475-0.699c0-0.457,0.22-0.686,0.659-0.686c0.457,0,0.686,0.229,0.686,0.686
	c0,0.316-0.137,0.527-0.408,0.633c0.018,0.176,0.03,0.349,0.039,0.521c0.009,0.171,0.018,0.345,0.026,0.521
	c0.062,0.554,0.181,0.831,0.356,0.831c0.184,0,0.369-0.448,0.553-1.345c0.053-0.281,0.105-0.562,0.158-0.844
	s0.102-0.562,0.146-0.844c-0.193-0.202-0.29-0.413-0.29-0.633c0-0.457,0.225-0.686,0.672-0.686c0.449,0,0.673,0.224,0.673,0.672
	c0,0.396-0.206,0.633-0.62,0.712c-0.184,1.784-0.276,2.703-0.276,2.755c0,0.255,0.128,0.382,0.382,0.382
	c0.211,0,0.4-0.294,0.567-0.883l0.264-1.16c-0.132-0.22-0.198-0.413-0.198-0.58c0-0.422,0.225-0.633,0.673-0.633
	s0.673,0.22,0.673,0.659c0,0.457-0.246,0.694-0.738,0.712c-0.07,0.483-0.123,0.853-0.158,1.107s-0.053,0.4-0.053,0.435
	c0,0.167,0.048,0.25,0.145,0.25c0.088,0,0.202-0.07,0.343-0.211v3.059c0,0.765,0.07,1.257,0.211,1.477
	c0.167,0.246,0.598,0.431,1.292,0.554c0.044-0.422,0.079-0.817,0.105-1.187s0.039-0.716,0.039-1.042
	c0-0.853-0.092-1.806-0.276-2.861c0.149,0.062,0.733,0.092,1.753,0.092h0.62c0.404,0,0.778-0.347,1.12-1.042
	c0-0.018,0.198-0.541,0.594-1.569L45.575,9.961z M54.923,28.194c0,0.158-0.031,0.305-0.093,0.442
	c-0.062,0.136-0.144,0.254-0.243,0.355c-0.102,0.101-0.221,0.183-0.357,0.244c-0.136,0.062-0.283,0.092-0.441,0.092
	s-0.307-0.031-0.447-0.092s-0.264-0.143-0.369-0.244s-0.189-0.22-0.251-0.355c-0.062-0.137-0.093-0.284-0.093-0.442
	s0.033-0.303,0.1-0.435s0.151-0.249,0.257-0.35s0.229-0.18,0.369-0.237s0.286-0.085,0.435-0.085c0.326,0,0.596,0.107,0.811,0.323
	C54.814,27.625,54.923,27.886,54.923,28.194z M54.923,31.74c0,0.149-0.031,0.292-0.093,0.429c-0.062,0.136-0.144,0.257-0.243,0.362
	c-0.102,0.105-0.221,0.189-0.357,0.25c-0.136,0.062-0.283,0.092-0.441,0.092s-0.307-0.031-0.447-0.092s-0.264-0.145-0.369-0.25
	s-0.189-0.227-0.251-0.362c-0.062-0.137-0.093-0.279-0.093-0.429c0-0.158,0.033-0.303,0.1-0.435s0.151-0.249,0.257-0.349
	c0.105-0.102,0.229-0.181,0.369-0.237c0.141-0.058,0.286-0.086,0.435-0.086c0.326,0,0.596,0.107,0.811,0.323
	C54.814,31.171,54.923,31.433,54.923,31.74z M58.245,15.669c0,0.439-0.098,0.62-0.291,0.541c-0.254-0.053-0.399-0.079-0.435-0.079
	l-0.751,0.026c-0.098,0-0.146,0.035-0.146,0.105c0.105,0.141,0.224,0.343,0.356,0.606c0.562,1.002,0.887,1.898,0.975,2.689
	c0.027,0.202,0.045,0.402,0.053,0.6c0.01,0.198,0.01,0.385,0,0.561c-0.035,1.397-0.654,3.028-1.858,4.891l-0.171-0.105
	c0.131-0.642,0.197-1.301,0.197-1.978c0-1.503-0.325-2.799-0.976-3.889c-0.167-0.255-0.251-0.461-0.251-0.62s0.04-0.33,0.119-0.514
	c0.097-0.229,0.205-0.521,0.322-0.877c0.119-0.355,0.254-0.771,0.402-1.246c0-0.149-0.307-0.224-0.922-0.224h-0.831
	c-0.22,0-0.347-0.132-0.382-0.396c-0.158-1.362-0.427-2.272-0.805-2.729c-0.167-0.193-0.277-0.167-0.33,0.079
	c-0.236,0.967-0.355,1.903-0.355,2.808c0,0.281-0.149,0.378-0.448,0.29c-0.308-0.097-0.668-0.123-1.081-0.079
	c-0.343,0.018-0.514,0.189-0.514,0.514c0,0.193,0.088,0.527,0.264,1.002c0.359,0.949,0.54,1.903,0.54,2.861
	c0,0.51-0.22,1.296-0.659,2.36c-0.431,1.046-0.932,1.986-1.503,2.821l-0.132-0.158c0.149-0.615,0.225-1.292,0.225-2.03
	c0-1.389-0.229-2.566-0.686-3.533c-0.053-0.105-0.08-0.224-0.08-0.356c0-0.123,0.053-0.272,0.158-0.448
	c0.07-0.141,0.128-0.246,0.172-0.316s0.07-0.11,0.079-0.119c0.554-1.248,0.831-1.96,0.831-2.136c0-0.29-0.216-0.435-0.646-0.435
	H48.12c-0.256,0-0.444,0.035-0.567,0.105c-0.088,0.079-0.132,0.053-0.132-0.079v-4.153c0.246,0.141,0.65,0.211,1.213,0.211
	c0.281,0,0.471-0.132,0.566-0.396c0.088-0.264,0.172-0.734,0.251-1.411c-0.325-0.114-0.487-0.338-0.487-0.672
	c0-0.448,0.224-0.672,0.672-0.672s0.672,0.224,0.672,0.672c0,0.325-0.145,0.541-0.435,0.646l0.118,1.384
	c0.01,0.299,0.216,0.448,0.62,0.448c0.141,0.053,0.501,0.053,1.081,0c0.272-1.002,0.594-1.749,0.963-2.241
	c0.246-0.325,0.417-0.488,0.514-0.488s0.215,0.057,0.355,0.171c0.791,0.668,1.402,1.529,1.833,2.584
	c1.573,0.062,2.544-0.009,2.913-0.211L58.245,15.669z M70.571,27.337c0.229,0,0.343,0.132,0.343,0.396v0.87
	c0,0.272-0.114,0.409-0.343,0.409h-2.083c0,0.422,0.079,0.809,0.237,1.16l0.303,0.672c0.07,0.158,0.105,0.312,0.105,0.461
	c0,0.308-0.107,0.564-0.322,0.771c-0.216,0.207-0.469,0.31-0.758,0.31c-0.15,0-0.291-0.029-0.422-0.085
	c-0.133-0.058-0.248-0.137-0.35-0.237c-0.102-0.102-0.18-0.216-0.238-0.343c-0.057-0.128-0.085-0.266-0.085-0.416
	s0.035-0.303,0.105-0.461l0.29-0.672c0.185-0.396,0.277-0.782,0.277-1.16h-2.109c-0.238,0-0.356-0.136-0.356-0.409v-0.87
	c0-0.264,0.118-0.396,0.356-0.396H70.571z M68.739,15.722c0,1.125-0.01,2.083-0.027,2.874s-0.043,1.428-0.078,1.912
	c-0.15,2.092-0.471,3.639-0.963,4.641c-0.123,0.264-0.211,0.396-0.264,0.396c-0.097,0-0.162-0.163-0.197-0.488
	c-0.045-0.387-0.08-0.853-0.105-1.397c-0.027-0.545-0.049-1.173-0.066-1.885c-0.018-0.826-0.035-1.514-0.053-2.063
	c-0.018-0.549-0.035-0.973-0.053-1.272c-0.07-0.8-0.158-1.296-0.264-1.49c-0.202-0.36-0.637-0.541-1.305-0.541h-3.89
	c-0.22,0-0.51,0.044-0.87,0.132c-0.387,0.079-0.646,0.119-0.777,0.119c-0.045,0-0.066-0.022-0.066-0.066s0.011-0.134,0.033-0.27
	c0.021-0.136,0.055-0.319,0.099-0.547c0.053-0.255,0.093-0.461,0.118-0.62c0.027-0.158,0.045-0.268,0.053-0.33l0.502-4.456h0.276
	c0,1.31,0.721,1.964,2.162,1.964c0.132,0,0.304-0.007,0.515-0.02c0.211-0.014,0.461-0.029,0.751-0.046s0.542-0.033,0.759-0.046
	c0.215-0.013,0.396-0.02,0.547-0.02c0.984,0,1.723,0.211,2.215,0.633C68.423,13.38,68.739,14.342,68.739,15.722z"/>
</svg>
