<?xml version="1.0" encoding="UTF-8" standalone="no"?>
<svg width="14px" height="20px" viewBox="0 0 14 20" version="1.1" xmlns="http://www.w3.org/2000/svg" xmlns:xlink="http://www.w3.org/1999/xlink">
    <!-- Generator: Sketch 49.3 (51167) - http://www.bohemiancoding.com/sketch -->
    <title>btn/player/pause/normal</title>
    <desc>Created with Sketch.</desc>
    <defs></defs>
    <g id="btn/player/pause/normal" stroke="none" stroke-width="1" fill="none" fill-rule="evenodd">
        <path d="M9.8,0 C9.0272,0 8.4,0.64 8.4,1.42857143 L8.4,18.5714286 C8.4,19.36 9.0272,20 9.8,20 L12.6,20 C13.3728,20 14,19.36 14,18.5714286 L14,1.42857143 C14,0.64 13.3728,0 12.6,0 L9.8,0 Z M1.4,0 C0.6272,0 0,0.64 0,1.42857143 L0,18.5714286 C0,19.36 0.6272,20 1.4,20 L4.2,20 C4.9728,20 5.6,19.36 5.6,18.5714286 L5.6,1.42857143 C5.6,0.64 4.9728,0 4.2,0 L1.4,0 Z" id="pause" fill="#FBF9ED"></path>
    </g>
</svg>