<?xml version="1.0" encoding="UTF-8" standalone="no"?>
<svg width="30px" height="150px" viewBox="0 0 30 150" version="1.1" xmlns="http://www.w3.org/2000/svg" xmlns:xlink="http://www.w3.org/1999/xlink">
    <!-- Generator: Sketch 49.3 (51167) - http://www.bohemiancoding.com/sketch -->
    <title>img/info/i</title>
    <desc>Created with Sketch.</desc>
    <defs></defs>
    <g id="img/info/i" stroke="none" stroke-width="1" fill="none" fill-rule="evenodd" fill-opacity="0.1">
        <path d="M29.7909249,70.032251 C29.5985716,67.1320136 26.961264,67.0832701 26.961264,67.0832701 C25.5766377,67.0832701 3.35426103,67 3.35426103,67 C1.11755711,67 0,68.4277779 0,71.2873957 L2.94411916,145.714635 C2.94411916,148.572222 4.06326596,150 6.29996988,150 C6.29996988,150 23.3685484,149.918761 24.7531746,149.918761 C24.7531746,149.918761 27.3904822,149.870017 27.5812459,146.967749 C27.7735992,144.065481 30.1295304,83.3453153 29.9944062,78.6070424 C29.8576922,73.8667384 29.9816886,72.9345193 29.7909249,70.032251 Z" id="Fill-4" fill="#384C62"></path>
        <path d="M26.4181325,51.3771945 C25.1152304,51.3771945 23.9482963,51.4414062 21.69063,51.4414062 L4.22994927,51.4414062 C2.12767494,51.4414062 1.07728486,50.3388443 1.07728486,48.1352865 L1.07728486,27.5750119 C1.64058082,27.7895729 2.12767494,27.8976365 2.53856723,27.8976365 C3.5635567,27.8976365 4.07605144,27.4136995 4.07605144,26.4458255 C4.07605144,26.3393281 3.9610016,25.6392639 3.72940777,24.3503314 C3.49930809,23.0582666 3.17806503,21.1522752 2.7686669,18.6245267 C0.923387019,17.8195312 0,16.4757838 0,14.5932845 C0,11.7992923 1.28048977,10.40073 3.84595176,10.40073 C6.51152205,10.40073 7.84580136,11.7992923 7.84580136,14.5932845 C7.84580136,16.3677202 7.05091156,17.5767796 5.46113197,18.2220289 L6.69231466,23.0582666 C7.46030969,25.3714541 8.30749487,26.5256986 9.23088188,26.5256986 C10.0496781,26.5256986 10.6144683,25.8553911 10.9222639,24.5100776 L14.7682157,7.90117197 C13.5893284,6.55742459 13.0006318,5.26849207 13.0006318,4.03124215 C13.0006318,1.34374738 14.3080163,0 16.9227854,0 C19.5390486,0 20.8464332,1.37037175 20.8464332,4.11111525 C20.8464332,6.42273662 19.6645575,7.82129887 17.3067829,8.30523587 C16.2309922,19.2165273 15.6916027,24.7810196 15.6916027,24.9940146 C15.6916027,26.2312645 16.3325947,26.8483233 17.6145786,26.8483233 C18.6918634,26.8483233 19.8707508,25.6126395 21.1527347,23.1397058 L23.4612022,18.0607166 C22.5886164,16.5024081 22.1538177,15.2119095 22.1538177,14.1907868 C22.1538177,11.6646043 23.4612022,10.40073 26.0759713,10.40073 C28.6907404,10.40073 29.999619,11.7992923 29.999619,14.5932845 C29.999619,17.3888429 28.5637373,18.785839 25.6919738,18.785839 C24.4607911,22.7638324 23.8451997,24.942332 23.8451997,25.3166392 C23.8451997,26.6603866 24.6146889,27.3322603 26.1536673,27.3322603 C27.2802592,27.3322603 28.5114419,26.957953 29.8457212,26.2046401 C29.5887268,33.407314 29.3959809,38.8371184 29.2689779,42.4909211 C29.1404806,46.1462898 29.2555305,46.8651477 29.076232,49.1015944 C28.8969336,51.3396072 26.4181325,51.3771945 26.4181325,51.3771945" id="Fill-1" fill="#384C62"></path>
    </g>
</svg>