<?xml version="1.0" encoding="UTF-8" standalone="no"?>
<svg width="76px" height="76px" viewBox="0 0 76 76" version="1.1" xmlns="http://www.w3.org/2000/svg" xmlns:xlink="http://www.w3.org/1999/xlink">
    <!-- Generator: Sketch 49.3 (51167) - http://www.bohemiancoding.com/sketch -->
    <title>btn/hagada/info/normal</title>
    <desc>Created with Sketch.</desc>
    <defs>
        <circle id="path-1" cx="35" cy="35" r="35"></circle>
        <filter x="-10.0%" y="-10.0%" width="120.0%" height="120.0%" filterUnits="objectBoundingBox" id="filter-2">
            <feMorphology radius="1" operator="dilate" in="SourceAlpha" result="shadowSpreadOuter1"></feMorphology>
            <feOffset dx="0" dy="0" in="shadowSpreadOuter1" result="shadowOffsetOuter1"></feOffset>
            <feMorphology radius="1" operator="erode" in="SourceAlpha" result="shadowInner"></feMorphology>
            <feOffset dx="0" dy="0" in="shadowInner" result="shadowInner"></feOffset>
            <feComposite in="shadowOffsetOuter1" in2="shadowInner" operator="out" result="shadowOffsetOuter1"></feComposite>
            <feGaussianBlur stdDeviation="2" in="shadowOffsetOuter1" result="shadowBlurOuter1"></feGaussianBlur>
            <feColorMatrix values="0 0 0 0 0   0 0 0 0 0   0 0 0 0 0  0 0 0 0.14 0" type="matrix" in="shadowBlurOuter1"></feColorMatrix>
        </filter>
        <filter x="-12.1%" y="-12.1%" width="124.3%" height="124.3%" filterUnits="objectBoundingBox" id="filter-3">
            <feMorphology radius="1" operator="erode" in="SourceAlpha" result="shadowSpreadInner1"></feMorphology>
            <feGaussianBlur stdDeviation="2.5" in="shadowSpreadInner1" result="shadowBlurInner1"></feGaussianBlur>
            <feOffset dx="1" dy="1" in="shadowBlurInner1" result="shadowOffsetInner1"></feOffset>
            <feComposite in="shadowOffsetInner1" in2="SourceAlpha" operator="arithmetic" k2="-1" k3="1" result="shadowInnerInner1"></feComposite>
            <feColorMatrix values="0 0 0 0 0   0 0 0 0 0   0 0 0 0 0  0 0 0 0.5 0" type="matrix" in="shadowInnerInner1"></feColorMatrix>
        </filter>
    </defs>
    <g id="btn/hagada/info/normal" stroke="none" stroke-width="1" fill="none" fill-rule="evenodd">
        <g id="info-icon" transform="translate(3.000000, 3.000000)">
            <circle id="Oval-3" stroke="#FFFFFF" fill="#FDFBF1" cx="35" cy="35" r="30"></circle>
            <g id="Oval-3">
                <use fill="black" fill-opacity="1" filter="url(#filter-2)" xlink:href="#path-1"></use>
                <use fill="black" fill-opacity="1" filter="url(#filter-3)" xlink:href="#path-1"></use>
                <use stroke="#FBF9ED" stroke-width="2" xlink:href="#path-1"></use>
            </g>
            <g id="Group" transform="translate(31.000000, 17.000000)" fill="#0A9CA3">
                <path d="M7.99850831,17.5880096 C7.96205126,16.3655021 7.99511696,16.1250861 7.94424665,15.3766014 C7.89295242,14.6286404 7.18967039,14.6160697 7.18967039,14.6160697 C6.82043673,14.6160697 0.894469607,14.5945946 0.894469607,14.5945946 C0.298015229,14.5945946 0,14.9628135 0,15.7002987 L0.785098442,34.8948196 C0.785098442,35.6317811 1.08353759,36 1.67999197,36 C1.67999197,36 6.2316129,35.9790487 6.60084656,35.9790487 C6.60084656,35.9790487 7.30412859,35.9664779 7.3549989,35.2179932 C7.40629313,34.4695085 8.03454145,18.8099934 7.99850831,17.5880096" id="Fill-4"></path>
                <path d="M7.04492479,12.63286 C6.69747983,12.63286 6.38629346,12.6486486 5.78424146,12.6486486 L1.1280008,12.6486486 C0.56738719,12.6486486 0.28727961,12.3775457 0.28727961,11.8357248 L0.28727961,6.78027025 C0.437493774,6.83302751 0.56738719,6.85959868 0.676959857,6.85959868 C0.950293854,6.85959868 1.08696085,6.74060604 1.08696085,6.50262075 C1.08696085,6.47643466 1.05628051,6.30429967 0.994521367,5.98737104 C0.933160673,5.66967223 0.84749477,5.20101835 0.73832055,4.57948395 C0.246239665,4.38154796 0,4.0511412 0,3.58826366 C0,2.90126405 0.341468274,2.55737915 1.02560016,2.55737915 C1.73642793,2.55737915 2.09224026,2.90126405 2.09224026,3.58826366 C2.09224026,4.02457002 1.88026696,4.32185909 1.45632035,4.48051595 L1.7846399,5.66967223 C1.98944118,6.23844937 2.2153601,6.52226031 2.46159976,6.52226031 C2.6799482,6.52226031 2.83056081,6.35744202 2.9126407,6.02665017 L3.93824086,1.94277636 C3.62386692,1.6123696 3.46687917,1.29544097 3.46687917,0.991220289 C3.46687917,0.330406763 3.81551947,0 4.51280008,0 C5.21047913,0 5.55911943,0.336953284 5.55911943,1.01085985 C5.55911943,1.57925191 5.2439486,1.9231368 4.61520072,2.04212945 C4.32831955,4.72504777 4.18448053,6.09327064 4.18448053,6.14564281 C4.18448053,6.44986349 4.35541389,6.60158874 4.69728061,6.60158874 C4.98456022,6.60158874 5.29893416,6.29775315 5.64080088,5.68969688 L6.25640004,4.44085174 C6.02370754,4.05768772 5.90775974,3.740374 5.90775974,3.48929566 C5.90775974,2.86814635 6.25640004,2.55737915 6.95368065,2.55737915 C7.65096125,2.55737915 8,2.90126405 8,3.58826366 C8,4.27564836 7.61709334,4.61914816 6.85128001,4.61914816 C6.52296045,5.59727541 6.35880068,6.13293486 6.35880068,6.22497124 C6.35880068,6.555378 6.5640004,6.72058139 6.97439984,6.72058139 C7.27482817,6.72058139 7.60314772,6.628545 7.95896006,6.44331697 C7.89042733,8.21434343 7.83902779,9.54944861 7.80515988,10.4478623 C7.77089352,11.3466612 7.80157386,11.5234172 7.75376033,12.073325 C7.70594681,12.6236178 7.04492479,12.63286 7.04492479,12.63286" id="Fill-1"></path>
            </g>
        </g>
    </g>
</svg>