<?xml version="1.0" encoding="UTF-8" standalone="no"?>
<svg width="94px" height="34px" viewBox="0 0 94 34" version="1.1" xmlns="http://www.w3.org/2000/svg" xmlns:xlink="http://www.w3.org/1999/xlink">
    <!-- Generator: Sketch 49.3 (51167) - http://www.bohemiancoding.com/sketch -->
    <title>img/indexclose/chp5-hover</title>
    <desc>Created with Sketch.</desc>
    <defs></defs>
    <g id="img/indexclose/chp5-hover" stroke="none" stroke-width="1" fill="none" fill-rule="evenodd">
        <path d="M91.232,22.862 C91.232,23.117 91.179,23.323 91.074,23.482 C90.801,23.315 90.481,23.231 90.112,23.231 L85.959,23.231 C85.115,23.231 84.46,23.315 83.995,23.482 C84.135,22.436 84.239,21.552 84.303,20.832 C84.37,20.111 84.403,19.549 84.403,19.144 C84.517,19.179 84.658,19.197 84.825,19.197 L89.954,19.171 L89.571,16.903 C89.439,16.059 89.188,15.479 88.819,15.163 C88.45,14.846 87.848,14.688 87.013,14.688 L85.247,14.688 C84.552,14.688 83.963,14.943 83.48,15.453 C82.988,15.971 82.742,16.569 82.742,17.246 L82.742,21.148 C81.916,21.878 81.274,22.853 80.817,24.075 L80.659,24.075 L80.659,20.054 C80.659,19.149 80.926,18.12 81.463,16.969 C82.008,15.8 82.28,15.268 82.28,15.374 C82.28,15.128 81.973,14.947 81.358,14.833 C81.155,14.816 80.951,14.794 80.745,14.767 C80.538,14.741 80.334,14.715 80.131,14.688 C79.745,14.627 79.555,14.24 79.565,13.528 L79.736,8.241 L80.012,8.241 C80.012,8.769 80.158,9.248 80.448,9.678 C80.755,10.153 81.16,10.439 81.661,10.535 L82.926,10.773 C83.392,10.948 83.626,11.252 83.626,11.682 C83.626,11.717 83.6,11.968 83.553,12.434 C83.504,12.9 83.432,13.59 83.335,14.504 C84.1,14.337 84.547,13.897 84.68,13.185 L85.247,10.232 C85.352,10.434 85.545,10.535 85.827,10.535 L88.583,10.535 C89.813,10.535 90.612,11.366 90.981,13.027 C91.149,13.757 91.232,15.07 91.232,16.969 L91.232,22.862 Z M83.626,27.252 C83.387,27.252 83.269,27.116 83.269,26.843 L83.269,25.973 C83.269,25.71 83.387,25.578 83.626,25.578 L88.674,25.578 C88.903,25.578 89.017,25.71 89.017,25.973 L89.017,26.843 C89.017,27.116 88.903,27.252 88.674,27.252 L83.626,27.252 Z M74.792,16.811 C74.792,16.969 74.761,17.116 74.7,17.253 C74.638,17.389 74.557,17.508 74.456,17.608 C74.354,17.71 74.236,17.791 74.1,17.852 C73.963,17.914 73.817,17.945 73.659,17.945 C73.501,17.945 73.352,17.914 73.216,17.852 C73.081,17.791 72.961,17.71 72.861,17.608 C72.759,17.508 72.678,17.389 72.617,17.253 C72.555,17.116 72.524,16.969 72.524,16.811 C72.524,16.529 72.643,16.275 72.88,16.046 C73.127,15.818 73.385,15.703 73.659,15.703 C73.983,15.703 74.253,15.807 74.469,16.013 C74.684,16.22 74.792,16.486 74.792,16.811 Z M78.681,20.687 C78.681,21.003 78.523,21.557 78.207,22.348 L77.508,23.983 L77.231,23.983 L77.245,23.6 C77.253,23.082 77.165,22.37 76.981,21.465 C76.725,20.331 76.414,19.764 76.044,19.764 C75.702,19.764 75.213,20.92 74.581,23.231 C74.256,23.249 73.93,23.271 73.606,23.297 C73.28,23.323 72.956,23.35 72.629,23.376 C71.883,23.438 71.246,23.565 70.718,23.758 C70.753,23.486 70.813,23.163 70.896,22.79 C70.979,22.416 71.087,21.987 71.219,21.504 C71.509,20.432 71.694,19.676 71.773,19.237 C72.406,19.342 72.999,19.395 73.553,19.395 C75.1,19.395 75.874,19.113 75.874,18.551 C75.874,18.489 75.869,18.413 75.86,18.32 C75.851,18.228 75.838,18.12 75.821,17.997 C75.803,17.874 75.79,17.764 75.781,17.668 C75.772,17.571 75.768,17.487 75.768,17.417 C75.768,16.406 75.891,15.519 76.137,14.754 C76.155,14.701 76.163,14.666 76.163,14.649 C76.163,14.49 75.969,14.411 75.583,14.411 L72.59,14.411 C72.23,14.411 72.049,14.231 72.049,13.871 L72.049,10.509 C72.147,10.544 72.23,10.562 72.3,10.562 C72.476,10.562 72.564,10.483 72.564,10.324 C72.564,10.307 72.545,10.193 72.504,9.982 C72.465,9.771 72.411,9.459 72.34,9.046 C72.024,8.914 71.866,8.694 71.866,8.386 C71.866,7.929 72.085,7.701 72.524,7.701 C72.981,7.701 73.21,7.929 73.21,8.386 C73.21,8.676 73.074,8.874 72.801,8.98 L73.012,9.771 C73.144,10.149 73.29,10.338 73.448,10.338 C73.588,10.338 73.684,10.228 73.737,10.008 L74.397,7.292 C74.194,7.072 74.093,6.862 74.093,6.659 C74.093,6.22 74.317,6 74.766,6 C75.213,6 75.438,6.224 75.438,6.673 C75.438,7.05 75.236,7.279 74.832,7.358 C74.647,9.142 74.555,10.052 74.555,10.087 C74.555,10.289 74.665,10.39 74.884,10.39 C75.069,10.39 75.271,10.188 75.491,9.784 L75.886,8.953 C75.737,8.698 75.663,8.487 75.663,8.32 C75.663,7.907 75.886,7.701 76.335,7.701 C76.783,7.701 77.006,7.929 77.006,8.386 C77.006,8.843 76.76,9.072 76.268,9.072 C76.057,9.722 75.952,10.078 75.952,10.14 C75.952,10.36 76.085,10.469 76.348,10.469 C76.542,10.469 76.753,10.408 76.981,10.285 C76.936,11.463 76.903,12.35 76.881,12.948 C76.86,13.546 76.848,13.866 76.848,13.91 C76.848,14.754 77.006,15.668 77.323,16.653 C77.376,16.811 77.486,17.107 77.653,17.543 C77.82,17.977 78.044,18.555 78.325,19.276 C78.563,19.883 78.681,20.353 78.681,20.687 Z M76.229,26.435 C76.229,26.742 76.106,27.015 75.86,27.252 C75.623,27.498 75.35,27.621 75.043,27.621 C74.726,27.621 74.445,27.498 74.199,27.252 C73.953,27.015 73.83,26.742 73.83,26.435 C73.83,26.277 73.863,26.127 73.928,25.987 C73.995,25.846 74.085,25.723 74.199,25.617 C74.313,25.512 74.443,25.428 74.587,25.367 C74.733,25.305 74.884,25.275 75.043,25.275 C75.385,25.275 75.669,25.386 75.893,25.611 C76.117,25.835 76.229,26.11 76.229,26.435 Z M69.624,13.027 C69.624,14.152 69.395,15.224 68.938,16.244 C68.438,17.378 67.753,18.208 66.881,18.736 C66.811,18.779 66.746,18.801 66.684,18.801 C66.526,18.801 66.447,18.718 66.447,18.551 C66.447,18.604 66.68,18.252 67.145,17.496 C67.612,16.74 67.844,16.055 67.844,15.44 C67.844,14.912 67.669,14.649 67.317,14.649 L66.038,14.662 C65.792,14.662 65.626,14.772 65.538,14.991 C65.44,15.202 65.383,15.308 65.366,15.308 C65.146,15.123 65.036,14.249 65.036,12.684 C65.036,10.839 65.151,9.481 65.379,8.611 L65.656,8.611 C65.656,9.279 65.766,9.749 65.985,10.021 C66.223,10.346 66.653,10.509 67.278,10.509 L67.753,9.665 C67.594,9.419 67.514,9.208 67.514,9.032 C67.514,8.628 67.739,8.426 68.187,8.426 C68.644,8.426 68.873,8.654 68.873,9.112 C68.873,9.586 68.622,9.823 68.122,9.823 L67.911,10.535 C68.631,10.535 69.119,10.781 69.374,11.274 C69.541,11.608 69.624,12.192 69.624,13.027 Z M63.348,14.688 C63.067,14.512 62.72,14.424 62.307,14.424 C62.044,14.424 61.819,14.46 61.635,14.53 L62.504,16.415 C62.778,17.127 62.914,17.8 62.914,18.432 C62.914,20.322 62.457,22.141 61.543,23.89 L61.358,23.758 C61.288,21.508 60.769,19.474 59.802,17.654 C59.662,17.382 59.591,17.154 59.591,16.969 C59.591,16.846 59.973,16.011 60.739,14.464 C60.29,14.613 59.674,14.688 58.893,14.688 L53.434,14.688 C53.145,14.688 53,14.482 53,14.069 L53,8.637 L53.276,8.637 C53.276,9.903 53.768,10.535 54.753,10.535 L56.967,10.535 L56.967,9.23 C56.696,9.046 56.559,8.826 56.559,8.571 C56.559,8.14 56.788,7.925 57.245,7.925 C57.702,7.925 57.93,8.14 57.93,8.571 C57.93,8.887 57.772,9.116 57.456,9.257 L57.456,10.535 L61.977,10.535 C62.497,10.535 62.861,10.382 63.072,10.074 L63.23,10.232 C63.23,10.32 63.217,10.799 63.19,11.669 C63.182,11.977 63.177,12.258 63.177,12.513 C63.177,12.768 63.186,12.996 63.204,13.198 C63.248,13.752 63.34,14.218 63.481,14.596 L63.348,14.688 Z" id="Fill-10" fill="#0A9CA3"></path>
    </g>
</svg>