<?xml version="1.0" encoding="utf-8"?>
<!-- Generator: Adobe Illustrator 16.0.0, SVG Export Plug-In . SVG Version: 6.00 Build 0)  -->
<!DOCTYPE svg PUBLIC "-//W3C//DTD SVG 1.1//EN" "http://www.w3.org/Graphics/SVG/1.1/DTD/svg11.dtd">
<svg version="1.1" id="Layer_1" xmlns="http://www.w3.org/2000/svg" xmlns:xlink="http://www.w3.org/1999/xlink" x="0px" y="0px"
	 width="95px" height="35px" viewBox="0 0 95 35" enable-background="new 0 0 95 35" xml:space="preserve">
<path fill="#FFFFDF" d="M38.732,16.306c-0.281-0.176-0.628-0.264-1.041-0.264c-0.264,0-0.488,0.035-0.672,0.105l0.869,1.885
	c0.273,0.712,0.409,1.384,0.409,2.017c0,1.89-0.457,3.709-1.371,5.458l-0.185-0.132c-0.07-2.25-0.589-4.285-1.556-6.104
	c-0.141-0.272-0.211-0.501-0.211-0.686c0-0.123,0.382-0.958,1.147-2.505c-0.449,0.149-1.064,0.224-1.846,0.224h-5.459
	c-0.289,0-0.435-0.207-0.435-0.62v-5.432h0.276c0,1.266,0.492,1.898,1.477,1.898h2.215v-1.305c-0.271-0.185-0.408-0.404-0.408-0.659
	c0-0.431,0.229-0.646,0.686-0.646s0.686,0.215,0.686,0.646c0,0.316-0.158,0.545-0.475,0.686v1.279h4.521
	c0.52,0,0.884-0.154,1.095-0.461l0.158,0.158c0,0.088-0.013,0.567-0.04,1.437c-0.008,0.308-0.013,0.589-0.013,0.844
	s0.009,0.483,0.026,0.686c0.044,0.554,0.137,1.02,0.277,1.397L38.732,16.306z M45.008,14.645c0,1.125-0.229,2.197-0.686,3.217
	c-0.5,1.134-1.186,1.964-2.057,2.492c-0.07,0.044-0.136,0.066-0.197,0.066c-0.158,0-0.237-0.083-0.237-0.25
	c0,0.053,0.233-0.299,0.698-1.055c0.467-0.756,0.699-1.441,0.699-2.057c0-0.527-0.176-0.791-0.527-0.791l-1.279,0.013
	c-0.246,0-0.412,0.11-0.5,0.33c-0.098,0.211-0.154,0.316-0.172,0.316c-0.22-0.185-0.33-1.059-0.33-2.624
	c0-1.846,0.115-3.204,0.344-4.074h0.276c0,0.668,0.11,1.138,0.329,1.411c0.238,0.325,0.668,0.488,1.293,0.488l0.475-0.844
	c-0.158-0.246-0.238-0.457-0.238-0.633c0-0.404,0.225-0.606,0.673-0.606c0.457,0,0.686,0.229,0.686,0.686
	c0,0.475-0.251,0.712-0.751,0.712l-0.211,0.712c0.721,0,1.208,0.246,1.463,0.738C44.925,13.226,45.008,13.81,45.008,14.645z
	 M51.613,28.053c0,0.308-0.123,0.58-0.369,0.817c-0.237,0.246-0.51,0.369-0.817,0.369c-0.316,0-0.598-0.123-0.844-0.369
	c-0.246-0.237-0.369-0.51-0.369-0.817c0-0.158,0.033-0.308,0.099-0.448c0.066-0.141,0.156-0.264,0.271-0.369s0.244-0.189,0.389-0.25
	c0.146-0.062,0.297-0.092,0.455-0.092c0.343,0,0.626,0.112,0.851,0.336C51.501,27.453,51.613,27.728,51.613,28.053z M54.065,22.305
	c0,0.316-0.158,0.87-0.475,1.661l-0.698,1.635h-0.277l0.014-0.382c0.008-0.519-0.08-1.23-0.264-2.136
	c-0.256-1.134-0.567-1.701-0.937-1.701c-0.343,0-0.831,1.156-1.464,3.467c-0.324,0.018-0.65,0.04-0.975,0.066
	c-0.326,0.026-0.65,0.053-0.977,0.079c-0.746,0.062-1.384,0.189-1.911,0.382c0.035-0.272,0.095-0.595,0.178-0.969
	s0.191-0.802,0.323-1.286c0.29-1.072,0.475-1.828,0.554-2.268c0.633,0.105,1.226,0.158,1.78,0.158c1.547,0,2.32-0.281,2.32-0.844
	c0-0.062-0.005-0.138-0.014-0.231c-0.009-0.092-0.021-0.2-0.039-0.323s-0.031-0.233-0.04-0.33s-0.013-0.18-0.013-0.25
	c0-1.011,0.123-1.898,0.369-2.663c0.018-0.053,0.025-0.088,0.025-0.105c0-0.158-0.193-0.237-0.58-0.237h-2.992
	c-0.36,0-0.541-0.18-0.541-0.541v-3.362c0.098,0.035,0.181,0.053,0.251,0.053c0.176,0,0.264-0.079,0.264-0.237
	c0-0.018-0.02-0.132-0.06-0.343c-0.039-0.211-0.094-0.523-0.164-0.936c-0.316-0.132-0.475-0.352-0.475-0.659
	c0-0.457,0.219-0.686,0.658-0.686c0.457,0,0.686,0.229,0.686,0.686c0,0.29-0.136,0.488-0.408,0.593l0.211,0.791
	c0.132,0.378,0.277,0.567,0.436,0.567c0.141,0,0.236-0.11,0.289-0.33l0.66-2.716c-0.203-0.22-0.304-0.431-0.304-0.633
	c0-0.439,0.224-0.659,0.673-0.659c0.447,0,0.672,0.224,0.672,0.672c0,0.378-0.202,0.606-0.606,0.686
	c-0.185,1.784-0.276,2.694-0.276,2.729c0,0.202,0.109,0.303,0.329,0.303c0.185,0,0.387-0.202,0.606-0.606l0.396-0.831
	c-0.149-0.255-0.224-0.466-0.224-0.633c0-0.413,0.224-0.62,0.672-0.62s0.672,0.229,0.672,0.686s-0.246,0.686-0.738,0.686
	c-0.211,0.65-0.316,1.006-0.316,1.068c0,0.22,0.133,0.33,0.396,0.33c0.193,0,0.404-0.062,0.633-0.185
	c-0.045,1.178-0.078,2.065-0.1,2.663s-0.033,0.918-0.033,0.962c0,0.844,0.158,1.758,0.475,2.742c0.053,0.158,0.163,0.455,0.33,0.89
	c0.167,0.435,0.391,1.013,0.672,1.733C53.947,21.5,54.065,21.971,54.065,22.305z M50.176,18.429c0,0.158-0.03,0.306-0.092,0.442
	s-0.143,0.255-0.244,0.355c-0.102,0.102-0.22,0.183-0.355,0.244c-0.137,0.062-0.283,0.092-0.441,0.092s-0.307-0.031-0.442-0.092
	s-0.255-0.143-0.355-0.244c-0.102-0.101-0.183-0.219-0.244-0.355s-0.093-0.284-0.093-0.442c0-0.281,0.119-0.536,0.356-0.765
	c0.246-0.229,0.505-0.343,0.778-0.343c0.324,0,0.595,0.104,0.811,0.31C50.068,17.838,50.176,18.104,50.176,18.429z M59.01,28.87
	c-0.238,0-0.356-0.136-0.356-0.409v-0.87c0-0.264,0.118-0.396,0.356-0.396h5.049c0.229,0,0.343,0.132,0.343,0.396v0.87
	c0,0.272-0.114,0.409-0.343,0.409H59.01z M66.616,24.48c0,0.255-0.053,0.461-0.158,0.62c-0.272-0.167-0.593-0.25-0.962-0.25h-4.153
	c-0.844,0-1.499,0.083-1.964,0.25c0.141-1.046,0.244-1.929,0.309-2.65c0.066-0.721,0.1-1.283,0.1-1.688
	c0.114,0.035,0.255,0.053,0.422,0.053l5.129-0.026l-0.383-2.268c-0.132-0.844-0.383-1.424-0.752-1.74s-0.971-0.475-1.806-0.475
	h-1.767c-0.694,0-1.283,0.255-1.767,0.765c-0.492,0.519-0.738,1.116-0.738,1.793v3.902c-0.826,0.729-1.468,1.705-1.925,2.927h-0.158
	v-4.021c0-0.905,0.268-1.934,0.805-3.085c0.545-1.169,0.816-1.701,0.816-1.595c0-0.246-0.307-0.426-0.922-0.541
	c-0.203-0.018-0.407-0.04-0.613-0.066c-0.207-0.026-0.411-0.053-0.613-0.079c-0.387-0.062-0.576-0.448-0.566-1.16l0.171-5.287h0.276
	c0,0.527,0.146,1.006,0.436,1.437c0.308,0.475,0.712,0.76,1.213,0.857l1.266,0.237c0.466,0.176,0.699,0.479,0.699,0.91
	c0,0.035-0.025,0.286-0.072,0.751c-0.049,0.466-0.121,1.156-0.219,2.07c0.766-0.167,1.213-0.606,1.346-1.318l0.566-2.953
	c0.105,0.202,0.299,0.303,0.58,0.303h2.756c1.23,0,2.029,0.831,2.398,2.492c0.168,0.729,0.251,2.043,0.251,3.942V24.48z"/>
</svg>
