<?xml version="1.0" encoding="UTF-8" standalone="no"?>
<svg width="78px" height="78px" viewBox="0 0 78 78" version="1.1" xmlns="http://www.w3.org/2000/svg" xmlns:xlink="http://www.w3.org/1999/xlink">
    <!-- Generator: Sketch 48.2 (47327) - http://www.bohemiancoding.com/sketch -->
    <title>btn/hagada/info/selected</title>
    <desc>Created with Sketch.</desc>
    <defs>
        <ellipse id="path-1" cx="38.5" cy="37" rx="31.5" ry="32"></ellipse>
        <filter x="-16.7%" y="-13.3%" width="136.5%" height="135.9%" filterUnits="objectBoundingBox" id="filter-2">
            <feMorphology radius="1.5" operator="dilate" in="SourceAlpha" result="shadowSpreadOuter1"></feMorphology>
            <feOffset dx="1" dy="3" in="shadowSpreadOuter1" result="shadowOffsetOuter1"></feOffset>
            <feMorphology radius="1.5" operator="erode" in="SourceAlpha" result="shadowInner"></feMorphology>
            <feOffset dx="1" dy="3" in="shadowInner" result="shadowInner"></feOffset>
            <feComposite in="shadowOffsetOuter1" in2="shadowInner" operator="out" result="shadowOffsetOuter1"></feComposite>
            <feGaussianBlur stdDeviation="2.5" in="shadowOffsetOuter1" result="shadowBlurOuter1"></feGaussianBlur>
            <feColorMatrix values="0 0 0 0 0   0 0 0 0 0   0 0 0 0 0  0 0 0 0.5 0" type="matrix" in="shadowBlurOuter1"></feColorMatrix>
        </filter>
        <ellipse id="path-3" cx="38.5" cy="37" rx="27.5" ry="28"></ellipse>
        <filter x="-10.0%" y="-8.0%" width="127.3%" height="126.8%" filterUnits="objectBoundingBox" id="filter-4">
            <feOffset dx="2" dy="3" in="SourceAlpha" result="shadowOffsetOuter1"></feOffset>
            <feGaussianBlur stdDeviation="2" in="shadowOffsetOuter1" result="shadowBlurOuter1"></feGaussianBlur>
            <feColorMatrix values="0 0 0 0 0   0 0 0 0 0   0 0 0 0 0  0 0 0 0.5 0" type="matrix" in="shadowBlurOuter1"></feColorMatrix>
        </filter>
    </defs>
    <g id="Symboles" stroke="none" stroke-width="1" fill="none" fill-rule="evenodd">
        <g id="btn/hagada/info/selected">
            <g id="Oval-3">
                <use fill="black" fill-opacity="1" filter="url(#filter-2)" xlink:href="#path-1"></use>
                <use stroke="#FBF9ED" stroke-width="2" xlink:href="#path-1"></use>
            </g>
            <g id="Oval-3">
                <use fill="black" fill-opacity="1" filter="url(#filter-4)" xlink:href="#path-3"></use>
                <use fill="#0A9CA3" fill-rule="evenodd" xlink:href="#path-3"></use>
            </g>
            <path d="M42.9983219,36.9367216 C42.9573077,35.7373676 42.9945066,35.5015049 42.9372775,34.767196 C42.8795715,34.033401 42.0883792,34.0210683 42.0883792,34.0210683 C41.6729913,34.0210683 35.0062783,34 35.0062783,34 C34.3352671,34 34,34.361245 34,35.0847628 L34.8832357,53.9157511 C34.8832357,54.638755 35.2189798,55 35.889991,55 C35.889991,55 41.0105645,54.9794455 41.4259524,54.9794455 C41.4259524,54.9794455 42.2171447,54.9671128 42.2743738,54.232804 C42.3320798,53.4984951 43.0388591,38.1355617 42.9983219,36.9367216" id="Fill-4" fill="#FBF9ED"></path>
            <path d="M41.9255404,29.9837728 C41.5346648,29.9837728 41.1845801,30 40.5072716,30 L35.2690009,30 C34.6383106,30 34.3231896,29.7213664 34.3231896,29.1644949 L34.3231896,23.9686111 C34.4921805,24.0228338 34.6383106,24.0501431 34.7615798,24.0501431 C35.0690806,24.0501431 35.222831,23.9278451 35.222831,23.6832491 C35.222831,23.6563356 35.1883156,23.4794191 35.1188365,23.1536869 C35.0498058,22.8271631 34.9534316,22.3454911 34.8306106,21.7066918 C34.2770196,21.5032576 34,21.1636729 34,20.6879376 C34,19.9818547 34.3841518,19.6284175 35.1538002,19.6284175 C35.9534814,19.6284175 36.3537703,19.9818547 36.3537703,20.6879376 C36.3537703,21.1363636 36.1153003,21.4419107 35.6383604,21.6049747 L36.0077199,22.8271631 C36.2381213,23.4117396 36.4922801,23.7034342 36.7692997,23.7034342 C37.0149417,23.7034342 37.1843809,23.5340376 37.2767208,23.1940571 L38.430521,18.9967424 C38.0768503,18.6571576 37.9002391,18.3314254 37.9002391,18.0187542 C37.9002391,17.3395847 38.2924594,17 39.0769001,17 C39.861789,17 40.2540094,17.3463131 40.2540094,18.0389393 C40.2540094,18.62312 39.8994422,18.9765573 39.1921008,19.0988553 C38.8693595,21.8562991 38.7075406,23.2625282 38.7075406,23.3163551 C38.7075406,23.6290264 38.8998406,23.7849662 39.2844407,23.7849662 C39.6076302,23.7849662 39.9613009,23.4726907 40.345901,22.847744 L41.03845,21.5642087 C40.776671,21.1704013 40.6462297,20.8442733 40.6462297,20.5862205 C40.6462297,19.9478171 41.03845,19.6284175 41.8228907,19.6284175 C42.6073314,19.6284175 43,19.9818547 43,20.6879376 C43,21.3944164 42.56923,21.7474578 41.70769,21.7474578 C41.3383305,22.7527553 41.1536508,23.3032942 41.1536508,23.3978871 C41.1536508,23.7374718 41.3845004,23.9072642 41.8461998,23.9072642 C42.1841817,23.9072642 42.5535412,23.8126713 42.9538301,23.622298 C42.8767308,25.4425196 42.8189063,26.8147111 42.7808049,27.7380807 C42.7422552,28.6618462 42.7767706,28.8435121 42.7229804,29.4086951 C42.6691902,29.9742739 41.9255404,29.9837728 41.9255404,29.9837728" id="Fill-1" fill="#FBF9ED"></path>
        </g>
    </g>
</svg>