<?xml version="1.0" encoding="UTF-8" standalone="no"?>
<svg width="154px" height="23px" viewBox="0 0 154 23" version="1.1" xmlns="http://www.w3.org/2000/svg" xmlns:xlink="http://www.w3.org/1999/xlink">
    <!-- Generator: Sketch 49.3 (51167) - http://www.bohemiancoding.com/sketch -->
    <title>btn/main/homepage/normal copy</title>
    <desc>Created with Sketch.</desc>
    <defs>
        <polygon id="path-1" points="0.0358927516 0.0551529954 18.6861323 0.0551529954 18.6861323 20.9861668 0.0358927516 20.9861668"></polygon>
        <polygon id="path-3" points="0.0477473684 0.0263513514 11.9769674 0.0263513514 11.9769674 20.9518946 0.0477473684 20.9518946"></polygon>
        <polygon id="path-5" points="0 0.0497828244 16.9357725 0.0497828244 16.9357725 20.9565653 0 20.9565653"></polygon>
    </defs>
    <g id="Page-1" stroke="none" stroke-width="1" fill="none" fill-rule="evenodd">
        <g id="header-&amp;-home-page" transform="translate(-1421.000000, -668.000000)">
            <g id="btn/main/2homepage/normal" transform="translate(1419.000000, 661.000000)">
                <g id="dor2dor" transform="translate(2.000000, 10.000000)" fill="#FA7F8E">
                    <path d="M68,18.0236658 C68,18.2289302 67.9580834,18.3950737 67.8744883,18.5223376 C67.6579985,18.3880705 67.4034027,18.3206955 67.1104628,18.3206955 L63.8135782,18.3206955 C63.1436269,18.3206955 62.6239562,18.3880705 62.2540897,18.5223376 C62.3655498,17.680512 62.4477159,16.9695726 62.5001116,16.389278 C62.5522692,15.8092248 62.5784671,15.3564356 62.5784671,15.0309104 C62.6692071,15.0594059 62.7809053,15.0734122 62.9135619,15.0734122 L66.9847129,15.0521613 L66.6812938,13.2269983 C66.5765023,12.5476938 66.3776365,12.0808983 66.0846966,11.826129 C65.7917566,11.5713596 65.3137643,11.4440956 64.6507197,11.4440956 L63.2484185,11.4440956 C62.6970721,11.4440956 62.229559,11.6493601 61.845879,12.0596474 C61.4550543,12.4769379 61.2597609,12.9579812 61.2597609,13.5027771 L61.2597609,16.6440473 C60.6038612,17.2313451 60.0944315,18.0166626 59.7317099,19 L59.6061982,19 L59.6061982,15.7633422 C59.6061982,15.0345327 59.8188774,14.2067134 60.244712,13.2798841 C60.6772153,12.3390485 60.8934669,11.9111326 60.8934669,11.9958947 C60.8934669,11.7978749 60.6491121,11.6527409 60.1608788,11.5607341 C60.0003572,11.5467278 59.8379304,11.5288578 59.6743127,11.5078483 C59.5102187,11.4865974 59.3480299,11.4653465 59.1875084,11.4440956 C58.8802787,11.3945907 58.7304744,11.0833132 58.7373811,10.5102632 L58.8736101,6.25476938 L59.0934342,6.25476938 C59.0934342,6.67906303 59.2084667,7.06471867 59.4387699,7.41149481 C59.6828865,7.79352813 60.0039297,8.02342429 60.4016612,8.10118329 L61.4062309,8.29219995 C61.7760974,8.43371166 61.9611497,8.67785559 61.9611497,9.02439024 C61.9611497,9.05288578 61.9418586,9.25452789 61.9035144,9.62931659 C61.8651702,10.0043468 61.8075349,10.5597682 61.7308465,11.2955808 C62.3379229,11.1610722 62.6937378,10.8072929 62.7982912,10.2342429 L63.2484185,7.85703936 C63.3320135,8.01980198 63.4853902,8.10118329 63.7087867,8.10118329 L65.89631,8.10118329 C66.8732529,8.10118329 67.5081943,8.76986235 67.8011342,10.106979 C67.9335526,10.6940353 68,11.7517508 68,13.2798841 L68,18.0236658 Z" id="Path"></path>
                    <path d="M57.4713089,11.4440956 C57.2479124,11.3025839 56.9723583,11.2318281 56.6444084,11.2318281 C56.4350635,11.2318281 56.257156,11.2600821 56.1106861,11.3168317 L56.8013575,12.8343395 C57.0176091,13.4073895 57.125735,13.9485631 57.125735,14.4578604 C57.125735,15.9789906 56.7630134,17.4436127 56.037332,18.8514851 L55.890862,18.7452306 C55.8348938,16.9340739 55.4233489,15.2963052 54.6557509,13.8319247 C54.5440526,13.6124125 54.4883226,13.4286404 54.4883226,13.2798841 C54.4883226,13.1808742 54.7919799,12.5088143 55.3988181,11.2637044 C55.0430032,11.3839652 54.5545318,11.4440956 53.933642,11.4440956 L49.6007502,11.4440956 C49.370447,11.4440956 49.2551763,11.2777107 49.2551763,10.9451823 L49.2551763,6.57304999 L49.4750004,6.57304999 C49.4750004,7.59188602 49.8658252,8.10118329 50.6472366,8.10118329 L52.4055909,8.10118329 L52.4055909,7.05071239 C52.1893392,6.90195605 52.0812134,6.72518715 52.0812134,6.51992272 C52.0812134,6.17338807 52.2624552,6 52.6254149,6 C52.9881365,6 53.1696164,6.17338807 53.1696164,6.51992272 C53.1696164,6.7746921 53.0441047,6.95870563 52.7928432,7.07172181 L52.7928432,8.10118329 L56.3826677,8.10118329 C56.7944508,8.10118329 57.0840565,7.97730017 57.2514848,7.72977542 L57.3769965,7.85703936 C57.3769965,7.92779522 57.3665173,8.31345086 57.345559,9.01376479 C57.3386523,9.26153103 57.3350799,9.48780488 57.3350799,9.69306931 C57.3350799,9.89833374 57.3419866,10.0821058 57.3560382,10.2448684 C57.3910481,10.6906544 57.464164,11.0656846 57.5758622,11.3697175 L57.4713089,11.4440956 Z" id="Path"></path>
                    <path d="M46.3605484,8.07993238 C47.4139414,8.07993238 47.9409952,8.69186187 47.9409952,9.91596233 C47.9409952,14.2668438 47.8011938,17.0190775 47.5223054,18.1721806 C47.4387103,18.504709 47.3234397,18.6710939 47.1769697,18.6710939 C47.0233548,18.6710939 46.9080841,18.5472108 46.8316339,18.2996861 C46.8244891,18.2854383 46.8123428,18.154552 46.7949569,17.9070273 C46.7773329,17.659261 46.751135,17.2914755 46.7163633,16.8031876 C46.6813534,16.2373823 46.641342,15.6182082 46.5960912,14.9461483 C46.5506021,14.2740884 46.5034459,13.5416566 46.4548607,12.7493359 C46.4267576,12.2825404 46.3743618,11.9676407 46.2976734,11.804878 C46.1721618,11.5431055 45.9104211,11.4122193 45.5129278,11.4122193 C44.9894464,11.4122193 44.7312782,11.4158416 44.7384231,11.4228447 C44.4800167,11.3733398 44.3511707,11.1859454 44.3511707,10.8604202 C44.3511707,9.51630041 44.4766824,8.07993238 44.7279439,6.55179908 L44.947768,6.55179908 C44.947768,7.17435402 45.0208839,7.57425743 45.1673539,7.75102632 C45.3416889,7.97029703 45.7394204,8.07993238 46.3605484,8.07993238 Z" id="Path"></path>
                    <path d="M42.3737069,8.53634388 C42.8762299,8.97488529 43.1272532,9.7495774 43.1272532,10.8604202 C43.1272532,11.7659986 43.1203465,12.5370683 43.1065331,13.173871 C43.0922433,13.8106738 43.0715232,14.3235933 43.0436582,14.7126298 C42.9248151,16.3965226 42.6704574,17.6416325 42.2796326,18.4482009 C42.1817478,18.6604685 42.1122043,18.7664815 42.0702877,18.7664815 C41.9933612,18.7664815 41.9409655,18.6355953 41.9133386,18.3738227 C41.8783287,18.0625453 41.8504637,17.6875151 41.8295054,17.2489737 C41.8085471,16.8104323 41.7911612,16.3045158 41.7773478,15.7314658 C41.763058,15.0664091 41.7492446,14.5129196 41.7354311,14.0707559 C41.7213796,13.6285921 41.7075661,13.2871287 41.6935145,13.0466071 C41.6375463,12.4028013 41.5680029,12.0028979 41.4841696,11.8473799 C41.3236481,11.5573533 40.9783123,11.4122193 40.4479243,11.4122193 L37.3606228,11.4122193 C37.1860496,11.4122193 36.9557464,11.4477179 36.6697132,11.5184738 C36.3627216,11.581985 36.1569491,11.6138614 36.0521576,11.6138614 C36.0171477,11.6138614 36,11.5962328 36,11.5607341 C36,11.5254769 36.0085739,11.4530307 36.0261979,11.3431538 C36.0433456,11.23376 36.0695435,11.086694 36.1045534,10.902922 C36.14647,10.6976576 36.1779074,10.5315141 36.1988658,10.4040087 C36.2198241,10.2767447 36.2336375,10.1883603 36.2405442,10.1388553 L36.6382757,6.55179908 L36.8580998,6.55179908 C36.8580998,7.6058923 37.4301663,8.13305965 38.5745374,8.13305965 C38.679329,8.13305965 38.8153198,8.12774692 38.9827481,8.11712147 C39.1501764,8.1067375 39.3490421,8.09418015 39.5793454,8.07993238 C39.8096486,8.0659261 40.0101815,8.05336875 40.1811822,8.04298479 C40.3521829,8.03211785 40.4967476,8.02704661 40.6155907,8.02704661 C41.396764,8.02704661 41.9828821,8.19681236 42.3737069,8.53634388 Z" id="Path"></path>
                    <path d="M30,13.065906 C30,13.7299921 29.7480437,14.3268015 29.2443698,14.8568165 C29.1323627,14.9769018 28.9520527,15.1358098 28.7039175,15.3335406 C28.4553046,15.5315126 28.1388666,15.7644491 27.7541256,16.0330736 C27.1522963,16.4497551 26.7919151,16.8136279 26.6729822,17.1244511 C26.9249385,17.3928345 27.0507973,17.6860548 27.0507973,18.004112 C27.0507973,18.667957 26.7603907,19 26.1798164,19 C25.550045,19 25.2352787,18.657347 25.2352787,17.9722822 C25.2352787,17.4495012 25.5395368,16.8912734 26.148292,16.2978399 L27.84846,14.7931568 C28.4572152,14.1927304 28.7614734,13.6168998 28.7614734,13.065906 C28.7614734,11.9921314 28.0163513,11.4551235 26.5261071,11.4551235 L25.2562949,11.4551235 C25.1581394,11.4551235 25.0322807,11.4587405 24.8784798,11.4657334 C24.7244402,11.4729675 24.5460407,11.4835774 24.3430427,11.4975633 C24.1400447,11.5117902 23.9635559,11.5224002 23.8130985,11.5293931 C23.6626412,11.536386 23.5384542,11.540003 23.4405375,11.540003 C23.0837387,11.540003 22.9053392,10.6427393 22.9053392,8.84845293 C22.9053392,8.39632459 22.9316096,7.9142955 22.9841502,7.40212453 C23.0364521,6.88995355 23.1116807,6.34040663 23.2095974,5.75420717 C23.398505,4.69441836 23.4930782,4.18224738 23.4930782,4.21769424 C23.4930782,3.913864 23.1711472,3.72312613 22.5275241,3.64548062 C21.8839011,3.56759398 21.5619701,3.32043049 21.5619701,2.90350788 C21.5619701,2.38796101 21.6949935,1.84034317 21.9608015,1.26113663 C22.2545515,0.632256263 22.6077681,0.211957763 23.0206899,0 L23.0732305,0.0318298348 C22.9542976,0.498185141 22.8948311,0.741972739 22.8948311,0.762951494 C22.8948311,1.03856893 23.2270314,1.26113663 23.8919095,1.43065462 C24.5565489,1.59317968 24.888988,1.90400284 24.888988,2.3631241 C24.888988,2.41255679 24.7872501,2.79764957 24.584491,3.51816128 C24.1925854,4.93820595 23.996752,5.94832094 23.996752,6.5489885 L23.996752,6.72911643 C23.996752,7.2446633 24.0246941,7.59455035 24.0808171,7.77805417 C24.1925854,8.09611138 24.4691403,8.25501942 24.9100042,8.25501942 L28.0373676,8.25501942 C28.7860719,8.25501942 29.3074186,8.43514735 29.6011686,8.7954032 C29.8669766,9.12744625 30,9.69965987 30,10.5120441 L30,13.065906 Z" id="Path"></path>
                    <path d="M21.5306845,11.5612229 C21.3066703,11.4199178 21.0303542,11.3492652 20.7014974,11.3492652 C20.4915736,11.3492652 20.3131742,11.377478 20.1662991,11.4339036 L20.8588806,12.9494378 C21.0757302,13.5216514 21.184155,14.0620352 21.184155,14.5705891 C21.184155,16.0894992 20.8204304,17.5519837 20.0927422,18.9578014 L19.9458672,18.8517019 C19.889983,17.0431886 19.4770612,15.4078102 18.7073406,13.9453258 C18.5955723,13.7263751 18.5394493,13.5428713 18.5394493,13.3943321 C18.5394493,13.2954667 18.8439463,12.6243876 19.4524626,11.381095 C19.0956638,11.5011803 18.6060804,11.5612229 17.9832348,11.5612229 L13.638361,11.5612229 C13.407421,11.5612229 13.2920703,11.3950808 13.2920703,11.0630378 L13.2920703,6.6972866 L13.5122635,6.6972866 C13.5122635,7.71463563 13.904169,8.22318958 14.6877413,8.22318958 L16.4509581,8.22318958 L16.4509581,7.17401071 C16.2341084,7.02571262 16.1256836,6.84920172 16.1256836,6.64423687 C16.1256836,6.29820799 16.3076654,6.12507298 16.67139,6.12507298 C17.0351147,6.12507298 17.2170964,6.29820799 17.2170964,6.64423687 C17.2170964,6.89863441 17.0912377,7.08237937 16.8392813,7.1952306 L16.8392813,8.22318958 L20.4390329,8.22318958 C20.8519548,8.22318958 21.1423613,8.09948727 21.3102526,7.85232378 L21.4361114,7.97940198 C21.4361114,8.05005457 21.4256032,8.43514735 21.404587,9.13443917 C21.3976611,9.3818438 21.3940788,9.60778739 21.3940788,9.81275224 C21.3940788,10.0174759 21.4012435,10.2012209 21.4150951,10.363746 C21.4502018,10.8088814 21.5235199,11.1831231 21.635527,11.4869533 L21.5306845,11.5612229 Z" id="Path"></path>
                    <path d="M10.3891989,8.20196969 C11.4457438,8.20196969 11.9740163,8.81300607 11.9740163,10.0353199 C11.9740163,14.3798513 11.834067,17.1280681 11.5541686,18.2794883 C11.4703424,18.6115313 11.3547529,18.7776734 11.2078779,18.7776734 C11.0538383,18.7776734 10.9384876,18.6539711 10.8615872,18.4065665 C10.8544226,18.3925807 10.8422427,18.2618854 10.8248087,18.0144808 C10.807136,17.7673173 10.7808656,17.4000685 10.7459978,16.9124933 C10.710891,16.3472726 10.6707691,15.7292433 10.6253931,15.0581643 C10.5797782,14.3870853 10.5324916,13.6557225 10.4837721,12.8645582 C10.4555912,12.3982029 10.4030505,12.0840039 10.3263889,11.9214788 C10.2002914,11.6600883 9.93806571,11.5293931 9.53923434,11.5293931 C9.01430539,11.5293931 8.75542323,11.5330101 8.76258787,11.540003 C8.50346689,11.4905703 8.37426463,11.3032084 8.37426463,10.9783994 C8.37426463,9.6360002 8.50012339,8.20196969 8.75207973,6.67606671 L8.97251168,6.67606671 C8.97251168,7.29771302 9.04582978,7.69679163 9.19270481,7.87354367 C9.36752191,8.09249435 9.76635328,8.20196969 10.3891989,8.20196969 Z" id="Path"></path>
                    <path d="M6.3915712,8.65771505 C6.89524507,9.09561642 7.14720141,9.86917786 7.14720141,10.9783994 C7.14720141,11.882656 7.14003678,12.6526005 7.12618515,13.2884737 C7.1120947,13.924347 7.09107844,14.436518 7.06313636,14.8249867 C6.94396459,16.5064218 6.68890357,17.7497144 6.29699802,18.5551057 C6.19884251,18.7670635 6.12910673,18.8729218 6.0870742,18.8729218 C6.00993496,18.8729218 5.95763312,18.7422266 5.92969105,18.4808361 C5.89458433,18.1700129 5.86664225,17.7955301 5.84562599,17.3576288 C5.82460973,16.9194863 5.80717578,16.4145493 5.79332415,15.8423357 C5.7792337,15.1782496 5.76514325,14.6255679 5.75129162,14.1840495 C5.73720118,13.7425312 5.72334955,13.4015661 5.7092591,13.1613955 C5.65313612,12.5182882 5.58340034,12.1192096 5.49933528,11.9639186 C5.33836981,11.6743153 4.9920791,11.5293931 4.46046315,11.5293931 L1.36438539,11.5293931 C1.18932947,11.5293931 0.95838939,11.5645988 0.671565154,11.6352514 C0.363724655,11.6989111 0.157383157,11.7307409 0.0525406593,11.7307409 C0.017433946,11.7307409 0,11.7131381 0,11.6776912 C0,11.6424855 0.00859756243,11.5701449 0.0262703297,11.4604285 C0.0434654545,11.3511943 0.0697357842,11.204343 0.104842497,11.0208392 C0.146875025,10.8158743 0.17839942,10.6497322 0.199415684,10.522654 C0.220431948,10.3955758 0.234283576,10.3073204 0.241448212,10.2576465 L0.640040759,6.67606671 L0.860472707,6.67606671 C0.860472707,7.72862147 1.43412118,8.25501942 2.58165694,8.25501942 C2.68673826,8.25501942 2.82310515,8.24971445 2.99099644,8.23886337 C3.15888773,8.22849456 3.35830341,8.21619666 3.58924349,8.20196969 C3.82018357,8.18798386 4.02127101,8.17544483 4.19274461,8.16507602 C4.36421822,8.15422494 4.50918267,8.14891997 4.62835444,8.14891997 C5.41168791,8.14891997 5.99942683,8.31867909 6.3915712,8.65771505 Z" id="Path"></path>
                    <path d="M48.6427,6.99605372 C48.5113,6.99605372 48.3949,7 48.1693,7 L47.0347,7 C46.8244,7 46.2805,6.90653559 46.171,6.40743561 L46.1083,5.60821102 C46.1632,5.62067294 46.2133,5.62648851 46.2541,5.62648851 C46.3558,5.62648851 46.4077,5.59844918 46.4077,5.54257823 C46.4077,5.53613957 46.3969,5.49522293 46.3732,5.4198283 C46.3495,5.34464137 46.3183,5.23393797 46.276,5.08626419 C46.0927,5.03911659 46,4.96081418 46,4.85073387 C46,4.68810579 46.1284,4.6064802 46.3858,4.6064802 C46.6522,4.6064802 46.7839,4.68810579 46.7839,4.85073387 C46.7839,4.95437552 46.7053,5.02499308 46.5472,5.06217114 L46.6693,5.34464137 C46.7461,5.47964553 46.8307,5.54673221 46.9234,5.54673221 C47.0047,5.54673221 47.0614,5.50789255 47.0926,5.42917474 L47.4766,4.46067571 C47.359,4.38195791 47.3008,4.30718637 47.3008,4.23490723 C47.3008,4.07809471 47.431,4 47.6929,4 C47.9548,4 48.0847,4.0797563 48.0847,4.2396843 C48.0847,4.37427305 47.9674,4.45589864 47.7304,4.48393797 C47.6239,5.12094988 47.569,5.44475215 47.569,5.45721407 C47.569,5.52949322 47.6332,5.56584049 47.7619,5.56584049 C47.8699,5.56584049 47.9875,5.49376904 48.1159,5.34941844 L48.3463,5.0532401 C48.2587,4.96268347 48.2164,4.88728884 48.2164,4.82747161 C48.2164,4.68042094 48.3463,4.6064802 48.6082,4.6064802 C48.8683,4.6064802 49,4.68810579 49,4.85073387 C49,5.01419274 48.856,5.09561063 48.5689,5.09561063 C48.4453,5.32761008 48.3841,5.45472168 48.3841,5.47653005 C48.3841,5.55504016 48.4609,5.59408751 48.6145,5.59408751 C48.7273,5.59408751 48.8509,5.57248685 48.9844,5.52803932 C48.9595,5.94842149 48.9388,6.26474661 48.928,6.47805317 C48.9139,6.69115204 48.9262,6.73289947 48.9076,6.86354196 C48.8905,6.99376904 48.6427,6.99605372 48.6427,6.99605372" id="Fill-7"></path>
                    <path d="M11.6427,6.99605372 C11.5113,6.99605372 11.3949,7 11.1693,7 L10.0344,7 C9.8244,7 9.2805,6.90653559 9.171,6.40743561 L9.1083,5.60821102 C9.1632,5.62067294 9.2133,5.62648851 9.2541,5.62648851 C9.3558,5.62648851 9.4077,5.59844918 9.4077,5.54257823 C9.4077,5.53613957 9.3969,5.49522293 9.3732,5.4198283 C9.3495,5.34464137 9.3183,5.23393797 9.276,5.08626419 C9.0927,5.03911659 9,4.96081418 9,4.85073387 C9,4.68810579 9.1284,4.6064802 9.3858,4.6064802 C9.6522,4.6064802 9.7839,4.68810579 9.7839,4.85073387 C9.7839,4.95437552 9.7053,5.02499308 9.5472,5.06217114 L9.6693,5.34464137 C9.7461,5.47964553 9.8307,5.54673221 9.9234,5.54673221 C10.0047,5.54673221 10.0614,5.50789255 10.0926,5.42917474 L10.4766,4.46067571 C10.359,4.38195791 10.3008,4.30718637 10.3008,4.23490723 C10.3008,4.07809471 10.431,4 10.6929,4 C10.9548,4 11.0847,4.0797563 11.0847,4.2396843 C11.0847,4.37427305 10.9674,4.45589864 10.7304,4.48393797 C10.6239,5.12094988 10.569,5.44475215 10.569,5.45721407 C10.569,5.52949322 10.6332,5.56584049 10.7619,5.56584049 C10.8699,5.56584049 10.9875,5.49376904 11.1159,5.34941844 L11.3463,5.0532401 C11.2587,4.96268347 11.2164,4.88728884 11.2164,4.82747161 C11.2164,4.68042094 11.3463,4.6064802 11.6082,4.6064802 C11.8683,4.6064802 12,4.68810579 12,4.85073387 C12,5.01419274 11.856,5.09561063 11.5689,5.09561063 C11.4453,5.32761008 11.3841,5.45472168 11.3841,5.47653005 C11.3841,5.55504016 11.4609,5.59408751 11.6145,5.59408751 C11.7273,5.59408751 11.8509,5.57248685 11.9844,5.52803932 C11.9595,5.94842149 11.9388,6.26474661 11.928,6.47805317 C11.9139,6.69115204 11.9262,6.73289947 11.9076,6.86354196 C11.8905,6.99376904 11.6427,6.99605372 11.6427,6.99605372" id="Fill-9"></path>
                </g>
                <g id="Page-1" transform="translate(76.000000, 7.000000)">
                    <g id="Group-3" transform="translate(61.000000, 2.000000)">
                        <mask id="mask-2" fill="white">
                            <use xlink:href="#path-1"></use>
                        </mask>
                        <g id="Clip-2"></g>
                    </g>
                    <g id="Group-8" transform="translate(16.000000, 0.000000)">
                        <mask id="mask-4" fill="white">
                            <use xlink:href="#path-3"></use>
                        </mask>
                        <g id="Clip-7"></g>
                    </g>
                    <g id="Group-15" transform="translate(0.000000, 1.000000)">
                        <mask id="mask-6" fill="white">
                            <use xlink:href="#path-5"></use>
                        </mask>
                        <g id="Clip-14"></g>
                    </g>
                    <path d="M61.2581837,8.30104028 C61.7994785,7.56202271 62.2068187,6.79662354 62.1013875,5.83798126 C62.0619939,5.4799572 62.022355,5.12110092 62.005437,4.76149563 C61.9579522,3.75050627 61.6781101,2.82723364 61,2 C61.0975851,2.00749004 61.1528343,1.99517308 61.1877328,2.01689421 C61.8101034,2.40529455 62.496223,2.4051281 63.196155,2.40296431 C66.8458701,2.39131314 70.4960756,2.3600214 74.1449735,2.41594705 C75.610221,2.43841718 77.0729349,2.6621198 78.5354036,2.8095072 C78.6365848,2.81974359 78.7729097,2.93825272 78.8125486,3.03903541 C79.1361159,3.86127569 79.4599284,4.68468108 79.7381358,5.52339945 C79.8147164,5.75434244 79.7550538,6.03987953 79.7287369,6.29728734 C79.6192193,7.3669487 79.3217237,8.36612044 78.5747973,9.1663067 C77.999176,9.78307013 78.0672567,10.5339885 78.1046888,11.2824103 C78.1082849,11.3538986 78.1662312,11.4342917 78.2198458,11.4894684 C78.7885201,12.0742743 78.8816918,12.3777875 78.5343411,13.0542216 C78.3579687,13.3978481 78.3921317,13.6525096 78.5493794,13.9684229 C79.0224301,14.9190758 79.4753753,15.8802148 79.9306089,16.8400222 C79.974089,16.9319001 80.0151173,17.051824 79.9945214,17.1442844 C79.5720613,19.047754 79.1407745,20.949143 78.7094058,22.8506153 C78.7007425,22.8890641 78.6715651,22.9226029 78.6291474,23 C78.5761867,22.8905621 78.5273124,22.8070066 78.4935581,22.7176254 C77.8990573,21.1411378 77.3011238,19.5661482 76.7205988,17.9843343 C76.654643,17.8044068 76.6490037,17.5787069 76.6834936,17.3869618 C76.908822,16.1358749 77.1672508,14.8925278 77.724156,13.7241643 C77.5399376,13.5905919 77.3562096,13.4735808 77.1906255,13.334266 C76.6207253,12.8545703 76.5980862,12.3471615 77.113391,11.8117067 C77.6586089,11.2450433 77.7210503,10.8916797 77.1728902,10.2984683 C76.448848,9.51492659 75.6432397,8.80911487 74.863458,8.08033368 C74.7842621,8.0063487 74.6413988,7.97472408 74.5272226,7.9722274 C71.8728918,7.91571918 69.2186426,7.84131809 66.5640666,7.82883468 C65.6903776,7.82467355 64.8061455,8.10713139 63.944716,8.03522698 C63.0080952,7.95708086 62.1181421,7.98371213 61.2581837,8.30104028" id="Fill-1" fill="#FBF9ED"></path>
                    <path d="M29.9103794,21 C29.6484661,20.2180392 29.4404762,19.5318503 29.1880134,18.8633186 C28.9762909,18.3026015 28.7136629,17.7619013 28.47073,17.2136337 C28.4030677,17.0607404 28.3462854,16.8961299 28.248604,16.7648809 C27.6188368,15.9186383 27.9794639,15.0655606 28.1767327,14.1885602 C28.3833726,13.2703869 28.4970166,12.3301625 28.6464771,11.398726 C28.6529892,11.3581226 28.6123283,11.309545 28.5957304,11.2697553 C28.2910914,11.4412822 27.9984443,11.6060554 27.7366898,11.7534156 C27.5141668,11.5246046 27.3516821,11.3576344 27.1616401,11.1621849 C27.1871326,11.1110848 27.2360527,11.013116 27.2953763,10.8943979 C26.8870997,10.7081431 26.9291107,10.3979627 27.0721385,10.0635341 C27.0922307,10.0167466 27.1521102,9.96263591 27.1411508,9.93082044 C26.8786022,9.16846971 27.5125785,9.24056308 27.892583,9.07709178 C27.9040983,9.07220961 27.9145018,9.06456088 27.9692192,9.03274541 C27.834133,8.59562852 27.7054794,8.14337691 27.5478391,7.70211018 C27.52052,7.62570423 27.3747921,7.56475849 27.27584,7.5487287 C26.3661321,7.40169404 25.4565831,7.25026542 24.5432221,7.13187282 C23.6744134,7.01933881 22.867946,7.25286924 22.0807767,7.72497501 C22.0312213,7.41471315 21.9942135,7.13838237 21.9421962,6.86506227 C21.5954668,5.04474547 20.8734185,3.37878659 19.9574368,1.79118652 C19.6275436,1.21932177 19.3185367,0.634844739 19,0.0559822072 C19.0258101,0.0373485946 19.0516997,0.0186336126 19.0775098,0 C19.1777325,0.0670484575 19.2772405,0.135317457 19.3783368,0.200819894 C20.1566116,0.705147976 20.9318685,1.2144396 21.7145905,1.71144442 C22.4626078,2.18656086 23.2786845,2.40723491 24.162344,2.39747057 C24.9441924,2.38876404 25.6759295,2.53335762 26.3334128,3.04321882 C27.1240764,3.65650065 27.6027154,4.39940407 27.6729189,5.43499353 C27.7129445,6.02459683 27.8798765,6.60411032 27.9635807,7.19200487 C28.0758747,7.98080068 28.5071818,8.45673081 29.2420161,8.68505359 C30.2919723,9.01126386 30.3294565,9.07741725 30.3686879,10.3533722 C30.386477,10.9301191 30.2871279,11.106935 29.7059631,11.3150782 C29.3532776,11.4413636 29.2975277,11.6111003 29.4503237,11.9435761 C29.8813926,12.8820104 30.215336,13.8785425 30.7399567,14.756682 C31.0781886,15.3228509 31.0319686,15.8000015 30.9057769,16.3553483 C30.7800617,16.9089863 30.736383,17.4903713 30.5484853,18.0190288 C30.2405108,18.8850443 30.2683858,19.8082625 30.024341,20.6796483 C30.0046459,20.7497075 29.975818,20.8171628 29.9103794,21" id="Fill-6" fill="#FBF9ED"></path>
                    <path d="M65.5989938,22 C65.0688853,20.5639639 64.5337923,19.1298523 64.0173505,17.6889246 C63.9703209,17.5578948 64.0301329,17.3807558 64.0640586,17.2303201 C64.3337756,16.0351736 64.6182045,14.8432348 64.8773902,13.6459232 C64.9540043,13.2922067 64.967671,12.9587782 64.5041275,12.7737807 C64.2038613,12.6539774 64.0946078,12.331214 64.1819141,11.9892854 C64.2794303,11.6071016 64.9575416,11.0090472 65.3471239,11.0002264 C65.7744104,10.9905234 66.0479059,11.2944422 66.2778287,11.5894598 C66.5001945,11.8746944 66.4348353,12.2459725 66.2077263,12.480447 C65.8498186,12.8498005 65.9630114,13.2156256 66.070657,13.6148096 C66.369235,14.7221484 66.6600149,15.8314919 66.9508752,16.9408355 C66.9773244,17.041714 67.0171991,17.1575881 66.9919558,17.2506882 C66.5636242,18.8310657 66.1260475,20.4089573 65.6904002,21.9874102 C65.6599314,21.9916603 65.6294626,21.9957499 65.5989938,22" id="Fill-4" fill="#FBF9ED"></path>
                    <path d="M50.9345525,7.49062543 C50.7914827,5.82775421 50.9749438,3.89604489 49.2096698,2.61738059 C49.3717327,2.4770494 49.4751576,2.3876283 49.5789972,2.29845354 C49.3863299,1.9059532 49.1932479,1.51320651 49,1.12037772 C49.0580573,1.08030656 49.1160317,1.04007116 49.174089,1 C49.4448019,1.26727795 49.7242235,1.52667305 49.9843202,1.80372246 C50.5286489,2.38335842 51.2076706,2.64020802 51.9924396,2.65465992 C53.7387205,2.68701245 55.4850844,2.71468455 57.2312823,2.74999316 C57.5611308,2.75664431 57.7270088,2.8894211 57.6543543,3.26492405 C57.4159875,4.49776926 57.2022537,5.73521281 56.9771572,6.97060353 C56.9699415,7.01042836 56.9179388,7.05871083 56.9294673,7.08293417 C57.4105136,8.08742302 56.6289792,9.20145066 57.2058201,10.1962502 C57.2924084,10.3455317 57.3406789,10.5935131 57.461604,10.6337485 C58.1508272,10.8628438 57.8598771,11.1545915 57.604342,11.4096346 C57.8092843,11.667798 58.1446068,11.9076502 58.1577941,12.1636787 C58.1686591,12.3754482 57.7991658,12.6064322 57.6474703,12.7741891 C58.059926,13.7877925 58.5351666,14.8133844 58.8849204,15.8791296 C59.0446609,16.3658136 59.0000397,16.9342001 58.9730016,17.4617764 C58.9128708,18.6374709 58.8048842,19.8107842 58.7180471,20.9851649 C58.7020399,21.2017791 58.6938289,21.4190502 58.554989,21.6464212 C58.2796315,20.993951 57.9896767,20.3469823 57.733561,19.6872862 C57.5648631,19.2526618 57.3153825,19.0817025 56.9793136,19.2490489 C56.8431278,19.887642 56.6895247,20.4456822 56.6117279,21.0137402 C56.5187533,21.6924867 56.0696385,21.6308198 55.572668,21.6193239 C54.3584408,21.5909949 53.1423061,21.5726016 51.9291571,21.6145614 C51.5957423,21.6261393 51.2702896,21.8644314 50.9380359,22 C50.9304885,21.9795539 50.8939124,21.9301218 50.906602,21.9069659 C51.6781837,20.4957712 51.6204581,18.9430135 51.6976743,17.4124264 C51.7240489,16.8915013 52.1140282,16.9590803 52.476057,16.9393732 C53.6885424,16.8736007 54.8989544,16.7519912 56.1119374,16.7186533 C56.8357462,16.6988641 56.9040879,16.2277816 56.9324531,15.7299302 C56.9736738,15.0076639 56.9551784,14.2821952 56.9672045,13.5581223 C56.9740885,13.1412344 56.8905689,12.8218147 56.3958377,12.6996305 C56.2455522,12.6625154 56.1500894,12.3758588 56.0466644,12.1938963 C55.9517822,12.0270426 55.9124691,11.8201998 55.7920417,11.6778979 C55.3843964,11.1958943 55.4127615,10.9401122 55.9516993,10.6041057 C56.2475427,10.4195155 56.2677798,9.90557 55.9333697,9.67245107 C55.2594073,9.20260025 54.672282,8.59192555 53.792465,8.44280827 C53.4160048,8.37900643 53.0747937,8.13307787 52.7039734,8.00941563 C52.17814,7.83410428 51.6399488,7.69516902 50.9345525,7.49062543" id="Fill-9" fill="#FBF9ED"></path>
                    <path d="M46.507363,21 C46.1032074,19.9722498 45.7509081,19.0375961 45.367333,18.1161366 C45.154965,17.6059083 44.854198,17.1854985 44.3387943,16.8847376 C43.5140349,16.403602 43.5095785,15.7934751 44.2297339,15.2033444 C44.3204825,15.1289327 44.417065,15.010759 44.432784,14.9013541 C44.5949972,13.7671493 44.7412484,12.6307317 44.8912267,11.5000507 C44.6816946,11.3991688 44.5117839,11.3490966 44.3805225,11.2480507 C44.0186622,10.9693346 44.1495185,10.6371863 44.3186999,10.3136429 C44.5188331,9.93101268 44.4097727,9.30097171 44.068655,9.0353678 C43.3853663,8.50342244 42.6991606,7.97426341 41.9951293,7.47141073 C41.8513899,7.3688078 41.6212773,7.34536976 41.4346754,7.35561366 C38.6216292,7.51025561 35.8092313,7.67669854 32.9965092,7.8392078 C32.8827493,7.8457639 32.7681791,7.84002732 32.5955946,7.84002732 C32.4794039,7.01518829 32.387926,6.18379317 32.23576,5.36387122 C32.1612975,4.9628839 32.0255796,4.55386537 31.8277152,4.19975415 C31.3405083,3.32738341 30.7871036,2.49312 30.2875809,1.62746927 C29.8839115,0.92801561 29.9083812,0.477857561 30.3409768,0 C30.7871846,0.376729756 31.22529,0.769849756 31.6899717,1.12764878 C31.8865397,1.27901268 32.1285632,1.39521951 32.3678317,1.46078049 C34.2117309,1.96609171 36.087149,1.87881366 37.9714799,1.79210927 C40.0245061,1.69753756 42.0814216,1.67409951 44.1369596,1.6601678 C45.4605125,1.65115317 46.3150082,2.55171512 46.30804,3.89719024 C46.3030165,4.87126244 46.2620175,5.84525268 46.2236924,6.81875122 C46.2176155,6.97142634 46.1553068,7.12795317 46.0931602,7.2712039 C45.8163768,7.90935805 45.550856,8.55398634 45.2392316,9.17468488 C45.060084,9.53166439 45.0100912,9.83955512 45.2597311,10.1729327 C45.5198232,10.520242 45.5521524,10.8600117 45.2508182,11.224121 C45.1735198,11.3174634 45.1808121,11.5552859 45.2417434,11.6809171 C45.6843051,12.5934439 46.1428289,13.4982673 46.6179629,14.3939941 C46.6818921,14.5144624 46.8607155,14.6319805 46.9962713,14.6448468 C47.7874051,14.7199141 48.2764755,15.4616546 47.8308348,16.1354576 C47.2141491,17.0675707 47.2030486,18.1385912 46.922214,19.1458537 C46.7603248,19.7263141 46.6565311,20.3233288 46.507363,21" id="Fill-11" fill="#FBF9ED"></path>
                    <path d="M0.0744266254,1 C1.80722908,1.95621787 3.70675038,1.69278898 5.55523857,1.74954857 C7.33306553,1.80389285 9.11337604,1.77651944 10.8925649,1.78400687 C11.8546633,1.78811288 12.7992966,1.89503023 13.7005878,2.25957974 C15.3248347,2.91662226 16.0922541,4.1305528 15.9922709,5.8849473 C15.91488,7.2435544 15.8423762,8.60256405 15.7529681,9.96028554 C15.7351826,10.2305578 15.7852543,10.3773276 16.0597276,10.5028428 C16.9434736,10.9071642 17.0094081,11.5018115 16.3015941,12.1927487 C16.2030529,12.2889582 16.1678825,12.4729237 16.1460913,12.6225919 C16.0120593,13.5446735 16.2398256,14.4240043 16.4819324,15.2998731 C16.5493089,15.543738 16.596096,15.7984718 16.7004054,16.0259127 C17.1118749,16.9218286 17.0663697,17.8071976 16.7644972,18.7291182 C16.5178238,19.4825312 16.3651251,20.2669407 16.1420054,21.1516656 C16.031447,20.914483 15.9655126,20.7794676 15.9049458,20.642037 C15.393413,19.4854296 14.8879689,18.3261654 14.3677035,17.1735835 C14.2673998,16.9516173 14.2674799,16.7746562 14.3531226,16.5385202 C14.7152414,15.5388269 15.0470768,14.5277817 15.3751468,13.5160924 C15.4355533,13.3299532 15.4321084,13.1217542 15.4494132,12.9228944 C15.4763318,12.6138968 15.3812355,12.3728497 15.0675862,12.2562712 C15.006699,12.2335673 14.9540635,12.1879181 14.8988645,12.1508835 C14.1853623,11.6717682 14.1821577,11.1705931 14.8897314,10.6915583 C14.9772968,10.6323834 15.0672657,10.5768315 15.167249,10.512504 C15.0598151,9.94861159 14.9893141,9.37787584 14.8374164,8.82976342 C14.6336045,8.09406258 14.0619054,7.59804016 13.371957,7.50295779 C11.0334868,7.18083707 8.68788647,6.85960197 6.31408571,6.9927656 C5.43546698,7.04203775 5.10515377,7.38356138 5.10483331,8.27013806 C5.10475319,8.57575421 5.12750579,8.88620096 5.18703107,9.18497376 C5.21587238,9.32989185 5.32651089,9.48986532 5.44700351,9.57890943 C5.8108047,9.847813 5.89388372,10.1002925 5.68951093,10.5055801 C5.63599426,10.6116924 5.58071507,10.7355973 5.49026549,10.801052 C5.04050114,11.1267152 5.02095314,11.5932709 5.0364954,12.0812423 C5.04835239,12.4545674 5.03849827,12.8285366 5.05155698,13.2017812 C5.09161437,14.3511427 5.22532593,14.5553967 6.22523843,15.0395841 C6.05771843,17.0181186 5.89027855,18.9936742 5.71979431,21.0058619 C5.19760622,21.0320277 4.64425347,21.0860499 4.09138141,21.0821049 C2.76620293,21.0726047 1.45816901,21.1107665 0.339526414,22 C0.319257376,21.9737537 0.298988338,21.9475074 0.2787193,21.9211807 C0.383028736,21.7301303 0.470193611,21.527084 0.594291396,21.3501229 C1.1609432,20.542285 1.29193085,19.5972581 1.38678674,18.6605236 C1.49133652,17.6287068 1.50159122,16.5873093 1.55078169,15.5500178 C1.55759144,15.4076761 1.55166295,15.2646097 1.55166295,15.0922377 C2.31892214,15.135069 3.03699087,15.1750825 3.85151778,15.2204902 C3.67254137,15.0674406 3.57031492,14.9799262 3.44685805,14.874297 C3.53530476,14.7999862 3.59979716,14.7365443 3.67310217,14.6858229 C4.5164704,14.1021251 4.68078581,13.1844715 4.79286638,12.2711655 C4.83196239,11.9532313 4.66404182,11.6096949 4.58160372,11.2370139 C4.43547437,11.1649574 4.22292987,11.0829982 4.03466015,10.9628772 C3.65235245,10.7189317 3.60684726,10.4084045 3.8901331,10.0557705 C3.98114348,9.94257333 4.09001946,9.84121118 4.2019398,9.74806105 C4.63127488,9.3903549 4.72212503,9.01646622 4.46567764,8.5164183 C4.27756815,8.14961451 4.06358158,7.79633641 3.86201281,7.43645648 C3.6417773,7.04332591 3.30513502,6.92521766 2.88301027,7.02577472 C2.56479439,7.10145416 2.24922229,7.18864655 1.87268285,7.28630524 C2.38405545,5.80508133 1.74850495,4.51136534 1.34120144,3.19092 C1.25812242,2.9217749 1.04189264,2.69368993 0.884226764,2.44845632 C0.590526002,1.99156178 0.29482237,1.5358749 0,1.07986597 L0.0744266254,1 Z" id="Fill-13" fill="#FBF9ED"></path>
                </g>
            </g>
        </g>
    </g>
</svg>