<?xml version="1.0" encoding="UTF-8" standalone="no"?>
<svg width="32px" height="32px" viewBox="0 0 32 32" version="1.1" xmlns="http://www.w3.org/2000/svg" xmlns:xlink="http://www.w3.org/1999/xlink">
    <!-- Generator: Sketch 49.3 (51167) - http://www.bohemiancoding.com/sketch -->
    <title>img/playlist/icon-of-song/hover</title>
    <desc>Created with Sketch.</desc>
    <defs></defs>
    <g id="img/playlist/icon-of-song/hover" stroke="none" stroke-width="1" fill="none" fill-rule="evenodd">
        <path d="M27.1903431,21.7653272 C26.8479224,21.1412816 26.3592169,19.9288058 26.0462166,19.2242381 C26.170436,18.7519455 26.3118174,18.3106229 26.475264,17.9041416 C26.6558726,17.4527537 26.853643,17.0369814 27.0693926,16.6552761 C26.1124125,15.9282551 25.5673179,15.191169 25.4349261,14.4463403 C25.2469625,13.3910373 25.3384926,11.6861384 25.7855192,11.05977 C26.3011934,10.1678338 25.9269005,9.72805973 25.7381197,8.86167379 C25.525639,7.8218558 25.4324744,5.52620403 26.0102583,3.77252738 L25.7013442,3.65406711 C25.4104091,4.25643374 24.5637555,4.39502453 23.7685876,4.71478985 C23.4261668,4.85105788 21.6903635,5.31870498 19.7322726,5.8281616 C19.7208314,5.79564309 19.6971316,5.60672605 19.6579044,5.25753922 C19.6186772,4.90757814 19.5541158,4.39270177 19.4650374,3.71136162 C19.9243225,3.35520654 20.0771451,2.93556294 19.9243225,2.45320509 C19.6971316,1.73547517 19.2190502,1.48074686 18.4917126,1.68747166 C17.7349546,1.90271321 17.4693538,2.36881182 17.6965447,3.08654173 C17.8411949,3.54102658 18.1648193,3.78723814 18.668235,3.8251764 L18.7123656,5.16540345 C18.6886658,5.67563432 18.5938668,6.00623914 18.4296029,6.16496043 C18.3045662,6.19747893 18.1795295,6.22999744 18.0544928,6.2617417 C17.9041219,6.22225494 17.7619233,6.09605216 17.6295315,5.87926211 L15.1876386,1.92748922 C15.413195,1.48848937 15.4753047,1.10988103 15.3747851,0.792438459 C15.1565838,0.102581552 14.6760506,-0.136661752 13.9331856,0.0739342958 C13.1911379,0.285304594 12.9312577,0.742886447 13.1543624,1.44590561 C13.342326,2.03898124 13.7909871,2.3022263 14.4995283,2.23641504 C15.6918716,4.94938765 16.2974414,6.33374696 16.3146033,6.38871873 C16.352196,6.507179 16.3570994,6.61170278 16.3301307,6.70074155 C16.0032374,6.78281207 15.6918716,6.86178558 15.4017538,6.9345651 C15.1745629,6.82694433 14.9130483,6.63493028 14.6131237,6.35310322 L13.5458171,5.23663447 C13.6667676,4.76589036 13.685564,4.39967003 13.6022062,4.13719922 C13.3970806,3.48992607 12.9230854,3.27081327 12.1802204,3.48218357 C11.4381726,3.69277962 11.1807441,4.15732972 11.407935,4.87428538 C11.6351258,5.5920153 12.1565206,5.8343556 12.9713021,5.6028548 C13.6438851,6.52343826 13.9961126,7.03289487 14.0263502,7.12967615 C14.0418777,7.17845391 14.05005,7.22490892 14.0549534,7.26981543 C13.7158016,7.3526602 13.4861591,7.40763196 13.4085219,7.42389121 L10.7516967,7.97438309 C7.46723632,8.26395265 8.84917771,14.6437741 9.11886468,15.2794335 C9.38855164,15.9143186 9.55526722,16.3564155 9.61819418,16.6041755 C9.92629111,17.8197483 9.45474753,18.0775736 9.11477851,19.2219154 C9.59612888,19.9349998 10.0284453,20.5900154 10.4117276,21.1869623 C10.7263624,21.6762884 11.0091251,22.1338703 11.2632847,22.5628049 C11.1758407,23.1705913 11.0025873,24.0509137 10.5743571,24.9018147 C9.41388587,24.6943156 8.02295491,24.9049117 6.74643661,25.5754123 C4.43366657,26.7886624 3.3745323,29.0425046 4.37972917,30.609587 C5.38656051,32.1758951 8.07689231,32.4615934 10.3896624,31.2483434 C11.6195984,30.6026187 12.4948552,29.662679 12.893665,28.6886723 C12.9982708,28.4331697 13.0685529,28.1761187 13.1053284,27.9213904 C13.3758326,26.6314896 13.0072604,25.9865392 12.7106047,25.172028 C12.4809622,24.5394656 12.0355701,23.2898258 11.7225697,22.4969936 C11.7348282,21.8117822 11.7699693,21.1699288 11.8304445,20.5776274 C11.8982749,19.9102238 11.989805,19.2939207 12.1042177,18.7279438 C11.0794072,17.661027 10.8832712,17.499983 10.6045947,16.3997735 C10.1943436,14.7854619 11.0687832,13.7533864 13.2279134,13.3058698 L14.8762728,12.9636512 C15.7253781,12.7878964 20.1637718,12.0213888 23.125425,11.5142549 C23.4604906,12.3140553 23.8233422,13.235413 23.955734,13.5396933 C24.1575906,14.0034692 24.2785411,14.349559 24.3185855,14.5779628 C24.4624186,15.383183 24.2532069,16.1814349 23.6901332,16.9719444 C24.1052877,17.456625 24.4771288,17.9025931 24.8040221,18.3083002 C25.122743,18.7031678 25.4006023,19.0693881 25.6384172,19.4069612 C25.5632317,20.0008111 25.4218504,20.8881018 25.0679884,21.7908775 C23.8748279,21.7227435 22.5108656,22.1129655 21.3373187,22.9538012 C19.2411155,24.4550723 18.5505534,26.8227294 19.7943824,28.2427042 C21.0390286,29.662679 23.7465223,29.5960935 25.8435427,28.0948224 C26.9590661,27.2957962 27.6716935,26.2513327 27.9103256,25.233968 C28.0386312,24.6757336 28.0312761,24.147695 27.8751846,23.6684341 C27.7632236,22.8957325 27.5090641,22.3444663 27.1903431,21.7653272 Z" id="Path" fill="#FBF9ED"></path>
    </g>
</svg>