<?xml version="1.0" encoding="UTF-8" standalone="no"?>
<svg width="76px" height="76px" viewBox="0 0 76 76" version="1.1" xmlns="http://www.w3.org/2000/svg" xmlns:xlink="http://www.w3.org/1999/xlink">
    <!-- Generator: Sketch 49.3 (51167) - http://www.bohemiancoding.com/sketch -->
    <title>btn/hagada/Music/normal</title>
    <desc>Created with Sketch.</desc>
    <defs>
        <circle id="path-1" cx="35" cy="35" r="35"></circle>
        <filter x="-10.0%" y="-10.0%" width="120.0%" height="120.0%" filterUnits="objectBoundingBox" id="filter-2">
            <feMorphology radius="1" operator="dilate" in="SourceAlpha" result="shadowSpreadOuter1"></feMorphology>
            <feOffset dx="0" dy="0" in="shadowSpreadOuter1" result="shadowOffsetOuter1"></feOffset>
            <feMorphology radius="1" operator="erode" in="SourceAlpha" result="shadowInner"></feMorphology>
            <feOffset dx="0" dy="0" in="shadowInner" result="shadowInner"></feOffset>
            <feComposite in="shadowOffsetOuter1" in2="shadowInner" operator="out" result="shadowOffsetOuter1"></feComposite>
            <feGaussianBlur stdDeviation="2" in="shadowOffsetOuter1" result="shadowBlurOuter1"></feGaussianBlur>
            <feColorMatrix values="0 0 0 0 0   0 0 0 0 0   0 0 0 0 0  0 0 0 0.14 0" type="matrix" in="shadowBlurOuter1"></feColorMatrix>
        </filter>
        <filter x="-12.1%" y="-12.1%" width="124.3%" height="124.3%" filterUnits="objectBoundingBox" id="filter-3">
            <feMorphology radius="1" operator="erode" in="SourceAlpha" result="shadowSpreadInner1"></feMorphology>
            <feGaussianBlur stdDeviation="2.5" in="shadowSpreadInner1" result="shadowBlurInner1"></feGaussianBlur>
            <feOffset dx="1" dy="1" in="shadowBlurInner1" result="shadowOffsetInner1"></feOffset>
            <feComposite in="shadowOffsetInner1" in2="SourceAlpha" operator="arithmetic" k2="-1" k3="1" result="shadowInnerInner1"></feComposite>
            <feColorMatrix values="0 0 0 0 0   0 0 0 0 0   0 0 0 0 0  0 0 0 0.5 0" type="matrix" in="shadowInnerInner1"></feColorMatrix>
        </filter>
    </defs>
    <g id="btn/hagada/Music/normal" stroke="none" stroke-width="1" fill="none" fill-rule="evenodd">
        <g id="music-icon" transform="translate(3.000000, 3.000000)">
            <circle id="Oval-3" stroke="#FFFFFF" fill="#FBF9ED" cx="35" cy="35" r="30"></circle>
            <g id="Oval-3">
                <use fill="black" fill-opacity="1" filter="url(#filter-2)" xlink:href="#path-1"></use>
                <use fill="black" fill-opacity="1" filter="url(#filter-3)" xlink:href="#path-1"></use>
                <use stroke="#FBF9ED" stroke-width="2" xlink:href="#path-1"></use>
            </g>
            <g id="Group" transform="translate(20.000000, 16.000000)" fill="#0A9CA3">
                <path d="M28.9879289,25.8453506 C28.559903,25.1043244 27.9490211,23.6645637 27.5577707,22.8279212 C27.713045,22.2670949 27.8897717,21.7430441 28.09408,21.2603657 C28.3198407,20.7243629 28.5670538,20.2306519 28.8367407,19.7773939 C27.6405156,18.9140891 26.9591474,18.0388323 26.7936577,17.1543817 C26.5587031,15.9012567 26.6731158,13.8767657 27.231899,13.1329813 C27.8764917,12.073847 27.4086257,11.551635 27.1726496,10.5228405 C26.9070488,9.28810322 26.790593,6.56211962 27.5128229,4.4797072 L27.1266802,4.33904093 C26.7630114,5.05432431 25.7046944,5.21889466 24.7107345,5.59860165 C24.2827086,5.76041382 22.1129543,6.31572381 19.6653408,6.9206807 C19.6510392,6.88206643 19.6214145,6.65773591 19.5723805,6.2430922 C19.5233465,5.8275291 19.4426447,5.21613649 19.3312967,4.4070756 C19.9054031,3.9841574 20.0964313,3.48584944 19.9054031,2.9130711 C19.6214145,2.06079899 19.0238127,1.75832054 18.1146407,2.00379697 C17.1686933,2.25938666 16.8366923,2.81285787 17.1206808,3.66512998 C17.3014937,4.20481037 17.7060241,4.49717556 18.3352937,4.54222554 L18.390457,6.1336851 C18.3608323,6.73956139 18.2423334,7.1321398 18.0370036,7.32061422 C17.8807077,7.35922849 17.7244119,7.39784276 17.568116,7.43553764 C17.3801524,7.38864888 17.2024042,7.23878874 17.0369144,6.98136027 L13.9845483,2.28880706 C14.2664938,1.76751441 14.3441309,1.31793398 14.2184813,0.940985156 C13.9457297,0.121810996 13.3450633,-0.162279706 12.416482,0.0877936628 C11.4889223,0.338786419 11.1640721,0.882144363 11.442953,1.71694811 C11.6779075,2.42119884 12.2387338,2.73379056 13.1244103,2.65564263 C14.6148394,5.87717602 15.3718017,7.52104067 15.3932541,7.58631717 C15.440245,7.72698344 15.4463743,7.85110074 15.4126634,7.95683029 C15.0040468,8.05428535 14.6148394,8.14806286 14.2521922,8.23448528 C13.9682036,8.10669043 13.6413104,7.87868236 13.2664046,7.54402535 L11.9322714,6.21826874 C12.0834595,5.65928121 12.106955,5.22441098 12.0027577,4.91273866 C11.7463508,4.1441308 11.1538567,3.88394417 10.2252754,4.13493693 C9.29771573,4.3850103 8.97593015,4.93664273 9.2599187,5.78799545 C9.54390724,6.64026755 10.1956507,6.9280358 11.2141277,6.65313898 C12.0548563,7.74629058 12.4951407,8.35124747 12.5329378,8.4661709 C12.5523471,8.5240923 12.5625625,8.57925555 12.5686917,8.63258001 C12.144752,8.73095446 11.8576988,8.79623097 11.7606524,8.8155381 L8.43962084,9.46922253 C4.3340454,9.81307342 6.06147214,17.3888255 6.39858085,18.1436425 C6.73568955,18.8975402 6.94408403,19.4225104 7.02274273,19.7167143 C7.40786389,21.1601525 6.81843442,21.4663085 6.39347314,22.8251631 C6.9951611,23.6719188 7.53555658,24.4497206 8.01465956,25.1585682 C8.40795305,25.7396211 8.76140642,26.282979 9.07910584,26.7923196 C8.9698009,27.5140387 8.75323409,28.5593822 8.21794633,29.5697889 C6.76735734,29.3233931 5.02869364,29.5734665 3.43304576,30.3696559 C0.542083207,31.810336 -0.781834626,34.4866727 0.474661466,36.3475127 C1.73320064,38.2074334 5.09611539,38.5466873 7.98707794,37.1060073 C9.52449795,36.3392382 10.6185689,35.2231019 11.1170812,34.0665126 C11.2478385,33.7631148 11.3356911,33.4578782 11.3816605,33.1553997 C11.7197907,31.6237003 11.2590755,30.8578506 10.8882559,29.8906551 C10.6012027,29.1395156 10.0444626,27.6556244 9.65321219,26.7141717 C9.66853531,25.9005139 9.7124616,25.1383417 9.78805567,24.4350104 C9.87284362,23.6424985 9.98725627,22.9106661 10.1302721,22.2385939 C8.849259,20.9716781 8.60408903,20.7804455 8.25574336,19.4739961 C7.74292951,17.5570734 8.83597896,16.33153 11.5348917,15.8001241 L13.595341,15.3937548 C14.6567226,15.1850539 20.2047147,14.2748604 23.9067813,13.6726617 C24.3256133,14.6223888 24.7791777,15.7164598 24.9446675,16.0777791 C25.1969882,16.6284921 25.3481764,17.0394583 25.3982319,17.3106775 C25.5780232,18.2668404 25.3165086,19.2147288 24.6126665,20.1534233 C25.1316096,20.7289598 25.596411,21.258527 26.0050276,21.740286 C26.4034288,22.2091735 26.7507529,22.6440438 27.0480215,23.0448967 C26.9540397,23.7500668 26.777313,24.8036847 26.3349855,25.8756904 C24.8435349,25.7947843 23.138582,26.2581556 21.6716484,27.2566103 C19.0513943,29.0393024 18.1881917,31.850789 19.742978,33.5369455 C21.2987857,35.2231019 24.6831528,35.1440346 27.3044284,33.3613425 C28.6988326,32.4125347 29.5896168,31.1722811 29.887907,29.9642061 C30.048289,29.3013278 30.0390951,28.6743056 29.8439807,28.1052048 C29.7040295,27.1876562 29.3863301,26.5330524 28.9879289,25.8453506 Z" id="Path"></path>
            </g>
        </g>
    </g>
</svg>