<?xml version="1.0" encoding="UTF-8" standalone="no"?>
<svg width="55px" height="55px" viewBox="0 0 55 55" version="1.1" xmlns="http://www.w3.org/2000/svg" xmlns:xlink="http://www.w3.org/1999/xlink">
    <!-- Generator: Sketch 48.2 (47327) - http://www.bohemiancoding.com/sketch -->
    <title>btn/tools/arrow/normal</title>
    <desc>Created with Sketch.</desc>
    <defs>
        <path d="M15.0113932,21.0953776 L1.73014323,7.8141276 C0.812174479,6.89615885 0.812174479,5.41178385 1.73014323,4.50358073 L3.93717448,2.29654948 C4.85514323,1.37858073 6.33951823,1.37858073 7.24772135,2.29654948 L16.6617839,11.710612 L26.0758464,2.29654948 C26.9938151,1.37858073 28.4781901,1.37858073 29.3863932,2.29654948 L31.5934245,4.50358073 C32.5113932,5.42154948 32.5113932,6.90592448 31.5934245,7.8141276 L18.3121745,21.0953776 C17.413737,22.0133464 15.929362,22.0133464 15.0113932,21.0953776 Z" id="path-1"></path>
    </defs>
    <g id="Symboles" stroke="none" stroke-width="1" fill="none" fill-rule="evenodd">
        <g id="btn/tools/arrow/normal">
            <rect id="Rectangle" fill-opacity="0.7" fill="#0A9CA3" x="0" y="0" width="55" height="55" rx="3"></rect>
            <g id="btn/genreal/arrow/normal" transform="translate(28.000000, 27.000000) rotate(90.000000) translate(-28.000000, -27.000000) translate(3.000000, 2.000000)">
                <g id="Solid/angle-down" transform="translate(8.333333, 13.333333)">
                    <mask id="mask-2" fill="white">
                        <use xlink:href="#path-1"></use>
                    </mask>
                    <use id="Mask" fill="#000000" fill-rule="nonzero" xlink:href="#path-1"></use>
                    <g id="Color" mask="url(#mask-2)" fill="#FBF9ED">
                        <g transform="translate(-8.333333, -13.333333)" id="White">
                            <rect x="0" y="0" width="50" height="50"></rect>
                        </g>
                    </g>
                </g>
            </g>
        </g>
    </g>
</svg>