<?xml version="1.0" encoding="utf-8"?>
<!-- Generator: Adobe Illustrator 16.0.0, SVG Export Plug-In . SVG Version: 6.00 Build 0)  -->
<!DOCTYPE svg PUBLIC "-//W3C//DTD SVG 1.1//EN" "http://www.w3.org/Graphics/SVG/1.1/DTD/svg11.dtd">
<svg version="1.1" id="Layer_1" xmlns="http://www.w3.org/2000/svg" xmlns:xlink="http://www.w3.org/1999/xlink" x="0px" y="0px"
	 width="95px" height="35px" viewBox="0 0 95 35" enable-background="new 0 0 95 35" xml:space="preserve">
<path fill="#FFFFDF" d="M38.225,9.974c-0.185,1.16-0.276,3.217-0.276,6.17c0,0.387-0.348,0.58-1.042,0.58
	c-0.07,0-0.161-0.002-0.271-0.006s-0.234-0.011-0.375-0.02c-0.281-0.026-0.457-0.04-0.527-0.04c-0.238,0-0.374,0.026-0.409,0.079
	c0,0.009-0.04,0.145-0.118,0.409l-1.029,3.625c0.791,1.31,1.188,3.085,1.188,5.326c0,0.448-0.02,0.91-0.061,1.384
	c-0.039,0.475-0.094,0.967-0.164,1.477c-0.035,0.255-0.079,0.574-0.132,0.956c-0.053,0.383-0.118,0.829-0.198,1.338
	c-0.008,0.132-0.057,0.347-0.145,0.646c0,0.035-0.014,0.057-0.039,0.066c-0.186,0-0.277-0.321-0.277-0.962
	c0-3.322-0.853-6.24-2.558-8.754c-0.51-0.729-0.831-1.608-0.962-2.637c-0.035-0.237-0.061-0.589-0.072-1.055
	c-0.014-0.466-0.021-1.05-0.021-1.753c0-0.149-0.035-0.224-0.105-0.224c-0.299,0-0.729,0.013-1.292,0.04
	c-0.571,0.026-1.002,0.04-1.292,0.04c-0.272,0-0.413-0.171-0.422-0.514l-0.013-3.23c-0.01-0.141,0.057-0.264,0.197-0.369
	c0.149-0.105,0.225-0.255,0.225-0.448v-1.358c-0.316-0.132-0.475-0.36-0.475-0.686c0-0.448,0.224-0.672,0.672-0.672
	c0.457,0,0.686,0.224,0.686,0.672c0,0.29-0.141,0.497-0.422,0.62c0.018,0.176,0.031,0.352,0.039,0.527
	c0.01,0.176,0.018,0.352,0.027,0.527c0.061,0.554,0.18,0.831,0.355,0.831s0.355-0.444,0.541-1.332
	c0.053-0.281,0.105-0.562,0.158-0.844s0.101-0.562,0.145-0.844c-0.193-0.22-0.29-0.439-0.29-0.659c0-0.439,0.224-0.659,0.673-0.659
	c0.447,0,0.672,0.224,0.672,0.672c0,0.387-0.202,0.62-0.606,0.699l-0.29,2.65c-0.035,0.325,0.088,0.488,0.369,0.488
	c0.22,0,0.418-0.29,0.594-0.87l0.276-1.16c-0.141-0.22-0.211-0.422-0.211-0.606c0-0.422,0.22-0.633,0.659-0.633
	c0.413,0,0.619,0.189,0.619,0.567c0,0.193-0.068,0.375-0.203,0.547c-0.137,0.171-0.297,0.257-0.482,0.257
	c-0.061,0.483-0.107,0.853-0.139,1.107c-0.03,0.255-0.045,0.396-0.045,0.422c0,0.185,0.048,0.277,0.145,0.277
	c0.079,0,0.193-0.066,0.343-0.198v3.718c0,1.547,0.479,2.694,1.437,3.441c0.432-1.995,0.646-3.907,0.646-5.735
	c0-0.598-0.031-1.077-0.092-1.437c0.193,0.07,0.777,0.105,1.753,0.105h0.62c0.412,0,0.781-0.347,1.107-1.042
	c0.035-0.105,0.083-0.237,0.145-0.396c0.053-0.132,0.116-0.294,0.191-0.488c0.074-0.193,0.164-0.422,0.27-0.686L38.225,9.974z
	 M43.88,29.143c-0.236,0-0.355-0.136-0.355-0.409v-0.87c0-0.264,0.119-0.396,0.355-0.396h5.05c0.229,0,0.343,0.132,0.343,0.396v0.87
	c0,0.272-0.114,0.409-0.343,0.409H43.88z M50.869,15.801c0,0.439-0.098,0.62-0.291,0.541c-0.254-0.053-0.399-0.079-0.435-0.079
	l-0.751,0.026c-0.098,0-0.146,0.035-0.146,0.105c0.105,0.141,0.224,0.343,0.356,0.606c0.562,1.002,0.887,1.898,0.975,2.689
	c0.027,0.202,0.045,0.402,0.053,0.6c0.01,0.198,0.01,0.385,0,0.561c-0.035,1.397-0.654,3.028-1.858,4.891l-0.171-0.105
	c0.131-0.642,0.197-1.301,0.197-1.978c0-1.503-0.325-2.799-0.976-3.889c-0.167-0.255-0.251-0.461-0.251-0.62s0.04-0.33,0.119-0.514
	c0.097-0.229,0.205-0.521,0.322-0.877c0.119-0.355,0.254-0.771,0.402-1.246c0-0.149-0.307-0.224-0.922-0.224h-0.831
	c-0.22,0-0.347-0.132-0.382-0.396c-0.158-1.362-0.427-2.272-0.805-2.729c-0.167-0.193-0.277-0.167-0.33,0.079
	c-0.236,0.967-0.355,1.903-0.355,2.808c0,0.281-0.149,0.378-0.448,0.29c-0.308-0.097-0.668-0.123-1.081-0.079
	c-0.343,0.018-0.514,0.189-0.514,0.514c0,0.193,0.088,0.527,0.264,1.002c0.359,0.949,0.54,1.903,0.54,2.861
	c0,0.51-0.22,1.296-0.659,2.36c-0.431,1.046-0.932,1.986-1.503,2.821l-0.132-0.158c0.149-0.615,0.225-1.292,0.225-2.03
	c0-1.389-0.229-2.566-0.686-3.533c-0.053-0.105-0.08-0.224-0.08-0.356c0-0.123,0.053-0.272,0.158-0.448
	c0.07-0.141,0.128-0.246,0.172-0.316s0.07-0.11,0.079-0.119c0.554-1.248,0.831-1.96,0.831-2.136c0-0.29-0.216-0.435-0.646-0.435
	h-0.566c-0.256,0-0.444,0.035-0.567,0.105c-0.088,0.079-0.132,0.053-0.132-0.079v-4.153c0.246,0.141,0.65,0.211,1.213,0.211
	c0.281,0,0.471-0.132,0.566-0.396c0.088-0.264,0.172-0.734,0.251-1.411c-0.325-0.114-0.487-0.338-0.487-0.672
	c0-0.448,0.224-0.672,0.672-0.672s0.672,0.224,0.672,0.672c0,0.325-0.145,0.541-0.435,0.646l0.118,1.384
	c0.01,0.299,0.216,0.448,0.62,0.448c0.141,0.053,0.501,0.053,1.081,0c0.272-1.002,0.594-1.749,0.963-2.241
	c0.246-0.325,0.417-0.488,0.514-0.488s0.215,0.057,0.355,0.171c0.791,0.668,1.402,1.529,1.833,2.584
	c1.573,0.062,2.544-0.009,2.913-0.211L50.869,15.801z M61.81,28.325c0,0.158-0.03,0.305-0.092,0.442
	c-0.062,0.136-0.143,0.254-0.244,0.355s-0.22,0.183-0.355,0.244c-0.137,0.062-0.283,0.092-0.441,0.092s-0.309-0.031-0.449-0.092
	s-0.264-0.143-0.369-0.244s-0.188-0.22-0.25-0.355c-0.062-0.137-0.092-0.284-0.092-0.442s0.033-0.303,0.098-0.435
	c0.066-0.132,0.152-0.249,0.258-0.35s0.229-0.18,0.369-0.237s0.285-0.085,0.436-0.085c0.324,0,0.595,0.107,0.811,0.323
	C61.703,27.756,61.81,28.018,61.81,28.325z M61.81,31.872c0,0.149-0.03,0.292-0.092,0.429c-0.062,0.136-0.143,0.257-0.244,0.362
	s-0.22,0.189-0.355,0.25c-0.137,0.062-0.283,0.092-0.441,0.092s-0.309-0.031-0.449-0.092s-0.264-0.145-0.369-0.25
	s-0.188-0.227-0.25-0.362c-0.062-0.137-0.092-0.279-0.092-0.429c0-0.158,0.033-0.303,0.098-0.435
	c0.066-0.132,0.152-0.249,0.258-0.349c0.105-0.102,0.229-0.181,0.369-0.237c0.141-0.058,0.285-0.086,0.436-0.086
	c0.324,0,0.595,0.107,0.811,0.323C61.703,31.302,61.81,31.564,61.81,31.872z M61.363,15.854c0,1.125-0.01,2.083-0.027,2.874
	s-0.043,1.428-0.078,1.912c-0.15,2.092-0.471,3.639-0.963,4.641c-0.123,0.264-0.211,0.396-0.264,0.396
	c-0.097,0-0.162-0.163-0.197-0.488c-0.045-0.387-0.08-0.853-0.105-1.397c-0.027-0.545-0.049-1.173-0.066-1.885
	c-0.018-0.826-0.035-1.514-0.053-2.063c-0.018-0.549-0.035-0.973-0.053-1.272c-0.07-0.8-0.158-1.296-0.264-1.49
	c-0.202-0.36-0.637-0.541-1.305-0.541h-3.89c-0.22,0-0.51,0.044-0.87,0.132c-0.387,0.079-0.646,0.119-0.777,0.119
	c-0.045,0-0.066-0.022-0.066-0.066s0.011-0.134,0.033-0.27c0.021-0.136,0.055-0.319,0.099-0.547c0.053-0.255,0.093-0.461,0.118-0.62
	c0.027-0.158,0.045-0.268,0.053-0.33l0.502-4.456h0.276c0,1.31,0.721,1.964,2.162,1.964c0.132,0,0.304-0.007,0.515-0.02
	c0.211-0.014,0.461-0.029,0.751-0.046s0.542-0.033,0.759-0.046c0.215-0.013,0.396-0.02,0.547-0.02c0.984,0,1.723,0.211,2.215,0.633
	C61.046,13.511,61.363,14.474,61.363,15.854z M67.44,14.68c0,5.405-0.176,8.824-0.527,10.257c-0.105,0.413-0.251,0.62-0.435,0.62
	c-0.193,0-0.339-0.154-0.436-0.461c-0.009-0.018-0.024-0.18-0.046-0.488c-0.022-0.308-0.056-0.765-0.099-1.371
	c-0.045-0.703-0.096-1.472-0.152-2.307s-0.116-1.745-0.178-2.729c-0.035-0.58-0.102-0.971-0.197-1.173
	c-0.158-0.325-0.488-0.488-0.989-0.488c-0.659,0-0.984,0.004-0.976,0.013c-0.325-0.062-0.488-0.294-0.488-0.699
	c0-1.67,0.158-3.454,0.475-5.353h0.277c0,0.773,0.092,1.27,0.277,1.49c0.219,0.272,0.721,0.409,1.502,0.409
	C66.777,12.399,67.44,13.16,67.44,14.68z M65.212,20.415c0,0.158-0.031,0.306-0.093,0.442s-0.144,0.255-0.244,0.355
	c-0.101,0.102-0.22,0.183-0.355,0.244c-0.137,0.062-0.284,0.092-0.442,0.092s-0.305-0.031-0.441-0.092s-0.255-0.143-0.355-0.244
	c-0.102-0.101-0.183-0.219-0.244-0.355s-0.092-0.284-0.092-0.442c0-0.281,0.118-0.536,0.355-0.765
	c0.246-0.229,0.506-0.343,0.777-0.343c0.326,0,0.596,0.104,0.812,0.31C65.104,19.824,65.212,20.09,65.212,20.415z"/>
</svg>
