<?xml version="1.0" encoding="UTF-8" standalone="no"?>
<svg width="78px" height="78px" viewBox="0 0 78 78" version="1.1" xmlns="http://www.w3.org/2000/svg" xmlns:xlink="http://www.w3.org/1999/xlink">
    <!-- Generator: Sketch 48.2 (47327) - http://www.bohemiancoding.com/sketch -->
    <title>btn/hagada/Music/normal</title>
    <desc>Created with Sketch.</desc>
    <defs>
        <ellipse id="path-1" cx="38.5" cy="37" rx="31.5" ry="32"></ellipse>
        <filter x="-16.7%" y="-13.3%" width="136.5%" height="135.9%" filterUnits="objectBoundingBox" id="filter-2">
            <feMorphology radius="1.5" operator="dilate" in="SourceAlpha" result="shadowSpreadOuter1"></feMorphology>
            <feOffset dx="1" dy="3" in="shadowSpreadOuter1" result="shadowOffsetOuter1"></feOffset>
            <feMorphology radius="1.5" operator="erode" in="SourceAlpha" result="shadowInner"></feMorphology>
            <feOffset dx="1" dy="3" in="shadowInner" result="shadowInner"></feOffset>
            <feComposite in="shadowOffsetOuter1" in2="shadowInner" operator="out" result="shadowOffsetOuter1"></feComposite>
            <feGaussianBlur stdDeviation="2.5" in="shadowOffsetOuter1" result="shadowBlurOuter1"></feGaussianBlur>
            <feColorMatrix values="0 0 0 0 0   0 0 0 0 0   0 0 0 0 0  0 0 0 0.5 0" type="matrix" in="shadowBlurOuter1"></feColorMatrix>
        </filter>
        <ellipse id="path-3" cx="38.5" cy="37" rx="27.5" ry="28"></ellipse>
        <filter x="-10.0%" y="-8.0%" width="127.3%" height="126.8%" filterUnits="objectBoundingBox" id="filter-4">
            <feOffset dx="2" dy="3" in="SourceAlpha" result="shadowOffsetOuter1"></feOffset>
            <feGaussianBlur stdDeviation="2" in="shadowOffsetOuter1" result="shadowBlurOuter1"></feGaussianBlur>
            <feColorMatrix values="0 0 0 0 0   0 0 0 0 0   0 0 0 0 0  0 0 0 0.5 0" type="matrix" in="shadowBlurOuter1"></feColorMatrix>
        </filter>
    </defs>
    <g id="Symboles" stroke="none" stroke-width="1" fill="none" fill-rule="evenodd">
        <g id="btn/hagada/Music/normal">
            <g id="Oval-3">
                <use fill="black" fill-opacity="1" filter="url(#filter-2)" xlink:href="#path-1"></use>
                <use stroke="#FBF9ED" stroke-width="2" xlink:href="#path-1"></use>
            </g>
            <g id="Oval-3">
                <use fill="black" fill-opacity="1" filter="url(#filter-4)" xlink:href="#path-3"></use>
                <use fill="#FBF9ED" fill-rule="evenodd" xlink:href="#path-3"></use>
            </g>
            <path d="M52.3766521,42.1114915 C51.9576521,41.3054915 51.3596521,39.7394915 50.9766521,38.8294915 C51.1286521,38.2194915 51.3016521,37.6494915 51.5016521,37.1244915 C51.7226521,36.5414915 51.9646521,36.0044915 52.2286521,35.5114915 C51.0576521,34.5724915 50.3906521,33.6204915 50.2286521,32.6584915 C49.9986521,31.2954915 50.1106521,29.0934915 50.6576521,28.2844915 C51.2886521,27.1324915 50.8306521,26.5644915 50.5996521,25.4454915 C50.3396521,24.1024915 50.2256521,21.1374915 50.9326521,18.8724915 L50.5546521,18.7194915 C50.1986521,19.4974915 49.1626521,19.6764915 48.1896521,20.0894915 C47.7706521,20.2654915 45.6466521,20.8694915 43.2506521,21.5274915 C43.2366521,21.4854915 43.2076521,21.2414915 43.1596521,20.7904915 C43.1116521,20.3384915 43.0326521,19.6734915 42.9236521,18.7934915 C43.4856521,18.3334915 43.6726521,17.7914915 43.4856521,17.1684915 C43.2076521,16.2414915 42.6226521,15.9124915 41.7326521,16.1794915 C40.8066521,16.4574915 40.4816521,17.0594915 40.7596521,17.9864915 C40.9366521,18.5734915 41.3326521,18.8914915 41.9486521,18.9404915 L42.0026521,20.6714915 C41.9736521,21.3304915 41.8576521,21.7574915 41.6566521,21.9624915 C41.5036521,22.0044915 41.3506521,22.0464915 41.1976521,22.0874915 C41.0136521,22.0364915 40.8396521,21.8734915 40.6776521,21.5934915 L37.6896521,16.4894915 C37.9656521,15.9224915 38.0416521,15.4334915 37.9186521,15.0234915 C37.6516521,14.1324915 37.0636521,13.8234915 36.1546521,14.0954915 C35.2466521,14.3684915 34.9286521,14.9594915 35.2016521,15.8674915 C35.4316521,16.6334915 35.9806521,16.9734915 36.8476521,16.8884915 C38.3066521,20.3924915 39.0476521,22.1804915 39.0686521,22.2514915 C39.1146521,22.4044915 39.1206521,22.5394915 39.0876521,22.6544915 C38.6876521,22.7604915 38.3066521,22.8624915 37.9516521,22.9564915 C37.6736521,22.8174915 37.3536521,22.5694915 36.9866521,22.2054915 L35.6806521,20.7634915 C35.8286521,20.1554915 35.8516521,19.6824915 35.7496521,19.3434915 C35.4986521,18.5074915 34.9186521,18.2244915 34.0096521,18.4974915 C33.1016521,18.7694915 32.7866521,19.3694915 33.0646521,20.2954915 C33.3426521,21.2224915 33.9806521,21.5354915 34.9776521,21.2364915 C35.8006521,22.4254915 36.2316521,23.0834915 36.2686521,23.2084915 C36.2876521,23.2714915 36.2976521,23.3314915 36.3036521,23.3894915 C35.8886521,23.4964915 35.6076521,23.5674915 35.5126521,23.5884915 L32.2616521,24.2994915 C28.2426521,24.6734915 29.9336521,32.9134915 30.2636521,33.7344915 C30.5936521,34.5544915 30.7976521,35.1254915 30.8746521,35.4454915 C31.2516521,37.0154915 30.6746521,37.3484915 30.2586521,38.8264915 C30.8476521,39.7474915 31.3766521,40.5934915 31.8456521,41.3644915 C32.2306521,41.9964915 32.5766521,42.5874915 32.8876521,43.1414915 C32.7806521,43.9264915 32.5686521,45.0634915 32.0446521,46.1624915 C30.6246521,45.8944915 28.9226521,46.1664915 27.3606521,47.0324915 C24.5306521,48.5994915 23.2346521,51.5104915 24.4646521,53.5344915 C25.6966521,55.5574915 28.9886521,55.9264915 31.8186521,54.3594915 C33.3236521,53.5254915 34.3946521,52.3114915 34.8826521,51.0534915 C35.0106521,50.7234915 35.0966521,50.3914915 35.1416521,50.0624915 C35.4726521,48.3964915 35.0216521,47.5634915 34.6586521,46.5114915 C34.3776521,45.6944915 33.8326521,44.0804915 33.4496521,43.0564915 C33.4646521,42.1714915 33.5076521,41.3424915 33.5816521,40.5774915 C33.6646521,39.7154915 33.7766521,38.9194915 33.9166521,38.1884915 C32.6626521,36.8104915 32.4226521,36.6024915 32.0816521,35.1814915 C31.5796521,33.0964915 32.6496521,31.7634915 35.2916521,31.1854915 L37.3086521,30.7434915 C38.3476521,30.5164915 43.7786521,29.5264915 47.4026521,28.8714915 C47.8126521,29.9044915 48.2566521,31.0944915 48.4186521,31.4874915 C48.6656521,32.0864915 48.8136521,32.5334915 48.8626521,32.8284915 C49.0386521,33.8684915 48.7826521,34.8994915 48.0936521,35.9204915 C48.6016521,36.5464915 49.0566521,37.1224915 49.4566521,37.6464915 C49.8466521,38.1564915 50.1866521,38.6294915 50.4776521,39.0654915 C50.3856521,39.8324915 50.2126521,40.9784915 49.7796521,42.1444915 C48.3196521,42.0564915 46.6506521,42.5604915 45.2146521,43.6464915 C42.6496521,45.5854915 41.8046521,48.6434915 43.3266521,50.4774915 C44.8496521,52.3114915 48.1626521,52.2254915 50.7286521,50.2864915 C52.0936521,49.2544915 52.9656521,47.9054915 53.2576521,46.5914915 C53.4146521,45.8704915 53.4056521,45.1884915 53.2146521,44.5694915 C53.0776521,43.5714915 52.7666521,42.8594915 52.3766521,42.1114915 Z" id="Path" fill="#0A9CA3"></path>
        </g>
    </g>
</svg>