<?xml version="1.0" encoding="UTF-8" standalone="no"?>
<svg width="67px" height="67px" viewBox="0 0 67 67" version="1.1" xmlns="http://www.w3.org/2000/svg" xmlns:xlink="http://www.w3.org/1999/xlink">
    <!-- Generator: Sketch 49.3 (51167) - http://www.bohemiancoding.com/sketch -->
    <title>btn/info/close/normal</title>
    <desc>Created with Sketch.</desc>
    <defs></defs>
    <g id="btn/info/close/normal" stroke="none" stroke-width="1" fill="none" fill-rule="evenodd">
        <ellipse id="Oval-3" stroke="#FA7F8E" stroke-width="2" cx="34" cy="33.5079365" rx="32" ry="32.5079365"></ellipse>
        <circle id="Oval-3" fill="#FA7F8E" cx="34" cy="34" r="28"></circle>
        <g id="Group" transform="translate(20.000000, 20.000000)" fill="#FBF9ED">
            <path d="M23.7077226,0.564865493 L0.564865493,23.7077226 C-0.188288498,24.4608766 -0.188288498,25.6819805 0.564865493,26.4351345 C1.31801948,27.1882885 2.53912337,27.1882885 3.29227736,26.4351345 L26.4351345,3.29227736 C27.1882885,2.53912337 27.1882885,1.31801948 26.4351345,0.564865493 C25.6819805,-0.188288498 24.4608766,-0.188288498 23.7077226,0.564865493 Z" id="Shape"></path>
            <path d="M1.52302361,4.04840497 L22.951595,25.4769764 C23.6489598,26.1743412 24.7796116,26.1743412 25.4769764,25.4769764 C26.1743412,24.7796116 26.1743412,23.6489598 25.4769764,22.951595 L4.04840497,1.52302361 C3.35104016,0.825658798 2.22038841,0.825658798 1.52302361,1.52302361 C0.825658798,2.22038841 0.825658798,3.35104016 1.52302361,4.04840497 Z" id="Shape"></path>
        </g>
    </g>
</svg>