<?xml version="1.0" encoding="UTF-8" standalone="no"?>
<svg width="55px" height="55px" viewBox="0 0 55 55" version="1.1" xmlns="http://www.w3.org/2000/svg" xmlns:xlink="http://www.w3.org/1999/xlink">
    <!-- Generator: Sketch 48.2 (47327) - http://www.bohemiancoding.com/sketch -->
    <title>btn/tools/zoomin/normal</title>
    <desc>Created with Sketch.</desc>
    <defs>
        <path d="M14,11.6666667 L16.3333333,11.6666667 C16.9776655,11.6666667 17.5,12.1890011 17.5,12.8333333 C17.5,13.4776655 16.9776655,14 16.3333333,14 L14,14 L14,16.3333333 C14,16.9776655 13.4776655,17.5 12.8333333,17.5 C12.1890011,17.5 11.6666667,16.9776655 11.6666667,16.3333333 L11.6666667,14 L9.33333333,14 C8.68900113,14 8.16666667,13.4776655 8.16666667,12.8333333 C8.16666667,12.1890011 8.68900113,11.6666667 9.33333333,11.6666667 L11.6666667,11.6666667 L11.6666667,9.33333333 C11.6666667,8.68900113 12.1890011,8.16666667 12.8333333,8.16666667 C13.4776655,8.16666667 14,8.68900113 14,9.33333333 L14,11.6666667 Z M21.1600544,19.2307332 L26.3839998,24.0323835 C26.9831112,24.5830638 26.9831112,25.4758929 26.3839998,26.0265731 C25.7848884,26.5772534 24.8135368,26.5772534 24.2144254,26.0265731 L19.0599194,21.2887487 C17.3177791,22.5738091 15.1642544,23.3333333 12.8333333,23.3333333 C7.03434346,23.3333333 2.33333333,18.6323232 2.33333333,12.8333333 C2.33333333,7.03434346 7.03434346,2.33333333 12.8333333,2.33333333 C18.6323232,2.33333333 23.3333333,7.03434346 23.3333333,12.8333333 C23.3333333,15.2410363 22.5229467,17.4594633 21.1600544,19.2307332 Z M17.9186374,17.6437302 C19.1054902,16.3894838 19.8333333,14.696407 19.8333333,12.8333333 C19.8333333,8.96734008 16.6993266,5.83333333 12.8333333,5.83333333 C8.96734008,5.83333333 5.83333333,8.96734008 5.83333333,12.8333333 C5.83333333,16.6993266 8.96734008,19.8333333 12.8333333,19.8333333 C14.5108762,19.8333333 16.050594,19.2432342 17.2562347,18.2592879 C17.3278094,18.129177 17.4227312,18.0071352 17.5410002,17.8984269 C17.6550934,17.7935568 17.7826864,17.7086579 17.9186374,17.6437302 Z" id="path-1"></path>
    </defs>
    <g id="Symboles" stroke="none" stroke-width="1" fill="none" fill-rule="evenodd">
        <g id="btn/tools/zoomin/normal">
            <rect id="Rectangle" fill-opacity="0.8" fill="#384C62" x="0" y="0" width="55" height="55" rx="3"></rect>
            <g id="zoom-in" transform="translate(14.000000, 14.000000)">
                <mask id="mask-2" fill="white">
                    <use xlink:href="#path-1"></use>
                </mask>
                <use id="Combined-Shape" fill="#FBF9ED" fill-rule="nonzero" xlink:href="#path-1"></use>
                <g id="COLOR/-black" mask="url(#mask-2)" fill="#FAF7E1">
                    <rect id="Rectangle" x="0" y="0" width="28" height="28"></rect>
                </g>
            </g>
        </g>
    </g>
</svg>