<?xml version="1.0" encoding="utf-8"?>
<!-- Generator: Adobe Illustrator 16.0.0, SVG Export Plug-In . SVG Version: 6.00 Build 0)  -->
<!DOCTYPE svg PUBLIC "-//W3C//DTD SVG 1.1//EN" "http://www.w3.org/Graphics/SVG/1.1/DTD/svg11.dtd">
<svg version="1.1" id="Layer_1" xmlns="http://www.w3.org/2000/svg" xmlns:xlink="http://www.w3.org/1999/xlink" x="0px" y="0px"
	 width="95px" height="35px" viewBox="0 0 95 35" enable-background="new 0 0 95 35" xml:space="preserve">
<path fill="#384C62" d="M37.4,17.341c0,2.206-0.417,3.951-1.252,5.234c-0.475,0.738-1.332,1.525-2.57,2.36
	c-1.1,0.738-1.78,1.406-2.044,2.004h-0.093c-0.141-0.396-0.324-0.721-0.553-0.976l-0.778-0.791
	c-1.011-1.116-1.661-1.912-1.951-2.386c-0.536-0.861-0.804-1.833-0.804-2.914c0-1.107,0.166-2.043,0.5-2.808
	c-0.914,0-1.463,0.198-1.647,0.593l-0.132-0.185c0.255-0.809,0.383-1.705,0.383-2.689c0-1.222-0.211-2.439-0.633-3.652l0.224-0.145
	c0.22,0.448,0.554,0.87,1.002,1.266c0.51,0.422,0.997,0.633,1.464,0.633H34.5c1.17,0,1.979,0.475,2.426,1.424
	C37.242,14.985,37.4,15.996,37.4,17.341z M36.188,18.435c0-0.914-0.518-1.371-1.555-1.371c-3.322,0-5.291-0.013-5.906-0.04
	c-0.08,0.343-0.119,0.593-0.119,0.751c0,0.615,0.211,1.213,0.633,1.793c0.123,0.167,0.297,0.372,0.521,0.613
	c0.225,0.242,0.503,0.516,0.837,0.824s0.611,0.583,0.831,0.824c0.22,0.242,0.392,0.451,0.515,0.626
	c0.271-0.308,0.816-0.677,1.635-1.107c0.879-0.466,1.467-0.835,1.766-1.107C35.906,19.74,36.188,19.138,36.188,18.435z
	 M42.107,29.628c-0.237,0-0.355-0.136-0.355-0.409v-0.87c0-0.264,0.118-0.396,0.355-0.396h5.049c0.229,0,0.344,0.132,0.344,0.396
	v0.87c0,0.272-0.115,0.409-0.344,0.409H42.107z M48.673,23.788c0,1.213-0.272,2.07-0.817,2.571
	c-0.519,0.466-1.385,0.699-2.598,0.699H40.17c-0.475,0-0.901,0.114-1.279,0.343l-0.053-0.066c0.141-0.29,0.211-0.672,0.211-1.147
	v-1.978c0-0.51-0.07-0.888-0.211-1.134l0.053-0.092c0.114,0.141,0.396,0.211,0.844,0.211h6.051c0.791,0,1.188-0.466,1.188-1.397
	c0-0.176-0.005-0.393-0.014-0.653c-0.009-0.259-0.021-0.564-0.039-0.916s-0.031-0.659-0.04-0.923s-0.013-0.483-0.013-0.659
	c0-0.308,0.01-0.611,0.032-0.91s0.056-0.589,0.099-0.87h-6.645v0.91c0,0.475,0.158,0.712,0.475,0.712h1.398
	c0.422,0,0.795-0.083,1.12-0.25l0.065,0.066c-0.123,0.255-0.188,0.62-0.197,1.094v1.147c-0.035,0.747-0.299,1.121-0.791,1.121
	c0.079,0-0.268-0.013-1.041-0.04c-0.264-0.009-0.502-0.011-0.713-0.007c-0.211,0.005-0.399,0.016-0.566,0.033
	c-0.457,0.053-0.756,0.163-0.896,0.33l-0.066-0.066c0.088-0.378,0.152-0.828,0.191-1.352c0.04-0.522,0.06-1.123,0.06-1.799V14.44
	c0-0.659-0.016-1.333-0.046-2.024c-0.031-0.689-0.077-1.408-0.139-2.155l0.185-0.026c0.211,0.193,0.409,0.729,0.593,1.608
	c0.158,0.712,0.418,1.068,0.778,1.068h5.339c0.879,0,1.596-0.132,2.149-0.396l0.158,0.053c-0.308,1.151-0.462,2.303-0.462,3.454
	c0,0.87,0.119,2.167,0.356,3.889c0.123,0.87,0.216,1.626,0.276,2.268C48.643,22.821,48.673,23.357,48.673,23.788z M46.102,19.978
	c0,0.158-0.03,0.306-0.092,0.442s-0.143,0.255-0.244,0.355c-0.102,0.102-0.22,0.183-0.355,0.244
	c-0.137,0.062-0.283,0.092-0.441,0.092s-0.307-0.031-0.442-0.092s-0.255-0.143-0.355-0.244c-0.102-0.101-0.183-0.219-0.244-0.355
	s-0.093-0.284-0.093-0.442c0-0.281,0.119-0.536,0.356-0.765c0.246-0.229,0.505-0.343,0.778-0.343c0.324,0,0.595,0.104,0.811,0.31
	C45.994,19.387,46.102,19.652,46.102,19.978z M59.207,28.811c0,0.158-0.031,0.305-0.093,0.442c-0.062,0.136-0.144,0.254-0.243,0.355
	c-0.102,0.101-0.221,0.183-0.357,0.244c-0.136,0.062-0.283,0.092-0.441,0.092s-0.307-0.031-0.447-0.092s-0.264-0.143-0.369-0.244
	s-0.189-0.22-0.251-0.355c-0.062-0.137-0.093-0.284-0.093-0.442s0.033-0.303,0.1-0.435s0.151-0.249,0.257-0.35
	s0.229-0.18,0.369-0.237s0.286-0.085,0.435-0.085c0.326,0,0.596,0.107,0.811,0.323C59.099,28.241,59.207,28.503,59.207,28.811z
	 M59.207,32.357c0,0.149-0.031,0.292-0.093,0.429c-0.062,0.136-0.144,0.257-0.243,0.362c-0.102,0.105-0.221,0.189-0.357,0.25
	c-0.136,0.062-0.283,0.092-0.441,0.092s-0.307-0.031-0.447-0.092s-0.264-0.145-0.369-0.25s-0.189-0.227-0.251-0.362
	c-0.062-0.137-0.093-0.279-0.093-0.429c0-0.158,0.033-0.303,0.1-0.435s0.151-0.249,0.257-0.349c0.105-0.102,0.229-0.181,0.369-0.237
	c0.141-0.058,0.286-0.086,0.435-0.086c0.326,0,0.596,0.107,0.811,0.323C59.099,31.788,59.207,32.049,59.207,32.357z M58.758,16.339
	c0,1.125-0.008,2.083-0.025,2.874s-0.045,1.428-0.08,1.912c-0.148,2.092-0.47,3.639-0.962,4.641
	c-0.123,0.264-0.211,0.396-0.264,0.396c-0.097,0-0.163-0.163-0.198-0.488c-0.043-0.387-0.078-0.853-0.105-1.397
	c-0.025-0.545-0.048-1.173-0.065-1.885c-0.018-0.826-0.035-1.514-0.053-2.063c-0.018-0.549-0.035-0.973-0.053-1.272
	c-0.07-0.8-0.158-1.296-0.264-1.49c-0.202-0.36-0.638-0.541-1.306-0.541h-3.889c-0.22,0-0.51,0.044-0.87,0.132
	c-0.387,0.079-0.646,0.119-0.778,0.119c-0.043,0-0.065-0.022-0.065-0.066s0.011-0.134,0.032-0.27c0.022-0.136,0.056-0.319,0.1-0.547
	c0.053-0.255,0.092-0.461,0.119-0.62c0.025-0.158,0.043-0.268,0.053-0.33l0.5-4.456h0.277c0,1.31,0.721,1.964,2.162,1.964
	c0.132,0,0.303-0.007,0.514-0.02c0.211-0.014,0.462-0.029,0.752-0.046s0.543-0.033,0.758-0.046c0.215-0.013,0.398-0.02,0.547-0.02
	c0.984,0,1.723,0.211,2.215,0.633C58.441,13.997,58.758,14.959,58.758,16.339z M69.174,19.345c0,1.529-0.246,2.861-0.738,3.995
	c-0.668,1.512-1.68,2.268-3.033,2.268c-0.113,0-0.65-0.013-1.607-0.04c-0.703-0.026-1.275-0.026-1.715,0
	c-0.307,0.018-0.591,0.053-0.85,0.105c-0.26,0.053-0.49,0.114-0.692,0.185l-0.065-0.026c0.123-0.369,0.184-0.91,0.184-1.622v-1.727
	c0-0.378-0.053-0.721-0.158-1.028l0.066-0.026c0.22,0.079,0.594,0.119,1.121,0.119h3.678c0.791,0,1.42-0.189,1.885-0.567
	c0.51-0.404,0.766-0.993,0.766-1.767c0-1.433-0.967-2.149-2.9-2.149h-4.074c-0.36,0-0.541-0.176-0.541-0.527v-5.524h0.316
	c0,1.266,0.479,1.898,1.438,1.898h3.401c1.477,0,2.483,0.756,3.019,2.268C69.006,16.128,69.174,17.517,69.174,19.345z
	 M64.453,19.318c0,0.158-0.03,0.306-0.092,0.442s-0.143,0.255-0.244,0.355c-0.102,0.102-0.22,0.183-0.355,0.244
	c-0.137,0.062-0.283,0.092-0.441,0.092s-0.307-0.031-0.442-0.092s-0.255-0.143-0.355-0.244c-0.102-0.101-0.183-0.219-0.244-0.355
	s-0.093-0.284-0.093-0.442c0-0.281,0.119-0.536,0.356-0.765c0.246-0.229,0.505-0.343,0.778-0.343c0.324,0,0.595,0.104,0.811,0.31
	C64.346,18.728,64.453,18.993,64.453,19.318z"/>
</svg>
