<?xml version="1.0" encoding="UTF-8" standalone="no"?>
<svg width="94px" height="34px" viewBox="0 0 94 34" version="1.1" xmlns="http://www.w3.org/2000/svg" xmlns:xlink="http://www.w3.org/1999/xlink">
    <!-- Generator: Sketch 49.3 (51167) - http://www.bohemiancoding.com/sketch -->
    <title>btn/chp13/selected</title>
    <desc>Created with Sketch.</desc>
    <defs></defs>
    <g id="btn/chp13/selected" stroke="none" stroke-width="1" fill="none" fill-rule="evenodd">
        <g id="Group" transform="translate(56.000000, 0.000000)" fill="#FBF9ED">
            <path d="M27.0029,27.9557 C26.7649,27.9557 26.6469,27.8187 26.6469,27.5477 L26.6469,26.6767 C26.6469,26.4127 26.7649,26.2817 27.0029,26.2817 L32.0519,26.2817 C32.2799,26.2817 32.3949,26.4127 32.3949,26.6767 L32.3949,27.5477 C32.3949,27.8187 32.2799,27.9557 32.0519,27.9557 L27.0029,27.9557 Z" id="Fill-26"></path>
            <path d="M26.6592,20.2955 C26.5282,20.7095 26.4352,21.5535 26.3832,22.8265 C26.3652,23.1605 26.3602,23.4675 26.3702,23.7425 C26.3782,24.0205 26.3912,24.2645 26.4092,24.4755 C25.4252,24.4755 24.7352,24.3835 24.3392,24.1975 C23.6182,23.8735 23.2592,23.1175 23.2592,21.9305 C23.2592,21.1315 23.4212,20.4045 23.7462,19.7545 C23.9482,19.3325 24.1502,18.9675 24.3522,18.6545 C24.5552,18.3425 24.7572,18.0845 24.9592,17.8835 C25.1522,17.6905 25.2982,17.6455 25.3932,17.7505 C25.4642,17.8305 25.3812,18.1075 25.1432,18.5825 C24.9322,19.0225 24.8272,19.3915 24.8272,19.6905 C24.8272,19.8565 24.9062,20.0185 25.0642,20.1765 C25.2402,20.3615 25.4992,20.4635 25.8432,20.4815 C26.1322,20.4885 26.4052,20.4285 26.6592,20.2955 Z M34.2932,10.8695 C34.1262,11.3095 33.9992,11.8205 33.9112,12.4045 C33.8232,12.9905 33.7702,13.6545 33.7532,14.4025 C33.7432,14.6495 33.7482,14.8935 33.7652,15.1355 C33.7832,15.3755 33.8092,15.6115 33.8452,15.8405 L33.7002,15.9185 C33.4892,15.7875 33.1942,15.7115 32.8162,15.6935 C32.3422,15.6935 32.1042,15.8165 32.1042,16.0635 C32.1042,16.1255 32.1262,16.1915 32.1712,16.2625 L33.8712,19.5845 C34.1262,20.1115 34.2492,20.6505 34.2402,21.2055 C34.2222,22.5315 33.7132,23.5965 32.7112,24.3955 L32.4342,24.6065 C32.2842,24.7295 32.2062,24.7035 32.1962,24.5275 L30.9712,15.9185 L25.8432,15.9185 C24.7082,15.9185 23.8912,16.0065 23.3892,16.1825 C23.2492,16.2345 23.1572,16.2275 23.1132,16.1565 C23.0692,16.0945 23.0832,15.9225 23.1532,15.6415 C23.3022,14.9475 23.3642,14.0685 23.3372,13.0045 C23.3112,11.7835 23.1662,10.5315 22.9022,9.2485 C22.8762,9.1155 22.8932,9.0245 22.9552,8.9715 C23.0602,8.9005 23.1612,8.9675 23.2592,9.1685 C23.4422,9.5825 23.5882,9.8995 23.6932,10.1175 C23.7992,10.3385 23.8602,10.4695 23.8782,10.5145 C24.2032,11.0765 24.5632,11.3575 24.9592,11.3575 L26.0132,11.3575 L26.0132,9.8675 C25.7232,9.6745 25.5792,9.4495 25.5792,9.1955 C25.5792,8.6865 25.8202,8.4305 26.3042,8.4305 C26.8052,8.4305 27.0552,8.6865 27.0552,9.1955 C27.0552,9.5205 26.8972,9.7525 26.5812,9.8935 L26.5812,11.3575 L32.6452,11.3575 C33.3482,11.3575 33.8452,11.1375 34.1352,10.6975 L34.2932,10.8695 Z M16.7852,17.7255 C16.7852,17.8835 16.7552,18.0295 16.6922,18.1665 C16.6322,18.3035 16.5502,18.4225 16.4482,18.5225 C16.3472,18.6235 16.2292,18.7055 16.0932,18.7665 C15.9562,18.8285 15.8092,18.8585 15.6512,18.8585 C15.4932,18.8585 15.3462,18.8285 15.2102,18.7665 C15.0732,18.7055 14.9542,18.6235 14.8542,18.5225 C14.7532,18.4225 14.6712,18.3035 14.6102,18.1665 C14.5482,18.0295 14.5172,17.8835 14.5172,17.7255 C14.5172,17.4435 14.6362,17.1885 14.8742,16.9595 C15.1202,16.7315 15.3792,16.6175 15.6512,16.6175 C15.9762,16.6175 16.2472,16.7215 16.4622,16.9285 C16.6772,17.1335 16.7852,17.3995 16.7852,17.7255 Z M21.5712,15.7215 C21.5712,16.9595 21.4032,18.1725 21.0692,19.3595 C20.6922,20.6685 20.1472,21.7295 19.4342,22.5375 C18.7062,23.3545 17.7432,23.8205 16.5482,23.9345 C16.4252,23.9435 16.2752,23.9555 16.0992,23.9735 C15.9242,23.9905 15.7212,24.0225 15.4932,24.0665 C15.7302,23.2665 15.8482,22.4405 15.8482,21.5885 C15.8482,21.1845 15.8412,20.8205 15.8232,20.5005 C15.8052,20.1805 15.7782,19.9005 15.7432,19.6625 C15.9812,19.7255 16.2752,19.7545 16.6272,19.7545 L16.9302,19.7545 C17.8622,19.7545 18.6222,19.4965 19.2112,18.9775 C19.7912,18.4675 20.0812,17.8525 20.0812,17.1315 C20.0812,16.2875 19.8912,15.8655 19.5142,15.8655 L15.0572,15.8655 C14.1532,15.8655 13.4052,15.9185 12.8172,16.0245 C12.7022,16.0335 12.6452,16.0245 12.6452,15.9985 C12.6452,15.9715 12.6592,15.8795 12.6842,15.7215 C12.9582,14.1215 13.0942,12.5825 13.0942,11.1065 C13.0942,9.8855 13.0142,8.7855 12.8562,7.8115 C12.7602,7.2915 12.4522,7.0335 11.9332,7.0335 C11.4762,7.0335 11.1422,7.1505 10.9312,7.3895 C10.8262,7.5025 10.7562,7.5205 10.7212,7.4415 C10.6852,7.3975 10.6772,7.2625 10.6942,7.0335 C10.7032,6.0395 10.9362,4.4185 11.3932,2.1685 C11.4542,1.8695 11.5342,1.7295 11.6302,1.7465 C11.7102,1.7645 11.7492,1.8595 11.7492,2.0355 C11.7492,2.4755 11.7582,2.7385 11.7752,2.8265 C11.8102,3.0125 11.9602,3.1435 12.2232,3.2235 L12.6322,2.1935 C12.4032,1.8245 12.3432,1.5225 12.4482,1.2855 C12.5792,0.9865 12.8072,0.8365 13.1342,0.8365 C13.6342,0.8365 13.8852,1.0925 13.8852,1.6025 C13.8852,1.6975 13.8622,1.7995 13.8192,1.9045 C13.6862,2.1935 13.4362,2.3485 13.0672,2.3655 C13.0232,2.5165 12.9772,2.6745 12.9292,2.8405 C12.8802,3.0085 12.8252,3.1785 12.7642,3.3545 L13.2782,3.4735 C13.9552,3.6235 14.3992,3.8075 14.6102,4.0275 C14.8212,4.2565 14.9272,4.7605 14.9272,5.5435 C14.9272,5.9305 14.9042,6.3505 14.8602,6.8035 C14.8162,7.2545 14.7512,7.7445 14.6632,8.2725 C14.5752,8.7815 14.4822,9.2585 14.3862,9.7035 C14.2892,10.1475 14.1922,10.5615 14.0962,10.9475 C14.0162,11.2215 14.1222,11.3575 14.4122,11.3575 L20.3582,11.3575 C20.5872,11.3575 20.8102,11.5985 21.0302,12.0825 C21.3902,12.8995 21.5712,14.1115 21.5712,15.7215 Z M20.7932,27.1375 C20.7932,27.2955 20.7632,27.4435 20.7002,27.5805 C20.6392,27.7155 20.5572,27.8345 20.4562,27.9365 C20.3552,28.0355 20.2372,28.1175 20.1002,28.1805 C19.9642,28.2405 19.8172,28.2725 19.6592,28.2725 C19.5012,28.2725 19.3532,28.2405 19.2182,28.1805 C19.0812,28.1175 18.9622,28.0355 18.8622,27.9365 C18.7612,27.8345 18.6792,27.7155 18.6182,27.5805 C18.5552,27.4435 18.5252,27.2955 18.5252,27.1375 C18.5252,26.8305 18.6382,26.5685 18.8622,26.3545 C19.0852,26.1375 19.3512,26.0295 19.6592,26.0295 C19.9842,26.0295 20.2552,26.1375 20.4702,26.3545 C20.6842,26.5685 20.7932,26.8305 20.7932,27.1375 Z M17.3122,27.1375 C17.3122,27.2955 17.2822,27.4435 17.2202,27.5805 C17.1592,27.7155 17.0772,27.8345 16.9752,27.9365 C16.8762,28.0355 16.7572,28.1175 16.6202,28.1805 C16.4842,28.2405 16.3372,28.2725 16.1792,28.2725 C16.0292,28.2725 15.8872,28.2405 15.7512,28.1805 C15.6142,28.1175 15.4932,28.0355 15.3882,27.9365 C15.2822,27.8345 15.1982,27.7155 15.1382,27.5805 C15.0752,27.4435 15.0452,27.2955 15.0452,27.1375 C15.0452,26.9795 15.0752,26.8345 15.1382,26.7035 C15.1982,26.5705 15.2822,26.4535 15.3882,26.3545 C15.4932,26.2525 15.6142,26.1725 15.7512,26.1155 C15.8872,26.0595 16.0292,26.0295 16.1792,26.0295 C16.9342,26.0295 17.3122,26.3995 17.3122,27.1375 Z M11.2882,15.7215 C11.2882,16.9595 11.1202,18.1725 10.7862,19.3595 C10.4092,20.6685 9.8642,21.7295 9.1512,22.5375 C8.4232,23.3545 7.4602,23.8205 6.2642,23.9345 C6.1412,23.9435 5.9922,23.9555 5.8162,23.9735 C5.6402,23.9905 5.4382,24.0225 5.2102,24.0665 C5.4472,23.2665 5.5652,22.4405 5.5652,21.5885 C5.5652,21.1845 5.5572,20.8205 5.5402,20.5005 C5.5222,20.1805 5.4952,19.9005 5.4602,19.6625 C5.6982,19.7255 5.9922,19.7545 6.3442,19.7545 L6.6472,19.7545 C7.5792,19.7545 8.3392,19.4965 8.9282,18.9775 C9.5082,18.4675 9.7982,17.8525 9.7982,17.1315 C9.7982,16.2875 9.6082,15.8655 9.2312,15.8655 L4.7742,15.8655 C3.8702,15.8655 3.1222,15.9185 2.5342,16.0245 C2.4192,16.0335 2.3622,16.0245 2.3622,15.9985 C2.3622,15.9715 2.3762,15.8795 2.4012,15.7215 C2.6752,14.1215 2.8102,12.5825 2.8102,11.1065 C2.8102,9.8855 2.7312,8.7855 2.5732,7.8115 C2.4762,7.2915 2.1692,7.0335 1.6502,7.0335 C1.1932,7.0335 0.8592,7.1505 0.6482,7.3895 C0.5432,7.5025 0.4722,7.5205 0.4372,7.4415 C0.4022,7.3975 0.3932,7.2625 0.4112,7.0335 C0.4202,6.0395 0.6532,4.4185 1.1102,2.1685 C1.1712,1.8695 1.2512,1.7295 1.3472,1.7465 C1.4272,1.7645 1.4662,1.8595 1.4662,2.0355 C1.4662,2.4755 1.4742,2.7385 1.4922,2.8265 C1.5272,3.0125 1.6772,3.1435 1.9402,3.2235 L2.3482,2.1935 C2.1202,1.8245 2.0592,1.5225 2.1652,1.2855 C2.2962,0.9865 2.5242,0.8365 2.8502,0.8365 C3.3502,0.8365 3.6012,1.0925 3.6012,1.6025 C3.6012,1.6975 3.5792,1.7995 3.5362,1.9045 C3.4032,2.1935 3.1532,2.3485 2.7842,2.3655 C2.7402,2.5165 2.6942,2.6745 2.6452,2.8405 C2.5972,3.0085 2.5422,3.1785 2.4812,3.3545 L2.9952,3.4735 C3.6722,3.6235 4.1162,3.8075 4.3272,4.0275 C4.5382,4.2565 4.6432,4.7605 4.6432,5.5435 C4.6432,5.9305 4.6212,6.3505 4.5772,6.8035 C4.5332,7.2545 4.4682,7.7445 4.3802,8.2725 C4.2922,8.7815 4.1992,9.2585 4.1022,9.7035 C4.0062,10.1475 3.9092,10.5615 3.8122,10.9475 C3.7332,11.2215 3.8392,11.3575 4.1292,11.3575 L10.0752,11.3575 C10.3042,11.3575 10.5272,11.5985 10.7472,12.0825 C11.1072,12.8995 11.2882,14.1115 11.2882,15.7215 Z" id="Fill-28"></path>
        </g>
    </g>
</svg>