<?xml version="1.0" encoding="utf-8"?>
<!-- Generator: Adobe Illustrator 16.0.0, SVG Export Plug-In . SVG Version: 6.00 Build 0)  -->
<!DOCTYPE svg PUBLIC "-//W3C//DTD SVG 1.1//EN" "http://www.w3.org/Graphics/SVG/1.1/DTD/svg11.dtd">
<svg version="1.1" id="Layer_1" xmlns="http://www.w3.org/2000/svg" xmlns:xlink="http://www.w3.org/1999/xlink" x="0px" y="0px"
	 width="95px" height="35px" viewBox="0 0 95 35" enable-background="new 0 0 95 35" xml:space="preserve">
<path fill="#FFFFDF" d="M38.516,13.606c0,8.947-0.352,14.19-1.055,15.728c-0.123,0.264-0.211,0.396-0.264,0.396
	c-0.105,0-0.176-0.176-0.211-0.527l-0.053-2.98c0-1.125-0.02-2.504-0.061-4.139c-0.039-1.635-0.094-3.556-0.164-5.762
	c-0.053-0.773-0.141-1.27-0.264-1.49c-0.202-0.359-0.633-0.54-1.292-0.54h-3.968c-0.203,0-0.475,0.044-0.818,0.132
	c-0.359,0.079-0.615,0.119-0.764,0.119c-0.045,0-0.066-0.022-0.066-0.066c0-0.035,0.011-0.121,0.033-0.258
	c0.021-0.135,0.055-0.322,0.099-0.56c0.053-0.255,0.093-0.462,0.118-0.62c0.027-0.158,0.045-0.268,0.053-0.329l0.502-4.456h0.289
	c0,1.31,0.717,1.965,2.149,1.965c0.132,0,0.304-0.008,0.515-0.02c0.211-0.014,0.457-0.029,0.738-0.047
	c0.289-0.018,0.545-0.033,0.764-0.047c0.221-0.012,0.404-0.02,0.555-0.02c0.984,0,1.723,0.211,2.215,0.633
	C38.199,11.264,38.516,12.227,38.516,13.606z M34.151,19.328c0,0.158-0.03,0.306-0.093,0.441c-0.061,0.137-0.143,0.256-0.244,0.355
	c-0.101,0.102-0.219,0.184-0.355,0.244c-0.137,0.062-0.283,0.093-0.441,0.093s-0.308-0.03-0.448-0.093
	c-0.141-0.061-0.264-0.143-0.369-0.244c-0.105-0.1-0.188-0.219-0.251-0.355c-0.061-0.136-0.092-0.283-0.092-0.441
	s0.033-0.303,0.1-0.436c0.064-0.131,0.15-0.248,0.256-0.35c0.105-0.1,0.229-0.18,0.369-0.236s0.286-0.086,0.436-0.086
	c0.325,0,0.596,0.107,0.811,0.322C34.043,18.76,34.151,19.021,34.151,19.328z M34.151,22.875c0,0.148-0.03,0.291-0.093,0.428
	c-0.061,0.137-0.143,0.258-0.244,0.363c-0.101,0.105-0.219,0.188-0.355,0.25s-0.283,0.092-0.441,0.092s-0.308-0.03-0.448-0.092
	s-0.264-0.145-0.369-0.25s-0.188-0.227-0.251-0.363c-0.061-0.137-0.092-0.279-0.092-0.428c0-0.158,0.033-0.304,0.1-0.436
	c0.064-0.132,0.15-0.248,0.256-0.35c0.105-0.101,0.229-0.18,0.369-0.236c0.141-0.058,0.286-0.086,0.436-0.086
	c0.325,0,0.596,0.107,0.811,0.322C34.043,22.306,34.151,22.566,34.151,22.875z M47.572,26.078c0,0.158-0.031,0.305-0.092,0.441
	c-0.062,0.137-0.143,0.255-0.244,0.355c-0.102,0.102-0.22,0.184-0.355,0.244c-0.137,0.062-0.284,0.093-0.442,0.093
	c-0.149,0-0.292-0.03-0.429-0.093c-0.136-0.061-0.257-0.143-0.362-0.244c-0.105-0.101-0.188-0.219-0.251-0.355
	c-0.061-0.137-0.092-0.283-0.092-0.441s0.031-0.303,0.092-0.436c0.062-0.131,0.146-0.248,0.251-0.35
	c0.105-0.101,0.227-0.18,0.362-0.236c0.137-0.058,0.279-0.086,0.429-0.086C47.194,24.971,47.572,25.34,47.572,26.078z
	 M51.053,26.078c0,0.158-0.031,0.305-0.092,0.441c-0.062,0.137-0.144,0.255-0.244,0.355c-0.102,0.102-0.221,0.184-0.355,0.244
	c-0.137,0.062-0.284,0.093-0.442,0.093s-0.306-0.03-0.442-0.093c-0.136-0.061-0.254-0.143-0.355-0.244
	c-0.102-0.101-0.182-0.219-0.244-0.355c-0.061-0.137-0.092-0.283-0.092-0.441c0-0.308,0.111-0.569,0.336-0.785
	c0.225-0.215,0.49-0.322,0.798-0.322c0.325,0,0.595,0.107,0.812,0.322C50.945,25.509,51.053,25.771,51.053,26.078z M48.877,13.606
	c0,1.125-0.008,2.083-0.025,2.874s-0.045,1.428-0.08,1.912c-0.148,2.092-0.47,3.639-0.962,4.641
	c-0.123,0.264-0.211,0.395-0.264,0.395c-0.097,0-0.163-0.162-0.198-0.487c-0.043-0.387-0.078-0.853-0.105-1.397
	c-0.025-0.545-0.048-1.174-0.065-1.885c-0.018-0.826-0.035-1.514-0.053-2.064c-0.018-0.549-0.035-0.973-0.053-1.271
	c-0.07-0.8-0.158-1.297-0.264-1.49c-0.202-0.359-0.638-0.54-1.306-0.54h-3.889c-0.22,0-0.51,0.044-0.87,0.132
	c-0.387,0.079-0.646,0.119-0.778,0.119c-0.043,0-0.065-0.022-0.065-0.066s0.011-0.134,0.032-0.27c0.022-0.137,0.056-0.319,0.1-0.548
	c0.053-0.255,0.092-0.462,0.119-0.62c0.025-0.158,0.043-0.268,0.053-0.329l0.5-4.456h0.277c0,1.31,0.721,1.965,2.162,1.965
	c0.132,0,0.303-0.008,0.514-0.02c0.211-0.014,0.462-0.029,0.752-0.047s0.543-0.033,0.758-0.047c0.215-0.012,0.398-0.02,0.547-0.02
	c0.984,0,1.723,0.211,2.215,0.633C48.561,11.264,48.877,12.227,48.877,13.606z M54.955,12.434c0,5.404-0.176,8.824-0.527,10.256
	c-0.105,0.414-0.25,0.62-0.436,0.62c-0.193,0-0.338-0.153-0.435-0.462c-0.009-0.018-0.024-0.18-0.046-0.487
	c-0.022-0.308-0.055-0.765-0.1-1.371c-0.043-0.703-0.094-1.472-0.151-2.308c-0.058-0.834-0.116-1.744-0.178-2.729
	c-0.035-0.58-0.101-0.971-0.198-1.174c-0.158-0.324-0.487-0.487-0.988-0.487c-0.659,0-0.984,0.005-0.976,0.013
	c-0.325-0.061-0.487-0.294-0.487-0.698c0-1.67,0.158-3.454,0.475-5.353h0.276c0,0.773,0.093,1.27,0.276,1.49
	c0.221,0.271,0.721,0.408,1.504,0.408C54.291,10.152,54.955,10.912,54.955,12.434z M54.085,6.264c0,0.158-0.03,0.305-0.093,0.441
	c-0.061,0.137-0.143,0.255-0.243,0.355c-0.102,0.102-0.22,0.183-0.356,0.244s-0.283,0.092-0.441,0.092
	c-0.149,0-0.293-0.03-0.429-0.092s-0.257-0.143-0.362-0.244c-0.105-0.101-0.189-0.219-0.25-0.355
	c-0.062-0.137-0.093-0.283-0.093-0.441c0-0.141,0.03-0.279,0.093-0.416c0.061-0.136,0.145-0.254,0.25-0.355s0.227-0.183,0.362-0.244
	s0.279-0.092,0.429-0.092c0.343,0,0.617,0.104,0.824,0.309C53.981,5.672,54.085,5.938,54.085,6.264z M65.463,16.612
	c0,1.529-0.246,2.86-0.738,3.995c-0.668,1.512-1.68,2.268-3.033,2.268c-0.113,0-0.65-0.014-1.607-0.04
	c-0.703-0.026-1.275-0.026-1.715,0c-0.307,0.018-0.591,0.053-0.85,0.105c-0.26,0.053-0.49,0.114-0.692,0.185l-0.065-0.026
	c0.123-0.369,0.184-0.909,0.184-1.622V19.75c0-0.378-0.053-0.721-0.158-1.028l0.066-0.026c0.22,0.079,0.594,0.119,1.121,0.119h3.678
	c0.791,0,1.42-0.189,1.885-0.567c0.51-0.404,0.766-0.993,0.766-1.767c0-1.433-0.967-2.148-2.9-2.148h-4.074
	c-0.36,0-0.541-0.176-0.541-0.527V8.28h0.316c0,1.266,0.479,1.898,1.438,1.898h3.401c1.477,0,2.483,0.756,3.019,2.268
	C65.295,13.396,65.463,14.784,65.463,16.612z M60.742,16.586c0,0.158-0.03,0.306-0.092,0.441c-0.062,0.137-0.143,0.256-0.244,0.355
	c-0.102,0.102-0.22,0.184-0.355,0.244c-0.137,0.062-0.283,0.093-0.441,0.093s-0.307-0.03-0.442-0.093
	c-0.136-0.061-0.255-0.143-0.355-0.244c-0.102-0.1-0.183-0.219-0.244-0.355c-0.062-0.136-0.093-0.283-0.093-0.441
	c0-0.281,0.119-0.536,0.356-0.765c0.246-0.229,0.505-0.343,0.778-0.343c0.324,0,0.595,0.104,0.811,0.311
	C60.635,15.995,60.742,16.261,60.742,16.586z"/>
</svg>
