<?xml version="1.0" encoding="utf-8"?>
<!-- Generator: Adobe Illustrator 16.0.0, SVG Export Plug-In . SVG Version: 6.00 Build 0)  -->
<!DOCTYPE svg PUBLIC "-//W3C//DTD SVG 1.1//EN" "http://www.w3.org/Graphics/SVG/1.1/DTD/svg11.dtd">
<svg version="1.1" id="Layer_1" xmlns="http://www.w3.org/2000/svg" xmlns:xlink="http://www.w3.org/1999/xlink" x="0px" y="0px"
	 width="95px" height="35px" viewBox="0 0 95 35" enable-background="new 0 0 95 35" xml:space="preserve">
<path fill="#FFFFDF" d="M12.398,20.852c0,0.773-0.172,1.705-0.514,2.795c-0.176,0.562-0.361,1.057-0.555,1.483
	s-0.398,0.788-0.619,1.087l-0.184-0.118c0.105-0.29,0.158-0.716,0.158-1.278c0-1.539-0.242-2.9-0.727-4.087
	c-0.131-0.325-0.197-0.567-0.197-0.725c0-0.281,0.162-0.747,0.488-1.397c0.324-0.65,0.488-1.09,0.488-1.318
	c0-0.158-0.199-0.237-0.594-0.237H2.787c-0.289,0-0.434-0.207-0.434-0.62v-5.432h0.275c0,1.266,0.488,1.898,1.465,1.898h2.215
	v-1.305c-0.264-0.185-0.396-0.404-0.396-0.659c0-0.431,0.229-0.646,0.686-0.646s0.686,0.215,0.686,0.646
	c0,0.316-0.158,0.545-0.475,0.686v1.279h4.088c0.58,0,0.975-0.04,1.186-0.119l0.092,0.092c-0.289,2.391-0.434,3.7-0.434,3.929
	c0,0.439,0.109,1.094,0.328,1.964C12.289,19.639,12.398,20.333,12.398,20.852z M5.424,22.737c0,0.484-0.193,1.086-0.58,1.807
	l-1.027,1.674l-0.158-0.092c0.018-0.088,0.025-0.172,0.025-0.25c0-0.502-0.176-1.107-0.527-1.82
	c-0.342-0.721-0.514-1.178-0.514-1.371s0.229-0.746,0.686-1.661c0.457-0.923,0.748-1.393,0.871-1.411l0.777,1.516
	C5.275,21.762,5.424,22.297,5.424,22.737z M17.105,29.62c-0.238,0-0.355-0.137-0.355-0.409v-0.87c0-0.264,0.117-0.396,0.355-0.396
	h5.049c0.229,0,0.344,0.132,0.344,0.396v0.87c0,0.272-0.115,0.409-0.344,0.409H17.105z M23.842,10.569
	c-0.184,1.178-0.277,3.195-0.277,6.051c0,0.352-0.18,0.527-0.539,0.527c-0.098,0-0.215,0-0.35,0c-0.137,0-0.301-0.004-0.494-0.013
	c-0.186-0.009-0.346-0.013-0.482-0.013s-0.252,0-0.35,0c-0.264,0-0.434,0.101-0.514,0.303c-0.025,0.114-0.053,0.229-0.078,0.343
	c-0.027,0.114-0.049,0.229-0.066,0.343l0.844,0.132c0.844,0.114,1.41,0.532,1.701,1.252c0.193,0.466,0.289,1.222,0.289,2.268
	c0,1.266-0.127,2.162-0.383,2.689c-0.387,0.764-1.133,1.146-2.24,1.146h-5.234c-0.861,0-1.41,0.039-1.648,0.119
	c0.105-0.801,0.158-1.143,0.158-1.029v-2.057c0-0.158-0.008-0.318-0.025-0.48s-0.045-0.332-0.08-0.508
	c1.117,0.185,1.789,0.277,2.018,0.277c0.309,0,0.689,0,1.146,0s0.994-0.005,1.609-0.014s1.15-0.014,1.607-0.014s0.84,0,1.148,0
	c0.229,0,0.342-0.153,0.342-0.461c0-0.369-0.197-0.576-0.594-0.62l-2.596-0.25c-0.783-0.062-1.301-0.448-1.557-1.16
	c-0.148-0.422-0.225-1.134-0.225-2.136c0-0.149-0.043-0.224-0.131-0.224l-0.014,0.013c-0.281,0-0.703,0.013-1.266,0.04
	c-0.281,0.009-0.527,0.016-0.738,0.02s-0.387,0.006-0.527,0.006c-0.289,0-0.436-0.167-0.436-0.501l-0.025-3.217
	c-0.01-0.132,0.061-0.255,0.211-0.369c0.148-0.123,0.225-0.281,0.225-0.475v-1.332c-0.316-0.132-0.475-0.365-0.475-0.699
	c0-0.457,0.219-0.686,0.658-0.686c0.457,0,0.686,0.229,0.686,0.686c0,0.316-0.137,0.527-0.408,0.633
	c0.018,0.176,0.031,0.349,0.039,0.521c0.01,0.171,0.018,0.345,0.027,0.521c0.061,0.554,0.18,0.831,0.355,0.831
	c0.184,0,0.369-0.448,0.553-1.345c0.053-0.281,0.105-0.562,0.158-0.844s0.102-0.562,0.146-0.844
	c-0.193-0.202-0.291-0.413-0.291-0.633c0-0.457,0.225-0.686,0.672-0.686c0.449,0,0.674,0.224,0.674,0.672
	c0,0.396-0.207,0.633-0.621,0.712c-0.184,1.784-0.275,2.703-0.275,2.755c0,0.255,0.127,0.382,0.381,0.382
	c0.211,0,0.4-0.294,0.568-0.883l0.264-1.16c-0.133-0.22-0.199-0.413-0.199-0.58c0-0.422,0.225-0.633,0.674-0.633
	c0.447,0,0.672,0.22,0.672,0.659c0,0.457-0.246,0.694-0.738,0.712c-0.07,0.483-0.123,0.853-0.158,1.107s-0.053,0.4-0.053,0.435
	c0,0.167,0.049,0.25,0.145,0.25c0.088,0,0.203-0.07,0.344-0.211v3.059c0,0.765,0.07,1.257,0.211,1.477
	c0.166,0.246,0.598,0.431,1.291,0.554c0.045-0.422,0.08-0.817,0.105-1.187c0.027-0.369,0.039-0.716,0.039-1.042
	c0-0.853-0.092-1.806-0.275-2.861c0.148,0.062,0.732,0.092,1.752,0.092h0.621c0.404,0,0.777-0.347,1.119-1.042
	c0-0.018,0.199-0.541,0.594-1.569L23.842,10.569z M16.354,19.441c0,0.158-0.031,0.306-0.092,0.442
	c-0.062,0.136-0.143,0.255-0.244,0.355c-0.102,0.102-0.221,0.183-0.355,0.244c-0.137,0.062-0.283,0.092-0.441,0.092
	s-0.307-0.031-0.443-0.092c-0.135-0.062-0.254-0.143-0.355-0.244c-0.102-0.101-0.182-0.219-0.244-0.355
	c-0.061-0.136-0.092-0.284-0.092-0.442c0-0.281,0.119-0.536,0.355-0.765c0.246-0.229,0.506-0.343,0.779-0.343
	c0.324,0,0.594,0.104,0.811,0.31C16.246,18.851,16.354,19.116,16.354,19.441z M29.393,29.62c-0.238,0-0.355-0.137-0.355-0.409v-0.87
	c0-0.264,0.117-0.396,0.355-0.396h5.049c0.229,0,0.344,0.132,0.344,0.396v0.87c0,0.272-0.115,0.409-0.344,0.409H29.393z M37,25.229
	c0,0.255-0.053,0.461-0.158,0.619c-0.273-0.166-0.594-0.25-0.963-0.25h-4.152c-0.844,0-1.5,0.084-1.965,0.25
	c0.141-1.045,0.244-1.929,0.309-2.649c0.066-0.721,0.1-1.283,0.1-1.688c0.115,0.035,0.256,0.053,0.422,0.053l5.129-0.026
	l-0.383-2.268c-0.131-0.844-0.383-1.424-0.752-1.74s-0.971-0.475-1.805-0.475h-1.768c-0.693,0-1.283,0.255-1.766,0.765
	c-0.492,0.519-0.738,1.116-0.738,1.793v3.902c-0.826,0.729-1.469,1.705-1.926,2.927h-0.158V22.42c0-0.904,0.268-1.933,0.805-3.084
	c0.545-1.169,0.816-1.701,0.816-1.595c0-0.246-0.307-0.426-0.922-0.541c-0.203-0.018-0.406-0.04-0.613-0.066
	s-0.41-0.053-0.613-0.079c-0.387-0.062-0.576-0.448-0.566-1.16l0.172-5.287h0.275c0,0.527,0.146,1.006,0.436,1.437
	c0.309,0.475,0.713,0.76,1.213,0.857l1.266,0.237c0.467,0.176,0.699,0.479,0.699,0.91c0,0.035-0.025,0.286-0.072,0.751
	c-0.049,0.466-0.121,1.156-0.219,2.07c0.766-0.167,1.213-0.606,1.346-1.318l0.566-2.953c0.105,0.202,0.299,0.303,0.58,0.303h2.756
	c1.23,0,2.029,0.831,2.398,2.492C36.916,16.124,37,17.438,37,19.336V25.229z M55.838,22.144c0,0.404-0.219,1.134-0.658,2.188
	l-0.91,2.004l-0.131-0.119c0.008-0.043,0.014-0.088,0.02-0.131c0.004-0.045,0.006-0.088,0.006-0.133
	c0-0.773-0.285-1.419-0.857-1.938l-7.039-6.381c-0.246,0.501-0.369,0.813-0.369,0.936c0,0.527,0.541,1.323,1.621,2.386
	c1.082,1.072,1.621,1.955,1.621,2.65c0,0.65-0.229,1.15-0.686,1.502c-0.412,0.326-0.957,0.488-1.635,0.488h-3.059v-0.225
	c0.59-0.131,0.945-0.224,1.068-0.276c0.414-0.176,0.619-0.448,0.619-0.817c0-0.352-0.271-0.84-0.816-1.463
	c-0.537-0.615-0.805-1.195-0.805-1.741c0-0.422,0.123-0.835,0.369-1.239L45.74,17.2l-1.146-0.989
	c-0.484-0.475-0.727-0.91-0.727-1.305c0-0.308,0.26-0.971,0.779-1.991l1.027-1.938l0.145,0.105v0.119
	c-0.025,0.703,0.309,1.371,1.002,2.004l6.184,5.577c0.246-0.677,0.369-1.094,0.369-1.252c0-0.369-0.418-0.839-1.252-1.411
	c-0.826-0.562-1.24-1.072-1.24-1.529c0-0.325,0.264-0.945,0.791-1.859c0.186-0.29,0.369-0.58,0.555-0.87
	c0.184-0.29,0.365-0.584,0.541-0.883l0.117,0.092c-0.025,0.149-0.039,0.299-0.039,0.448c0,0.589,0.467,1.151,1.398,1.688
	c0.932,0.527,1.396,1.103,1.396,1.727c0,0.483-0.299,1.257-0.896,2.32l-1.227,1.964l1.754,1.622
	C55.65,21.19,55.838,21.625,55.838,22.144z M61.719,15.394c0,1.125-0.229,2.197-0.686,3.217c-0.502,1.134-1.188,1.964-2.057,2.492
	c-0.07,0.044-0.137,0.066-0.197,0.066c-0.158,0-0.238-0.083-0.238-0.25c0,0.053,0.232-0.299,0.699-1.055
	c0.465-0.756,0.699-1.441,0.699-2.057c0-0.527-0.176-0.791-0.527-0.791l-1.279,0.013c-0.246,0-0.414,0.11-0.502,0.33
	c-0.096,0.211-0.152,0.316-0.17,0.316c-0.221-0.185-0.33-1.059-0.33-2.624c0-1.846,0.113-3.204,0.342-4.074h0.277
	c0,0.668,0.109,1.138,0.33,1.411c0.236,0.325,0.668,0.488,1.291,0.488l0.475-0.844c-0.158-0.246-0.236-0.457-0.236-0.633
	c0-0.404,0.225-0.606,0.672-0.606c0.457,0,0.686,0.229,0.686,0.686c0,0.475-0.25,0.712-0.752,0.712l-0.211,0.712
	c0.721,0,1.209,0.246,1.465,0.738C61.635,13.975,61.719,14.559,61.719,15.394z M70.301,28.801c0,0.309-0.123,0.58-0.369,0.818
	c-0.236,0.246-0.51,0.369-0.816,0.369c-0.316,0-0.598-0.123-0.844-0.369c-0.246-0.238-0.369-0.51-0.369-0.818
	c0-0.158,0.033-0.307,0.098-0.447c0.066-0.141,0.156-0.264,0.271-0.369c0.113-0.105,0.244-0.189,0.389-0.251
	s0.297-0.093,0.455-0.093c0.342,0,0.625,0.112,0.85,0.337C70.189,28.202,70.301,28.477,70.301,28.801z M73.32,10.569
	c-0.186,1.178-0.277,3.195-0.277,6.051c0,0.352-0.18,0.527-0.541,0.527c-0.096,0-0.213,0-0.348,0c-0.137,0-0.303-0.004-0.496-0.013
	c-0.184-0.009-0.344-0.013-0.48-0.013s-0.252,0-0.35,0c-0.264,0-0.436,0.101-0.514,0.303c-0.027,0.114-0.053,0.229-0.08,0.343
	c-0.025,0.114-0.047,0.229-0.064,0.343l0.844,0.132c0.844,0.114,1.41,0.532,1.699,1.252c0.193,0.466,0.291,1.222,0.291,2.268
	c0,1.266-0.127,2.162-0.383,2.689c-0.387,0.764-1.133,1.146-2.24,1.146h-5.234c-0.861,0-1.41,0.039-1.648,0.119
	c0.105-0.801,0.158-1.143,0.158-1.029v-2.057c0-0.158-0.008-0.318-0.025-0.48s-0.045-0.332-0.08-0.508
	c1.117,0.185,1.789,0.277,2.018,0.277c0.307,0,0.689,0,1.146,0s0.994-0.005,1.609-0.014s1.15-0.014,1.607-0.014s0.84,0,1.146,0
	c0.229,0,0.344-0.153,0.344-0.461c0-0.369-0.197-0.576-0.594-0.62l-2.598-0.25c-0.781-0.062-1.301-0.448-1.555-1.16
	c-0.15-0.422-0.225-1.134-0.225-2.136c0-0.149-0.043-0.224-0.131-0.224l-0.014,0.013c-0.281,0-0.703,0.013-1.266,0.04
	c-0.281,0.009-0.527,0.016-0.738,0.02s-0.387,0.006-0.527,0.006c-0.291,0-0.436-0.167-0.436-0.501l-0.025-3.217
	c-0.01-0.132,0.061-0.255,0.211-0.369c0.148-0.123,0.223-0.281,0.223-0.475v-1.332c-0.316-0.132-0.475-0.365-0.475-0.699
	c0-0.457,0.221-0.686,0.66-0.686c0.457,0,0.686,0.229,0.686,0.686c0,0.316-0.137,0.527-0.408,0.633
	c0.018,0.176,0.029,0.349,0.039,0.521c0.008,0.171,0.018,0.345,0.025,0.521c0.062,0.554,0.182,0.831,0.357,0.831
	c0.184,0,0.369-0.448,0.553-1.345c0.053-0.281,0.105-0.562,0.158-0.844s0.102-0.562,0.145-0.844
	c-0.193-0.202-0.289-0.413-0.289-0.633c0-0.457,0.225-0.686,0.672-0.686c0.449,0,0.672,0.224,0.672,0.672
	c0,0.396-0.205,0.633-0.619,0.712c-0.184,1.784-0.277,2.703-0.277,2.755c0,0.255,0.129,0.382,0.383,0.382
	c0.211,0,0.4-0.294,0.566-0.883l0.264-1.16c-0.131-0.22-0.197-0.413-0.197-0.58c0-0.422,0.225-0.633,0.672-0.633
	c0.449,0,0.674,0.22,0.674,0.659c0,0.457-0.246,0.694-0.738,0.712c-0.07,0.483-0.123,0.853-0.158,1.107s-0.053,0.4-0.053,0.435
	c0,0.167,0.047,0.25,0.145,0.25c0.088,0,0.201-0.07,0.342-0.211v3.059c0,0.765,0.07,1.257,0.211,1.477
	c0.168,0.246,0.598,0.431,1.293,0.554c0.043-0.422,0.078-0.817,0.105-1.187c0.025-0.369,0.039-0.716,0.039-1.042
	c0-0.853-0.092-1.806-0.277-2.861c0.15,0.062,0.734,0.092,1.754,0.092h0.619c0.404,0,0.779-0.347,1.121-1.042
	c0-0.018,0.197-0.541,0.594-1.569L73.32,10.569z M79.424,15.157c0,5.405-0.176,8.824-0.527,10.257
	c-0.105,0.413-0.25,0.62-0.436,0.62c-0.193,0-0.338-0.154-0.434-0.462c-0.01-0.018-0.025-0.181-0.047-0.487
	c-0.021-0.309-0.055-0.766-0.1-1.371c-0.043-0.703-0.094-1.473-0.15-2.308c-0.059-0.835-0.117-1.745-0.178-2.729
	c-0.035-0.58-0.102-0.971-0.199-1.173c-0.158-0.325-0.486-0.488-0.988-0.488c-0.658,0-0.984,0.004-0.975,0.013
	c-0.326-0.062-0.488-0.294-0.488-0.699c0-1.67,0.158-3.454,0.475-5.353h0.277c0,0.773,0.092,1.27,0.275,1.49
	c0.221,0.272,0.721,0.409,1.504,0.409C78.76,12.876,79.424,13.636,79.424,15.157z M78.555,8.987c0,0.158-0.031,0.306-0.094,0.441
	c-0.061,0.137-0.143,0.255-0.242,0.356c-0.102,0.101-0.221,0.182-0.357,0.244s-0.283,0.092-0.441,0.092
	c-0.148,0-0.293-0.031-0.428-0.092c-0.137-0.062-0.258-0.143-0.363-0.244s-0.189-0.22-0.25-0.356
	c-0.062-0.136-0.092-0.283-0.092-0.441c0-0.141,0.029-0.279,0.092-0.415c0.061-0.136,0.145-0.255,0.25-0.356
	c0.105-0.101,0.227-0.182,0.363-0.244c0.135-0.062,0.279-0.092,0.428-0.092c0.344,0,0.617,0.104,0.824,0.31
	C78.451,8.396,78.555,8.662,78.555,8.987z M92.646,25.229c0,0.255-0.053,0.461-0.158,0.619c-0.271-0.166-0.592-0.25-0.961-0.25
	h-4.154c-0.844,0-1.498,0.084-1.963,0.25c0.141-1.045,0.244-1.929,0.309-2.649c0.066-0.721,0.1-1.283,0.1-1.688
	c0.113,0.035,0.254,0.053,0.422,0.053l5.129-0.026l-0.383-2.268c-0.133-0.844-0.383-1.424-0.752-1.74s-0.971-0.475-1.807-0.475
	h-1.766c-0.695,0-1.283,0.255-1.768,0.765c-0.492,0.519-0.738,1.116-0.738,1.793v3.902c-0.826,0.729-1.467,1.705-1.924,2.927h-0.158
	V22.42c0-0.904,0.268-1.933,0.805-3.084c0.545-1.169,0.816-1.701,0.816-1.595c0-0.246-0.307-0.426-0.922-0.541
	c-0.203-0.018-0.408-0.04-0.613-0.066c-0.207-0.026-0.412-0.053-0.613-0.079c-0.387-0.062-0.576-0.448-0.566-1.16l0.17-5.287h0.277
	c0,0.527,0.145,1.006,0.436,1.437c0.307,0.475,0.711,0.76,1.213,0.857l1.266,0.237c0.465,0.176,0.699,0.479,0.699,0.91
	c0,0.035-0.025,0.286-0.072,0.751c-0.049,0.466-0.121,1.156-0.219,2.07c0.766-0.167,1.213-0.606,1.346-1.318l0.566-2.953
	c0.105,0.202,0.299,0.303,0.58,0.303h2.756c1.23,0,2.029,0.831,2.398,2.492c0.168,0.729,0.25,2.043,0.25,3.942V25.229z"/>
</svg>
