<?xml version="1.0" encoding="UTF-8" standalone="no"?>
<svg width="94px" height="34px" viewBox="0 0 94 34" version="1.1" xmlns="http://www.w3.org/2000/svg" xmlns:xlink="http://www.w3.org/1999/xlink">
    <!-- Generator: Sketch 49.1 (51147) - http://www.bohemiancoding.com/sketch -->
    <title>img/indexclose/chp10-normal</title>
    <desc>Created with Sketch.</desc>
    <defs></defs>
    <g id="img/indexclose/chp10-normal" stroke="none" stroke-width="1" fill="none" fill-rule="evenodd">
        <path d="M89.67,7.315 C89.67,7.473 89.639,7.621 89.578,7.756 C89.516,7.893 89.434,8.011 89.334,8.113 C89.233,8.214 89.113,8.294 88.979,8.357 C88.842,8.418 88.693,8.449 88.535,8.449 C88.387,8.449 88.244,8.418 88.108,8.357 C87.971,8.294 87.85,8.214 87.744,8.113 C87.639,8.011 87.557,7.893 87.494,7.756 C87.434,7.621 87.402,7.473 87.402,7.315 C87.402,7.174 87.434,7.037 87.494,6.9 C87.557,6.763 87.639,6.645 87.744,6.544 C87.85,6.443 87.971,6.361 88.108,6.3 C88.244,6.238 88.387,6.208 88.535,6.208 C88.879,6.208 89.152,6.311 89.359,6.517 C89.566,6.724 89.67,6.99 89.67,7.315 Z M88.061,17.375 C88.061,17.533 88.031,17.679 87.969,17.816 C87.908,17.953 87.826,18.071 87.725,18.171 C87.623,18.273 87.506,18.354 87.369,18.416 C87.232,18.477 87.086,18.507 86.928,18.507 C86.77,18.507 86.621,18.477 86.486,18.416 C86.35,18.354 86.231,18.273 86.131,18.171 C86.029,18.071 85.947,17.953 85.887,17.816 C85.824,17.679 85.793,17.533 85.793,17.375 C85.793,17.093 85.912,16.837 86.15,16.609 C86.397,16.38 86.654,16.267 86.928,16.267 C87.252,16.267 87.524,16.371 87.738,16.577 C87.953,16.783 88.061,17.048 88.061,17.375 Z M91.793,12.47 C91.793,12.593 91.77,12.711 91.727,12.826 C90.768,15.216 90.065,17.656 89.617,20.142 C89.547,20.564 89.473,20.923 89.393,21.217 C89.315,21.511 89.238,21.747 89.168,21.922 C88.887,22.617 88.492,23.035 87.983,23.175 L83.025,24.612 C82.691,24.709 82.203,24.999 81.563,25.482 L81.377,25.39 C81.412,25.293 81.43,25.152 81.43,24.968 C81.43,24.336 81.141,23.246 80.561,21.699 C79.981,20.16 79.69,18.961 79.69,18.099 C79.69,17.818 79.746,17.435 79.861,16.953 C79.984,16.433 80.045,16.064 80.045,15.845 C80.045,15.599 79.742,15.476 79.137,15.476 C77.977,15.476 77.316,15.506 77.158,15.568 C77,14.953 76.922,14.14 76.922,13.128 C76.922,12.418 76.969,11.806 77.066,11.296 C77.127,11.323 77.186,11.336 77.238,11.336 C77.334,11.336 77.383,10.91 77.383,10.057 C77.066,9.943 76.908,9.714 76.908,9.372 C76.908,8.915 77.127,8.686 77.566,8.686 C78.024,8.686 78.252,8.915 78.252,9.372 C78.252,9.67 78.139,9.869 77.91,9.964 L77.91,10.328 C77.91,10.446 77.914,10.567 77.924,10.69 C77.959,11.033 78.072,11.205 78.266,11.205 C78.451,11.205 78.613,10.857 78.754,10.163 L78.99,8.832 C78.789,8.611 78.688,8.392 78.688,8.171 C78.688,7.732 78.912,7.513 79.359,7.513 C79.809,7.513 80.033,7.737 80.033,8.185 C80.033,8.581 79.83,8.818 79.426,8.897 L79.373,10.888 C79.356,11.142 79.465,11.27 79.703,11.27 C79.852,11.27 79.992,11.082 80.125,10.703 L80.361,9.925 C80.231,9.706 80.164,9.507 80.164,9.332 C80.164,8.902 80.379,8.686 80.811,8.686 C81.258,8.686 81.482,8.915 81.482,9.372 C81.482,9.846 81.236,10.084 80.744,10.084 C80.719,10.69 80.705,11.002 80.705,11.019 C80.705,11.142 80.719,11.244 80.744,11.323 C80.982,11.446 81.1,11.599 81.1,11.785 L81.088,11.916 C81.07,12.337 81.018,12.988 80.93,13.867 C80.885,14.289 80.85,14.663 80.824,14.988 C80.797,15.313 80.783,15.589 80.783,15.818 C80.783,16.503 81.012,17.427 81.469,18.587 C81.883,19.65 82.309,20.525 82.748,21.211 L83.025,21.119 C83.922,17.734 84.369,15.99 84.369,15.884 C84.369,15.612 83.588,15.383 82.024,15.199 L81.932,15.132 C82.115,12.636 82.481,10.848 83.025,9.767 L83.209,9.859 C83.191,9.947 83.184,10.031 83.184,10.11 C83.184,10.813 83.455,11.253 84,11.428 C84.256,11.455 84.508,11.481 84.76,11.507 C85.01,11.534 85.262,11.564 85.518,11.599 C86.063,11.705 86.334,12.039 86.334,12.601 C86.334,12.962 86.022,14.271 85.399,16.531 L84.211,20.868 C84.625,20.762 85.121,20.613 85.701,20.419 C86.281,20.226 86.953,19.989 87.719,19.708 C87.965,19.593 88.141,19.365 88.246,19.022 C88.703,17.563 89.199,16.535 89.736,15.937 C89.772,15.902 89.811,15.828 89.854,15.712 L89.762,15.568 C89.385,15.295 88.5,15.16 87.111,15.16 L86.981,15.107 C87.279,12.681 87.727,10.901 88.324,9.767 L88.549,9.859 C88.524,9.982 88.51,10.105 88.51,10.228 C88.51,10.861 88.707,11.209 89.104,11.27 L91.107,11.574 C91.565,11.634 91.793,11.933 91.793,12.47 Z M90.078,31.691 C90.078,31.849 90.047,31.997 89.986,32.133 C89.924,32.269 89.844,32.388 89.742,32.489 C89.641,32.589 89.522,32.671 89.387,32.733 C89.25,32.794 89.104,32.826 88.945,32.826 C88.795,32.826 88.652,32.794 88.516,32.733 C88.379,32.671 88.26,32.589 88.154,32.489 C88.049,32.388 87.965,32.269 87.902,32.133 C87.842,31.997 87.811,31.849 87.811,31.691 C87.811,31.41 87.926,31.156 88.154,30.927 C88.383,30.699 88.647,30.584 88.945,30.584 C89.701,30.584 90.078,30.953 90.078,31.691 Z M88.219,29.423 C88.219,29.582 88.19,29.729 88.127,29.866 C88.066,30.002 87.984,30.121 87.883,30.221 C87.781,30.322 87.664,30.404 87.527,30.465 C87.391,30.527 87.244,30.558 87.086,30.558 C86.936,30.558 86.793,30.527 86.658,30.465 C86.522,30.404 86.402,30.322 86.301,30.221 C86.199,30.121 86.119,30.002 86.057,29.866 C85.996,29.729 85.965,29.582 85.965,29.423 C85.965,29.265 85.996,29.121 86.057,28.989 C86.119,28.857 86.199,28.74 86.301,28.639 C86.402,28.539 86.522,28.459 86.658,28.402 C86.793,28.345 86.936,28.316 87.086,28.316 C87.41,28.316 87.682,28.419 87.897,28.627 C88.111,28.833 88.219,29.099 88.219,29.423 Z M86.334,27.13 C86.334,27.289 86.303,27.435 86.242,27.572 C86.18,27.708 86.1,27.826 85.998,27.927 C85.897,28.029 85.777,28.11 85.643,28.171 C85.506,28.233 85.359,28.263 85.201,28.263 C85.043,28.263 84.895,28.233 84.76,28.171 C84.623,28.11 84.504,28.029 84.402,27.927 C84.303,27.826 84.221,27.708 84.158,27.572 C84.098,27.435 84.066,27.289 84.066,27.13 C84.066,26.822 84.18,26.56 84.402,26.345 C84.627,26.13 84.893,26.023 85.201,26.023 C85.957,26.023 86.334,26.392 86.334,27.13 Z M75.51,17.255 C75.51,18.082 75.193,18.824 74.561,19.484 C74.42,19.632 74.193,19.831 73.883,20.077 C73.57,20.323 73.172,20.613 72.69,20.947 C71.934,21.465 71.481,21.918 71.332,22.304 C71.649,22.638 71.807,23.003 71.807,23.399 C71.807,24.225 71.441,24.638 70.711,24.638 C69.92,24.638 69.525,24.212 69.525,23.359 C69.525,22.709 69.908,22.015 70.672,21.277 L72.809,19.404 C73.572,18.658 73.955,17.941 73.955,17.255 C73.955,15.919 73.02,15.252 71.147,15.252 L69.551,15.252 C69.428,15.252 69.27,15.255 69.076,15.265 C68.883,15.273 68.66,15.287 68.404,15.304 C68.15,15.322 67.928,15.336 67.738,15.343 C67.549,15.353 67.395,15.357 67.272,15.357 C66.822,15.357 66.598,14.241 66.598,12.008 C66.598,11.446 66.631,10.846 66.697,10.209 C66.764,9.572 66.858,8.888 66.981,8.159 C67.219,6.84 67.336,6.203 67.336,6.248 C67.336,5.869 66.932,5.632 66.123,5.535 C65.315,5.439 64.91,5.13 64.91,4.613 C64.91,3.97 65.078,3.29 65.412,2.569 C65.781,1.787 66.225,1.263 66.744,1 L66.809,1.04 C66.66,1.62 66.586,1.923 66.586,1.949 C66.586,2.293 67.002,2.569 67.838,2.78 C68.672,2.982 69.09,3.369 69.09,3.94 C69.09,4.002 68.963,4.48 68.707,5.377 C68.215,7.144 67.969,8.4 67.969,9.148 L67.969,9.372 C67.969,10.013 68.004,10.449 68.074,10.677 C68.215,11.072 68.563,11.27 69.117,11.27 L73.045,11.27 C73.986,11.27 74.641,11.494 75.01,11.943 C75.344,12.355 75.51,13.068 75.51,14.078 L75.51,17.255 Z M72.873,30.676 C72.873,30.826 72.844,30.968 72.781,31.105 C72.721,31.241 72.639,31.362 72.537,31.467 C72.436,31.573 72.318,31.656 72.182,31.718 C72.045,31.779 71.899,31.81 71.74,31.81 C71.582,31.81 71.432,31.779 71.291,31.718 C71.15,31.656 71.027,31.573 70.922,31.467 C70.816,31.362 70.734,31.241 70.672,31.105 C70.611,30.968 70.58,30.826 70.58,30.676 C70.58,30.518 70.613,30.373 70.678,30.242 C70.744,30.109 70.83,29.993 70.936,29.892 C71.041,29.791 71.164,29.711 71.305,29.655 C71.445,29.597 71.59,29.569 71.74,29.569 C72.065,29.569 72.336,29.676 72.551,29.892 C72.766,30.107 72.873,30.369 72.873,30.676 Z M72.873,27.13 C72.873,27.289 72.844,27.435 72.781,27.572 C72.721,27.708 72.639,27.826 72.537,27.927 C72.436,28.029 72.318,28.11 72.182,28.171 C72.045,28.233 71.899,28.263 71.74,28.263 C71.582,28.263 71.432,28.233 71.291,28.171 C71.15,28.11 71.027,28.029 70.922,27.927 C70.816,27.826 70.734,27.708 70.672,27.572 C70.611,27.435 70.58,27.289 70.58,27.13 C70.58,26.972 70.613,26.827 70.678,26.695 C70.744,26.563 70.83,26.447 70.936,26.345 C71.041,26.244 71.164,26.166 71.305,26.108 C71.445,26.05 71.59,26.023 71.74,26.023 C72.065,26.023 72.336,26.13 72.551,26.345 C72.766,26.56 72.873,26.822 72.873,27.13 Z M64.832,14.605 C64.832,15.044 64.734,15.225 64.541,15.146 C64.287,15.093 64.143,15.067 64.108,15.067 L63.356,15.093 C63.258,15.093 63.211,15.128 63.211,15.199 C63.316,15.339 63.434,15.542 63.566,15.805 C64.129,16.807 64.453,17.704 64.541,18.495 C64.568,18.697 64.586,18.897 64.594,19.094 C64.604,19.293 64.604,19.479 64.594,19.655 C64.559,21.052 63.94,22.683 62.736,24.546 L62.565,24.441 C62.695,23.798 62.762,23.14 62.762,22.462 C62.762,20.961 62.438,19.664 61.787,18.574 C61.619,18.319 61.535,18.113 61.535,17.955 C61.535,17.796 61.576,17.625 61.654,17.44 C61.752,17.211 61.859,16.919 61.977,16.563 C62.096,16.208 62.231,15.793 62.379,15.318 C62.379,15.168 62.072,15.093 61.457,15.093 L60.627,15.093 C60.406,15.093 60.279,14.961 60.244,14.698 C60.086,13.336 59.818,12.425 59.44,11.968 C59.274,11.775 59.162,11.802 59.109,12.048 C58.873,13.015 58.754,13.951 58.754,14.856 C58.754,15.137 58.606,15.234 58.307,15.146 C57.998,15.049 57.639,15.023 57.225,15.067 C56.883,15.085 56.711,15.255 56.711,15.582 C56.711,15.775 56.799,16.109 56.975,16.584 C57.334,17.533 57.516,18.486 57.516,19.444 C57.516,19.954 57.295,20.74 56.856,21.804 C56.426,22.849 55.924,23.791 55.354,24.625 L55.221,24.466 C55.371,23.851 55.445,23.175 55.445,22.437 C55.445,21.048 55.217,19.871 54.76,18.904 C54.707,18.798 54.68,18.679 54.68,18.547 C54.68,18.424 54.732,18.275 54.838,18.099 C54.908,17.959 54.967,17.853 55.01,17.783 C55.055,17.712 55.08,17.673 55.09,17.664 C55.643,16.416 55.92,15.705 55.92,15.529 C55.92,15.238 55.705,15.093 55.274,15.093 L54.707,15.093 C54.451,15.093 54.264,15.128 54.141,15.199 C54.053,15.278 54.008,15.252 54.008,15.12 L54.008,10.966 C54.254,11.107 54.658,11.177 55.221,11.177 C55.502,11.177 55.691,11.046 55.787,10.783 C55.875,10.519 55.959,10.048 56.039,9.372 C55.713,9.257 55.551,9.033 55.551,8.699 C55.551,8.252 55.775,8.027 56.223,8.027 C56.672,8.027 56.895,8.252 56.895,8.699 C56.895,9.025 56.75,9.24 56.461,9.345 L56.578,10.73 C56.588,11.029 56.795,11.177 57.199,11.177 C57.34,11.23 57.699,11.23 58.279,11.177 C58.553,10.175 58.873,9.429 59.242,8.937 C59.488,8.611 59.66,8.449 59.756,8.449 C59.854,8.449 59.971,8.505 60.111,8.621 C60.902,9.289 61.514,10.15 61.945,11.205 C63.518,11.265 64.488,11.195 64.858,10.994 L64.832,14.605 Z M62.895,26.273 C63.123,26.273 63.236,26.405 63.236,26.669 L63.236,27.539 C63.236,27.811 63.123,27.947 62.895,27.947 L60.811,27.947 C60.811,28.369 60.891,28.755 61.049,29.107 L61.352,29.78 C61.422,29.938 61.457,30.091 61.457,30.242 C61.457,30.548 61.35,30.806 61.133,31.012 C60.918,31.218 60.666,31.322 60.375,31.322 C60.227,31.322 60.086,31.294 59.953,31.237 C59.822,31.179 59.705,31.1 59.604,31 C59.504,30.898 59.424,30.784 59.367,30.657 C59.311,30.529 59.281,30.39 59.281,30.242 C59.281,30.091 59.316,29.938 59.387,29.78 L59.678,29.107 C59.861,28.712 59.953,28.326 59.953,27.947 L57.844,27.947 C57.607,27.947 57.488,27.811 57.488,27.539 L57.488,26.669 C57.488,26.405 57.607,26.273 57.844,26.273 L62.895,26.273 Z M52.254,8.621 C52.254,9.078 52.004,9.306 51.504,9.306 C51.406,9.824 51.334,10.22 51.285,10.492 C51.236,10.765 51.213,10.923 51.213,10.966 C51.213,11.107 51.266,11.177 51.371,11.177 C51.469,11.177 51.631,11.117 51.859,10.994 L51.859,14.605 C51.859,15.009 51.797,15.212 51.674,15.212 C51.621,15.212 51.529,15.19 51.399,15.146 C51.266,15.102 51.164,15.08 51.094,15.08 C50.602,15.08 50.356,15.283 50.356,15.687 C50.356,15.765 50.475,16.403 50.713,17.598 C51.143,19.743 51.357,21.4 51.357,22.568 C51.357,23.851 51.16,25.957 50.766,28.883 C50.59,30.14 50.414,30.769 50.238,30.769 C50.053,30.769 49.961,30.448 49.961,29.806 C49.961,27.31 49.529,24.589 48.668,21.646 C48.59,21.4 48.551,21.189 48.551,21.013 C48.551,20.863 48.58,20.662 48.643,20.406 L49.195,18.06 C49.399,17.093 49.5,16.297 49.5,15.673 C49.5,15.339 49.283,15.146 48.854,15.093 C48.889,15.102 48.555,15.107 47.852,15.107 C47.5,15.107 47.324,14.926 47.324,14.566 L47.324,11.191 C47.43,11.235 47.504,11.257 47.549,11.257 C47.732,11.257 47.834,10.984 47.852,10.439 L47.824,9.384 C47.5,9.253 47.338,9.025 47.338,8.699 C47.338,8.242 47.561,8.013 48.01,8.013 C48.467,8.013 48.695,8.242 48.695,8.699 C48.695,8.998 48.559,9.201 48.287,9.306 L48.287,9.794 C48.287,9.952 48.291,10.115 48.299,10.281 C48.334,10.783 48.453,11.033 48.656,11.033 C48.822,11.033 48.932,10.919 48.984,10.69 L49.645,8.001 C49.451,7.798 49.354,7.584 49.354,7.355 C49.354,6.906 49.578,6.682 50.027,6.682 C50.475,6.682 50.699,6.911 50.699,7.368 C50.699,7.746 50.496,7.978 50.092,8.066 L49.803,10.716 C49.758,10.98 49.881,11.112 50.172,11.112 C50.356,11.112 50.555,10.836 50.766,10.281 L51.121,9.173 C50.981,8.955 50.91,8.752 50.91,8.568 C50.91,8.146 51.129,7.935 51.568,7.935 C52.025,7.935 52.254,8.164 52.254,8.621 Z M40.455,12.246 C40.455,12.29 40.453,12.332 40.449,12.371 C40.443,12.411 40.438,12.453 40.43,12.496 C40.086,13.726 39.815,14.709 39.611,15.443 C39.41,16.177 39.277,16.679 39.217,16.953 C38.83,18.648 38.637,20.169 38.637,21.513 C38.637,21.857 38.607,22.156 38.551,22.41 C38.492,22.666 38.4,22.887 38.274,23.076 C38.147,23.265 37.975,23.427 37.76,23.564 C37.543,23.701 37.277,23.821 36.961,23.926 L31.635,25.707 C31.293,25.83 30.805,26.124 30.172,26.589 L29.975,26.51 C30.098,26.168 30.291,24.673 30.555,22.028 C30.643,22.054 30.797,22.068 31.016,22.068 C32.088,22.068 33.287,21.794 34.615,21.25 C33.867,19.984 33.441,19.105 33.336,18.613 C33.283,18.349 33.258,17.4 33.258,15.765 C33.258,15.414 32.977,15.208 32.414,15.146 C32.457,15.155 32.057,15.16 31.213,15.16 C30.854,15.16 30.524,15.212 30.225,15.318 C30.059,14.675 29.975,13.801 29.975,12.694 C29.975,12.325 29.988,11.991 30.014,11.692 C30.041,11.393 30.076,11.125 30.119,10.888 C30.199,10.923 30.287,10.941 30.383,10.941 C30.488,10.941 30.563,10.836 30.607,10.625 C30.633,10.502 30.639,10.291 30.621,9.992 C30.611,9.789 30.606,9.646 30.6,9.563 C30.596,9.48 30.594,9.451 30.594,9.477 C30.277,9.345 30.119,9.121 30.119,8.804 C30.119,8.347 30.34,8.119 30.779,8.119 C31.236,8.119 31.465,8.347 31.465,8.804 C31.465,9.095 31.35,9.289 31.121,9.384 L31.121,10.242 C31.156,10.664 31.279,10.875 31.49,10.875 C31.658,10.875 31.856,10.426 32.084,9.53 L32.44,7.855 C32.246,7.636 32.15,7.416 32.15,7.197 C32.15,6.757 32.373,6.537 32.822,6.537 C33.27,6.537 33.494,6.761 33.494,7.21 C33.494,7.596 33.293,7.83 32.889,7.908 L32.598,10.558 C32.572,10.813 32.668,10.941 32.889,10.941 C33.037,10.941 33.205,10.734 33.389,10.321 L33.705,9.49 C33.565,9.271 33.494,9.068 33.494,8.884 C33.494,8.462 33.715,8.252 34.154,8.252 C34.602,8.252 34.826,8.475 34.826,8.923 C34.826,9.389 34.58,9.623 34.088,9.623 C33.965,10.238 33.902,10.58 33.902,10.65 C33.902,10.765 33.926,10.888 33.969,11.019 C34.197,11.142 34.313,11.296 34.313,11.481 C34.313,11.877 34.26,12.474 34.154,13.274 C34.049,14.083 33.996,14.68 33.996,15.067 C33.996,15.533 34.225,16.157 34.682,16.939 C35.139,17.721 35.367,18.429 35.367,19.062 C35.367,19.484 35.283,20.191 35.115,21.184 C35.899,20.903 36.447,20.328 36.764,19.457 C36.852,19.062 36.94,18.672 37.027,18.291 C37.115,17.908 37.207,17.519 37.305,17.124 C37.516,16.253 37.889,15.695 38.426,15.449 C38.443,15.441 38.463,15.427 38.484,15.41 C38.506,15.392 38.531,15.375 38.557,15.357 C38.381,15.269 38.131,15.225 37.805,15.225 C37.752,15.225 37.684,15.228 37.602,15.232 C37.518,15.236 37.434,15.238 37.35,15.238 C37.268,15.238 37.186,15.241 37.107,15.245 C37.027,15.25 36.967,15.252 36.922,15.252 C36.088,15.252 35.67,14.794 35.67,13.88 C35.67,12.167 35.895,10.681 36.342,9.424 L36.539,9.49 C36.514,9.623 36.5,9.763 36.5,9.912 C36.5,10.712 36.774,11.134 37.318,11.177 C37.572,11.195 37.887,11.212 38.26,11.23 C38.633,11.248 39.076,11.275 39.586,11.31 C40.166,11.353 40.455,11.666 40.455,12.246 Z M27.549,7.315 C27.549,7.473 27.518,7.621 27.457,7.756 C27.395,7.893 27.313,8.011 27.213,8.113 C27.111,8.214 26.992,8.294 26.856,8.357 C26.721,8.418 26.572,8.449 26.414,8.449 C26.266,8.449 26.123,8.418 25.986,8.357 C25.85,8.294 25.729,8.214 25.623,8.113 C25.518,8.011 25.436,7.893 25.373,7.756 C25.313,7.621 25.281,7.473 25.281,7.315 C25.281,7.174 25.313,7.037 25.373,6.9 C25.436,6.763 25.518,6.645 25.623,6.544 C25.729,6.443 25.85,6.361 25.986,6.3 C26.123,6.238 26.266,6.208 26.414,6.208 C26.758,6.208 27.031,6.311 27.238,6.517 C27.445,6.724 27.549,6.99 27.549,7.315 Z M28.418,13.485 C28.418,18.89 28.242,22.309 27.891,23.742 C27.785,24.155 27.641,24.361 27.457,24.361 C27.264,24.361 27.117,24.208 27.022,23.9 C27.012,23.882 26.996,23.72 26.975,23.412 C26.953,23.105 26.92,22.648 26.877,22.041 C26.832,21.337 26.781,20.569 26.725,19.734 C26.668,18.899 26.607,17.99 26.547,17.005 C26.512,16.425 26.445,16.034 26.35,15.832 C26.191,15.506 25.861,15.343 25.359,15.343 C24.701,15.343 24.375,15.348 24.385,15.357 C24.059,15.295 23.897,15.062 23.897,14.658 C23.897,12.988 24.055,11.205 24.371,9.306 L24.649,9.306 C24.649,10.08 24.74,10.576 24.926,10.795 C25.145,11.068 25.647,11.205 26.428,11.205 C27.756,11.205 28.418,11.964 28.418,13.485 Z M22.342,14.658 C22.342,15.783 22.332,16.742 22.315,17.533 C22.297,18.324 22.272,18.961 22.236,19.444 C22.086,21.536 21.766,23.083 21.274,24.085 C21.15,24.348 21.063,24.48 21.01,24.48 C20.912,24.48 20.848,24.318 20.813,23.992 C20.768,23.605 20.732,23.14 20.707,22.595 C20.68,22.05 20.658,21.421 20.641,20.71 C20.623,19.883 20.606,19.196 20.588,18.646 C20.57,18.097 20.553,17.673 20.535,17.375 C20.465,16.574 20.377,16.078 20.272,15.884 C20.068,15.524 19.635,15.343 18.967,15.343 L15.076,15.343 C14.857,15.343 14.566,15.388 14.207,15.476 C13.82,15.554 13.561,15.594 13.43,15.594 C13.385,15.594 13.363,15.572 13.363,15.529 C13.363,15.484 13.373,15.394 13.397,15.258 C13.418,15.123 13.451,14.939 13.494,14.711 C13.547,14.457 13.588,14.25 13.613,14.091 C13.641,13.933 13.658,13.824 13.666,13.761 L14.168,9.306 L14.443,9.306 C14.443,10.615 15.164,11.27 16.606,11.27 C16.738,11.27 16.91,11.263 17.121,11.251 C17.332,11.237 17.582,11.222 17.871,11.205 C18.162,11.187 18.414,11.171 18.631,11.158 C18.846,11.145 19.027,11.138 19.178,11.138 C20.162,11.138 20.9,11.349 21.393,11.771 C22.025,12.316 22.342,13.279 22.342,14.658 Z M24.516,27.13 C24.516,27.289 24.486,27.435 24.424,27.572 C24.363,27.708 24.281,27.826 24.18,27.927 C24.078,28.029 23.961,28.11 23.824,28.171 C23.688,28.233 23.541,28.263 23.383,28.263 C23.225,28.263 23.076,28.233 22.941,28.171 C22.805,28.11 22.686,28.029 22.586,27.927 C22.484,27.826 22.402,27.708 22.342,27.572 C22.279,27.435 22.248,27.289 22.248,27.13 C22.248,26.822 22.361,26.56 22.586,26.345 C22.809,26.13 23.074,26.023 23.383,26.023 C23.707,26.023 23.979,26.13 24.193,26.345 C24.408,26.56 24.516,26.822 24.516,27.13 Z M21.035,27.13 C21.035,27.289 21.006,27.435 20.943,27.572 C20.883,27.708 20.801,27.826 20.699,27.927 C20.6,28.029 20.481,28.11 20.344,28.171 C20.207,28.233 20.061,28.263 19.902,28.263 C19.752,28.263 19.609,28.233 19.475,28.171 C19.338,28.11 19.217,28.029 19.111,27.927 C19.006,27.826 18.922,27.708 18.861,27.572 C18.799,27.435 18.768,27.289 18.768,27.13 C18.768,26.972 18.799,26.827 18.861,26.695 C18.922,26.563 19.006,26.447 19.111,26.345 C19.217,26.244 19.338,26.166 19.475,26.108 C19.609,26.05 19.752,26.023 19.902,26.023 C20.658,26.023 21.035,26.392 21.035,27.13 Z M7.615,23.926 C7.615,24.076 7.584,24.218 7.524,24.355 C7.461,24.491 7.379,24.612 7.279,24.717 C7.178,24.823 7.059,24.906 6.924,24.968 C6.787,25.029 6.639,25.06 6.481,25.06 C6.322,25.06 6.174,25.029 6.033,24.968 C5.893,24.906 5.77,24.823 5.664,24.717 C5.559,24.612 5.475,24.491 5.414,24.355 C5.352,24.218 5.32,24.076 5.32,23.926 C5.32,23.768 5.354,23.623 5.42,23.492 C5.486,23.359 5.572,23.244 5.678,23.142 C5.783,23.041 5.906,22.962 6.047,22.905 C6.188,22.847 6.332,22.819 6.481,22.819 C6.807,22.819 7.076,22.927 7.293,23.142 C7.508,23.357 7.615,23.619 7.615,23.926 Z M7.615,20.38 C7.615,20.539 7.584,20.685 7.524,20.822 C7.461,20.959 7.379,21.077 7.279,21.177 C7.178,21.279 7.059,21.36 6.924,21.421 C6.787,21.483 6.639,21.513 6.481,21.513 C6.322,21.513 6.174,21.483 6.033,21.421 C5.893,21.36 5.77,21.279 5.664,21.177 C5.559,21.077 5.475,20.959 5.414,20.822 C5.352,20.685 5.32,20.539 5.32,20.38 C5.32,20.222 5.354,20.077 5.42,19.945 C5.486,19.813 5.572,19.697 5.678,19.595 C5.783,19.495 5.906,19.416 6.047,19.358 C6.188,19.301 6.332,19.273 6.481,19.273 C6.807,19.273 7.076,19.38 7.293,19.595 C7.508,19.811 7.615,20.072 7.615,20.38 Z M11.979,14.658 C11.979,23.605 11.627,28.848 10.924,30.386 C10.801,30.65 10.713,30.782 10.66,30.782 C10.555,30.782 10.484,30.606 10.449,30.254 L10.397,27.275 C10.397,26.15 10.377,24.77 10.338,23.135 C10.299,21.501 10.242,19.58 10.172,17.375 C10.119,16.601 10.031,16.104 9.908,15.884 C9.707,15.524 9.275,15.343 8.617,15.343 L4.649,15.343 C4.447,15.343 4.174,15.388 3.832,15.476 C3.471,15.554 3.217,15.594 3.066,15.594 C3.024,15.594 3,15.572 3,15.529 C3,15.494 3.012,15.408 3.033,15.271 C3.055,15.135 3.088,14.949 3.133,14.711 C3.186,14.457 3.225,14.25 3.252,14.091 C3.277,13.933 3.295,13.824 3.305,13.761 L3.805,9.306 L4.096,9.306 C4.096,10.615 4.811,11.27 6.244,11.27 C6.375,11.27 6.547,11.263 6.758,11.251 C6.969,11.237 7.215,11.222 7.496,11.205 C7.787,11.187 8.041,11.171 8.262,11.158 C8.481,11.145 8.666,11.138 8.815,11.138 C9.799,11.138 10.537,11.349 11.029,11.771 C11.662,12.316 11.979,13.279 11.979,14.658 Z" id="Fill-22" fill="#FBF9ED"></path>
    </g>
</svg>