<?xml version="1.0" encoding="UTF-8" standalone="no"?>
<svg width="40px" height="40px" viewBox="0 0 40 40" version="1.1" xmlns="http://www.w3.org/2000/svg" xmlns:xlink="http://www.w3.org/1999/xlink">
    <!-- Generator: Sketch 49.3 (51167) - http://www.bohemiancoding.com/sketch -->
    <title>btn/tools/zoomin/normal</title>
    <desc>Created with Sketch.</desc>
    <defs>
        <path d="M9.18181818,7.48484848 L10.8787879,7.48484848 C11.3473931,7.48484848 11.7272727,7.86472809 11.7272727,8.33333333 C11.7272727,8.80193858 11.3473931,9.18181818 10.8787879,9.18181818 L9.18181818,9.18181818 L9.18181818,10.8787879 C9.18181818,11.3473931 8.80193858,11.7272727 8.33333333,11.7272727 C7.86472809,11.7272727 7.48484848,11.3473931 7.48484848,10.8787879 L7.48484848,9.18181818 L5.78787879,9.18181818 C5.31927355,9.18181818 4.93939394,8.80193858 4.93939394,8.33333333 C4.93939394,7.86472809 5.31927355,7.48484848 5.78787879,7.48484848 L7.48484848,7.48484848 L7.48484848,5.78787879 C7.48484848,5.31927355 7.86472809,4.93939394 8.33333333,4.93939394 C8.80193858,4.93939394 9.18181818,5.31927355 9.18181818,5.78787879 L9.18181818,7.48484848 Z M14.3891305,12.9859878 L18.1883635,16.4780971 C18.6240809,16.8785919 18.6240809,17.5279221 18.1883635,17.9284168 C17.7526461,18.3289116 17.0462086,18.3289116 16.6104912,17.9284168 L12.8617595,14.4827263 C11.5947484,15.4173157 10.0285486,15.969697 8.33333333,15.969697 C4.11588615,15.969697 0.696969697,12.5507805 0.696969697,8.33333333 C0.696969697,4.11588615 4.11588615,0.696969697 8.33333333,0.696969697 C12.5507805,0.696969697 15.969697,4.11588615 15.969697,8.33333333 C15.969697,10.08439 15.3803248,11.6977915 14.3891305,12.9859878 Z M12.0317363,11.8318038 C12.8949019,10.9196246 13.4242424,9.688296 13.4242424,8.33333333 C13.4242424,5.52170188 11.1449648,3.24242424 8.33333333,3.24242424 C5.52170188,3.24242424 3.24242424,5.52170188 3.24242424,8.33333333 C3.24242424,11.1449648 5.52170188,13.4242424 8.33333333,13.4242424 C9.55336451,13.4242424 10.6731593,12.9950794 11.5499889,12.2794821 C11.6020432,12.184856 11.6710772,12.0960983 11.7570911,12.0170377 C11.8400679,11.9407686 11.9328628,11.8790239 12.0317363,11.8318038 Z" id="path-1"></path>
    </defs>
    <g id="btn/tools/zoomin/normal" stroke="none" stroke-width="1" fill="none" fill-rule="evenodd">
        <rect id="Rectangle" fill-opacity="0.8" fill="#384C62" x="0" y="0" width="40" height="40" rx="3"></rect>
        <g id="zoom-in" transform="translate(11.181818, 11.181818)">
            <mask id="mask-2" fill="white">
                <use xlink:href="#path-1"></use>
            </mask>
            <use id="Combined-Shape" fill="#FBF9ED" fill-rule="nonzero" xlink:href="#path-1"></use>
            <g id="COLOR/-black" mask="url(#mask-2)" fill="#FAF7E1">
                <g transform="translate(-1.000000, -1.000000)" id="Rectangle">
                    <rect x="0" y="0" width="20.3636364" height="20.3636364"></rect>
                </g>
            </g>
        </g>
    </g>
</svg>