<?xml version="1.0" encoding="UTF-8" standalone="no"?>
<svg width="94px" height="34px" viewBox="0 0 94 34" version="1.1" xmlns="http://www.w3.org/2000/svg" xmlns:xlink="http://www.w3.org/1999/xlink">
    <!-- Generator: Sketch 49.1 (51147) - http://www.bohemiancoding.com/sketch -->
    <title>img/indexclose/chp11-hover</title>
    <desc>Created with Sketch.</desc>
    <defs></defs>
    <g id="img/indexclose/chp11-hover" stroke="none" stroke-width="1" fill="none" fill-rule="evenodd">
        <path d="M91.48,8.215 C91.296,9.393 91.204,11.41 91.204,14.268 C91.204,14.619 91.023,14.795 90.664,14.795 L90.314,14.795 C90.177,14.795 90.013,14.789 89.82,14.781 C89.634,14.772 89.474,14.768 89.338,14.768 L88.989,14.768 C88.725,14.768 88.554,14.869 88.474,15.07 C88.449,15.186 88.421,15.299 88.396,15.414 C88.369,15.527 88.347,15.643 88.33,15.756 L89.173,15.889 C90.017,16.002 90.584,16.42 90.875,17.141 C91.068,17.608 91.164,18.363 91.164,19.408 C91.164,20.674 91.037,21.57 90.782,22.098 C90.395,22.863 89.648,23.244 88.541,23.244 L83.306,23.244 C82.445,23.244 81.896,23.285 81.659,23.363 C81.764,22.565 81.817,22.221 81.817,22.336 L81.817,20.279 C81.817,20.121 81.808,19.961 81.791,19.797 C81.773,19.635 81.747,19.465 81.711,19.289 C82.828,19.475 83.5,19.567 83.728,19.567 L84.876,19.567 C85.333,19.567 85.869,19.563 86.484,19.553 C87.099,19.545 87.635,19.541 88.092,19.541 L89.24,19.541 C89.468,19.541 89.582,19.387 89.582,19.078 C89.582,18.709 89.384,18.504 88.989,18.459 L86.392,18.209 C85.609,18.147 85.091,17.76 84.835,17.049 C84.687,16.627 84.612,15.914 84.612,14.912 C84.612,14.764 84.568,14.69 84.48,14.69 L84.466,14.701 C84.185,14.701 83.763,14.715 83.201,14.742 C82.919,14.75 82.673,14.758 82.462,14.762 C82.251,14.766 82.076,14.768 81.935,14.768 C81.646,14.768 81.501,14.602 81.501,14.268 L81.474,11.051 C81.465,10.918 81.536,10.795 81.685,10.682 C81.834,10.559 81.91,10.401 81.91,10.207 L81.91,8.875 C81.593,8.742 81.435,8.51 81.435,8.176 C81.435,7.719 81.654,7.49 82.093,7.49 C82.55,7.49 82.779,7.719 82.779,8.176 C82.779,8.492 82.643,8.703 82.371,8.809 C82.388,8.985 82.402,9.158 82.41,9.33 C82.419,9.5 82.427,9.674 82.437,9.85 C82.498,10.404 82.617,10.682 82.792,10.682 C82.977,10.682 83.162,10.233 83.346,9.336 L83.504,8.492 C83.557,8.211 83.605,7.93 83.65,7.649 C83.457,7.447 83.359,7.236 83.359,7.016 C83.359,6.559 83.584,6.33 84.032,6.33 C84.48,6.33 84.705,6.555 84.705,7.002 C84.705,7.399 84.498,7.635 84.084,7.715 C83.9,9.498 83.808,10.418 83.808,10.471 C83.808,10.725 83.935,10.852 84.19,10.852 C84.401,10.852 84.589,10.559 84.757,9.969 L85.021,8.809 C84.888,8.59 84.823,8.397 84.823,8.229 C84.823,7.807 85.046,7.596 85.496,7.596 C85.943,7.596 86.168,7.817 86.168,8.256 C86.168,8.713 85.921,8.949 85.429,8.967 C85.359,9.451 85.306,9.82 85.271,10.074 C85.236,10.33 85.218,10.475 85.218,10.51 C85.218,10.676 85.267,10.76 85.363,10.76 C85.451,10.76 85.566,10.69 85.707,10.549 L85.707,13.608 C85.707,14.373 85.777,14.865 85.918,15.084 C86.084,15.33 86.515,15.516 87.209,15.639 C87.253,15.217 87.289,14.82 87.314,14.451 C87.341,14.082 87.354,13.735 87.354,13.41 C87.354,12.557 87.261,11.604 87.078,10.549 C87.226,10.611 87.811,10.641 88.831,10.641 L89.451,10.641 C89.855,10.641 90.228,10.295 90.571,9.6 C90.571,9.582 90.769,9.059 91.164,8.031 L91.48,8.215 Z M89.793,25.592 C90.021,25.592 90.136,25.723 90.136,25.986 L90.136,26.858 C90.136,27.129 90.021,27.266 89.793,27.266 L87.71,27.266 C87.71,27.688 87.789,28.074 87.947,28.426 L88.251,29.098 C88.321,29.256 88.356,29.41 88.356,29.561 C88.356,29.867 88.248,30.125 88.033,30.33 C87.818,30.537 87.565,30.641 87.275,30.641 C87.126,30.641 86.985,30.611 86.853,30.555 C86.721,30.498 86.605,30.418 86.503,30.319 C86.403,30.217 86.324,30.102 86.266,29.975 C86.209,29.848 86.181,29.709 86.181,29.561 C86.181,29.41 86.216,29.256 86.287,29.098 L86.576,28.426 C86.761,28.031 86.853,27.645 86.853,27.266 L84.744,27.266 C84.506,27.266 84.388,27.129 84.388,26.858 L84.388,25.986 C84.388,25.723 84.506,25.592 84.744,25.592 L89.793,25.592 Z M80.117,21.426 C80.117,22.639 79.843,23.496 79.298,23.996 C78.781,24.463 77.915,24.695 76.702,24.695 L71.613,24.695 C71.138,24.695 70.712,24.809 70.334,25.037 L70.281,24.973 C70.421,24.682 70.492,24.299 70.492,23.824 L70.492,21.848 C70.492,21.338 70.421,20.959 70.281,20.713 L70.334,20.621 C70.449,20.762 70.73,20.832 71.177,20.832 L77.229,20.832 C78.02,20.832 78.416,20.367 78.416,19.436 C78.416,19.26 78.412,19.041 78.402,18.781 C78.394,18.524 78.38,18.217 78.363,17.865 C78.345,17.514 78.332,17.207 78.324,16.944 C78.314,16.68 78.31,16.459 78.31,16.283 C78.31,15.977 78.321,15.674 78.343,15.375 C78.365,15.076 78.398,14.785 78.442,14.504 L71.797,14.504 L71.797,15.414 C71.797,15.889 71.956,16.125 72.272,16.125 L73.669,16.125 C74.091,16.125 74.464,16.043 74.791,15.875 L74.856,15.942 C74.733,16.195 74.668,16.561 74.658,17.035 L74.658,18.182 C74.623,18.93 74.359,19.303 73.867,19.303 C73.947,19.303 73.599,19.289 72.826,19.264 C72.562,19.254 72.325,19.252 72.114,19.256 C71.903,19.262 71.714,19.272 71.546,19.289 C71.089,19.342 70.791,19.453 70.65,19.619 L70.584,19.553 C70.672,19.176 70.736,18.725 70.775,18.201 C70.816,17.68 70.835,17.08 70.835,16.403 L70.835,12.078 C70.835,11.42 70.82,10.744 70.789,10.055 C70.757,9.365 70.712,8.647 70.65,7.899 L70.835,7.873 C71.046,8.067 71.244,8.602 71.428,9.481 C71.586,10.194 71.845,10.549 72.207,10.549 L77.545,10.549 C78.424,10.549 79.14,10.418 79.695,10.154 L79.853,10.207 C79.544,11.358 79.391,12.51 79.391,13.66 C79.391,14.531 79.509,15.826 79.748,17.549 C79.871,18.42 79.962,19.176 80.024,19.817 C80.085,20.459 80.117,20.994 80.117,21.426 Z M66.366,18.539 C66.366,18.697 66.335,18.844 66.273,18.981 C66.212,19.117 66.13,19.235 66.029,19.336 C65.928,19.438 65.81,19.518 65.673,19.58 C65.537,19.641 65.39,19.672 65.232,19.672 C65.074,19.672 64.926,19.641 64.791,19.58 C64.654,19.518 64.535,19.438 64.435,19.336 C64.334,19.235 64.251,19.117 64.191,18.981 C64.128,18.844 64.098,18.697 64.098,18.539 C64.098,18.258 64.216,18.002 64.455,17.774 C64.701,17.545 64.959,17.432 65.232,17.432 C65.557,17.432 65.828,17.535 66.043,17.74 C66.257,17.947 66.366,18.213 66.366,18.539 Z M68.593,12.803 C68.593,18.209 68.418,21.627 68.066,23.061 C67.96,23.473 67.816,23.68 67.631,23.68 C67.438,23.68 67.293,23.526 67.197,23.219 C67.187,23.201 67.171,23.039 67.15,22.731 C67.128,22.424 67.095,21.967 67.051,21.36 C67.007,20.656 66.957,19.887 66.9,19.053 C66.842,18.217 66.783,17.309 66.722,16.324 C66.687,15.744 66.621,15.352 66.524,15.151 C66.366,14.824 66.037,14.662 65.535,14.662 C64.876,14.662 64.55,14.666 64.56,14.676 C64.234,14.613 64.072,14.381 64.072,13.977 C64.072,12.307 64.23,10.524 64.546,8.625 L64.824,8.625 C64.824,9.399 64.916,9.895 65.1,10.113 C65.32,10.387 65.821,10.524 66.603,10.524 C67.93,10.524 68.593,11.283 68.593,12.803 Z M62.582,7.94 C62.582,8.397 62.332,8.625 61.831,8.625 C61.734,9.143 61.662,9.539 61.613,9.811 C61.564,10.084 61.541,10.242 61.541,10.285 C61.541,10.426 61.593,10.496 61.699,10.496 C61.795,10.496 61.959,10.436 62.187,10.313 L62.187,13.924 C62.187,14.328 62.125,14.531 62.001,14.531 C61.949,14.531 61.857,14.508 61.725,14.465 C61.593,14.42 61.492,14.399 61.421,14.399 C60.929,14.399 60.683,14.602 60.683,15.006 C60.683,15.084 60.802,15.721 61.04,16.916 C61.47,19.061 61.685,20.719 61.685,21.887 C61.685,23.17 61.488,25.276 61.092,28.201 C60.917,29.459 60.741,30.088 60.565,30.088 C60.38,30.088 60.289,29.766 60.289,29.125 C60.289,26.629 59.857,23.908 58.996,20.965 C58.917,20.719 58.877,20.508 58.877,20.332 C58.877,20.182 58.908,19.981 58.97,19.725 L59.523,17.379 C59.726,16.412 59.827,15.615 59.827,14.992 C59.827,14.658 59.611,14.465 59.181,14.412 C59.216,14.42 58.882,14.426 58.179,14.426 C57.828,14.426 57.652,14.244 57.652,13.885 L57.652,10.51 C57.757,10.553 57.832,10.576 57.876,10.576 C58.06,10.576 58.162,10.303 58.179,9.758 L58.152,8.703 C57.828,8.572 57.665,8.344 57.665,8.018 C57.665,7.561 57.888,7.332 58.337,7.332 C58.794,7.332 59.023,7.561 59.023,8.018 C59.023,8.317 58.886,8.52 58.614,8.625 L58.614,9.111 C58.614,9.27 58.619,9.434 58.626,9.6 C58.662,10.102 58.781,10.352 58.983,10.352 C59.15,10.352 59.259,10.236 59.312,10.008 L59.972,7.319 C59.779,7.117 59.681,6.903 59.681,6.674 C59.681,6.225 59.906,6 60.354,6 C60.802,6 61.027,6.229 61.027,6.686 C61.027,7.065 60.824,7.297 60.419,7.385 L60.13,10.035 C60.085,10.299 60.209,10.43 60.5,10.43 C60.683,10.43 60.881,10.154 61.092,9.6 L61.449,8.492 C61.308,8.274 61.238,8.07 61.238,7.887 C61.238,7.465 61.457,7.254 61.896,7.254 C62.353,7.254 62.582,7.483 62.582,7.94 Z M45.035,16.957 C45.035,17.115 45.003,17.262 44.943,17.399 C44.88,17.535 44.799,17.653 44.699,17.754 C44.597,17.856 44.478,17.936 44.343,17.998 C44.207,18.059 44.059,18.09 43.901,18.09 C43.743,18.09 43.595,18.059 43.459,17.998 C43.323,17.936 43.205,17.856 43.103,17.754 C43.001,17.653 42.921,17.535 42.859,17.399 C42.798,17.262 42.767,17.115 42.767,16.957 C42.767,16.676 42.886,16.42 43.123,16.192 C43.369,15.963 43.628,15.85 43.901,15.85 C44.226,15.85 44.496,15.953 44.712,16.158 C44.927,16.365 45.035,16.631 45.035,16.957 Z M51.284,18.315 C51.134,18.719 51.06,19.365 51.06,20.252 L51.06,21.926 C51.06,22.533 51.103,22.981 51.191,23.272 L51.126,23.338 C50.888,23.276 50.576,23.244 50.189,23.244 L42.992,23.244 C42.191,23.244 41.568,23.328 41.119,23.496 L41.053,23.469 C41.176,23.1 41.238,22.559 41.238,21.848 L41.238,20.121 C41.238,19.664 41.185,19.281 41.08,18.973 L41.146,18.908 C41.621,19.092 42.205,19.184 42.899,19.184 L47.909,19.184 L47.791,15.164 C47.791,15.059 47.783,14.975 47.771,14.912 C47.757,14.852 47.733,14.805 47.698,14.774 C47.663,14.744 47.61,14.725 47.54,14.715 C47.469,14.707 47.376,14.701 47.263,14.701 L41.621,14.701 C41.259,14.701 41.08,14.526 41.08,14.174 L41.08,8.651 L41.396,8.651 C41.396,9.916 41.976,10.549 43.136,10.549 L43.136,9.244 C42.873,9.059 42.741,8.84 42.741,8.584 C42.741,8.154 42.969,7.94 43.426,7.94 C43.883,7.94 44.112,8.154 44.112,8.584 C44.112,8.901 43.954,9.129 43.637,9.27 L43.637,10.549 L47.632,10.549 C48.441,10.549 49.042,10.465 49.438,10.299 L49.438,18.881 C49.438,19.172 49.552,19.317 49.781,19.317 C49.992,19.317 50.259,19.18 50.585,18.908 C50.726,18.793 50.849,18.68 50.955,18.565 C51.06,18.451 51.148,18.336 51.218,18.223 L51.284,18.315 Z M39.339,13.977 C39.339,15.102 39.331,16.061 39.313,16.852 C39.295,17.643 39.269,18.279 39.234,18.762 C39.084,20.854 38.763,22.401 38.271,23.403 C38.148,23.666 38.06,23.799 38.007,23.799 C37.912,23.799 37.845,23.637 37.81,23.311 C37.766,22.924 37.731,22.459 37.705,21.914 C37.678,21.369 37.656,20.74 37.638,20.028 C37.621,19.201 37.603,18.514 37.585,17.965 C37.568,17.416 37.55,16.992 37.533,16.694 C37.462,15.893 37.375,15.397 37.269,15.203 C37.068,14.842 36.632,14.662 35.964,14.662 L32.076,14.662 C31.855,14.662 31.566,14.707 31.205,14.795 C30.818,14.873 30.559,14.912 30.427,14.912 C30.383,14.912 30.361,14.891 30.361,14.848 C30.361,14.803 30.373,14.713 30.394,14.576 C30.416,14.442 30.449,14.258 30.494,14.029 C30.546,13.776 30.585,13.569 30.612,13.41 C30.638,13.252 30.656,13.143 30.665,13.08 L31.166,8.625 L31.443,8.625 C31.443,9.934 32.164,10.588 33.605,10.588 C33.736,10.588 33.908,10.582 34.119,10.569 C34.33,10.555 34.58,10.541 34.871,10.524 C35.16,10.506 35.413,10.49 35.628,10.477 C35.843,10.463 36.026,10.457 36.175,10.457 C37.16,10.457 37.898,10.668 38.39,11.09 C39.023,11.635 39.339,12.598 39.339,13.977 Z M41.515,26.449 C41.515,26.608 41.484,26.754 41.422,26.891 C41.361,27.026 41.279,27.145 41.178,27.246 C41.078,27.348 40.959,27.428 40.823,27.49 C40.686,27.551 40.539,27.582 40.38,27.582 C40.222,27.582 40.076,27.551 39.939,27.49 C39.802,27.428 39.684,27.348 39.584,27.246 C39.482,27.145 39.401,27.026 39.339,26.891 C39.278,26.754 39.248,26.608 39.248,26.449 C39.248,26.141 39.359,25.879 39.584,25.664 C39.807,25.449 40.074,25.342 40.38,25.342 C40.707,25.342 40.976,25.449 41.192,25.664 C41.407,25.879 41.515,26.141 41.515,26.449 Z M38.035,26.449 C38.035,26.608 38.003,26.754 37.942,26.891 C37.88,27.026 37.799,27.145 37.698,27.246 C37.597,27.348 37.478,27.428 37.342,27.49 C37.207,27.551 37.058,27.582 36.9,27.582 C36.751,27.582 36.609,27.551 36.472,27.49 C36.335,27.428 36.214,27.348 36.109,27.246 C36.003,27.145 35.92,27.026 35.859,26.891 C35.797,26.754 35.767,26.608 35.767,26.449 C35.767,26.291 35.797,26.145 35.859,26.014 C35.92,25.881 36.003,25.766 36.109,25.664 C36.214,25.563 36.335,25.485 36.472,25.426 C36.609,25.369 36.751,25.342 36.9,25.342 C37.656,25.342 38.035,25.711 38.035,26.449 Z M24.613,23.244 C24.613,23.395 24.583,23.537 24.521,23.674 C24.459,23.809 24.378,23.93 24.277,24.035 C24.175,24.141 24.057,24.225 23.921,24.287 C23.785,24.348 23.638,24.379 23.48,24.379 C23.322,24.379 23.171,24.348 23.031,24.287 C22.89,24.225 22.767,24.141 22.662,24.035 C22.556,23.93 22.473,23.809 22.412,23.674 C22.35,23.537 22.32,23.395 22.32,23.244 C22.32,23.086 22.352,22.942 22.418,22.811 C22.484,22.678 22.57,22.563 22.675,22.461 C22.781,22.36 22.904,22.281 23.044,22.223 C23.185,22.166 23.33,22.137 23.48,22.137 C23.804,22.137 24.075,22.246 24.291,22.461 C24.505,22.676 24.613,22.938 24.613,23.244 Z M24.613,19.699 C24.613,19.858 24.583,20.004 24.521,20.141 C24.459,20.278 24.378,20.395 24.277,20.496 C24.175,20.598 24.057,20.678 23.921,20.74 C23.785,20.801 23.638,20.832 23.48,20.832 C23.322,20.832 23.171,20.801 23.031,20.74 C22.89,20.678 22.767,20.598 22.662,20.496 C22.556,20.395 22.473,20.278 22.412,20.141 C22.35,20.004 22.32,19.858 22.32,19.699 C22.32,19.541 22.352,19.395 22.418,19.264 C22.484,19.131 22.57,19.016 22.675,18.914 C22.781,18.813 22.904,18.735 23.044,18.676 C23.185,18.619 23.33,18.592 23.48,18.592 C23.804,18.592 24.075,18.699 24.291,18.914 C24.505,19.129 24.613,19.391 24.613,19.699 Z M28.977,13.977 C28.977,22.924 28.626,28.166 27.922,29.705 C27.799,29.969 27.711,30.1 27.659,30.1 C27.553,30.1 27.483,29.924 27.448,29.572 L27.395,26.594 C27.395,25.469 27.376,24.088 27.335,22.453 C27.296,20.819 27.242,18.899 27.171,16.694 C27.119,15.92 27.031,15.422 26.908,15.203 C26.705,14.842 26.275,14.662 25.615,14.662 L21.647,14.662 C21.445,14.662 21.172,14.707 20.83,14.795 C20.469,14.873 20.214,14.912 20.065,14.912 C20.021,14.912 20,14.891 20,14.848 C20,14.813 20.009,14.727 20.032,14.59 C20.054,14.453 20.087,14.268 20.13,14.029 C20.183,13.776 20.223,13.569 20.25,13.41 C20.276,13.252 20.293,13.143 20.302,13.08 L20.803,8.625 L21.093,8.625 C21.093,9.934 21.81,10.588 23.242,10.588 C23.375,10.588 23.545,10.582 23.756,10.569 C23.967,10.555 24.213,10.541 24.495,10.524 C24.785,10.506 25.04,10.49 25.259,10.477 C25.479,10.463 25.664,10.457 25.813,10.457 C26.797,10.457 27.536,10.668 28.028,11.09 C28.661,11.635 28.977,12.598 28.977,13.977 Z" id="Fill-24" fill="#0A9CA3"></path>
    </g>
</svg>