<?xml version="1.0" encoding="UTF-8" standalone="no"?>
<svg width="94px" height="34px" viewBox="0 0 94 34" version="1.1" xmlns="http://www.w3.org/2000/svg" xmlns:xlink="http://www.w3.org/1999/xlink">
    <!-- Generator: Sketch 49.3 (51167) - http://www.bohemiancoding.com/sketch -->
    <title>btn/chp2/hover</title>
    <desc>Created with Sketch.</desc>
    <defs></defs>
    <g id="btn/chp2/hover" stroke="none" stroke-width="1" fill="none" fill-rule="evenodd">
        <path d="M88.652,17.195 C88.652,17.353 88.621,17.501 88.559,17.637 C88.498,17.773 88.416,17.892 88.315,17.992 C88.215,18.094 88.095,18.175 87.96,18.237 C87.823,18.298 87.675,18.329 87.517,18.329 C87.359,18.329 87.213,18.298 87.076,18.237 C86.939,18.175 86.821,18.094 86.72,17.992 C86.619,17.892 86.538,17.773 86.476,17.637 C86.415,17.501 86.384,17.353 86.384,17.195 C86.384,16.914 86.503,16.659 86.74,16.43 C86.986,16.202 87.246,16.088 87.517,16.088 C87.843,16.088 88.113,16.191 88.329,16.398 C88.544,16.604 88.652,16.87 88.652,17.195 Z M90.88,11.46 C90.88,16.865 90.704,20.284 90.352,21.717 C90.247,22.13 90.101,22.337 89.918,22.337 C89.724,22.337 89.579,22.183 89.482,21.875 C89.473,21.858 89.458,21.695 89.436,21.387 C89.414,21.08 89.381,20.623 89.338,20.016 C89.293,19.313 89.242,18.544 89.185,17.709 C89.129,16.874 89.069,15.965 89.007,14.98 C88.972,14.4 88.906,14.009 88.81,13.807 C88.652,13.482 88.322,13.319 87.821,13.319 C87.162,13.319 86.837,13.323 86.845,13.332 C86.52,13.271 86.357,13.038 86.357,12.633 C86.357,10.964 86.515,9.179 86.832,7.281 L87.109,7.281 C87.109,8.054 87.201,8.551 87.386,8.771 C87.605,9.043 88.107,9.179 88.888,9.179 C90.216,9.179 90.88,9.94 90.88,11.46 Z M84.802,12.633 C84.802,13.758 84.793,14.716 84.775,15.508 C84.757,16.299 84.732,16.936 84.697,17.419 C84.547,19.511 84.226,21.058 83.734,22.06 C83.611,22.323 83.523,22.455 83.47,22.455 C83.374,22.455 83.308,22.293 83.273,21.967 C83.228,21.581 83.193,21.115 83.168,20.57 C83.14,20.025 83.119,19.397 83.101,18.685 C83.084,17.859 83.066,17.171 83.048,16.621 C83.031,16.072 83.013,15.648 82.996,15.349 C82.925,14.549 82.838,14.053 82.732,13.86 C82.53,13.499 82.095,13.319 81.427,13.319 L77.538,13.319 C77.318,13.319 77.028,13.363 76.668,13.451 C76.281,13.53 76.021,13.57 75.89,13.57 C75.845,13.57 75.824,13.548 75.824,13.504 C75.824,13.46 75.835,13.37 75.857,13.234 C75.879,13.097 75.912,12.915 75.956,12.686 C76.008,12.431 76.048,12.225 76.074,12.067 C76.101,11.908 76.119,11.799 76.127,11.737 L76.629,7.281 L76.905,7.281 C76.905,8.591 77.626,9.245 79.067,9.245 C79.199,9.245 79.371,9.238 79.582,9.226 C79.793,9.212 80.043,9.197 80.333,9.179 C80.623,9.162 80.875,9.147 81.091,9.133 C81.306,9.12 81.488,9.113 81.638,9.113 C82.623,9.113 83.361,9.324 83.853,9.746 C84.486,10.291 84.802,11.254 84.802,12.633 Z M85.25,28.652 C85.25,28.801 85.219,28.944 85.158,29.08 C85.096,29.216 85.015,29.337 84.914,29.443 C84.812,29.548 84.694,29.632 84.558,29.693 C84.422,29.755 84.275,29.785 84.117,29.785 C83.959,29.785 83.808,29.755 83.668,29.693 C83.527,29.632 83.404,29.548 83.298,29.443 C83.193,29.337 83.11,29.216 83.048,29.08 C82.987,28.944 82.957,28.801 82.957,28.652 C82.957,28.493 82.99,28.348 83.054,28.216 C83.121,28.085 83.207,27.968 83.312,27.867 C83.418,27.766 83.541,27.687 83.681,27.63 C83.822,27.572 83.966,27.544 84.117,27.544 C84.441,27.544 84.712,27.652 84.927,27.867 C85.142,28.082 85.25,28.344 85.25,28.652 Z M85.25,25.105 C85.25,25.263 85.219,25.41 85.158,25.547 C85.096,25.683 85.015,25.801 84.914,25.903 C84.812,26.004 84.694,26.085 84.558,26.147 C84.422,26.208 84.275,26.239 84.117,26.239 C83.959,26.239 83.808,26.208 83.668,26.147 C83.527,26.085 83.404,26.004 83.298,25.903 C83.193,25.801 83.11,25.683 83.048,25.547 C82.987,25.41 82.957,25.263 82.957,25.105 C82.957,24.947 82.99,24.802 83.054,24.67 C83.121,24.538 83.207,24.422 83.312,24.32 C83.418,24.219 83.541,24.14 83.681,24.083 C83.822,24.026 83.966,23.998 84.117,23.998 C84.441,23.998 84.712,24.105 84.927,24.32 C85.142,24.536 85.25,24.798 85.25,25.105 Z M74.308,12.581 C74.308,13.02 74.211,13.2 74.017,13.121 C73.763,13.069 73.618,13.042 73.583,13.042 L72.832,13.069 C72.734,13.069 72.686,13.104 72.686,13.174 C72.792,13.315 72.91,13.517 73.043,13.78 C73.605,14.782 73.929,15.679 74.017,16.47 C74.045,16.672 74.062,16.872 74.07,17.07 C74.08,17.268 74.08,17.454 74.07,17.63 C74.035,19.028 73.416,20.658 72.212,22.521 L72.041,22.416 C72.172,21.774 72.238,21.115 72.238,20.438 C72.238,18.935 71.913,17.639 71.262,16.549 C71.095,16.294 71.011,16.088 71.011,15.929 C71.011,15.771 71.051,15.6 71.131,15.415 C71.227,15.187 71.336,14.895 71.453,14.538 C71.572,14.183 71.707,13.767 71.855,13.293 C71.855,13.143 71.548,13.069 70.933,13.069 L70.102,13.069 C69.882,13.069 69.756,12.937 69.72,12.673 C69.562,11.311 69.294,10.401 68.916,9.944 C68.749,9.751 68.638,9.777 68.586,10.023 C68.349,10.99 68.23,11.926 68.23,12.831 C68.23,13.112 68.081,13.209 67.782,13.121 C67.474,13.025 67.114,12.998 66.701,13.042 C66.358,13.06 66.187,13.231 66.187,13.556 C66.187,13.75 66.275,14.084 66.451,14.558 C66.81,15.508 66.991,16.461 66.991,17.419 C66.991,17.929 66.771,18.716 66.332,19.779 C65.901,20.825 65.4,21.765 64.829,22.6 L64.697,22.442 C64.846,21.827 64.922,21.15 64.922,20.412 C64.922,19.023 64.693,17.845 64.236,16.879 C64.183,16.773 64.156,16.654 64.156,16.523 C64.156,16.4 64.209,16.25 64.314,16.074 C64.384,15.934 64.442,15.828 64.486,15.758 C64.53,15.688 64.556,15.648 64.565,15.639 C65.119,14.391 65.396,13.679 65.396,13.504 C65.396,13.214 65.18,13.069 64.75,13.069 L64.183,13.069 C63.927,13.069 63.739,13.104 63.616,13.174 C63.528,13.253 63.484,13.227 63.484,13.095 L63.484,8.942 C63.73,9.083 64.134,9.153 64.697,9.153 C64.978,9.153 65.168,9.021 65.263,8.757 C65.351,8.494 65.435,8.024 65.514,7.347 C65.189,7.233 65.027,7.008 65.027,6.674 C65.027,6.226 65.251,6.002 65.699,6.002 C66.147,6.002 66.371,6.226 66.371,6.674 C66.371,7 66.226,7.215 65.936,7.32 L66.054,8.705 C66.064,9.004 66.27,9.153 66.674,9.153 C66.815,9.206 67.175,9.206 67.756,9.153 C68.028,8.151 68.349,7.404 68.718,6.912 C68.965,6.587 69.135,6.424 69.232,6.424 C69.329,6.424 69.447,6.481 69.588,6.595 C70.379,7.263 70.99,8.125 71.421,9.179 C72.994,9.241 73.964,9.171 74.334,8.968 L74.308,12.581 Z M67.32,25.923 C67.084,25.923 66.965,25.786 66.965,25.514 L66.965,24.644 C66.965,24.38 67.084,24.248 67.32,24.248 L72.37,24.248 C72.598,24.248 72.713,24.38 72.713,24.644 L72.713,25.514 C72.713,25.786 72.598,25.923 72.37,25.923 L67.32,25.923 Z M61.665,6.754 C61.48,7.914 61.388,9.97 61.388,12.924 C61.388,13.31 61.041,13.504 60.346,13.504 C60.276,13.504 60.185,13.502 60.076,13.497 C59.966,13.493 59.841,13.486 59.701,13.477 C59.42,13.451 59.244,13.438 59.173,13.438 C58.935,13.438 58.799,13.464 58.764,13.517 C58.764,13.526 58.724,13.662 58.646,13.925 L57.617,17.551 C58.408,18.861 58.804,20.636 58.804,22.877 C58.804,23.325 58.785,23.787 58.744,24.261 C58.705,24.736 58.65,25.228 58.58,25.738 C58.545,25.993 58.501,26.312 58.448,26.694 C58.395,27.076 58.33,27.522 58.25,28.032 C58.242,28.164 58.193,28.379 58.105,28.678 C58.105,28.713 58.091,28.735 58.066,28.744 C57.881,28.744 57.789,28.423 57.789,27.781 C57.789,24.459 56.936,21.541 55.231,19.028 C54.721,18.298 54.4,17.419 54.269,16.391 C54.234,16.153 54.209,15.802 54.197,15.336 C54.183,14.87 54.176,14.286 54.176,13.583 C54.176,13.433 54.141,13.359 54.071,13.359 C53.772,13.359 53.341,13.372 52.779,13.398 C52.208,13.424 51.777,13.438 51.487,13.438 C51.214,13.438 51.074,13.266 51.065,12.924 L51.052,9.694 C51.043,9.553 51.109,9.43 51.25,9.324 C51.399,9.219 51.474,9.07 51.474,8.876 L51.474,7.518 C51.158,7.386 51,7.158 51,6.833 C51,6.384 51.223,6.16 51.672,6.16 C52.129,6.16 52.357,6.384 52.357,6.833 C52.357,7.123 52.216,7.329 51.935,7.452 C51.953,7.628 51.966,7.804 51.974,7.98 C51.984,8.155 51.992,8.331 52.002,8.507 C52.062,9.061 52.181,9.338 52.357,9.338 C52.533,9.338 52.713,8.894 52.898,8.006 L53.056,7.162 C53.109,6.881 53.157,6.6 53.201,6.319 C53.007,6.099 52.911,5.879 52.911,5.659 C52.911,5.22 53.134,5 53.584,5 C54.031,5 54.256,5.224 54.256,5.673 C54.256,6.059 54.053,6.292 53.649,6.371 L53.359,9.021 C53.324,9.346 53.447,9.509 53.728,9.509 C53.948,9.509 54.146,9.219 54.322,8.639 L54.598,7.479 C54.458,7.259 54.387,7.057 54.387,6.872 C54.387,6.45 54.607,6.239 55.047,6.239 C55.46,6.239 55.666,6.428 55.666,6.806 C55.666,7 55.597,7.182 55.463,7.354 C55.326,7.525 55.166,7.611 54.98,7.611 C54.92,8.094 54.873,8.463 54.841,8.718 C54.811,8.973 54.797,9.113 54.797,9.14 C54.797,9.324 54.844,9.417 54.941,9.417 C55.02,9.417 55.134,9.351 55.284,9.219 L55.284,12.937 C55.284,14.484 55.763,15.631 56.72,16.378 C57.152,14.382 57.367,12.471 57.367,10.643 C57.367,10.045 57.336,9.566 57.275,9.206 C57.468,9.276 58.052,9.311 59.028,9.311 L59.648,9.311 C60.06,9.311 60.429,8.964 60.756,8.27 C60.791,8.164 60.839,8.032 60.9,7.874 C60.953,7.742 61.016,7.58 61.091,7.386 C61.166,7.193 61.256,6.965 61.361,6.701 L61.665,6.754 Z" id="Fill-1" fill="#384C62"></path>
    </g>
</svg>