<?xml version="1.0" encoding="UTF-8" standalone="no"?>
<svg width="80px" height="78px" viewBox="0 0 80 78" version="1.1" xmlns="http://www.w3.org/2000/svg" xmlns:xlink="http://www.w3.org/1999/xlink">
    <!-- Generator: Sketch 49.1 (51147) - http://www.bohemiancoding.com/sketch -->
    <title>btn/hagada/info/selected</title>
    <desc>Created with Sketch.</desc>
    <defs>
        <circle id="path-1" cx="35" cy="35" r="35"></circle>
        <filter x="-15.0%" y="-12.1%" width="132.9%" height="132.9%" filterUnits="objectBoundingBox" id="filter-2">
            <feMorphology radius="1.5" operator="dilate" in="SourceAlpha" result="shadowSpreadOuter1"></feMorphology>
            <feOffset dx="1" dy="3" in="shadowSpreadOuter1" result="shadowOffsetOuter1"></feOffset>
            <feMorphology radius="1.5" operator="erode" in="SourceAlpha" result="shadowInner"></feMorphology>
            <feOffset dx="1" dy="3" in="shadowInner" result="shadowInner"></feOffset>
            <feComposite in="shadowOffsetOuter1" in2="shadowInner" operator="out" result="shadowOffsetOuter1"></feComposite>
            <feGaussianBlur stdDeviation="2.5" in="shadowOffsetOuter1" result="shadowBlurOuter1"></feGaussianBlur>
            <feColorMatrix values="0 0 0 0 0   0 0 0 0 0   0 0 0 0 0  0 0 0 0.5 0" type="matrix" in="shadowBlurOuter1"></feColorMatrix>
        </filter>
        <circle id="path-3" cx="34.557971" cy="34.5" r="30.5"></circle>
        <filter x="-9.0%" y="-7.4%" width="124.6%" height="124.6%" filterUnits="objectBoundingBox" id="filter-4">
            <feOffset dx="2" dy="3" in="SourceAlpha" result="shadowOffsetOuter1"></feOffset>
            <feGaussianBlur stdDeviation="2" in="shadowOffsetOuter1" result="shadowBlurOuter1"></feGaussianBlur>
            <feColorMatrix values="0 0 0 0 0   0 0 0 0 0   0 0 0 0 0  0 0 0 0.5 0" type="matrix" in="shadowBlurOuter1"></feColorMatrix>
        </filter>
    </defs>
    <g id="btn/hagada/info/selected" stroke="none" stroke-width="1" fill="none" fill-rule="evenodd">
        <g id="info-icon" transform="translate(4.000000, 2.000000)">
            <g id="Oval-3">
                <use fill="black" fill-opacity="1" filter="url(#filter-2)" xlink:href="#path-1"></use>
                <use stroke="#FBF9ED" stroke-width="2" xlink:href="#path-1"></use>
            </g>
            <g id="Oval-3">
                <use fill="black" fill-opacity="1" filter="url(#filter-4)" xlink:href="#path-3"></use>
                <use fill="#0A9CA3" fill-rule="evenodd" xlink:href="#path-3"></use>
            </g>
        </g>
        <path d="M42.9983219,36.0765654 C42.9573077,34.8200993 42.9945066,34.5730051 42.9372775,33.8037292 C42.8795715,33.0349916 42.0883792,33.0220716 42.0883792,33.0220716 C41.6729913,33.0220716 35.0062783,33 35.0062783,33 C34.3352671,33 34,33.3784472 34,34.1364181 L34.8832357,53.8641202 C34.8832357,54.6215528 35.2189798,55 35.889991,55 C35.889991,55 41.0105645,54.9784667 41.4259524,54.9784667 C41.4259524,54.9784667 42.2171447,54.9655468 42.2743738,54.1962708 C42.3320798,53.4269949 43.0388591,37.3324932 42.9983219,36.0765654" id="Fill-4" fill="#FBF9ED"></path>
        <path d="M41.9255404,30.9837728 C41.5346648,30.9837728 41.1845801,31 40.5072716,31 L35.2690009,31 C34.6383106,31 34.3231896,30.7213664 34.3231896,30.1644949 L34.3231896,24.9686111 C34.4921805,25.0228338 34.6383106,25.0501431 34.7615798,25.0501431 C35.0690806,25.0501431 35.222831,24.9278451 35.222831,24.6832491 C35.222831,24.6563356 35.1883156,24.4794191 35.1188365,24.1536869 C35.0498058,23.8271631 34.9534316,23.3454911 34.8306106,22.7066918 C34.2770196,22.5032576 34,22.1636729 34,21.6879376 C34,20.9818547 34.3841518,20.6284175 35.1538002,20.6284175 C35.9534814,20.6284175 36.3537703,20.9818547 36.3537703,21.6879376 C36.3537703,22.1363636 36.1153003,22.4419107 35.6383604,22.6049747 L36.0077199,23.8271631 C36.2381213,24.4117396 36.4922801,24.7034342 36.7692997,24.7034342 C37.0149417,24.7034342 37.1843809,24.5340376 37.2767208,24.1940571 L38.430521,19.9967424 C38.0768503,19.6571576 37.9002391,19.3314254 37.9002391,19.0187542 C37.9002391,18.3395847 38.2924594,18 39.0769001,18 C39.861789,18 40.2540094,18.3463131 40.2540094,19.0389393 C40.2540094,19.62312 39.8994422,19.9765573 39.1921008,20.0988553 C38.8693595,22.8562991 38.7075406,24.2625282 38.7075406,24.3163551 C38.7075406,24.6290264 38.8998406,24.7849662 39.2844407,24.7849662 C39.6076302,24.7849662 39.9613009,24.4726907 40.345901,23.847744 L41.03845,22.5642087 C40.776671,22.1704013 40.6462297,21.8442733 40.6462297,21.5862205 C40.6462297,20.9478171 41.03845,20.6284175 41.8228907,20.6284175 C42.6073314,20.6284175 43,20.9818547 43,21.6879376 C43,22.3944164 42.56923,22.7474578 41.70769,22.7474578 C41.3383305,23.7527553 41.1536508,24.3032942 41.1536508,24.3978871 C41.1536508,24.7374718 41.3845004,24.9072642 41.8461998,24.9072642 C42.1841817,24.9072642 42.5535412,24.8126713 42.9538301,24.622298 C42.8767308,26.4425196 42.8189063,27.8147111 42.7808049,28.7380807 C42.7422552,29.6618462 42.7767706,29.8435121 42.7229804,30.4086951 C42.6691902,30.9742739 41.9255404,30.9837728 41.9255404,30.9837728" id="Fill-1" fill="#FBF9ED"></path>
    </g>
</svg>