<?xml version="1.0" encoding="utf-8"?>
<!-- Generator: Adobe Illustrator 16.0.0, SVG Export Plug-In . SVG Version: 6.00 Build 0)  -->
<!DOCTYPE svg PUBLIC "-//W3C//DTD SVG 1.1//EN" "http://www.w3.org/Graphics/SVG/1.1/DTD/svg11.dtd">
<svg version="1.1" id="Layer_1" xmlns="http://www.w3.org/2000/svg" xmlns:xlink="http://www.w3.org/1999/xlink" x="0px" y="0px"
	 width="150px" height="35px" viewBox="0 0 150 35" enable-background="new 0 0 150 35" xml:space="preserve">
<path fill="#FFFFDF" d="M65.751,12.301c-0.167,0.439-0.294,0.952-0.382,1.536s-0.141,1.25-0.158,1.997
	c-0.01,0.246-0.005,0.49,0.013,0.731c0.018,0.242,0.044,0.477,0.079,0.705l-0.145,0.08c-0.211-0.133-0.506-0.207-0.884-0.225
	c-0.475,0-0.712,0.123-0.712,0.369c0,0.062,0.021,0.127,0.066,0.197l1.7,3.322c0.255,0.527,0.378,1.068,0.369,1.622
	c-0.018,1.327-0.527,2.391-1.529,3.19l-0.276,0.211c-0.15,0.123-0.229,0.097-0.238-0.079l-1.226-8.608h-5.128
	c-1.135,0-1.951,0.088-2.453,0.264c-0.141,0.053-0.232,0.043-0.276-0.027c-0.044-0.061-0.03-0.232,0.04-0.514
	c0.148-0.694,0.211-1.573,0.184-2.637c-0.025-1.222-0.171-2.475-0.435-3.758c-0.026-0.131-0.009-0.224,0.053-0.276
	c0.105-0.07,0.206-0.005,0.304,0.198c0.184,0.412,0.329,0.729,0.435,0.949c0.105,0.219,0.167,0.352,0.185,0.395
	c0.325,0.562,0.686,0.844,1.081,0.844h1.055v-1.489c-0.29-0.193-0.435-0.417-0.435-0.673c0-0.51,0.241-0.764,0.725-0.764
	c0.501,0,0.752,0.254,0.752,0.764c0,0.326-0.158,0.559-0.475,0.699v1.463h6.064c0.703,0,1.199-0.219,1.489-0.658L65.751,12.301z
	 M58.117,21.728c-0.131,0.412-0.224,1.256-0.276,2.531c-0.018,0.334-0.022,0.639-0.013,0.916c0.008,0.277,0.021,0.521,0.039,0.731
	c-0.984,0-1.674-0.093-2.07-0.276c-0.721-0.326-1.08-1.082-1.08-2.268c0-0.801,0.162-1.525,0.487-2.176
	c0.202-0.422,0.404-0.789,0.606-1.102c0.202-0.311,0.404-0.568,0.606-0.771c0.193-0.193,0.339-0.237,0.435-0.132
	c0.07,0.079-0.013,0.355-0.25,0.83c-0.211,0.439-0.316,0.809-0.316,1.107c0,0.168,0.079,0.33,0.237,0.488
	c0.176,0.185,0.435,0.285,0.778,0.303C57.59,21.921,57.863,21.859,58.117,21.728z M75.494,27.712c0.229,0,0.342,0.133,0.342,0.396
	v0.869c0,0.273-0.113,0.409-0.342,0.409H73.41c0,0.422,0.08,0.809,0.238,1.16l0.303,0.673c0.07,0.158,0.105,0.312,0.105,0.461
	c0,0.308-0.107,0.564-0.323,0.771c-0.216,0.206-0.468,0.31-0.758,0.31c-0.149,0-0.29-0.028-0.422-0.085
	c-0.132-0.059-0.248-0.137-0.35-0.238c-0.101-0.102-0.18-0.215-0.237-0.342c-0.057-0.129-0.086-0.267-0.086-0.416
	s0.035-0.303,0.105-0.461l0.291-0.673c0.184-0.396,0.276-0.782,0.276-1.16h-2.109c-0.237,0-0.356-0.136-0.356-0.409v-0.869
	c0-0.264,0.119-0.396,0.356-0.396H75.494z M77.774,14.345c0.035,0.535-0.188,1.186-0.673,1.951
	c-0.141,0.211-0.401,0.568-0.784,1.074c-0.382,0.506-0.894,1.162-1.536,1.971c1.301,0.756,2.049,1.538,2.242,2.347
	c0.053,0.229,0.078,0.492,0.078,0.791c0,1.187-0.148,1.929-0.447,2.228c-0.291,0.291-0.572,0.475-0.844,0.555
	c-0.281,0.07-0.77,0.105-1.464,0.105h-3.099c-0.834,0-1.639,0.078-2.412,0.236c-0.229,0.045-0.422,0.088-0.58,0.133
	c-0.158,0.043-0.285,0.083-0.383,0.118l0.158-0.831c0.088-0.439,0.133-0.839,0.133-1.199v-1.081c0-0.615-0.098-1.208-0.291-1.78
	c0.457,0.098,0.801,0.172,1.029,0.225s0.352,0.079,0.369,0.079h3.48c0.316,0,0.522-0.065,0.619-0.198
	c0.141-0.184-0.009-0.426-0.448-0.725c-0.773-0.51-1.433-1.041-1.978-1.596c-0.598-0.598-1.046-1.208-1.345-1.832h-1.358
	c-0.475,0-0.869,0.079-1.186,0.237c0.148-0.694,0.224-1.394,0.224-2.097c-0.009-0.447-0.038-0.874-0.086-1.278
	s-0.12-0.8-0.218-1.187l0.158,0.105c0.158,0.114,0.348,0.162,0.567,0.145c0.193-0.025,0.276-0.118,0.251-0.276l0.025-1.397
	c-0.359-0.149-0.54-0.396-0.54-0.738c-0.018-0.501,0.233-0.752,0.751-0.752c0.492,0,0.738,0.251,0.738,0.752
	c0,0.343-0.145,0.571-0.435,0.686l0.105,1.239c0.026,0.281,0.146,0.409,0.356,0.382c0.166-0.025,0.281-0.162,0.342-0.408
	l0.646-2.465c-0.281-0.299-0.387-0.576-0.316-0.831c0.088-0.404,0.334-0.606,0.738-0.606c0.492,0,0.738,0.255,0.738,0.765
	c0,0.404-0.215,0.65-0.646,0.738l-0.289,2.426c-0.027,0.211,0.043,0.347,0.211,0.409c0.219,0.078,0.373-0.005,0.461-0.251
	l0.436-1.081c-0.238-0.378-0.304-0.682-0.198-0.91c0.141-0.316,0.378-0.475,0.712-0.475c0.475,0,0.712,0.246,0.712,0.738
	c0,0.105-0.022,0.216-0.065,0.33c-0.141,0.299-0.383,0.448-0.726,0.448l-0.198,0.844c-0.07,0.316-0.043,0.487,0.08,0.515
	c0.123,0.025,0.359-0.058,0.711-0.251c-0.043,0.343-0.078,0.698-0.105,1.067c-0.025,0.369-0.039,0.752-0.039,1.147
	c0.009,0.343,0.026,0.694,0.053,1.055s0.066,0.738,0.119,1.134c-0.168-0.088-0.475-0.132-0.924-0.132h-0.461
	c0.378,0.396,0.729,0.712,1.055,0.949c0.501,0.36,1.111,0.69,1.832,0.989c0.088-0.141,0.188-0.306,0.297-0.494
	c0.109-0.189,0.235-0.412,0.376-0.666c0.123-0.264,0.181-0.497,0.171-0.699c-0.018-0.299-0.118-0.549-0.303-0.752
	c-0.141-0.123-0.316-0.285-0.527-0.487s-0.457-0.444-0.738-0.726c-0.105-0.105-0.167-0.197-0.185-0.276
	c-0.018-0.07,0.123-0.216,0.422-0.435c0.721-0.51,1.19-1.072,1.411-1.688c0.271-0.818,0.352-1.701,0.236-2.65
	c-0.025-0.255,0.022-0.383,0.146-0.383c0.079,0,0.167,0.066,0.264,0.198c0.088,0.114,0.233,0.58,0.435,1.397
	c0.062,0.281,0.229,0.584,0.502,0.91c0.088,0.096,0.171,0.188,0.25,0.276s0.162,0.176,0.25,0.264l0.316,0.409
	C77.541,13.572,77.748,13.994,77.774,14.345z M88.176,28.57c0,0.158-0.03,0.305-0.092,0.441s-0.143,0.255-0.244,0.355
	c-0.102,0.102-0.22,0.184-0.355,0.244c-0.137,0.062-0.283,0.093-0.441,0.093s-0.309-0.03-0.449-0.093
	c-0.141-0.061-0.264-0.143-0.369-0.244c-0.105-0.101-0.188-0.219-0.25-0.355s-0.092-0.283-0.092-0.441s0.033-0.303,0.098-0.436
	c0.066-0.131,0.152-0.248,0.258-0.35c0.105-0.101,0.229-0.18,0.369-0.236c0.141-0.058,0.285-0.086,0.436-0.086
	c0.324,0,0.595,0.107,0.811,0.322C88.068,28,88.176,28.262,88.176,28.57z M88.176,32.117c0,0.148-0.03,0.291-0.092,0.428
	s-0.143,0.258-0.244,0.363s-0.22,0.188-0.355,0.25c-0.137,0.062-0.283,0.092-0.441,0.092s-0.309-0.03-0.449-0.092
	s-0.264-0.145-0.369-0.25s-0.188-0.227-0.25-0.363s-0.092-0.279-0.092-0.428c0-0.158,0.033-0.304,0.098-0.436
	c0.066-0.132,0.152-0.248,0.258-0.35s0.229-0.18,0.369-0.236c0.141-0.059,0.285-0.086,0.436-0.086c0.324,0,0.595,0.107,0.811,0.322
	C88.068,31.546,88.176,31.808,88.176,32.117z M88.203,17.562c0,2.32-0.119,4.091-0.356,5.312c-0.237,1.23-0.624,2.141-1.16,2.729
	c-0.176,0.211-0.312,0.304-0.409,0.277c-0.096-0.026-0.123-0.154-0.078-0.383c0.07-0.5,0.127-1.004,0.171-1.51
	c0.044-0.504,0.07-1.025,0.079-1.562c0.018-1.714-0.066-2.931-0.25-3.651c-0.158-0.65-0.439-1.072-0.844-1.266
	c-0.281-0.141-0.748-0.211-1.398-0.211h-2.451c-0.896,0-1.635,0.105-2.215,0.316c-0.07,0.025-0.128,0.039-0.172,0.039
	c-0.141,0-0.162-0.193-0.066-0.58c0.07-0.325,0.121-0.696,0.152-1.113c0.03-0.418,0.041-0.891,0.033-1.418
	c-0.027-1.266-0.172-2.553-0.436-3.863c-0.035-0.184,0-0.285,0.105-0.303c0.097,0,0.18,0.074,0.25,0.225
	c0.176,0.404,0.316,0.719,0.422,0.941c0.105,0.225,0.172,0.359,0.198,0.402c0.325,0.562,0.686,0.844,1.081,0.844h3.349
	c1.362,0,2.315,0.251,2.86,0.752C87.824,14.244,88.203,15.583,88.203,17.562z M94.426,28.57c0,0.308-0.123,0.58-0.369,0.817
	c-0.238,0.246-0.51,0.369-0.818,0.369c-0.316,0-0.598-0.123-0.844-0.369c-0.246-0.237-0.369-0.51-0.369-0.817
	c0-0.158,0.033-0.308,0.1-0.448s0.156-0.264,0.27-0.369c0.115-0.105,0.244-0.188,0.389-0.251c0.146-0.061,0.297-0.092,0.455-0.092
	c0.344,0,0.627,0.111,0.852,0.336C94.312,27.97,94.426,28.245,94.426,28.57z M95.586,11.115c-0.141,0.299-0.404,0.448-0.791,0.448
	l-0.186,0.844c-0.061,0.255-0.053,0.417,0.027,0.487c0.113,0.07,0.373-0.004,0.777-0.224c-0.105,0.809-0.158,1.587-0.158,2.333
	c0.009,0.756,0.062,1.521,0.158,2.295c-0.176-0.098-0.461-0.146-0.857-0.146c-0.246,0-0.399,0.065-0.461,0.198
	c-0.053,0.096-0.053,0.229,0,0.395l0.33,1.002l0.686,2.057c0.219,0.766,0.329,1.429,0.329,1.991c0,0.738-0.176,1.349-0.527,1.833
	c-0.396,0.545-0.944,0.816-1.647,0.816c-0.176,0-0.402,0.005-0.68,0.014s-0.6,0.021-0.969,0.039
	c-0.765,0.035-1.38,0.154-1.846,0.356l-0.105-0.079c0.334-1.072,0.506-2.083,0.514-3.032c0.01-0.642-0.078-1.306-0.264-1.991
	c-0.025-0.078,0-0.123,0.08-0.131c0.07-0.018,0.123-0.01,0.158,0.025c0.316,0.238,0.668,0.361,1.055,0.369h1.424h0.303
	c0.114-0.035,0.167-0.197,0.158-0.487l-0.132-2.479c-0.035-0.615-0.475-0.923-1.318-0.923H91.34c-0.475,0-0.861,0.084-1.16,0.25
	c0.141-0.641,0.211-1.354,0.211-2.135c0-1.002-0.096-1.886-0.289-2.65l0.158,0.105c0.148,0.114,0.32,0.172,0.514,0.172
	c0.105,0,0.187-0.027,0.244-0.08c0.057-0.053,0.076-0.127,0.059-0.224l0.027-1.397c-0.344-0.141-0.515-0.387-0.515-0.738
	c-0.018-0.501,0.216-0.752,0.698-0.752c0.52,0,0.778,0.251,0.778,0.752c0,0.343-0.149,0.571-0.448,0.686l0.079,1.239
	c0.009,0.272,0.123,0.399,0.343,0.382c0.211-0.025,0.348-0.162,0.408-0.408l0.646-2.465c-0.255-0.281-0.383-0.52-0.383-0.713
	s0.077-0.361,0.23-0.508c0.154-0.145,0.328-0.217,0.521-0.217c0.492,0,0.738,0.255,0.738,0.765c0,0.396-0.207,0.642-0.619,0.738
	l-0.291,2.426c-0.035,0.246,0.053,0.392,0.264,0.435c0.186,0.027,0.321-0.065,0.409-0.276l0.435-1.081
	c-0.236-0.378-0.303-0.682-0.197-0.91c0.141-0.316,0.378-0.475,0.712-0.475c0.492,0,0.738,0.251,0.738,0.752
	C95.651,10.904,95.629,11.009,95.586,11.115z"/>
</svg>
