<?xml version="1.0" encoding="UTF-8" standalone="no"?>
<svg width="107px" height="26px" viewBox="0 0 107 26" version="1.1" xmlns="http://www.w3.org/2000/svg" xmlns:xlink="http://www.w3.org/1999/xlink">
    <!-- Generator: Sketch 48.2 (47327) - http://www.bohemiancoding.com/sketch -->
    <title>btn/index/motzi/normal</title>
    <desc>Created with Sketch.</desc>
    <defs></defs>
    <g id="Symboles" stroke="none" stroke-width="1" fill="none" fill-rule="evenodd">
        <g id="btn/index/motzi/normal" fill="#FBF9ED">
            <path d="M107,20.5445918 C107,20.8505591 106.93682,21.0983215 106.810175,21.2881635 C106.483176,21.0876482 106.098404,20.987604 105.655432,20.987604 L100.672464,20.987604 C99.6600181,20.987604 98.8742522,21.0876482 98.3154505,21.2881635 C98.4840728,20.0331284 98.6081561,18.9732007 98.6872735,18.1082383 C98.7663908,17.2435605 98.8059494,16.5685824 98.8059494,16.083304 C98.9428395,16.1255702 99.1116042,16.1464898 99.3121011,16.1464898 L105.465608,16.1148969 L105.006841,13.3937803 C104.848606,12.3813843 104.548074,11.685202 104.105245,11.3055179 C103.662273,10.9258338 102.93983,10.7359918 101.938056,10.7359918 L99.8182528,10.7359918 C98.9851018,10.7359918 98.2784532,11.0421014 97.6985915,11.6536091 C97.1077729,12.2760746 96.8126482,12.9931766 96.8126482,13.8051996 L96.8126482,18.4879223 C95.8212625,19.3635581 95.0514339,20.5342032 94.5031622,22 L94.3133375,22 L94.3133375,17.1748245 C94.3133375,16.0887118 94.6349296,14.8547386 95.2782559,13.4729049 C95.9321122,12.0704361 96.2591115,11.4321741 96.2591115,11.558688 C96.2591115,11.2635363 95.8897076,11.0472246 95.1517535,10.9100374 C94.9089942,10.8889754 94.6638159,10.862648 94.4160762,10.8309128 C94.1681942,10.7993199 93.9230159,10.767727 93.6805412,10.7359918 C93.2163673,10.6624173 92.9896876,10.1982009 93.0003599,9.34391174 L93.2059796,3 L93.5382439,3 C93.5382439,3.63271191 93.7122735,4.20778812 94.0601906,4.72437477 C94.4293099,5.29390088 94.9144015,5.63672656 95.5154655,5.75270951 L97.0342052,6.03747257 C97.5930068,6.24851885 97.8724788,6.61240647 97.8724788,7.12899312 C97.8724788,7.1712593 97.8434502,7.4718188 97.7855352,8.03081394 C97.7274778,8.58995139 97.6405342,9.41777082 97.5245618,10.5145569 C98.4419528,10.3143262 98.9798368,9.78678161 99.1380715,8.93249245 L99.8182528,5.38882189 C99.9447551,5.63160339 100.1767,5.75270951 100.514229,5.75270951 L103.820366,5.75270951 C105.296843,5.75270951 106.256496,6.74930905 106.699468,8.74265042 C106.89968,9.61828613 107,11.1948004 107,13.4729049 L107,20.5445918 Z M91,1.48237909 C91,1.69414753 90.959205,1.89131125 90.8779289,2.07355276 C90.7964958,2.25611176 90.6888598,2.41501746 90.5553347,2.55011112 C90.4214958,2.68536353 90.2644351,2.79442269 90.0843096,2.87649487 C89.9038703,2.95904329 89.7093096,3 89.5,3 C89.3021444,3 89.1132322,2.95904329 88.9331067,2.87649487 C88.7526674,2.79442269 88.5929393,2.68536353 88.4534519,2.55011112 C88.3138075,2.41501746 88.2031904,2.25611176 88.1220711,2.07355276 C88.0404812,1.89131125 88,1.69414753 88,1.48237909 C88,1.29426394 88.0404812,1.10900624 88.1220711,0.926447243 C88.2031904,0.744205736 88.3138075,0.585458779 88.4534519,0.450047624 C88.5929393,0.314953963 88.7526674,0.205894804 88.9331067,0.123505133 C89.1132322,0.0412742089 89.3021444,0 89.5,0 C89.9534519,0 90.316841,0.138427347 90.5901674,0.414647053 C90.8631799,0.691342999 91,1.04725368 91,1.48237909 Z M91,8.99649477 C91,15.4589021 90.8054077,19.5465566 90.4168787,21.2591747 C90.3001757,21.753011 90.1398075,22 89.935774,22 C89.7219061,22 89.5615379,21.8161052 89.4546694,21.4483155 C89.444966,21.4274732 89.4279195,21.2330863 89.4037922,20.8651548 C89.3794026,20.497507 89.3429493,19.9509267 89.2944324,19.2259813 C89.2456531,18.3853395 89.1897931,17.4660071 89.126721,16.4675589 C89.0633867,15.4693942 88.9978233,14.3819051 88.9298996,13.2049499 C88.891086,12.5114806 88.8181794,12.0440163 88.711311,11.8021315 C88.5363877,11.4134995 88.171986,11.2189708 87.6179749,11.2189708 C86.8891715,11.2189708 86.5294904,11.2243586 86.539325,11.2347089 C86.1796439,11.1612644 86,10.8827991 86,10.3993131 C86,8.40298378 86.1749233,6.26969036 86.5247699,4 L86.8309512,4 C86.8309512,4.92486196 86.9328368,5.51851473 87.1370014,5.78110009 C87.3798484,6.10692146 87.9337285,6.26969036 88.7987727,6.26969036 C90.2660827,6.26969036 91,7.17881421 91,8.99649477 Z M84,3.21363522 C83.7795748,4.59665246 83.6692205,6.96513215 83.6692205,10.318935 C83.6692205,10.7318072 83.4540368,10.9380344 83.0236693,10.9380344 L82.6063346,10.9380344 C82.443424,10.9380344 82.2465145,10.9330214 82.015748,10.9225778 C81.7953228,10.9124126 81.6035132,10.9071212 81.4408859,10.9071212 L81.0236929,10.9071212 C80.7086378,10.9071212 80.503937,11.0259002 80.4094488,11.2631799 C80.3778583,11.3974155 80.3464095,11.5316512 80.3149606,11.6656084 C80.2833701,11.799844 80.2571628,11.9340797 80.2361969,12.0681761 L81.2441181,12.2228813 C82.2518977,12.357117 82.9291811,12.8474114 83.275685,13.6934859 C83.5063098,14.2405938 83.6220472,15.1280252 83.6220472,16.3560587 C83.6220472,17.8421199 83.4697612,18.8947002 83.1653307,19.5139388 C82.7032311,20.4118139 81.8110472,20.8607514 80.4882126,20.8607514 L74.236126,20.8607514 C73.2070972,20.8607514 72.5510631,20.9071212 72.2675985,21 C72.3936772,20.0610466 72.4565749,19.6586181 72.4565749,19.7925753 L72.4565749,17.3777258 C72.4565749,17.1919681 72.4460919,17.0038433 72.425126,16.8126549 C72.4040185,16.6218843 72.372428,16.4233158 72.3306378,16.2166708 C73.6638138,16.4334809 74.4670342,16.5418164 74.7401575,16.5418164 L76.1101654,16.5418164 C76.655987,16.5418164 77.2964384,16.5368034 78.031378,16.5263598 C78.766176,16.5161946 79.4066274,16.5109032 79.9527323,16.5109032 L81.3227402,16.5109032 C81.5957218,16.5109032 81.7322835,16.330437 81.7322835,15.9690868 C81.7322835,15.5356059 81.4961338,15.2933133 81.0236929,15.2415128 L77.9213071,14.9474197 C76.9866248,14.8752889 76.3672809,14.42106 76.0629921,13.5851505 C75.884357,13.0898432 75.795252,12.2539338 75.795252,11.0774222 C75.795252,10.9021082 75.7425539,10.8142423 75.6377244,10.8142423 L75.622,10.8296989 C75.2858374,10.8296989 74.7819476,10.8451555 74.110189,10.876208 C73.7740264,10.8865124 73.4803622,10.8943103 73.2283465,10.8994625 C72.9763307,10.9047539 72.7662468,10.9071212 72.598378,10.9071212 C72.2518741,10.9071212 72.0786221,10.7111984 72.0786221,10.318935 L72.0471733,6.54181636 C72.0366903,6.3869719 72.1205539,6.24257109 72.299189,6.10833542 C72.4775408,5.96393461 72.5669291,5.77817696 72.5669291,5.55106247 L72.5669291,3.98757902 C72.1889764,3.83287381 72,3.55952878 72,3.16726544 C72,2.63074052 72.2622153,2.3622692 72.7873544,2.3622692 C73.3330343,2.3622692 73.6062992,2.63074052 73.6062992,3.16726544 C73.6062992,3.53878074 73.4433885,3.78636478 73.1179922,3.91029604 C73.1389581,4.11680174 73.1546825,4.32052246 73.1653071,4.52173671 C73.1756484,4.72295096 73.186273,4.92681093 73.1968976,5.13317737 C73.2701366,5.78332916 73.4119397,6.10833542 73.6220236,6.10833542 C73.8424489,6.10833542 74.0628741,5.58211491 74.283441,4.52939538 C74.3463386,4.19923692 74.409378,3.86907845 74.4724173,3.53878074 C74.535315,3.20862227 74.5929712,2.87846381 74.6456693,2.54802685 C74.4146195,2.31074721 74.2991654,2.06302392 74.2991654,1.80499624 C74.2991654,1.26847133 74.5669055,1 75.1023858,1 C75.6377244,1 75.9054646,1.26317988 75.9054646,1.78953964 C75.9054646,2.25393377 75.6586903,2.53257025 75.1652835,2.62544908 C74.9448583,4.72044448 74.8346457,5.79878575 74.8346457,5.86075139 C74.8346457,6.16013591 74.9866484,6.30954967 75.2913622,6.30954967 C75.5432363,6.30954967 75.768903,5.96393461 75.9685039,5.27242599 L76.2834173,3.91029604 C76.1258898,3.65240761 76.0472677,3.42529312 76.0472677,3.22909182 C76.0472677,2.7337845 76.3148662,2.48606121 76.8503465,2.48606121 C77.3858268,2.48606121 77.6535669,2.74422814 77.6535669,3.26014426 C77.6535669,3.79680842 77.3594777,4.0754449 76.7715827,4.09605369 C76.6874358,4.66363105 76.6243965,5.09711198 76.5826063,5.39635726 C76.5405329,5.69574178 76.5197086,5.86604283 76.5197086,5.90712117 C76.5197086,6.10332247 76.5772232,6.20121425 76.6928189,6.20121425 C76.7977901,6.20121425 76.9342101,6.11877907 77.1023622,5.95363021 L77.1023622,9.54485198 C77.1023622,10.442727 77.1862258,11.020748 77.3543779,11.2786365 C77.5535539,11.5677166 78.0680683,11.7843874 78.8976378,11.9287883 C78.9500525,11.4334809 78.992126,10.9690868 79.0235748,10.5356059 C79.0551653,10.1021249 79.0708898,9.69468349 79.0708898,9.31272454 C79.0708898,8.3118055 78.9606771,7.19196814 78.7401103,5.95363021 C78.9186037,6.02590024 79.6165697,6.06196563 80.8347165,6.06196563 L81.5747559,6.06196563 C82.0575382,6.06196563 82.5039134,5.65438494 82.913315,4.8390843 C82.913315,4.81847551 83.1496063,4.20438912 83.6220472,2.99696438 L84,3.21363522 Z M81,24.483095 C81,24.8763835 80.8459447,25.2247941 80.5384273,25.5281751 C80.2417338,25.8426239 79.9010033,26 79.5163841,26 C79.1207928,26 78.7692384,25.8426239 78.4615727,25.5281751 C78.1540553,25.2247941 78,24.8763835 78,24.483095 C78,24.280841 78.0412198,24.0896548 78.1236594,23.910143 C78.2060989,23.7301764 78.3189344,23.5729519 78.4615727,23.4381665 C78.6045075,23.303381 78.7664212,23.196341 78.9477586,23.1179562 C79.129096,23.0391166 79.3185884,23 79.5163841,23 C79.9450403,23 80.2994119,23.1431243 80.5796471,23.429676 C80.8597341,23.7162278 81,24.0673675 81,24.483095 Z M70,8.32146123 C70,9.62285113 69.750685,10.8629298 69.2528305,12.0419715 C68.7068966,13.353237 67.959727,14.3139173 67.0114512,14.9238753 C66.9346792,14.9747623 66.8628186,15 66.7958693,15 C66.6234555,15 66.5372486,14.9035753 66.5372486,14.7103146 C66.5372486,14.7713515 66.790958,14.3649415 67.2987644,13.4905358 C67.8063124,12.6164045 68.0602802,11.8234729 68.0602802,11.1118782 C68.0602802,10.5019203 67.8684796,10.1970099 67.4856537,10.1970099 L66.0918679,10.2122348 C65.8235537,10.2122348 65.6414465,10.3393837 65.5459339,10.5934071 C65.4403402,10.8374177 65.378173,10.9593544 65.3590446,10.9593544 C65.1195523,10.7459309 65,9.73450073 65,7.92506401 C65,5.79027981 65.1243344,4.21977871 65.3735201,3.21342356 L65.6751797,3.21342356 C65.6751797,3.98605523 65.7948612,4.53003841 66.0344828,4.84496159 C66.2931034,5.22119605 66.7622654,5.40910753 67.4424857,5.40910753 L67.959727,4.43333943 C67.7873132,4.14886613 67.7011063,3.90485552 67.7011063,3.70144477 C67.7011063,3.23399781 67.9453808,3 68.4338003,3 C68.9317841,3 69.1809699,3.2644477 69.1809699,3.7929316 C69.1809699,4.3418526 68.9080029,4.61631309 68.3619397,4.61631309 L68.1321408,5.43969459 C68.9174378,5.43969459 69.4490255,5.72430505 69.7269038,6.29352597 C69.9088818,6.67991039 70,7.35584309 70,8.32146123 Z M64,17.0867269 C64,17.5606671 63.7270424,18.4154274 63.1812745,19.6515636 L62.0512919,22 L61.8874878,21.8610146 C61.8983885,21.809312 61.9064903,21.7578874 61.9120879,21.7064628 C61.9173909,21.6547603 61.9201897,21.6033356 61.9201897,21.551911 C61.9201897,20.6457262 61.5653301,19.8885337 60.8559055,19.2807505 L52.1113926,11.8026407 C51.8055858,12.3897151 51.6528297,12.7555247 51.6528297,12.8996525 C51.6528297,13.5175817 52.3242495,14.4500347 53.6670889,15.6961779 C55.0097811,16.9530229 55.6812008,17.9881862 55.6812008,18.8016678 C55.6812008,19.5641418 55.3971953,20.1512161 54.8296261,20.5631689 C54.3164128,20.9442669 53.6396901,21.1348158 52.7991633,21.1348158 L49,21.1348158 L49,20.8721334 C49.7312259,20.7175817 50.1734378,20.609451 50.3263412,20.5476025 C50.8394072,20.3417651 51.0960139,20.0223767 51.0960139,19.5897151 C51.0960139,19.1779013 50.7575052,18.6061154 50.0807825,17.8746352 C49.4146658,17.1538568 49.081902,16.4739402 49.081902,15.8351633 C49.081902,15.3407922 49.2346581,14.856706 49.5403176,14.3829048 L51.4563238,11.2927033 L50.0315824,10.1339819 C49.431164,9.57776233 49.1309548,9.06782488 49.1309548,8.60430855 C49.1309548,8.24391939 49.452818,7.46629604 50.0971334,6.27129951 L51.3744218,4 L51.5545768,4.12369701 L51.5545768,4.26268242 C51.5218749,5.08686588 51.9365407,5.8694927 52.7991633,6.61111883 L60.4792446,13.1467686 C60.7847568,12.3537179 60.9378075,11.8643502 60.9378075,11.6789437 C60.9378075,11.2464211 60.4191439,10.695483 59.3821112,10.0257123 C58.3558318,9.36678249 57.8427658,8.76914524 57.8427658,8.23349548 C57.8427658,7.85253648 58.1702266,7.12633773 58.8252953,6.05503822 C59.0545031,5.71507992 59.2838582,5.37512161 59.513066,5.03516331 C59.7422738,4.69534399 59.965884,4.35038221 60.1844858,4 L60.3317915,4.10813065 C60.2990897,4.28339124 60.2827387,4.45851286 60.2827387,4.63349548 C60.2827387,5.32369701 60.8612085,5.98304378 62.01859,6.61111883 C63.1755296,7.22918694 63.7544413,7.90396108 63.7544413,8.63516331 C63.7544413,9.20180681 63.3830834,10.1082696 62.6408096,11.3545518 L61.1179625,13.656706 L63.2958784,15.5570535 C63.7650473,15.9691452 64,16.4790827 64,17.0867269 Z M41,20.5445918 C41,20.8505591 40.9368199,21.0983215 40.8101752,21.2881635 C40.4831757,21.0876482 40.0984034,20.987604 39.6554315,20.987604 L34.6724597,20.987604 C33.6601557,20.987604 32.8743892,21.0876482 32.3154448,21.2881635 C32.4840673,20.0331284 32.6081507,18.9732007 32.687268,18.1082383 C32.7663854,17.2435605 32.8059441,16.5685824 32.8059441,16.083304 C32.9428342,16.1255702 33.111599,16.1464898 33.3120961,16.1464898 L39.4656067,16.1148969 L39.0068397,13.3937803 C38.8487473,12.3813843 38.5480728,11.685202 38.1052431,11.3055179 C37.6622712,10.9258338 36.9398271,10.7359918 35.9380531,10.7359918 L33.8182481,10.7359918 C32.9850966,10.7359918 32.2784475,11.0421014 31.6985854,11.6536091 C31.1079087,12.2760746 30.8126415,12.9931766 30.8126415,13.8051996 L30.8126415,18.4879223 C29.8213976,19.3635581 29.0514261,20.5342032 28.5031541,22 L28.3133293,22 L28.3133293,17.1748245 C28.3133293,16.0887118 28.6349215,14.8547386 29.2782482,13.4729049 C29.932105,12.0704361 30.2591045,11.4321741 30.2591045,11.558688 C30.2591045,11.2635363 29.8898426,11.0472246 29.1517458,10.9100374 C28.9089864,10.8889754 28.6638079,10.862648 28.4162103,10.8309128 C28.1681859,10.7993199 27.9230074,10.767727 27.6806749,10.7359918 C27.2163583,10.6624173 26.9898208,10.1982009 27.0003508,9.34391174 L27.2061129,3 L27.5382351,3 C27.5382351,3.63271191 27.7122649,4.20778812 28.0603244,4.72437477 C28.4293017,5.29390088 28.914536,5.63672656 29.5156004,5.75270951 L31.0341987,6.03747257 C31.5930007,6.24851885 31.8726152,6.61240647 31.8726152,7.12899312 C31.8726152,7.1712593 31.8434442,7.4718188 31.7855292,8.03081394 C31.7274718,8.58995139 31.6405281,9.41777082 31.5245556,10.5145569 C32.4420896,10.3143262 32.9798316,9.78678161 33.1380663,8.93249245 L33.8182481,5.38882189 C33.9448928,5.63160339 34.1766954,5.75270951 34.5143672,5.75270951 L37.8203637,5.75270951 C39.2968419,5.75270951 40.2566382,6.74930905 40.6994678,8.74265042 C40.8996803,9.61828613 41,11.1948004 41,13.4729049 L41,20.5445918 Z M31.3715028,26 C31.123793,26 31,25.8370989 31,25.5118634 L31,24.4724131 C31,24.1575182 31.123793,24 31.3715028,24 L36.6422382,24 C36.8806635,24 37,24.1575182 37,24.4724131 L37,25.5118634 C37,25.8370989 36.8806635,26 36.6422382,26 L31.3715028,26 Z M17,13.4824594 C17,13.6942166 16.9592072,13.8913699 16.8779353,14.0736018 C16.7963496,14.2561511 16.6887192,14.4148897 16.5552011,14.5499762 C16.4213692,14.6853802 16.2644736,14.7942748 16.0843575,14.8765014 C15.9039276,14.9588867 15.7093771,15 15.5000784,15 C15.2907798,15 15.0959155,14.9588867 14.9157994,14.8765014 C14.7353695,14.7942748 14.578317,14.6853802 14.4447989,14.5499762 C14.310967,14.4148897 14.2033366,14.2561511 14.1222216,14.0736018 C14.040636,13.8913699 14,13.6942166 14,13.4824594 C14,13.1060903 14.1570525,12.7649611 14.4710005,12.4589132 C14.7964019,12.1531827 15.1395325,12 15.5000784,12 C15.9299723,12 16.2876942,12.1385788 16.5727734,12.4147839 C16.8575388,12.6913064 17,13.047357 17,13.4824594 Z M26,3.21363522 C25.7795748,4.59665246 25.6692205,6.96513215 25.6692205,10.318935 C25.6692205,10.7318072 25.4540368,10.9380344 25.0236693,10.9380344 L24.6063346,10.9380344 C24.443424,10.9380344 24.2465145,10.9330214 24.015748,10.9225778 C23.7953228,10.9124126 23.6035132,10.9071212 23.4408859,10.9071212 L23.0236929,10.9071212 C22.7086378,10.9071212 22.503937,11.0259002 22.4094488,11.2631799 C22.378,11.3974155 22.3464095,11.5316512 22.3149606,11.6656084 C22.2835118,11.799844 22.2571628,11.9340797 22.2361969,12.0681761 L23.2441181,12.2228813 C24.2520393,12.357117 24.9291811,12.8474114 25.275685,13.6934859 C25.5063098,14.2405938 25.6220472,15.1280252 25.6220472,16.3560587 C25.6220472,17.8421199 25.4697612,18.8947002 25.1653307,19.5139388 C24.7032311,20.4118139 23.8110472,20.8607514 22.4882126,20.8607514 L16.2362677,20.8607514 C15.2070972,20.8607514 14.5512047,20.9071212 14.2677401,21 C14.3936772,20.0610466 14.4567165,19.6586181 14.4567165,19.7925753 L14.4567165,17.3777258 C14.4567165,17.1919681 14.4460919,17.0038433 14.425126,16.8126549 C14.4040185,16.6218843 14.372428,16.4233158 14.3306378,16.2166708 C15.6638138,16.4334809 16.4670342,16.5418164 16.7401575,16.5418164 L18.1103071,16.5418164 C18.655987,16.5418164 19.2965801,16.5368034 20.0315197,16.5263598 C20.7663176,16.5161946 21.4067691,16.5109032 21.9527323,16.5109032 L23.3227402,16.5109032 C23.5957218,16.5109032 23.7322835,16.330437 23.7322835,15.9690868 C23.7322835,15.5356059 23.4961338,15.2933133 23.0236929,15.2415128 L19.9213071,14.9474197 C18.9867665,14.8752889 18.3672809,14.42106 18.0629921,13.5851505 C17.884357,13.0898432 17.795252,12.2539338 17.795252,11.0774222 C17.795252,10.9021082 17.7425539,10.8142423 17.6377244,10.8142423 L17.622,10.8296989 C17.2858374,10.8296989 16.7819476,10.8451555 16.110189,10.876208 C15.7740264,10.8865124 15.4803622,10.8943103 15.2283465,10.8994625 C14.9763307,10.9047539 14.7662468,10.9071212 14.598378,10.9071212 C14.2518741,10.9071212 14.0787638,10.7111984 14.0787638,10.318935 L14.0471733,6.54181636 C14.0366903,6.3869719 14.1205539,6.24257109 14.299189,6.10833542 C14.4775408,5.96393461 14.5669291,5.77817696 14.5669291,5.55106247 L14.5669291,3.98757902 C14.1889764,3.83287381 14,3.55952878 14,3.16726544 C14,2.63074052 14.2622153,2.3622692 14.7873544,2.3622692 C15.3331759,2.3622692 15.6062992,2.63074052 15.6062992,3.16726544 C15.6062992,3.53878074 15.4433885,3.78636478 15.1179922,3.91029604 C15.1389581,4.11680174 15.1546825,4.32052246 15.1653071,4.52173671 C15.1756484,4.72295096 15.186273,4.92681093 15.1968976,5.13317737 C15.2701366,5.78332916 15.4119397,6.10833542 15.6220236,6.10833542 C15.8424489,6.10833542 16.0628741,5.58211491 16.283441,4.52939538 C16.3463386,4.19923692 16.409378,3.86907845 16.4724173,3.53878074 C16.535315,3.20862227 16.5929712,2.87846381 16.6456693,2.54802685 C16.4146195,2.31074721 16.2991654,2.06302392 16.2991654,1.80499624 C16.2991654,1.26847133 16.5669055,1 17.1023858,1 C17.6377244,1 17.9054646,1.26317988 17.9054646,1.78953964 C17.9054646,2.25393377 17.6586903,2.53257025 17.1652835,2.62544908 C16.9448583,4.72044448 16.8346457,5.79878575 16.8346457,5.86075139 C16.8346457,6.16013591 16.9866484,6.30954967 17.2913622,6.30954967 C17.5432363,6.30954967 17.768903,5.96393461 17.9685039,5.27242599 L18.2834173,3.91029604 C18.1258898,3.65240761 18.0472677,3.42529312 18.0472677,3.22909182 C18.0472677,2.7337845 18.3148662,2.48606121 18.8503465,2.48606121 C19.3858268,2.48606121 19.6535669,2.74422814 19.6535669,3.26014426 C19.6535669,3.79680842 19.3594777,4.0754449 18.7715827,4.09605369 C18.6874358,4.66363105 18.6243965,5.09711198 18.5826063,5.39635726 C18.5405329,5.69574178 18.5197086,5.86604283 18.5197086,5.90712117 C18.5197086,6.10332247 18.5772232,6.20121425 18.6928189,6.20121425 C18.7977901,6.20121425 18.9342101,6.11877907 19.1023622,5.95363021 L19.1023622,9.54485198 C19.1023622,10.442727 19.1862258,11.020748 19.3543779,11.2786365 C19.5536956,11.5677166 20.0680683,11.7843874 20.8976378,11.9287883 C20.9500525,11.4334809 20.992126,10.9690868 21.0235748,10.5356059 C21.0551653,10.1021249 21.0708898,9.69468349 21.0708898,9.31272454 C21.0708898,8.3118055 20.9606771,7.19196814 20.7401103,5.95363021 C20.9186037,6.02590024 21.6165697,6.06196563 22.8347165,6.06196563 L23.5747559,6.06196563 C24.0575382,6.06196563 24.5039134,5.65438494 24.913315,4.8390843 C24.913315,4.81847551 25.1496063,4.20438912 25.6220472,2.99696438 L26,3.21363522 Z M17.371619,26 C17.1239143,26 17,25.8370989 17,25.5118634 L17,24.4724131 C17,24.1575182 17.1239143,24 17.371619,24 L22.6421218,24 C22.880666,24 23,24.1575182 23,24.4724131 L23,25.5118634 C23,25.8370989 22.880666,26 22.6421218,26 L17.371619,26 Z M3,17.3112847 C3,17.8237005 2.79127766,18.4618009 2.37434455,19.2254601 L1.2653792,21 L1.09476915,20.9020917 C1.1136974,20.8089595 1.12316153,20.7204776 1.12316153,20.636646 C1.12316153,20.1057546 0.933495332,19.4630039 0.554418724,18.7085196 C0.184806241,17.9448604 0,17.4604722 0,17.2554807 C0,17.050615 0.246323059,16.4637939 0.739352858,15.4950175 C1.23199898,14.5169405 1.5448267,14.018727 1.67770815,14 L2.51656222,15.6067511 C2.83859829,16.2774037 3,16.8456235 3,17.3112847 Z M12,15.5985658 C12,16.5213231 11.7952992,17.6328198 11.3857559,18.9329143 C11.175672,19.6041135 10.9552468,20.1938179 10.7243386,20.7023107 C10.4932888,21.2110864 10.2465145,21.6433194 9.98429919,22 L9.76373231,21.8583747 C9.889811,21.5123054 9.95270869,21.0038126 9.95270869,20.332755 C9.95270869,18.4978517 9.66386098,16.8724859 9.08659056,15.4569405 C8.92906303,15.0691334 8.85029926,14.780648 8.85029926,14.5919086 C8.85029926,14.2564505 9.04451711,13.7007022 9.43309448,12.9246636 C9.82138852,12.1487665 10.015748,11.624569 10.015748,11.3517883 C10.015748,11.1630489 9.77945673,11.0686792 9.30701578,11.0686792 L0.519614209,11.0686792 C0.173110295,11.0686792 0,10.8224974 0,10.3294264 L0,3.84946869 L0.330637831,3.84946869 C0.330637831,5.35938373 0.913291386,6.11434124 2.07874016,6.11434124 L4.72440945,6.11434124 L4.72440945,4.55717062 C4.40935438,4.33702184 4.2519685,4.07499386 4.2519685,3.7708037 C4.2519685,3.25707605 4.52480846,3 5.0707717,3 C5.61659328,3 5.88971656,3.25707605 5.88971656,3.7708037 C5.88971656,4.14828246 5.70074018,4.42106321 5.32278743,4.58858002 L5.32278743,6.11434124 L10.2047244,6.11434124 C10.8975906,6.11434124 11.3700315,6.06708566 11.6220472,5.97271597 L11.7322599,6.08279036 C11.3857559,8.93510362 11.2126456,10.4973677 11.2126456,10.7698654 C11.2126456,11.2943459 11.3436825,12.0753364 11.6063228,13.113403 C11.8685382,14.1514696 12,14.9798572 12,15.5985658 Z" id="Fill-1"></path>
        </g>
    </g>
</svg>