<?xml version="1.0" encoding="utf-8"?>
<!-- Generator: Adobe Illustrator 16.0.0, SVG Export Plug-In . SVG Version: 6.00 Build 0)  -->
<!DOCTYPE svg PUBLIC "-//W3C//DTD SVG 1.1//EN" "http://www.w3.org/Graphics/SVG/1.1/DTD/svg11.dtd">
<svg version="1.1" id="Layer_1" xmlns="http://www.w3.org/2000/svg" xmlns:xlink="http://www.w3.org/1999/xlink" x="0px" y="0px"
	 width="95px" height="35px" viewBox="0 0 95 35" enable-background="new 0 0 95 35" xml:space="preserve">
<path fill="#384C62" d="M20.737,16.269c0,8.947-0.352,14.189-1.055,15.729c-0.123,0.264-0.211,0.395-0.264,0.395
	c-0.105,0-0.176-0.176-0.211-0.527l-0.053-2.979c0-1.125-0.02-2.506-0.06-4.141c-0.039-1.635-0.094-3.555-0.164-5.761
	c-0.053-0.773-0.141-1.271-0.264-1.489c-0.203-0.361-0.633-0.541-1.293-0.541h-3.968c-0.202,0-0.475,0.044-0.817,0.132
	c-0.36,0.079-0.615,0.118-0.765,0.118c-0.044,0-0.065-0.021-0.065-0.065c0-0.035,0.01-0.12,0.032-0.257s0.056-0.323,0.099-0.561
	c0.053-0.255,0.093-0.461,0.119-0.619s0.044-0.269,0.053-0.33l0.501-4.456h0.29c0,1.31,0.717,1.964,2.148,1.964
	c0.133,0,0.304-0.006,0.515-0.02s0.457-0.028,0.738-0.046c0.29-0.018,0.545-0.032,0.765-0.046s0.404-0.02,0.554-0.02
	c0.984,0,1.723,0.211,2.215,0.633C20.421,13.927,20.737,14.889,20.737,16.269z M16.373,21.991c0,0.158-0.03,0.306-0.092,0.442
	c-0.062,0.136-0.143,0.254-0.244,0.355s-0.22,0.182-0.355,0.244c-0.137,0.061-0.283,0.092-0.441,0.092s-0.309-0.031-0.449-0.092
	c-0.141-0.062-0.264-0.143-0.369-0.244s-0.188-0.22-0.25-0.355c-0.062-0.137-0.092-0.284-0.092-0.442s0.032-0.304,0.099-0.435
	c0.065-0.133,0.151-0.248,0.257-0.35s0.229-0.18,0.369-0.238c0.141-0.057,0.285-0.085,0.436-0.085c0.324,0,0.595,0.108,0.811,0.323
	C16.266,21.421,16.373,21.683,16.373,21.991z M16.373,25.537c0,0.15-0.03,0.293-0.092,0.43c-0.062,0.135-0.143,0.256-0.244,0.361
	s-0.22,0.189-0.355,0.251c-0.137,0.062-0.283,0.093-0.441,0.093s-0.309-0.031-0.449-0.093s-0.264-0.146-0.369-0.251
	s-0.188-0.227-0.25-0.361c-0.062-0.137-0.092-0.279-0.092-0.43c0-0.158,0.032-0.303,0.099-0.435
	c0.065-0.132,0.151-0.248,0.257-0.349c0.105-0.102,0.229-0.181,0.369-0.238c0.141-0.057,0.285-0.086,0.436-0.086
	c0.324,0,0.595,0.108,0.811,0.324C16.266,24.968,16.373,25.23,16.373,25.537z M29.795,28.741c0,0.158-0.031,0.306-0.093,0.442
	c-0.062,0.135-0.143,0.254-0.244,0.355c-0.101,0.101-0.22,0.182-0.355,0.244c-0.136,0.061-0.284,0.092-0.442,0.092
	c-0.148,0-0.291-0.031-0.428-0.092c-0.137-0.062-0.258-0.144-0.363-0.244c-0.105-0.102-0.188-0.221-0.25-0.355
	c-0.062-0.137-0.092-0.284-0.092-0.442s0.03-0.304,0.092-0.435c0.062-0.133,0.145-0.249,0.25-0.35
	c0.105-0.102,0.227-0.181,0.363-0.238c0.137-0.057,0.279-0.085,0.428-0.085C29.416,27.633,29.795,28.002,29.795,28.741z
	 M33.275,28.741c0,0.158-0.031,0.306-0.093,0.442c-0.062,0.135-0.144,0.254-0.244,0.355c-0.101,0.101-0.22,0.182-0.355,0.244
	c-0.137,0.061-0.284,0.092-0.442,0.092s-0.305-0.031-0.441-0.092c-0.137-0.062-0.255-0.144-0.355-0.244
	c-0.102-0.102-0.183-0.221-0.244-0.355c-0.062-0.137-0.092-0.284-0.092-0.442c0-0.308,0.111-0.569,0.336-0.784
	c0.224-0.216,0.49-0.323,0.797-0.323c0.326,0,0.596,0.107,0.812,0.323C33.167,28.171,33.275,28.433,33.275,28.741z M31.1,16.269
	c0,1.125-0.009,2.083-0.026,2.874s-0.044,1.429-0.079,1.911c-0.149,2.092-0.471,3.639-0.963,4.641
	c-0.123,0.264-0.211,0.396-0.264,0.396c-0.096,0-0.162-0.163-0.197-0.488c-0.044-0.387-0.079-0.853-0.105-1.397
	s-0.049-1.173-0.066-1.886c-0.018-0.826-0.035-1.514-0.053-2.062s-0.035-0.974-0.053-1.272c-0.07-0.8-0.158-1.296-0.264-1.489
	c-0.201-0.361-0.637-0.541-1.305-0.541h-3.889c-0.221,0-0.51,0.044-0.871,0.132c-0.387,0.079-0.646,0.118-0.777,0.118
	c-0.044,0-0.066-0.021-0.066-0.065s0.012-0.134,0.033-0.271c0.021-0.136,0.055-0.318,0.1-0.547c0.053-0.255,0.092-0.461,0.118-0.619
	s0.044-0.269,0.053-0.33l0.501-4.456h0.277c0,1.31,0.721,1.964,2.162,1.964c0.131,0,0.303-0.006,0.514-0.02s0.461-0.028,0.752-0.046
	c0.289-0.018,0.542-0.032,0.758-0.046c0.215-0.014,0.397-0.02,0.547-0.02c0.984,0,1.723,0.211,2.215,0.633
	C30.783,13.927,31.1,14.889,31.1,16.269z M43.044,20.607c-0.149,0.404-0.224,1.05-0.224,1.938v1.674
	c0,0.607,0.043,1.055,0.131,1.346l-0.065,0.065c-0.237-0.062-0.55-0.093-0.937-0.093h-7.197c-0.801,0-1.424,0.084-1.873,0.251
	l-0.065-0.026c0.123-0.369,0.185-0.91,0.185-1.621v-1.728c0-0.457-0.053-0.839-0.158-1.147l0.066-0.065
	c0.475,0.185,1.059,0.276,1.753,0.276h5.01l-0.118-4.021c0-0.105-0.008-0.188-0.02-0.251c-0.014-0.061-0.038-0.107-0.073-0.139
	c-0.035-0.029-0.088-0.05-0.158-0.059s-0.163-0.014-0.276-0.014h-5.643c-0.361,0-0.541-0.176-0.541-0.527v-5.523h0.316
	c0,1.266,0.58,1.898,1.74,1.898v-1.305c-0.264-0.186-0.396-0.404-0.396-0.66c0-0.43,0.229-0.646,0.686-0.646
	s0.686,0.216,0.686,0.646c0,0.316-0.158,0.545-0.475,0.686v1.279h3.995c0.809,0,1.41-0.084,1.806-0.25v8.582
	c0,0.29,0.114,0.436,0.343,0.436c0.211,0,0.479-0.137,0.805-0.409c0.141-0.114,0.264-0.229,0.369-0.343s0.193-0.229,0.264-0.343
	L43.044,20.607z M36.795,19.249c0,0.158-0.031,0.306-0.092,0.442c-0.062,0.136-0.144,0.254-0.244,0.355
	c-0.102,0.102-0.221,0.182-0.355,0.244c-0.137,0.061-0.284,0.092-0.442,0.092s-0.306-0.031-0.442-0.092
	c-0.136-0.062-0.254-0.143-0.355-0.244s-0.182-0.22-0.244-0.355c-0.061-0.137-0.092-0.284-0.092-0.442
	c0-0.281,0.119-0.536,0.355-0.765c0.246-0.229,0.506-0.343,0.778-0.343c0.325,0,0.595,0.104,0.812,0.31
	C36.688,18.658,36.795,18.923,36.795,19.249z M54.342,10.231c0,0.457-0.25,0.686-0.751,0.686c-0.097,0.519-0.169,0.914-0.218,1.187
	s-0.072,0.431-0.072,0.475c0,0.141,0.053,0.211,0.158,0.211c0.097,0,0.26-0.062,0.488-0.185v3.612c0,0.404-0.062,0.606-0.186,0.606
	c-0.053,0-0.145-0.022-0.276-0.065c-0.132-0.045-0.233-0.066-0.304-0.066c-0.492,0-0.738,0.202-0.738,0.606
	c0,0.079,0.119,0.716,0.356,1.911c0.431,2.145,0.646,3.802,0.646,4.971c0,1.283-0.197,3.389-0.593,6.314
	c-0.176,1.258-0.352,1.886-0.527,1.886c-0.185,0-0.276-0.321-0.276-0.962c0-2.496-0.432-5.217-1.293-8.161
	c-0.078-0.246-0.118-0.457-0.118-0.633c0-0.149,0.03-0.352,0.093-0.606l0.553-2.347c0.203-0.967,0.304-1.763,0.304-2.386
	c0-0.334-0.216-0.527-0.646-0.58c0.035,0.008-0.299,0.013-1.002,0.013c-0.352,0-0.527-0.181-0.527-0.54v-3.375
	c0.105,0.043,0.18,0.065,0.224,0.065c0.185,0,0.286-0.272,0.304-0.817l-0.027-1.055c-0.324-0.132-0.487-0.36-0.487-0.686
	c0-0.457,0.224-0.686,0.673-0.686c0.457,0,0.686,0.229,0.686,0.686c0,0.299-0.137,0.501-0.409,0.606c0,0.167,0,0.329,0,0.487
	s0.005,0.321,0.013,0.488c0.035,0.501,0.154,0.752,0.356,0.752c0.167,0,0.276-0.115,0.329-0.344l0.66-2.689
	c-0.193-0.201-0.291-0.417-0.291-0.646c0-0.448,0.225-0.673,0.673-0.673s0.673,0.229,0.673,0.686c0,0.379-0.203,0.611-0.607,0.699
	l-0.289,2.65c-0.045,0.264,0.078,0.395,0.369,0.395c0.184,0,0.382-0.276,0.593-0.83l0.356-1.107
	c-0.141-0.22-0.211-0.422-0.211-0.606c0-0.422,0.219-0.633,0.658-0.633C54.113,9.545,54.342,9.774,54.342,10.231z M60.354,15.095
	c0,5.406-0.176,8.824-0.527,10.258c-0.105,0.412-0.25,0.619-0.435,0.619c-0.193,0-0.339-0.154-0.435-0.461
	c-0.01-0.018-0.025-0.181-0.047-0.488s-0.055-0.765-0.099-1.371c-0.044-0.703-0.095-1.473-0.151-2.307
	c-0.058-0.836-0.117-1.745-0.178-2.729c-0.035-0.58-0.102-0.972-0.198-1.173c-0.158-0.326-0.487-0.488-0.989-0.488
	c-0.658,0-0.984,0.004-0.975,0.014c-0.326-0.062-0.488-0.295-0.488-0.699c0-1.67,0.158-3.454,0.475-5.353h0.277
	c0,0.773,0.092,1.271,0.276,1.489c0.22,0.273,0.721,0.409,1.503,0.409C59.69,12.815,60.354,13.576,60.354,15.095z M58.126,20.831
	c0,0.158-0.03,0.306-0.093,0.442c-0.061,0.136-0.143,0.254-0.244,0.355c-0.101,0.102-0.219,0.182-0.355,0.244
	c-0.137,0.061-0.283,0.092-0.441,0.092s-0.306-0.031-0.441-0.092c-0.137-0.062-0.256-0.143-0.355-0.244
	c-0.102-0.102-0.184-0.22-0.244-0.355c-0.062-0.137-0.093-0.284-0.093-0.442c0-0.281,0.118-0.536,0.356-0.765
	c0.246-0.229,0.505-0.343,0.777-0.343c0.325,0,0.596,0.104,0.811,0.31C58.018,20.24,58.126,20.505,58.126,20.831z M71.877,23.718
	c0,1.213-0.273,2.069-0.818,2.57c-0.518,0.466-1.384,0.699-2.597,0.699h-5.089c-0.475,0-0.9,0.113-1.279,0.342l-0.053-0.065
	c0.141-0.29,0.211-0.673,0.211-1.147V24.14c0-0.51-0.07-0.889-0.211-1.135l0.053-0.092c0.115,0.141,0.396,0.211,0.844,0.211h6.052
	c0.791,0,1.187-0.466,1.187-1.397c0-0.176-0.004-0.394-0.014-0.653c-0.008-0.258-0.021-0.564-0.039-0.916s-0.031-0.658-0.039-0.922
	c-0.01-0.264-0.014-0.484-0.014-0.66c0-0.307,0.011-0.61,0.033-0.909c0.021-0.299,0.055-0.589,0.099-0.87h-6.645v0.91
	c0,0.475,0.158,0.711,0.475,0.711h1.397c0.422,0,0.795-0.083,1.121-0.25l0.065,0.066c-0.123,0.254-0.188,0.619-0.198,1.094v1.146
	c-0.035,0.748-0.299,1.121-0.791,1.121c0.08,0-0.268-0.014-1.041-0.039c-0.264-0.01-0.501-0.012-0.712-0.008
	c-0.211,0.006-0.399,0.016-0.567,0.033c-0.457,0.053-0.756,0.163-0.896,0.33l-0.065-0.066c0.088-0.377,0.151-0.828,0.19-1.352
	c0.041-0.521,0.061-1.122,0.061-1.799v-4.324c0-0.659-0.016-1.334-0.047-2.023s-0.076-1.408-0.139-2.156l0.186-0.025
	c0.211,0.193,0.408,0.729,0.593,1.607c0.158,0.713,0.417,1.068,0.778,1.068h5.339c0.879,0,1.595-0.132,2.149-0.396l0.158,0.053
	c-0.309,1.151-0.462,2.303-0.462,3.454c0,0.87,0.118,2.166,0.356,3.889c0.123,0.871,0.215,1.627,0.276,2.268
	C71.846,22.751,71.877,23.287,71.877,23.718z M81.553,27.884c0.229,0,0.344,0.131,0.344,0.395v0.871
	c0,0.271-0.115,0.408-0.344,0.408h-2.082c0,0.422,0.078,0.809,0.236,1.16l0.304,0.672c0.07,0.158,0.105,0.312,0.105,0.462
	c0,0.308-0.108,0.564-0.323,0.771c-0.215,0.207-0.468,0.311-0.758,0.311c-0.149,0-0.29-0.029-0.422-0.086s-0.248-0.137-0.35-0.236
	c-0.101-0.102-0.18-0.217-0.237-0.344c-0.057-0.127-0.085-0.266-0.085-0.415s0.035-0.304,0.105-0.462l0.289-0.672
	c0.186-0.396,0.277-0.782,0.277-1.16h-2.109c-0.237,0-0.355-0.137-0.355-0.408v-0.871c0-0.264,0.118-0.395,0.355-0.395H81.553z
	 M83.24,10.507c-0.184,1.178-0.276,3.195-0.276,6.052c0,0.352-0.181,0.527-0.54,0.527c-0.098,0-0.214,0-0.35,0
	c-0.137,0-0.301-0.005-0.494-0.013c-0.186-0.01-0.346-0.014-0.481-0.014c-0.137,0-0.253,0-0.35,0c-0.264,0-0.435,0.102-0.515,0.303
	c-0.025,0.115-0.053,0.229-0.078,0.344c-0.027,0.113-0.049,0.229-0.066,0.342l0.844,0.133c0.844,0.113,1.41,0.531,1.701,1.252
	c0.193,0.466,0.289,1.222,0.289,2.268c0,1.266-0.127,2.162-0.382,2.689c-0.387,0.765-1.134,1.146-2.241,1.146h-5.234
	c-0.861,0-1.41,0.04-1.647,0.119c0.105-0.8,0.158-1.143,0.158-1.028v-2.057c0-0.158-0.009-0.318-0.026-0.481
	c-0.018-0.162-0.044-0.332-0.079-0.508c1.116,0.186,1.788,0.277,2.017,0.277c0.309,0,0.69,0,1.147,0s0.993-0.004,1.608-0.014
	c0.615-0.008,1.151-0.013,1.608-0.013s0.839,0,1.147,0c0.229,0,0.342-0.153,0.342-0.462c0-0.369-0.197-0.575-0.593-0.619
	l-2.597-0.25c-0.783-0.062-1.301-0.449-1.557-1.16c-0.148-0.422-0.224-1.135-0.224-2.137c0-0.148-0.044-0.224-0.132-0.224
	l-0.014,0.013c-0.281,0-0.703,0.014-1.266,0.04c-0.281,0.009-0.527,0.016-0.738,0.021c-0.211,0.004-0.387,0.006-0.527,0.006
	c-0.289,0-0.435-0.167-0.435-0.501l-0.026-3.217c-0.009-0.132,0.062-0.255,0.211-0.369c0.149-0.123,0.225-0.281,0.225-0.475v-1.331
	c-0.316-0.133-0.475-0.365-0.475-0.699c0-0.457,0.219-0.686,0.658-0.686c0.457,0,0.686,0.229,0.686,0.686
	c0,0.316-0.136,0.527-0.408,0.633c0.018,0.176,0.031,0.35,0.039,0.521c0.01,0.17,0.018,0.344,0.027,0.52
	c0.061,0.555,0.18,0.831,0.355,0.831c0.185,0,0.369-0.448,0.554-1.345c0.053-0.281,0.105-0.562,0.158-0.844s0.101-0.562,0.146-0.844
	c-0.193-0.202-0.291-0.413-0.291-0.633c0-0.457,0.225-0.686,0.673-0.686s0.673,0.225,0.673,0.672c0,0.396-0.207,0.633-0.62,0.713
	c-0.185,1.783-0.276,2.702-0.276,2.755c0,0.255,0.127,0.382,0.382,0.382c0.211,0,0.399-0.294,0.567-0.883l0.264-1.16
	c-0.133-0.22-0.198-0.413-0.198-0.58c0-0.422,0.224-0.633,0.673-0.633c0.447,0,0.672,0.22,0.672,0.659
	c0,0.457-0.246,0.694-0.738,0.712c-0.07,0.483-0.123,0.853-0.158,1.107s-0.053,0.4-0.053,0.436c0,0.166,0.049,0.25,0.145,0.25
	c0.088,0,0.203-0.07,0.344-0.211V15.9c0,0.765,0.07,1.257,0.211,1.477c0.166,0.246,0.598,0.431,1.291,0.554
	c0.045-0.422,0.08-0.817,0.105-1.187c0.027-0.369,0.04-0.717,0.04-1.041c0-0.854-0.093-1.807-0.276-2.861
	c0.148,0.062,0.733,0.092,1.753,0.092h0.62c0.404,0,0.777-0.347,1.12-1.041c0-0.018,0.198-0.541,0.593-1.568L83.24,10.507z"/>
</svg>
