<?xml version="1.0" encoding="UTF-8" standalone="no"?>
<svg width="170px" height="40px" viewBox="0 0 170 40" version="1.1" xmlns="http://www.w3.org/2000/svg" xmlns:xlink="http://www.w3.org/1999/xlink">
    <!-- Generator: Sketch 49.3 (51167) - http://www.bohemiancoding.com/sketch -->
    <title>btn/tools/print/normal</title>
    <desc>Created with Sketch.</desc>
    <defs></defs>
    <g id="btn/tools/print/normal" stroke="none" stroke-width="1" fill="none" fill-rule="evenodd">
        <rect id="Rectangle" fill="#FA7F8E" x="0" y="0" width="170" height="40" rx="3"></rect>
        <text id="הגדה-להדפסה" font-family="Assistant-SemiBold, Assistant" font-size="20" font-weight="500" fill="#FBF9ED">
            <tspan x="8" y="27">הגדה להדפסה</tspan>
        </text>
        <g id="book" transform="translate(132.000000, 9.000000)" fill="#FBF9ED">
            <g id="Page-1">
                <g id="Group-3">
                    <path d="M0.75974026,2.53479662 C0.75974026,1.42971493 1.71650649,0.719517746 2.8193961,0.956250141 L11.6860714,2.85506704 C12.7884545,3.09179944 13.7044481,3.17112338 13.7044481,3.03131493 C13.7044481,2.89150648 12.8089675,2.58338254 11.7063312,2.34640225 L1.95253247,0.240103662 C0.849642857,0.00337126761 0,0.713568451 0,1.81865014 L0,15.3508192 C0,16.4559008 0.113961039,17.3966332 0.37987013,17.4417487 C0.645779221,17.4863685 0.75974026,16.6187628 0.75974026,15.5136811 L0.75974026,2.53479662 Z" id="Fill-1"></path>
                </g>
                <g id="Group-3-Copy" transform="translate(25.000000, 9.000000) scale(-1, 1) translate(-25.000000, -9.000000) translate(18.000000, 0.000000)">
                    <path d="M0.75974026,2.53479662 C0.75974026,1.42971493 1.71650649,0.719517746 2.8193961,0.956250141 L11.6860714,2.85506704 C12.7884545,3.09179944 13.7044481,3.17112338 13.7044481,3.03131493 C13.7044481,2.89150648 12.8089675,2.58338254 11.7063312,2.34640225 L1.95253247,0.240103662 C0.849642857,0.00337126761 0,0.713568451 0,1.81865014 L0,15.3508192 C0,16.4559008 0.113961039,17.3966332 0.37987013,17.4417487 C0.645779221,17.4863685 0.75974026,16.6187628 0.75974026,15.5136811 L0.75974026,2.53479662 Z" id="Fill-1"></path>
                </g>
                <path d="M16.0714286,20.4306091 C16.0714286,21.5828499 15.1319013,22.3654845 14.0136831,22.1700843 L4.14851948,20.4533541 C3.03055584,20.2579539 2.07142857,19.1550801 2.07142857,18.0028394 L2.07142857,3.89370543 C2.07142857,2.74146467 3.00993766,2.00044307 4.11848312,2.24753642 L14.0157195,4.4434623 C15.1240104,4.69081412 16.0714286,5.83530091 16.0714286,6.98754168 L16.0714286,20.4306091 Z" id="Fill-7"></path>
                <path d="M16,20.4306091 C16,21.5828499 16.9068889,22.3654845 18.0458148,22.1700843 L27.9886667,20.4533541 C29.1275926,20.2579539 30,19.1550801 30,18.0028394 L30,3.89370543 C30,2.74146467 29.1234444,2.00044307 27.9946296,2.24753642 L18.0038148,4.4434623 C16.875,4.69081412 16,5.83530091 16,6.98754168 L16,20.4306091 Z" id="Fill-9"></path>
                <path d="M18,22.1428571 C18,22.6142857 17.4857143,23 16.8571429,23 L15.1428571,23 C14.5142857,23 14,22.6142857 14,22.1428571 L14,20.8571429 C14,20.3857143 14.5142857,20 15.1428571,20 L16.8571429,20 C17.4857143,20 18,20.3857143 18,20.8571429 L18,22.1428571 Z" id="Fill-11"></path>
                <polygon id="Fill-13" points="14 9 17.2142857 9 17.2142857 6 14 6"></polygon>
            </g>
        </g>
    </g>
</svg>