<?xml version="1.0" encoding="UTF-8" standalone="no"?>
<svg width="25px" height="25px" viewBox="0 0 25 25" version="1.1" xmlns="http://www.w3.org/2000/svg" xmlns:xlink="http://www.w3.org/1999/xlink">
    <!-- Generator: Sketch 48.2 (47327) - http://www.bohemiancoding.com/sketch -->
    <title>btn/live_text_close/search/selected</title>
    <desc>Created with Sketch.</desc>
    <defs></defs>
    <g id="Symboles" stroke="none" stroke-width="1" fill="none" fill-rule="evenodd">
        <g id="btn/live_text_close/search/selected" fill="#384C62">
            <g id="Group">
                <path d="M10.5,21 C4.70101013,21 0,16.2989899 0,10.5 C0,4.70101013 4.70101013,0 10.5,0 C16.2989899,0 21,4.70101013 21,10.5 C21,16.2989899 16.2989899,21 10.5,21 Z M10.5,18 C14.6421356,18 18,14.6421356 18,10.5 C18,6.35786438 14.6421356,3 10.5,3 C6.35786438,3 3,6.35786438 3,10.5 C3,14.6421356 6.35786438,18 10.5,18 Z" id="Combined-Shape"></path>
                <path d="M24.2923331,22.5469669 L17.6189079,16.4130102 C17.0197965,15.8623299 16.048445,15.8623299 15.4493336,16.4130102 C14.8502221,16.9636904 14.8502221,17.8565195 15.4493336,18.4071998 L22.1227588,24.5411565 C22.7218702,25.0918367 23.6932217,25.0918367 24.2923331,24.5411565 C24.8914445,23.9904762 24.8914445,23.0976471 24.2923331,22.5469669 Z" id="Shape"></path>
            </g>
        </g>
    </g>
</svg>