<?xml version="1.0" encoding="UTF-8" standalone="no"?>
<svg width="17px" height="20px" viewBox="0 0 17 20" version="1.1" xmlns="http://www.w3.org/2000/svg" xmlns:xlink="http://www.w3.org/1999/xlink">
    <!-- Generator: Sketch 49.3 (51167) - http://www.bohemiancoding.com/sketch -->
    <title>img/info/open_end_text/normal</title>
    <desc>Created with Sketch.</desc>
    <defs></defs>
    <g id="img/info/open_end_text/normal" stroke="none" stroke-width="1" fill="none" fill-rule="evenodd">
        <path d="M16.8690021,6.2816884 C16.7041004,7.97571225 16.1631216,9.69343186 15.2456185,11.4341021 L13.163446,14.6809439 C12.2222472,16.1400219 10.6578794,17.7634056 8.46974665,19.5510948 L8.57563245,18.3158597 C10.7636907,15.9867446 11.8691951,13.7281207 11.8929654,11.5399879 C11.9160651,10.387539 11.6691224,9.38724976 11.1518393,8.54031235 C10.6578794,7.81140669 10.0694345,7.35261788 9.38724976,7.16394592 C9.76347595,6.88168312 10.1460359,6.47028585 10.5343336,5.92885991 C10.9224822,5.38788107 11.3399151,4.71732065 11.7870796,3.91732768 C12.5866255,2.41190129 13.11598,1.10610055 13.3751431,0 C14.6218535,0.658936081 15.586301,1.7529652 16.2690074,3.28193834 C16.7631908,4.45875362 16.9626675,5.45844676 16.8690021,6.2816884 M8.39925547,6.2816884 C8.23427927,7.99948253 7.681229,9.71712763 6.74047721,11.4341021 C6.71678145,11.4815681 6.53436874,11.7694196 6.19346265,12.2987741 C5.85210947,12.8281286 5.34048953,13.6222349 4.6584538,14.6809439 C3.76405034,16.1400219 2.21115789,17.7634056 0,19.5510948 L0.105885805,18.3158597 C2.29394405,15.9867446 3.39944848,13.7281207 3.42321877,11.5399879 C3.44639293,10.4344835 3.18775139,9.43464129 2.64677254,8.54031235 C2.19953356,7.81140669 1.62338363,7.35261788 0.917652136,7.16394592 C1.2937293,6.88168312 1.67621476,6.47028585 2.06451239,5.92885991 C2.45266099,5.38788107 2.87009398,4.71732065 3.31733296,3.91732768 C3.7171059,3.16457723 4.04631314,2.4586967 4.30547628,1.79976062 C4.56404331,1.14149517 4.75204463,0.541425937 4.87022541,0 C6.16373117,0.658936081 7.12877484,1.7529652 7.76401515,3.28193834 C8.25797504,4.43505785 8.46974665,5.43467648 8.39925547,6.2816884" id="Fill-1" fill="#FA7F8E"></path>
    </g>
</svg>