<?xml version="1.0" encoding="UTF-8" standalone="no"?>
<svg width="94px" height="34px" viewBox="0 0 94 34" version="1.1" xmlns="http://www.w3.org/2000/svg" xmlns:xlink="http://www.w3.org/1999/xlink">
    <!-- Generator: Sketch 49.3 (51167) - http://www.bohemiancoding.com/sketch -->
    <title>btn/chp14/selected</title>
    <desc>Created with Sketch.</desc>
    <defs></defs>
    <g id="btn/chp14/selected" stroke="none" stroke-width="1" fill="none" fill-rule="evenodd">
        <path d="M91.2375486,9.689 C91.0965486,9.988 90.8335486,10.136 90.4465486,10.136 L90.2605486,10.98 C90.2005486,11.236 90.2085486,11.398 90.2885486,11.468 C90.4015486,11.539 90.6615486,11.464 91.0655486,11.244 C90.9605486,12.052 90.9075486,12.832 90.9075486,13.578 C90.9165486,14.334 90.9685486,15.099 91.0655486,15.873 C90.8895486,15.775 90.6045486,15.726 90.2085486,15.726 C89.9625486,15.726 89.8085486,15.793 89.7475486,15.925 C89.6945486,16.021 89.6945486,16.154 89.7475486,16.32 L90.0775486,17.322 L90.7625486,19.378 C90.9815486,20.144 91.0915486,20.806 91.0915486,21.369 C91.0915486,22.107 90.9165486,22.718 90.5645486,23.203 C90.1695486,23.748 89.6205486,24.019 88.9175486,24.019 C88.7415486,24.019 88.5145486,24.023 88.2375486,24.033 C87.9605486,24.041 87.6375486,24.054 87.2685486,24.072 C86.5045486,24.107 85.8885486,24.226 85.4235486,24.427 L85.3175486,24.349 C85.6515486,23.277 85.8235486,22.265 85.8315486,21.316 C85.8415486,20.675 85.7535486,20.011 85.5675486,19.326 C85.5425486,19.248 85.5675486,19.203 85.6475486,19.195 C85.7175486,19.177 85.7705486,19.185 85.8055486,19.22 C86.1225486,19.459 86.4735486,19.582 86.8605486,19.589 L88.2845486,19.589 L88.5875486,19.589 C88.7015486,19.554 88.7545486,19.392 88.7455486,19.101 L88.6135486,16.623 C88.5785486,16.007 88.1385486,15.701 87.2955486,15.701 L86.9915486,15.701 C86.5165486,15.701 86.1305486,15.785 85.8315486,15.951 C85.9715486,15.31 86.0425486,14.597 86.0425486,13.816 C86.0425486,12.814 85.9465486,11.929 85.7535486,11.166 L85.9115486,11.271 C86.0595486,11.384 86.2315486,11.443 86.4255486,11.443 C86.5305486,11.443 86.6115486,11.416 86.6695486,11.363 C86.7255486,11.31 86.7455486,11.236 86.7275486,11.138 L86.7555486,9.742 C86.4115486,9.601 86.2405486,9.355 86.2405486,9.003 C86.2225486,8.502 86.4565486,8.252 86.9385486,8.252 C87.4585486,8.252 87.7165486,8.502 87.7165486,9.003 C87.7165486,9.345 87.5675486,9.574 87.2685486,9.689 L87.3475486,10.927 C87.3565486,11.201 87.4705486,11.328 87.6905486,11.31 C87.9015486,11.285 88.0385486,11.148 88.0985486,10.902 L88.7455486,8.437 C88.4905486,8.156 88.3625486,7.918 88.3625486,7.724 C88.3625486,7.531 88.4395486,7.363 88.5925486,7.216 C88.7475486,7.072 88.9215486,7 89.1145486,7 C89.6065486,7 89.8525486,7.253 89.8525486,7.763 C89.8525486,8.16 89.6455486,8.406 89.2335486,8.502 L88.9425486,10.927 C88.9075486,11.173 88.9955486,11.32 89.2065486,11.363 C89.3915486,11.39 89.5275486,11.296 89.6155486,11.085 L90.0505486,10.005 C89.8135486,9.627 89.7475486,9.324 89.8525486,9.095 C89.9935486,8.779 90.2305486,8.621 90.5645486,8.621 C91.0565486,8.621 91.3025486,8.871 91.3025486,9.373 C91.3025486,9.478 91.2805486,9.584 91.2375486,9.689 Z M90.0775486,27.144 C90.0775486,27.451 89.9545486,27.724 89.7085486,27.96 C89.4695486,28.207 89.1985486,28.33 88.8895486,28.33 C88.5735486,28.33 88.2925486,28.207 88.0465486,27.96 C87.7995486,27.724 87.6765486,27.451 87.6765486,27.144 C87.6765486,26.986 87.7105486,26.835 87.7765486,26.695 C87.8425486,26.554 87.9325486,26.431 88.0465486,26.326 C88.1615486,26.22 88.2905486,26.138 88.4345486,26.076 C88.5815486,26.015 88.7315486,25.984 88.8895486,25.984 C89.2335486,25.984 89.5165486,26.095 89.7415486,26.32 C89.9645486,26.544 90.0775486,26.818 90.0775486,27.144 Z M83.8545486,16.136 C83.8545486,18.457 83.7355486,20.226 83.4985486,21.449 C83.2605486,22.679 82.8745486,23.589 82.3385486,24.177 C82.1625486,24.388 82.0265486,24.48 81.9285486,24.455 C81.8335486,24.427 81.8055486,24.3 81.8505486,24.072 C81.9215486,23.572 81.9775486,23.068 82.0215486,22.562 C82.0655486,22.058 82.0915486,21.537 82.1005486,21 C82.1185486,19.287 82.0345486,18.07 81.8505486,17.349 C81.6925486,16.699 81.4115486,16.277 81.0075486,16.084 C80.7255486,15.943 80.2585486,15.873 79.6085486,15.873 L77.1575486,15.873 C76.2605486,15.873 75.5225486,15.978 74.9425486,16.189 C74.8725486,16.214 74.8145486,16.228 74.7705486,16.228 C74.6305486,16.228 74.6085486,16.035 74.7045486,15.648 C74.7745486,15.322 74.8255486,14.951 74.8565486,14.535 C74.8865486,14.117 74.8975486,13.644 74.8895486,13.117 C74.8625486,11.851 74.7175486,10.564 74.4545486,9.253 C74.4195486,9.07 74.4545486,8.968 74.5595486,8.951 C74.6565486,8.951 74.7395486,9.025 74.8095486,9.175 C74.9855486,9.58 75.1265486,9.894 75.2315486,10.117 C75.3375486,10.341 75.4035486,10.476 75.4295486,10.519 C75.7555486,11.082 76.1155486,11.363 76.5105486,11.363 L79.8595486,11.363 C81.2215486,11.363 82.1745486,11.613 82.7195486,12.115 C83.4755486,12.818 83.8545486,14.158 83.8545486,16.136 Z M83.8275486,30.691 C83.8275486,30.839 83.7975486,30.982 83.7355486,31.119 C83.6745486,31.255 83.5925486,31.376 83.4915486,31.482 C83.3895486,31.587 83.2715486,31.669 83.1355486,31.732 C82.9995486,31.793 82.8525486,31.824 82.6945486,31.824 C82.5365486,31.824 82.3855486,31.793 82.2455486,31.732 C82.1045486,31.669 81.9815486,31.587 81.8765486,31.482 C81.7705486,31.376 81.6875486,31.255 81.6265486,31.119 C81.5645486,30.982 81.5345486,30.839 81.5345486,30.691 C81.5345486,30.533 81.5675486,30.386 81.6325486,30.255 C81.6985486,30.123 81.7845486,30.007 81.8895486,29.906 C81.9955486,29.804 82.1185486,29.726 82.2585486,29.669 C82.3995486,29.611 82.5445486,29.584 82.6945486,29.584 C83.0185486,29.584 83.2895486,29.691 83.5055486,29.906 C83.7195486,30.121 83.8275486,30.382 83.8275486,30.691 Z M83.8275486,27.144 C83.8275486,27.302 83.7975486,27.449 83.7355486,27.585 C83.6745486,27.722 83.5925486,27.839 83.4915486,27.941 C83.3895486,28.043 83.2715486,28.125 83.1355486,28.185 C82.9995486,28.248 82.8525486,28.277 82.6945486,28.277 C82.5365486,28.277 82.3855486,28.248 82.2455486,28.185 C82.1045486,28.125 81.9815486,28.043 81.8765486,27.941 C81.7705486,27.839 81.6875486,27.722 81.6265486,27.585 C81.5645486,27.449 81.5345486,27.302 81.5345486,27.144 C81.5345486,26.986 81.5675486,26.841 81.6325486,26.709 C81.6985486,26.578 81.7845486,26.46 81.8895486,26.359 C81.9955486,26.257 82.1185486,26.179 82.2585486,26.123 C82.3995486,26.064 82.5445486,26.037 82.6945486,26.037 C83.0185486,26.037 83.2895486,26.144 83.5055486,26.359 C83.7195486,26.574 83.8275486,26.835 83.8275486,27.144 Z M73.4255486,12.919 C73.4615486,13.455 73.2375486,14.105 72.7535486,14.871 C72.6125486,15.082 72.3515486,15.439 71.9685486,15.945 C71.5875486,16.451 71.0755486,17.107 70.4325486,17.916 C71.7335486,18.671 72.4815486,19.453 72.6755486,20.261 C72.7275486,20.49 72.7535486,20.753 72.7535486,21.052 C72.7535486,22.24 72.6045486,22.982 72.3055486,23.281 C72.0145486,23.572 71.7335486,23.755 71.4625486,23.835 C71.1805486,23.906 70.6925486,23.941 69.9985486,23.941 L66.8995486,23.941 C66.0655486,23.941 65.2605486,24.019 64.4875486,24.177 C64.2585486,24.222 64.0655486,24.265 63.9075486,24.31 C63.7495486,24.353 63.6225486,24.392 63.5245486,24.427 L63.6825486,23.597 C63.7705486,23.158 63.8155486,22.757 63.8155486,22.398 L63.8155486,21.316 C63.8155486,20.701 63.7175486,20.109 63.5245486,19.537 C63.9815486,19.634 64.3255486,19.709 64.5535486,19.761 C64.7825486,19.814 64.9055486,19.839 64.9235486,19.839 L68.4035486,19.839 C68.7195486,19.839 68.9255486,19.775 69.0225486,19.642 C69.1635486,19.459 69.0135486,19.216 68.5745486,18.918 C67.8005486,18.408 67.1415486,17.877 66.5965486,17.322 C65.9995486,16.724 65.5505486,16.113 65.2525486,15.49 L63.8935486,15.49 C63.4195486,15.49 63.0245486,15.568 62.7085486,15.726 C62.8565486,15.033 62.9315486,14.334 62.9315486,13.63 C62.9235486,13.183 62.8935486,12.755 62.8455486,12.351 C62.7985486,11.947 62.7255486,11.552 62.6285486,11.166 L62.7865486,11.271 C62.9445486,11.384 63.1335486,11.433 63.3535486,11.416 C63.5475486,11.39 63.6305486,11.296 63.6045486,11.138 L63.6305486,9.742 C63.2705486,9.591 63.0905486,9.345 63.0905486,9.003 C63.0725486,8.502 63.3235486,8.252 63.8415486,8.252 C64.3335486,8.252 64.5795486,8.502 64.5795486,9.003 C64.5795486,9.345 64.4345486,9.574 64.1445486,9.689 L64.2505486,10.927 C64.2765486,11.209 64.3955486,11.337 64.6065486,11.31 C64.7725486,11.285 64.8875486,11.148 64.9485486,10.902 L65.5945486,8.437 C65.3135486,8.138 65.2085486,7.861 65.2785486,7.605 C65.3665486,7.201 65.6125486,7 66.0165486,7 C66.5085486,7 66.7555486,7.253 66.7555486,7.763 C66.7555486,8.168 66.5405486,8.414 66.1085486,8.502 L65.8195486,10.927 C65.7925486,11.138 65.8625486,11.275 66.0305486,11.337 C66.2495486,11.416 66.4035486,11.332 66.4915486,11.085 L66.9265486,10.005 C66.6885486,9.627 66.6235486,9.324 66.7285486,9.095 C66.8695486,8.779 67.1065486,8.621 67.4405486,8.621 C67.9155486,8.621 68.1525486,8.867 68.1525486,9.359 C68.1525486,9.464 68.1305486,9.574 68.0875486,9.689 C67.9465486,9.988 67.7045486,10.136 67.3615486,10.136 L67.1635486,10.98 C67.0925486,11.296 67.1205486,11.468 67.2435486,11.496 C67.3665486,11.521 67.6025486,11.437 67.9545486,11.244 C67.9115486,11.587 67.8765486,11.943 67.8485486,12.312 C67.8235486,12.681 67.8095486,13.064 67.8095486,13.459 C67.8185486,13.802 67.8365486,14.154 67.8625486,14.513 C67.8885486,14.875 67.9285486,15.251 67.9815486,15.648 C67.8135486,15.56 67.5075486,15.515 67.0575486,15.515 L66.5965486,15.515 C66.9745486,15.912 67.3265486,16.228 67.6515486,16.464 C68.1525486,16.826 68.7625486,17.156 69.4835486,17.455 C69.5715486,17.314 69.6715486,17.148 69.7805486,16.96 C69.8895486,16.771 70.0155486,16.548 70.1565486,16.294 C70.2795486,16.031 70.3375486,15.796 70.3275486,15.595 C70.3095486,15.296 70.2095486,15.046 70.0245486,14.843 C69.8835486,14.72 69.7085486,14.558 69.4975486,14.355 C69.2865486,14.154 69.0405486,13.912 68.7585486,13.63 C68.6535486,13.525 68.5915486,13.433 68.5745486,13.353 C68.5565486,13.283 68.6975486,13.138 68.9965486,12.919 C69.7165486,12.41 70.1865486,11.847 70.4075486,11.232 C70.6785486,10.414 70.7585486,9.531 70.6435486,8.582 C70.6185486,8.326 70.6665486,8.199 70.7895486,8.199 C70.8685486,8.199 70.9565486,8.265 71.0525486,8.396 C71.1405486,8.511 71.2865486,8.976 71.4875486,9.794 C71.5505486,10.076 71.7165486,10.378 71.9895486,10.705 C72.0775486,10.8 72.1605486,10.892 72.2395486,10.98 C72.3185486,11.068 72.4015486,11.156 72.4895486,11.244 L72.8055486,11.654 C73.1925486,12.146 73.3995486,12.568 73.4255486,12.919 Z M71.1455486,26.287 C71.3745486,26.287 71.4875486,26.419 71.4875486,26.683 L71.4875486,27.552 C71.4875486,27.826 71.3745486,27.96 71.1455486,27.96 L69.0615486,27.96 C69.0615486,28.382 69.1415486,28.769 69.3005486,29.121 L69.6025486,29.794 C69.6735486,29.953 69.7085486,30.105 69.7085486,30.255 C69.7085486,30.562 69.6005486,30.82 69.3845486,31.027 C69.1695486,31.232 68.9175486,31.335 68.6275486,31.335 C68.4775486,31.335 68.3375486,31.308 68.2055486,31.251 C68.0735486,31.193 67.9575486,31.115 67.8555486,31.013 C67.7555486,30.912 67.6755486,30.798 67.6185486,30.671 C67.5615486,30.543 67.5325486,30.404 67.5325486,30.255 C67.5325486,30.105 67.5675486,29.953 67.6375486,29.794 L67.9285486,29.121 C68.1125486,28.726 68.2055486,28.339 68.2055486,27.96 L66.0955486,27.96 C65.8585486,27.96 65.7395486,27.826 65.7395486,27.552 L65.7395486,26.683 C65.7395486,26.419 65.8585486,26.287 66.0955486,26.287 L71.1455486,26.287 Z M53.7685486,20.302 C53.6375486,20.714 53.5455486,21.558 53.4925486,22.834 C53.4745486,23.168 53.4695486,23.472 53.4795486,23.75 C53.4875486,24.027 53.5015486,24.269 53.5185486,24.48 C52.5345486,24.48 51.8445486,24.388 51.4485486,24.205 C50.7275486,23.878 50.3685486,23.123 50.3685486,21.937 C50.3685486,21.136 50.5305486,20.412 50.8555486,19.761 C51.0575486,19.339 51.2595486,18.972 51.4625486,18.66 C51.6645486,18.349 51.8665486,18.091 52.0685486,17.888 C52.2615486,17.695 52.4075486,17.652 52.5035486,17.757 C52.5735486,17.835 52.4905486,18.113 52.2535486,18.587 C52.0425486,19.027 51.9365486,19.396 51.9365486,19.695 C51.9365486,19.863 52.0155486,20.025 52.1745486,20.183 C52.3495486,20.367 52.6085486,20.468 52.9525486,20.486 C53.2415486,20.496 53.5145486,20.433 53.7685486,20.302 Z M61.4025486,10.875 C61.2355486,11.314 61.1085486,11.828 61.0205486,12.412 C60.9325486,12.996 60.8805486,13.662 60.8625486,14.408 C60.8525486,14.654 60.8575486,14.898 60.8755486,15.14 C60.8925486,15.382 60.9195486,15.617 60.9545486,15.845 L60.8095486,15.925 C60.5985486,15.793 60.3035486,15.718 59.9255486,15.701 C59.4515486,15.701 59.2145486,15.824 59.2145486,16.07 C59.2145486,16.13 59.2355486,16.197 59.2805486,16.267 L60.9805486,19.589 C61.2355486,20.117 61.3585486,20.658 61.3495486,21.21 C61.3325486,22.539 60.8225486,23.601 59.8205486,24.402 L59.5445486,24.613 C59.3935486,24.736 59.3155486,24.709 59.3055486,24.533 L58.0805486,15.925 L52.9525486,15.925 C51.8175486,15.925 51.0015486,16.013 50.4995486,16.189 C50.3585486,16.242 50.2665486,16.232 50.2225486,16.162 C50.1785486,16.101 50.1925486,15.929 50.2625486,15.648 C50.4115486,14.953 50.4735486,14.074 50.4465486,13.011 C50.4215486,11.789 50.2755486,10.537 50.0115486,9.253 C49.9855486,9.123 50.0035486,9.029 50.0645486,8.976 C50.1705486,8.906 50.2705486,8.972 50.3685486,9.175 C50.5515486,9.587 50.6975486,9.904 50.8025486,10.125 C50.9085486,10.343 50.9695486,10.476 50.9875486,10.519 C51.3125486,11.082 51.6735486,11.363 52.0685486,11.363 L53.1235486,11.363 L53.1235486,9.873 C52.8335486,9.679 52.6885486,9.457 52.6885486,9.201 C52.6885486,8.691 52.9295486,8.437 53.4135486,8.437 C53.9145486,8.437 54.1655486,8.691 54.1655486,9.201 C54.1655486,9.527 54.0075486,9.759 53.6905486,9.9 L53.6905486,11.363 L59.7555486,11.363 C60.4585486,11.363 60.9545486,11.144 61.2445486,10.705 L61.4025486,10.875 Z" id="Fill-31" fill="#FBF9ED"></path>
    </g>
</svg>