<?xml version="1.0" encoding="UTF-8" standalone="no"?>
<svg width="94px" height="34px" viewBox="0 0 94 34" version="1.1" xmlns="http://www.w3.org/2000/svg" xmlns:xlink="http://www.w3.org/1999/xlink">
    <!-- Generator: Sketch 49.3 (51167) - http://www.bohemiancoding.com/sketch -->
    <title>btn/chp3/hover</title>
    <desc>Created with Sketch.</desc>
    <defs></defs>
    <g id="btn/chp3/hover" stroke="none" stroke-width="1" fill="none" fill-rule="evenodd">
        <path d="M86.627,17.083 C86.627,17.241 86.597,17.389 86.535,17.525 C86.474,17.661 86.393,17.78 86.291,17.88 C86.19,17.982 86.071,18.063 85.936,18.125 C85.799,18.186 85.652,18.217 85.494,18.217 C85.336,18.217 85.188,18.186 85.052,18.125 C84.916,18.063 84.797,17.982 84.696,17.88 C84.595,17.78 84.514,17.661 84.452,17.525 C84.391,17.389 84.359,17.241 84.359,17.083 C84.359,16.802 84.479,16.547 84.716,16.318 C84.962,16.09 85.221,15.976 85.494,15.976 C85.818,15.976 86.089,16.079 86.305,16.286 C86.52,16.492 86.627,16.758 86.627,17.083 Z M91.348,17.109 C91.348,18.639 91.102,19.97 90.609,21.104 C89.941,22.616 88.93,23.372 87.576,23.372 C87.463,23.372 86.926,23.358 85.969,23.332 C85.266,23.306 84.693,23.306 84.254,23.332 C83.947,23.35 83.663,23.385 83.404,23.437 C83.145,23.49 82.914,23.552 82.712,23.622 L82.647,23.596 C82.77,23.227 82.83,22.686 82.83,21.974 L82.83,20.247 C82.83,19.869 82.777,19.526 82.672,19.219 L82.738,19.192 C82.958,19.271 83.332,19.311 83.859,19.311 L87.537,19.311 C88.328,19.311 88.957,19.122 89.422,18.744 C89.932,18.34 90.188,17.751 90.188,16.978 C90.188,15.545 89.221,14.829 87.287,14.829 L83.213,14.829 C82.853,14.829 82.672,14.653 82.672,14.301 L82.672,8.777 L82.988,8.777 C82.988,10.043 83.468,10.676 84.426,10.676 L87.827,10.676 C89.304,10.676 90.311,11.432 90.846,12.943 C91.18,13.893 91.348,15.281 91.348,17.109 Z M80.932,14.104 C80.932,15.229 80.924,16.187 80.906,16.978 C80.889,17.769 80.861,18.406 80.826,18.889 C80.678,20.981 80.356,22.528 79.864,23.53 C79.741,23.793 79.653,23.925 79.601,23.925 C79.504,23.925 79.438,23.763 79.402,23.437 C79.359,23.051 79.324,22.585 79.297,22.04 C79.272,21.495 79.249,20.867 79.231,20.155 C79.214,19.329 79.196,18.641 79.179,18.091 C79.161,17.542 79.144,17.118 79.126,16.819 C79.056,16.02 78.968,15.523 78.862,15.33 C78.66,14.969 78.225,14.789 77.557,14.789 L73.668,14.789 C73.448,14.789 73.158,14.833 72.798,14.921 C72.411,15 72.152,15.04 72.02,15.04 C71.977,15.04 71.954,15.018 71.954,14.974 C71.954,14.93 71.965,14.84 71.986,14.704 C72.009,14.567 72.042,14.385 72.086,14.156 C72.139,13.901 72.178,13.695 72.205,13.537 C72.231,13.378 72.248,13.269 72.258,13.207 L72.758,8.751 L73.035,8.751 C73.035,10.061 73.756,10.715 75.197,10.715 C75.329,10.715 75.5,10.708 75.711,10.696 C75.922,10.682 76.173,10.667 76.463,10.649 C76.753,10.632 77.006,10.617 77.221,10.603 C77.436,10.59 77.619,10.583 77.768,10.583 C78.752,10.583 79.49,10.794 79.982,11.216 C80.615,11.761 80.932,12.724 80.932,14.104 Z M81.381,30.122 C81.381,30.271 81.35,30.414 81.288,30.55 C81.227,30.686 81.145,30.807 81.045,30.913 C80.943,31.018 80.824,31.102 80.688,31.163 C80.552,31.225 80.404,31.255 80.246,31.255 C80.088,31.255 79.94,31.225 79.799,31.163 C79.658,31.102 79.535,31.018 79.43,30.913 C79.324,30.807 79.24,30.686 79.179,30.55 C79.117,30.414 79.086,30.271 79.086,30.122 C79.086,29.963 79.119,29.818 79.186,29.687 C79.252,29.555 79.337,29.438 79.442,29.337 C79.548,29.236 79.671,29.157 79.812,29.1 C79.952,29.042 80.098,29.014 80.246,29.014 C80.572,29.014 80.842,29.122 81.057,29.337 C81.273,29.552 81.381,29.814 81.381,30.122 Z M81.381,26.575 C81.381,26.733 81.35,26.88 81.288,27.017 C81.227,27.153 81.145,27.271 81.045,27.373 C80.943,27.474 80.824,27.555 80.688,27.617 C80.552,27.678 80.404,27.709 80.246,27.709 C80.088,27.709 79.94,27.678 79.799,27.617 C79.658,27.555 79.535,27.474 79.43,27.373 C79.324,27.271 79.24,27.153 79.179,27.017 C79.117,26.88 79.086,26.733 79.086,26.575 C79.086,26.417 79.119,26.272 79.186,26.14 C79.252,26.008 79.337,25.892 79.442,25.791 C79.548,25.689 79.671,25.61 79.812,25.553 C79.952,25.496 80.098,25.468 80.246,25.468 C80.572,25.468 80.842,25.575 81.057,25.791 C81.273,26.006 81.381,26.268 81.381,26.575 Z M68.275,17.742 C68.275,17.9 68.245,18.048 68.184,18.184 C68.122,18.32 68.041,18.439 67.94,18.54 C67.838,18.641 67.72,18.722 67.584,18.784 C67.447,18.845 67.301,18.876 67.143,18.876 C66.984,18.876 66.836,18.845 66.7,18.784 C66.565,18.722 66.445,18.641 66.345,18.54 C66.243,18.439 66.162,18.32 66.101,18.184 C66.039,18.048 66.008,17.9 66.008,17.742 C66.008,17.461 66.127,17.206 66.364,16.978 C66.61,16.749 66.869,16.635 67.143,16.635 C67.467,16.635 67.737,16.738 67.953,16.945 C68.168,17.151 68.275,17.417 68.275,17.742 Z M70.847,21.552 C70.847,22.765 70.574,23.622 70.029,24.123 C69.511,24.589 68.645,24.822 67.432,24.822 L62.344,24.822 C61.869,24.822 61.442,24.936 61.065,25.165 L61.012,25.099 C61.152,24.809 61.223,24.426 61.223,23.952 L61.223,21.974 C61.223,21.464 61.152,21.086 61.012,20.84 L61.065,20.748 C61.179,20.889 61.46,20.959 61.908,20.959 L67.959,20.959 C68.75,20.959 69.147,20.493 69.147,19.562 C69.147,19.386 69.142,19.168 69.133,18.909 C69.124,18.65 69.111,18.344 69.094,17.993 C69.076,17.641 69.063,17.333 69.054,17.07 C69.045,16.806 69.041,16.586 69.041,16.411 C69.041,16.103 69.051,15.8 69.073,15.501 C69.096,15.202 69.129,14.912 69.172,14.631 L62.527,14.631 L62.527,15.541 C62.527,16.015 62.686,16.252 63.002,16.252 L64.4,16.252 C64.822,16.252 65.195,16.169 65.521,16.002 L65.586,16.068 C65.463,16.323 65.398,16.687 65.389,17.162 L65.389,18.309 C65.354,19.056 65.09,19.43 64.598,19.43 C64.677,19.43 64.33,19.416 63.557,19.39 C63.293,19.381 63.055,19.379 62.844,19.383 C62.633,19.388 62.444,19.399 62.277,19.416 C61.82,19.469 61.522,19.579 61.381,19.746 L61.315,19.68 C61.402,19.302 61.467,18.852 61.506,18.329 C61.546,17.806 61.565,17.206 61.565,16.529 L61.565,12.205 C61.565,11.546 61.55,10.872 61.52,10.181 C61.488,9.492 61.442,8.773 61.381,8.026 L61.565,8 C61.776,8.193 61.975,8.729 62.158,9.608 C62.316,10.32 62.576,10.676 62.937,10.676 L68.275,10.676 C69.154,10.676 69.871,10.544 70.425,10.28 L70.583,10.333 C70.275,11.484 70.121,12.636 70.121,13.787 C70.121,14.657 70.24,15.954 70.478,17.676 C70.601,18.546 70.693,19.302 70.754,19.944 C70.816,20.585 70.847,21.122 70.847,21.552 Z M64.281,27.393 C64.044,27.393 63.926,27.256 63.926,26.984 L63.926,26.114 C63.926,25.85 64.044,25.718 64.281,25.718 L69.33,25.718 C69.559,25.718 69.674,25.85 69.674,26.114 L69.674,26.984 C69.674,27.256 69.559,27.393 69.33,27.393 L64.281,27.393 Z M58.361,16.2 C58.361,15.286 57.844,14.829 56.807,14.829 C53.484,14.829 51.516,14.815 50.9,14.789 C50.82,15.132 50.781,15.382 50.781,15.541 C50.781,16.156 50.992,16.753 51.414,17.333 C51.537,17.5 51.711,17.705 51.935,17.947 C52.159,18.188 52.438,18.463 52.772,18.77 C53.106,19.078 53.383,19.353 53.603,19.594 C53.822,19.836 53.994,20.045 54.117,20.221 C54.389,19.913 54.934,19.544 55.752,19.113 C56.631,18.647 57.219,18.278 57.518,18.006 C58.08,17.505 58.361,16.903 58.361,16.2 Z M59.574,15.105 C59.574,17.312 59.157,19.056 58.322,20.339 C57.848,21.078 56.99,21.864 55.752,22.699 C54.652,23.437 53.972,24.105 53.708,24.703 L53.615,24.703 C53.475,24.308 53.291,23.982 53.063,23.728 L52.284,22.937 C51.273,21.82 50.623,21.025 50.333,20.55 C49.797,19.689 49.529,18.718 49.529,17.637 C49.529,16.529 49.695,15.593 50.029,14.829 C49.115,14.829 48.566,15.026 48.382,15.422 L48.25,15.237 C48.505,14.429 48.633,13.532 48.633,12.548 C48.633,11.326 48.422,10.109 48,8.896 L48.224,8.751 C48.443,9.199 48.777,9.621 49.226,10.017 C49.735,10.438 50.223,10.649 50.689,10.649 L56.674,10.649 C57.844,10.649 58.652,11.124 59.1,12.073 C59.416,12.75 59.574,13.761 59.574,15.105 Z" id="Fill-4" fill="#384C62"></path>
    </g>
</svg>