<?xml version="1.0" encoding="UTF-8" standalone="no"?>
<svg width="25px" height="20px" viewBox="0 0 25 20" version="1.1" xmlns="http://www.w3.org/2000/svg" xmlns:xlink="http://www.w3.org/1999/xlink">
    <!-- Generator: Sketch 49.3 (51167) - http://www.bohemiancoding.com/sketch -->
    <title>btn/player/volume/selected</title>
    <desc>Created with Sketch.</desc>
    <defs></defs>
    <g id="btn/player/volume/selected" stroke="none" stroke-width="1" fill="none" fill-rule="evenodd">
        <path d="M16.6580387,2.05667507 L16.6580387,3.16115953 C19.8070144,3.76962126 22.0207358,6.34603435 22.0207358,9.58040385 C22.0207358,12.7964818 19.8756569,15.2878932 16.6580387,15.9996482 L16.6580387,17.1046706 C20.2918022,16.5709889 23.0932752,13.4232351 23.0932752,9.58040385 C23.0932752,5.73757262 20.2918022,2.58981881 16.6580387,2.05667507 L16.6580387,2.05667507 Z M12.0103679,1 L7.00518394,4.33702764 L7.00518394,14.823603 L12.0103679,18.1606307 C12.7997569,18.1606307 13.4404204,17.5199671 13.4404204,16.7305781 L13.4404204,2.43005255 C13.4404204,1.64066354 12.7997569,1 12.0103679,1 L12.0103679,1 Z M19.8756569,9.58040385 C19.8756569,7.68508054 18.4749205,6.13191608 16.6580387,5.86884111 L16.6580387,6.94481234 C17.8818062,7.19389967 18.8031175,8.27901665 18.8031175,9.58040385 C18.8031175,10.881791 17.8818062,11.966908 16.6580387,12.2159954 L16.6580387,13.2919666 C18.4749205,13.0288916 19.8756569,11.4757272 19.8756569,9.58040385 L19.8756569,9.58040385 Z M2,6.72021022 L2,12.4404204 C2,13.2298094 2.64066354,13.870473 3.43005255,13.870473 L5.57513139,13.870473 L5.57513139,5.29015766 L3.43005255,5.29015766 C2.64066354,5.29015766 2,5.93082121 2,6.72021022 L2,6.72021022 Z" id="Fill-129" fill="#FA7F8E"></path>
    </g>
</svg>