<?xml version="1.0" encoding="utf-8"?>
<!-- Generator: Adobe Illustrator 16.0.0, SVG Export Plug-In . SVG Version: 6.00 Build 0)  -->
<!DOCTYPE svg PUBLIC "-//W3C//DTD SVG 1.1//EN" "http://www.w3.org/Graphics/SVG/1.1/DTD/svg11.dtd">
<svg version="1.1" id="Layer_1" xmlns="http://www.w3.org/2000/svg" xmlns:xlink="http://www.w3.org/1999/xlink" x="0px" y="0px"
	 width="150px" height="35px" viewBox="0 0 150 35" enable-background="new 0 0 150 35" xml:space="preserve">
<g>
	<path fill="#FFFFDF" d="M84.655,29.176c-0.238,0-0.356-0.137-0.356-0.409v-0.87c0-0.264,0.118-0.396,0.356-0.396h5.049
		c0.229,0,0.343,0.132,0.343,0.396v0.87c0,0.272-0.114,0.409-0.343,0.409H84.655z"/>
	<path fill="#FFFFDF" d="M68.94,16.942c0,1.238-0.168,2.451-0.502,3.639c-0.377,1.309-0.922,2.368-1.635,3.177
		c-0.729,0.817-1.691,1.283-2.887,1.397c-0.123,0.009-0.272,0.021-0.448,0.039s-0.378,0.049-0.606,0.093
		c0.237-0.8,0.355-1.626,0.355-2.479c0-0.404-0.008-0.767-0.025-1.088c-0.018-0.32-0.045-0.6-0.08-0.837
		c0.238,0.062,0.532,0.092,0.884,0.092H64.3c0.932,0,1.691-0.259,2.28-0.777c0.58-0.51,0.87-1.125,0.87-1.846
		c0-0.844-0.189-1.266-0.566-1.266h-4.457c-0.904,0-1.652,0.053-2.24,0.158c-0.115,0.009-0.172,0-0.172-0.026
		s0.014-0.118,0.039-0.276c0.273-1.6,0.409-3.139,0.409-4.615c0-1.221-0.079-2.32-0.237-3.295c-0.097-0.52-0.404-0.778-0.923-0.778
		c-0.457,0-0.791,0.118-1.002,0.356c-0.105,0.113-0.176,0.131-0.211,0.053c-0.035-0.045-0.044-0.181-0.026-0.409
		c0.009-0.993,0.242-2.614,0.699-4.864c0.061-0.299,0.141-0.439,0.236-0.422c0.08,0.018,0.119,0.113,0.119,0.289
		c0,0.439,0.009,0.703,0.026,0.791c0.035,0.186,0.185,0.316,0.448,0.396l0.408-1.029c-0.229-0.369-0.289-0.672-0.184-0.909
		c0.131-0.299,0.359-0.448,0.686-0.448c0.5,0,0.751,0.255,0.751,0.765c0,0.097-0.022,0.198-0.065,0.304
		c-0.133,0.289-0.383,0.443-0.752,0.461c-0.044,0.149-0.09,0.308-0.139,0.475s-0.104,0.338-0.164,0.514l0.514,0.119
		c0.677,0.149,1.121,0.334,1.332,0.554c0.211,0.229,0.316,0.733,0.316,1.517c0,0.387-0.022,0.807-0.066,1.259
		s-0.109,0.942-0.197,1.47c-0.088,0.51-0.181,0.986-0.277,1.431s-0.193,0.858-0.29,1.245c-0.079,0.273,0.026,0.409,0.316,0.409
		h5.946c0.229,0,0.452,0.241,0.672,0.726C68.76,14.12,68.94,15.333,68.94,16.942z M74.965,28.358c0,0.158-0.03,0.306-0.093,0.442
		c-0.061,0.136-0.143,0.255-0.244,0.355c-0.1,0.101-0.219,0.183-0.355,0.244c-0.136,0.062-0.283,0.093-0.441,0.093
		c-0.149,0-0.292-0.031-0.428-0.093c-0.137-0.062-0.258-0.144-0.363-0.244s-0.189-0.22-0.25-0.355
		c-0.062-0.137-0.093-0.284-0.093-0.442s0.03-0.303,0.093-0.435c0.061-0.132,0.145-0.249,0.25-0.35s0.227-0.181,0.363-0.237
		c0.136-0.057,0.278-0.086,0.428-0.086C74.587,27.25,74.965,27.62,74.965,28.358z M78.445,28.358c0,0.158-0.03,0.306-0.093,0.442
		c-0.061,0.136-0.143,0.255-0.244,0.355c-0.101,0.101-0.219,0.183-0.355,0.244s-0.283,0.093-0.441,0.093s-0.306-0.031-0.441-0.093
		c-0.137-0.062-0.256-0.144-0.355-0.244c-0.102-0.101-0.184-0.22-0.244-0.355c-0.062-0.137-0.093-0.284-0.093-0.442
		c0-0.307,0.112-0.568,0.337-0.784c0.223-0.216,0.489-0.323,0.797-0.323c0.325,0,0.596,0.107,0.811,0.323
		S78.445,28.051,78.445,28.358z M79.224,16.942c0,1.238-0.168,2.451-0.502,3.639c-0.377,1.309-0.922,2.368-1.635,3.177
		c-0.729,0.817-1.691,1.283-2.887,1.397c-0.123,0.009-0.272,0.021-0.448,0.039s-0.378,0.049-0.606,0.093
		c0.237-0.8,0.355-1.626,0.355-2.479c0-0.404-0.008-0.767-0.025-1.088c-0.018-0.32-0.045-0.6-0.08-0.837
		c0.238,0.062,0.532,0.092,0.884,0.092h0.304c0.932,0,1.691-0.259,2.28-0.777c0.58-0.51,0.87-1.125,0.87-1.846
		c0-0.844-0.189-1.266-0.566-1.266H72.71c-0.904,0-1.652,0.053-2.24,0.158c-0.115,0.009-0.172,0-0.172-0.026
		s0.014-0.118,0.039-0.276c0.273-1.6,0.409-3.139,0.409-4.615c0-1.221-0.079-2.32-0.237-3.295c-0.097-0.52-0.404-0.778-0.923-0.778
		c-0.457,0-0.791,0.118-1.002,0.356c-0.105,0.113-0.176,0.131-0.211,0.053c-0.035-0.045-0.044-0.181-0.026-0.409
		c0.009-0.993,0.242-2.614,0.699-4.864c0.061-0.299,0.141-0.439,0.236-0.422c0.08,0.018,0.119,0.113,0.119,0.289
		c0,0.439,0.009,0.703,0.026,0.791c0.035,0.186,0.185,0.316,0.448,0.396l0.408-1.029c-0.229-0.369-0.289-0.672-0.184-0.909
		c0.131-0.299,0.359-0.448,0.686-0.448c0.5,0,0.751,0.255,0.751,0.765c0,0.097-0.022,0.198-0.065,0.304
		c-0.133,0.289-0.383,0.443-0.752,0.461c-0.044,0.149-0.09,0.308-0.139,0.475s-0.104,0.338-0.164,0.514l0.514,0.119
		c0.677,0.149,1.121,0.334,1.332,0.554c0.211,0.229,0.316,0.733,0.316,1.517c0,0.387-0.022,0.807-0.066,1.259
		s-0.109,0.942-0.197,1.47c-0.088,0.51-0.181,0.986-0.277,1.431s-0.193,0.858-0.29,1.245c-0.079,0.273,0.026,0.409,0.316,0.409
		h5.946c0.229,0,0.452,0.241,0.672,0.726C79.043,14.12,79.224,15.333,79.224,16.942z M74.438,18.946c0,0.158-0.03,0.305-0.093,0.441
		c-0.061,0.137-0.143,0.255-0.244,0.355c-0.101,0.102-0.219,0.183-0.355,0.244s-0.283,0.092-0.441,0.092s-0.306-0.03-0.441-0.092
		c-0.137-0.062-0.256-0.143-0.355-0.244c-0.102-0.101-0.184-0.219-0.244-0.355c-0.062-0.137-0.093-0.283-0.093-0.441
		c0-0.281,0.118-0.537,0.356-0.766c0.246-0.229,0.505-0.342,0.777-0.342c0.325,0,0.596,0.104,0.811,0.31S74.438,18.62,74.438,18.946
		z M91.945,12.09c-0.167,0.439-0.294,0.951-0.382,1.535c-0.088,0.585-0.141,1.25-0.158,1.998c-0.01,0.246-0.005,0.49,0.013,0.731
		s0.044,0.477,0.079,0.705l-0.145,0.079c-0.211-0.132-0.506-0.207-0.884-0.225c-0.475,0-0.712,0.123-0.712,0.369
		c0,0.062,0.021,0.128,0.066,0.198l1.7,3.322c0.255,0.527,0.378,1.067,0.369,1.622c-0.018,1.326-0.527,2.391-1.529,3.189
		l-0.276,0.211c-0.15,0.123-0.229,0.098-0.238-0.078l-1.226-8.609h-5.128c-1.135,0-1.951,0.088-2.453,0.264
		c-0.141,0.053-0.232,0.044-0.276-0.026c-0.044-0.062-0.03-0.233,0.04-0.515c0.148-0.693,0.211-1.572,0.184-2.637
		c-0.025-1.221-0.171-2.474-0.435-3.757c-0.026-0.132-0.009-0.224,0.053-0.276c0.105-0.07,0.206-0.005,0.304,0.197
		c0.184,0.413,0.329,0.729,0.435,0.949s0.167,0.352,0.185,0.396c0.325,0.562,0.686,0.844,1.081,0.844h1.055v-1.489
		c-0.29-0.193-0.435-0.418-0.435-0.673c0-0.51,0.241-0.765,0.725-0.765c0.501,0,0.752,0.255,0.752,0.765
		c0,0.325-0.158,0.558-0.475,0.698v1.464h6.064c0.703,0,1.199-0.22,1.489-0.659L91.945,12.09z M84.312,21.516
		c-0.131,0.413-0.224,1.257-0.276,2.531c-0.018,0.334-0.022,0.64-0.013,0.916c0.008,0.277,0.021,0.521,0.039,0.732
		c-0.984,0-1.674-0.093-2.07-0.277c-0.721-0.325-1.08-1.081-1.08-2.268c0-0.8,0.162-1.525,0.487-2.176
		c0.202-0.422,0.404-0.788,0.606-1.101c0.202-0.312,0.404-0.569,0.606-0.771c0.193-0.193,0.339-0.238,0.435-0.133
		c0.07,0.08-0.013,0.356-0.25,0.831c-0.211,0.439-0.316,0.809-0.316,1.107c0,0.167,0.079,0.329,0.237,0.487
		c0.176,0.186,0.435,0.286,0.778,0.304C83.784,21.709,84.058,21.648,84.312,21.516z"/>
</g>
</svg>
