<?xml version="1.0" encoding="UTF-8" standalone="no"?>
<svg width="78px" height="78px" viewBox="0 0 78 78" version="1.1" xmlns="http://www.w3.org/2000/svg" xmlns:xlink="http://www.w3.org/1999/xlink">
    <!-- Generator: Sketch 48.2 (47327) - http://www.bohemiancoding.com/sketch -->
    <title>btn/hagada/Music/normal</title>
    <desc>Created with Sketch.</desc>
    <defs>
        <ellipse id="path-1" cx="38.5" cy="37" rx="31.5" ry="32"></ellipse>
        <filter x="-16.7%" y="-13.3%" width="136.5%" height="135.9%" filterUnits="objectBoundingBox" id="filter-2">
            <feMorphology radius="1.5" operator="dilate" in="SourceAlpha" result="shadowSpreadOuter1"></feMorphology>
            <feOffset dx="1" dy="3" in="shadowSpreadOuter1" result="shadowOffsetOuter1"></feOffset>
            <feMorphology radius="1.5" operator="erode" in="SourceAlpha" result="shadowInner"></feMorphology>
            <feOffset dx="1" dy="3" in="shadowInner" result="shadowInner"></feOffset>
            <feComposite in="shadowOffsetOuter1" in2="shadowInner" operator="out" result="shadowOffsetOuter1"></feComposite>
            <feGaussianBlur stdDeviation="2.5" in="shadowOffsetOuter1" result="shadowBlurOuter1"></feGaussianBlur>
            <feColorMatrix values="0 0 0 0 0   0 0 0 0 0   0 0 0 0 0  0 0 0 0.5 0" type="matrix" in="shadowBlurOuter1"></feColorMatrix>
        </filter>
        <ellipse id="path-3" cx="38.5" cy="37" rx="27.5" ry="28"></ellipse>
        <filter x="-10.0%" y="-8.0%" width="127.3%" height="126.8%" filterUnits="objectBoundingBox" id="filter-4">
            <feOffset dx="2" dy="3" in="SourceAlpha" result="shadowOffsetOuter1"></feOffset>
            <feGaussianBlur stdDeviation="2" in="shadowOffsetOuter1" result="shadowBlurOuter1"></feGaussianBlur>
            <feColorMatrix values="0 0 0 0 0   0 0 0 0 0   0 0 0 0 0  0 0 0 0.5 0" type="matrix" in="shadowBlurOuter1"></feColorMatrix>
        </filter>
    </defs>
    <g id="Symboles" stroke="none" stroke-width="1" fill="none" fill-rule="evenodd">
        <g id="btn/hagada/Music/normal">
            <g id="Oval-3">
                <use fill="black" fill-opacity="1" filter="url(#filter-2)" xlink:href="#path-1"></use>
                <use stroke="#FBF9ED" stroke-width="2" xlink:href="#path-1"></use>
            </g>
            <g id="Oval-3">
                <use fill="black" fill-opacity="1" filter="url(#filter-4)" xlink:href="#path-3"></use>
                <use fill="#FBF9ED" fill-rule="evenodd" xlink:href="#path-3"></use>
            </g>
            <path d="M50.2728267,42.5112228 C49.8876034,41.7701966 49.3378097,40.330436 48.9856844,39.4937934 C49.1254313,38.9329671 49.2844853,38.4089163 49.4683627,37.9262379 C49.6715474,37.3902351 49.8940391,36.8965241 50.1367574,36.4432661 C49.0601547,35.5799613 48.4469234,34.7047046 48.2979826,33.8202539 C48.0865235,32.5671289 48.1894949,30.5426379 48.6923998,29.7988535 C49.2725332,28.7397192 48.8514538,28.2175072 48.6390753,27.1887127 C48.4000346,25.9539754 48.2952244,23.2279918 48.9452313,21.1455794 L48.5977029,21.0049131 C48.270401,21.7201965 47.3179157,21.8847669 46.4233517,22.2644739 C46.0381284,22.426286 44.0853496,22.981596 41.8824974,23.5865529 C41.869626,23.5479386 41.8429638,23.3236081 41.7988332,22.9089644 C41.7547026,22.4934013 41.682071,21.8820087 41.5818578,21.0729478 C42.0985535,20.6500296 42.2704789,20.1517216 42.0985535,19.5789433 C41.8429638,18.7266712 41.3051222,18.4241927 40.4868674,18.6696692 C39.6355147,18.9252589 39.3367138,19.4787301 39.5923035,20.3310022 C39.755035,20.8706826 40.1191124,21.1630478 40.6854551,21.2080977 L40.735102,22.7995573 C40.7084397,23.4054336 40.6017908,23.798012 40.4169939,23.9864864 C40.2763277,24.0251007 40.1356614,24.063715 39.9949951,24.1014098 C39.8258279,24.0545211 39.6658545,23.9046609 39.5169137,23.6472325 L36.7697842,18.9546793 C37.0235351,18.4333866 37.0934086,17.9838062 36.9803239,17.6068574 C36.7348475,16.7876832 36.1942477,16.5035925 35.3585246,16.7536659 C34.5237208,17.0046586 34.2313556,17.5480166 34.4823484,18.3828203 C34.6938075,19.0870711 35.1985512,19.3996628 35.99566,19.3215148 C37.3370462,22.5430482 38.0183123,24.1869129 38.0376194,24.2521894 C38.0799112,24.3928556 38.0854275,24.5169729 38.0550878,24.6227025 C37.6873328,24.7201576 37.3370462,24.8139351 37.0106637,24.9003575 C36.755074,24.7725626 36.46087,24.5445546 36.1234549,24.2098976 L34.9227349,22.8841409 C35.0588043,22.3251534 35.0799502,21.8902832 34.9861727,21.5786109 C34.7554064,20.810003 34.2221618,20.5498164 33.3864386,20.8008091 C32.5516349,21.0508825 32.2620278,21.6025149 32.5176175,22.4538677 C32.7732072,23.3061398 33.3597764,23.593908 34.2764056,23.3190112 C35.0330614,24.4121628 35.4293174,25.0171197 35.4633347,25.1320431 C35.4808031,25.1899645 35.489997,25.2451278 35.4955133,25.2984522 C35.1139675,25.3968267 34.8556197,25.4621032 34.7682779,25.4814103 L31.7793495,26.1350947 C28.0843316,26.4789456 29.6390156,34.0546977 29.9424135,34.8095147 C30.2458113,35.5634124 30.4333663,36.0883826 30.5041592,36.3825865 C30.8507682,37.8260247 30.3202817,38.1321807 29.9378165,39.4910353 C30.4793357,40.3377911 30.9656916,41.1155928 31.3968843,41.8244405 C31.7508485,42.4054933 32.0689565,42.9488512 32.354886,43.4581918 C32.2565115,44.1799109 32.0616014,45.2252544 31.5798424,46.2356611 C30.2743123,45.9892653 28.709515,46.2393387 27.2734319,47.0355282 C24.6715656,48.4762082 23.4800396,51.1525449 24.610886,53.0133849 C25.7435713,54.8733056 28.7701946,55.2125595 31.3720609,53.7718795 C32.7557389,53.0051104 33.7404028,51.8889742 34.1890638,50.7323848 C34.3067454,50.428987 34.3858127,50.1237504 34.4271851,49.8212719 C34.7315024,48.2895725 34.3168587,47.5237229 33.983121,46.5565273 C33.7247732,45.8053878 33.2237071,44.3214966 32.8715817,43.3800439 C32.8853725,42.5663861 32.9249062,41.8042139 32.9929408,41.1008826 C33.06925,40.3083707 33.1722214,39.5765383 33.3009356,38.9044661 C32.1480238,37.6375503 31.9273708,37.4463177 31.6138597,36.1398683 C31.1523273,34.2229456 32.1360718,32.9974022 34.5650932,32.4659963 L36.4194976,32.059627 C37.3747411,31.8509261 42.367934,30.9407326 45.6997939,30.3385339 C46.0767427,31.288261 46.4849507,32.382332 46.6338914,32.7436513 C46.8609801,33.2943643 46.9970495,33.7053305 47.0420994,33.9765497 C47.2039116,34.9327126 46.9685484,35.880601 46.3350905,36.8192955 C46.8021393,37.394832 47.2204606,37.9243992 47.5882155,38.4061582 C47.9467766,38.8750457 48.2593683,39.309916 48.5269101,39.7107689 C48.4423264,40.415939 48.2832724,41.4695569 47.8851777,42.5415626 C46.5428721,42.4606565 45.0084145,42.9240278 43.6881743,43.9224825 C41.3299456,45.7051746 40.5530633,48.5166612 41.9523709,50.2028177 C43.3525979,51.8889742 46.3985283,51.8099068 48.7576763,50.0272147 C50.0126401,49.0784069 50.8143459,47.8381533 51.082807,46.6300783 C51.2271508,45.9672 51.2188763,45.3401778 51.0432733,44.771077 C50.9173173,43.8535284 50.6313878,43.1989246 50.2728267,42.5112228 Z" id="Path" fill="#0A9CA3"></path>
        </g>
    </g>
</svg>