<?xml version="1.0" encoding="UTF-8" standalone="no"?>
<svg width="55px" height="55px" viewBox="0 0 55 55" version="1.1" xmlns="http://www.w3.org/2000/svg" xmlns:xlink="http://www.w3.org/1999/xlink">
    <!-- Generator: Sketch 48.2 (47327) - http://www.bohemiancoding.com/sketch -->
    <title>btn/tools/download/hover</title>
    <desc>Created with Sketch.</desc>
    <defs></defs>
    <g id="Symboles" stroke="none" stroke-width="1" fill="none" fill-rule="evenodd">
        <g id="btn/tools/download/hover">
            <rect id="Rectangle" fill-opacity="0.8" fill="#FBF9ED" x="0" y="0" width="55" height="55" rx="2"></rect>
            <path d="M38.2666667,19 L17.7333333,19 C17.3820667,19 17,19.3820667 17,19.7333333 L17,24.8666667 C17,25.6762667 17.6570667,26.3333333 18.4666667,26.3333333 C19.2762667,26.3333333 19.9333333,25.6762667 19.9333333,24.8666667 L19.9333333,21.9333333 L36.0666667,21.9333333 L36.0666667,24.8666667 C36.0666667,25.6762667 36.7237333,26.3333333 37.5333333,26.3333333 C38.3429333,26.3333333 39,25.6762667 39,24.8666667 L39,19.7333333 C39,19.3358667 38.7096,19 38.2666667,19 L38.2666667,19 Z M30.9333333,32.2 L29.4666667,32.2 L29.4666667,25.6 C29.4666667,24.7904 28.8096,24.1333333 28,24.1333333 C27.1904,24.1333333 26.5333333,24.7904 26.5333333,25.6 L26.5333333,32.2 L25.0666667,32.2 C24.7792,32.2 24.117,32.1303333 23.8295333,32.42 C23.5420667,32.7082 23.5420667,33.1768 23.8295333,33.4657333 L27.4536667,37.8591333 C27.6069333,38.0131333 27.8108,38.0791333 28.0117333,38.0681333 C28.2126667,38.0791333 28.4158,38.0131333 28.5690667,37.8591333 L32.1932,33.4657333 C32.4806667,33.1768 32.4806667,32.7082 32.1932,32.42 C31.9057333,32.1303333 31.4503333,32.2 30.9333333,32.2 L30.9333333,32.2 Z" id="Fill-102" fill="#384C62"></path>
        </g>
    </g>
</svg>