<?xml version="1.0" encoding="UTF-8" standalone="no"?>
<svg width="78px" height="39px" viewBox="0 0 78 39" version="1.1" xmlns="http://www.w3.org/2000/svg" xmlns:xlink="http://www.w3.org/1999/xlink">
    <!-- Generator: Sketch 48.2 (47327) - http://www.bohemiancoding.com/sketch -->
    <title>img/general/nev_down/normal</title>
    <desc>Created with Sketch.</desc>
    <defs>
        <path d="M65.2436441,16.311024 C67.0806312,12.7085327 68,7.51198595 68,1.18926863 C68,0.396668872 67.7531778,0 67.2605838,0 L0.707525367,0 C0.18902377,0 -0.0444945048,0.396668872 0.00697054231,1.18926863 C0.240488817,7.04188721 0.850717233,13.0841689 1.83660548,15.6276466 C3.47123341,19.7847364 6.50662088,21.8625433 10.9438182,21.8625433 L23.3591481,21.8625433 C25.0459413,21.8625433 26.7712457,22.3414979 28.5354115,23.2983001 C29.1841512,23.6813162 30.0664092,24.7890371 31.1818353,26.6207248 C32.1421661,28.2074002 33.0888429,29 34.022916,29 C34.3866723,28.6996386 34.6979133,28.3918974 34.9569891,28.0771453 C35.216765,27.7631311 35.4376796,27.4277153 35.6186825,27.0720048 C36.2936799,25.6229642 37.409106,24.405652 38.9656611,23.4211752 C40.5750816,22.3824562 42.1183328,21.8625433 43.5971652,21.8625433 L57.1415753,21.8625433 C60.7339756,21.8625433 63.433965,19.8603802 65.2436441,16.311393 L65.2436441,16.311024 Z" id="path-1"></path>
        <filter x="-11.8%" y="-17.2%" width="129.4%" height="169.0%" filterUnits="objectBoundingBox" id="filter-2">
            <feOffset dx="2" dy="5" in="SourceAlpha" result="shadowOffsetOuter1"></feOffset>
            <feGaussianBlur stdDeviation="2.5" in="shadowOffsetOuter1" result="shadowBlurOuter1"></feGaussianBlur>
            <feColorMatrix values="0 0 0 0 0   0 0 0 0 0   0 0 0 0 0  0 0 0 0.15 0" type="matrix" in="shadowBlurOuter1"></feColorMatrix>
        </filter>
    </defs>
    <g id="Symboles" stroke="none" stroke-width="1" fill="none" fill-rule="evenodd">
        <g id="img/general/nav_down/normal" transform="translate(3.000000, 0.000000)">
            <g id="Fill-1">
                <use fill="black" fill-opacity="1" filter="url(#filter-2)" xlink:href="#path-1"></use>
                <use fill="#384C62" fill-rule="evenodd" xlink:href="#path-1"></use>
            </g>
        </g>
    </g>
</svg>