<?xml version="1.0" encoding="UTF-8" standalone="no"?>
<svg width="30px" height="24px" viewBox="0 0 30 24" version="1.1" xmlns="http://www.w3.org/2000/svg" xmlns:xlink="http://www.w3.org/1999/xlink">
    <!-- Generator: Sketch 49.1 (51147) - http://www.bohemiancoding.com/sketch -->
    <title>btn/player/mute/hover</title>
    <desc>Created with Sketch.</desc>
    <defs></defs>
    <g id="btn/player/mute/hover" stroke="none" stroke-width="1" fill="none" fill-rule="evenodd">
        <path d="M25.444,12 L29.617,7.827 C30.067,7.377 30.109,6.688 29.711,6.289 C29.312,5.891 28.623,5.933 28.173,6.383 L24,10.556 L19.827,6.383 C19.377,5.933 18.688,5.891 18.289,6.289 C17.891,6.688 17.933,7.377 18.383,7.827 L22.556,12 L18.383,16.173 C17.933,16.623 17.891,17.312 18.289,17.711 C18.688,18.109 19.377,18.067 19.827,17.617 L24,13.444 L28.173,17.617 C28.623,18.067 29.312,18.109 29.711,17.711 C30.109,17.312 30.067,16.623 29.617,16.173 L25.444,12 L25.444,12 Z M14,0 L7,4.667 L7,19.333 L14,24 C15.104,24 16,23.104 16,22 L16,2 C16,0.896 15.104,0 14,0 L14,0 Z M0,8 L0,16 C0,17.104 0.896,18 2,18 L5,18 L5,6 L2,6 C0.896,6 0,6.896 0,8 L0,8 Z" id="Fill-128-Copy" fill="#FA7F8E"></path>
    </g>
</svg>