<?xml version="1.0" encoding="UTF-8" standalone="no"?>
<svg width="20px" height="18px" viewBox="0 0 20 18" version="1.1" xmlns="http://www.w3.org/2000/svg" xmlns:xlink="http://www.w3.org/1999/xlink">
    <!-- Generator: Sketch 49.1 (51147) - http://www.bohemiancoding.com/sketch -->
    <title>btn/index/menuline/normal</title>
    <desc>Created with Sketch.</desc>
    <defs></defs>
    <g id="btn/index/menuline/normal" stroke="none" stroke-width="1" fill="none" fill-rule="evenodd">
        <path d="M18.2314165,13.8906031 L1.73632539,13.8906031 C0.777873773,13.8906031 0,14.6684769 0,15.6269285 C0,16.5853801 0.777873773,17.3632539 1.73632539,17.3632539 L18.2314165,17.3632539 C19.1898682,17.3632539 19.9677419,16.5853801 19.9677419,15.6269285 C19.9677419,14.6684769 19.1898682,13.8906031 18.2314165,13.8906031 L18.2314165,13.8906031 Z M14.2680651,6.94530154 L1.35886335,6.94530154 C0.608770779,6.94530154 0,7.72317532 0,8.68162693 C0,9.64007854 0.608770779,10.4179523 1.35886335,10.4179523 L14.2680651,10.4179523 C15.0181577,10.4179523 15.6269285,9.64007854 15.6269285,8.68162693 C15.6269285,7.72317532 15.0181577,6.94530154 14.2680651,6.94530154 L14.2680651,6.94530154 Z M0.981401305,3.47265077 L10.3047137,3.47265077 C10.8464472,3.47265077 11.286115,2.694777 11.286115,1.73632539 C11.286115,0.777873773 10.8464472,1.42108547e-14 10.3047137,1.42108547e-14 L0.981401305,1.42108547e-14 C0.439667785,1.42108547e-14 0,0.777873773 0,1.73632539 C0,2.694777 0.439667785,3.47265077 0.981401305,3.47265077 L0.981401305,3.47265077 Z" id="Fill-120" fill="#FBF9ED" transform="translate(9.983871, 8.681627) scale(-1, -1) translate(-9.983871, -8.681627) "></path>
    </g>
</svg>