<?xml version="1.0" encoding="UTF-8" standalone="no"?>
<svg width="80px" height="78px" viewBox="0 0 80 78" version="1.1" xmlns="http://www.w3.org/2000/svg" xmlns:xlink="http://www.w3.org/1999/xlink">
    <!-- Generator: Sketch 49.1 (51147) - http://www.bohemiancoding.com/sketch -->
    <title>btn/hagada/Music/selected</title>
    <desc>Created with Sketch.</desc>
    <defs>
        <circle id="path-1" cx="35" cy="35" r="35"></circle>
        <filter x="-15.0%" y="-12.1%" width="132.9%" height="132.9%" filterUnits="objectBoundingBox" id="filter-2">
            <feMorphology radius="1.5" operator="dilate" in="SourceAlpha" result="shadowSpreadOuter1"></feMorphology>
            <feOffset dx="1" dy="3" in="shadowSpreadOuter1" result="shadowOffsetOuter1"></feOffset>
            <feMorphology radius="1.5" operator="erode" in="SourceAlpha" result="shadowInner"></feMorphology>
            <feOffset dx="1" dy="3" in="shadowInner" result="shadowInner"></feOffset>
            <feComposite in="shadowOffsetOuter1" in2="shadowInner" operator="out" result="shadowOffsetOuter1"></feComposite>
            <feGaussianBlur stdDeviation="2.5" in="shadowOffsetOuter1" result="shadowBlurOuter1"></feGaussianBlur>
            <feColorMatrix values="0 0 0 0 0   0 0 0 0 0   0 0 0 0 0  0 0 0 0.5 0" type="matrix" in="shadowBlurOuter1"></feColorMatrix>
        </filter>
        <circle id="path-3" cx="34.557971" cy="34.5" r="30.5"></circle>
        <filter x="-9.0%" y="-7.4%" width="124.6%" height="124.6%" filterUnits="objectBoundingBox" id="filter-4">
            <feOffset dx="2" dy="3" in="SourceAlpha" result="shadowOffsetOuter1"></feOffset>
            <feGaussianBlur stdDeviation="2" in="shadowOffsetOuter1" result="shadowBlurOuter1"></feGaussianBlur>
            <feColorMatrix values="0 0 0 0 0   0 0 0 0 0   0 0 0 0 0  0 0 0 0.5 0" type="matrix" in="shadowBlurOuter1"></feColorMatrix>
        </filter>
    </defs>
    <g id="btn/hagada/Music/selected" stroke="none" stroke-width="1" fill="none" fill-rule="evenodd">
        <g id="music-icon" transform="translate(4.000000, 2.000000)">
            <g id="Oval-3">
                <use fill="black" fill-opacity="1" filter="url(#filter-2)" xlink:href="#path-1"></use>
                <use stroke="#FBF9ED" stroke-width="2" xlink:href="#path-1"></use>
            </g>
            <g id="Oval-3">
                <use fill="black" fill-opacity="1" filter="url(#filter-4)" xlink:href="#path-3"></use>
                <use fill="#0A9CA3" fill-rule="evenodd" xlink:href="#path-3"></use>
            </g>
            <path d="M46.089136,39.8453506 C45.7039127,39.1043244 45.154119,37.6645637 44.8019937,36.8279212 C44.9417405,36.2670949 45.1007946,35.7430441 45.284672,35.2603657 C45.4878566,34.7243629 45.7103484,34.2306519 45.9530667,33.7773939 C44.876464,32.9140891 44.2632326,32.0388323 44.1142919,31.1543817 C43.9028328,29.9012567 44.0058042,27.8767657 44.5087091,27.1329813 C45.0888425,26.073847 44.6677631,25.551635 44.4553846,24.5228405 C44.2163439,23.2881032 44.1115337,20.5621196 44.7615406,18.4797072 L44.4140122,18.3390409 C44.0867103,19.0543243 43.1342249,19.2188947 42.239661,19.5986016 C41.8544377,19.7604138 39.9016589,20.3157238 37.6988067,20.9206807 C37.6859353,20.8820664 37.6592731,20.6577359 37.6151425,20.2430922 C37.5710119,19.8275291 37.4983803,19.2161365 37.398167,18.4070756 C37.9148628,17.9841574 38.0867882,17.4858494 37.9148628,16.9130711 C37.6592731,16.060799 37.1214314,15.7583205 36.3031767,16.003797 C35.451824,16.2593867 35.1530231,16.8128579 35.4086127,17.66513 C35.5713443,18.2048104 35.9354217,18.4971756 36.5017643,18.5422255 L36.5514113,20.1336851 C36.524749,20.7395614 36.4181001,21.1321398 36.2333032,21.3206142 C36.092637,21.3592285 35.9519707,21.3978428 35.8113044,21.4355376 C35.6421371,21.3886489 35.4821637,21.2387887 35.333223,20.9813603 L32.5860935,16.2888071 C32.8398444,15.7675144 32.9097178,15.317934 32.7966332,14.9409852 C32.5511568,14.121811 32.010557,13.8377203 31.1748338,14.0877937 C30.3400301,14.3387864 30.0476649,14.8821444 30.2986577,15.7169481 C30.5101168,16.4211988 31.0148604,16.7337906 31.8119693,16.6556426 C33.1533555,19.877176 33.8346215,21.5210407 33.8539287,21.5863172 C33.8962205,21.7269834 33.9017368,21.8511007 33.871397,21.9568303 C33.5036421,22.0542853 33.1533555,22.1480629 32.826973,22.2344853 C32.5713833,22.1066904 32.2771793,21.8786824 31.9397641,21.5440254 L30.7390442,20.2182687 C30.8751136,19.6592812 30.8962595,19.224411 30.802482,18.9127387 C30.5717157,18.1441308 30.038471,17.8839442 29.2027479,18.1349369 C28.3679442,18.3850103 28.0783371,18.9366427 28.3339268,19.7879954 C28.5895165,20.6402676 29.1760857,20.9280358 30.0927149,20.653139 C30.8493707,21.7462906 31.2456267,22.3512475 31.279644,22.4661709 C31.2971124,22.5240923 31.3063062,22.5792555 31.3118226,22.63258 C30.9302768,22.7309545 30.6719289,22.796231 30.5845871,22.8155381 L27.5956588,23.4692225 C23.9006409,23.8130734 25.4553249,31.3888255 25.7587228,32.1436425 C26.0621206,32.8975402 26.2496756,33.4225104 26.3204685,33.7167143 C26.6670775,35.1601525 26.136591,35.4663085 25.7541258,36.8251631 C26.295645,37.6719188 26.7820009,38.4497206 27.2131936,39.1585682 C27.5671577,39.7396211 27.8852658,40.282979 28.1711953,40.7923196 C28.0728208,41.5140387 27.8779107,42.5593822 27.3961517,43.5697889 C26.0906216,43.3233931 24.5258243,43.5734665 23.0897412,44.3696559 C20.4878749,45.810336 19.2963488,48.4866727 20.4271953,50.3475127 C21.5598806,52.2074334 24.5865038,52.5466873 27.1883701,51.1060073 C28.5720482,50.3392382 29.556712,49.2231019 30.0053731,48.0665126 C30.1230547,47.7631148 30.202122,47.4578782 30.2434944,47.1553997 C30.5478116,45.6237003 30.1331679,44.8578506 29.7994303,43.8906551 C29.5410825,43.1395156 29.0400163,41.6556244 28.687891,40.7141717 C28.7016818,39.9005139 28.7412154,39.1383417 28.8092501,38.4350104 C28.8855593,37.6424985 28.9885306,36.9106661 29.1172449,36.2385939 C27.9643331,34.9716781 27.7436801,34.7804455 27.430169,33.4739961 C26.9686366,31.5570734 27.9523811,30.33153 30.3814025,29.8001241 L32.2358069,29.3937548 C33.1910504,29.1850539 38.1842433,28.2748604 41.5161031,27.6726617 C41.893052,28.6223888 42.30126,29.7164598 42.4502007,30.0777791 C42.6772894,30.6284921 42.8133587,31.0394583 42.8584087,31.3106775 C43.0202209,32.2668404 42.7848577,33.2147288 42.1513998,34.1534233 C42.6184486,34.7289598 43.0367699,35.258527 43.4045248,35.740286 C43.7630859,36.2091735 44.0756776,36.6440438 44.3432194,37.0448967 C44.2586357,37.7500668 44.0995817,38.8036847 43.701487,39.8756904 C42.3591814,39.7947843 40.8247238,40.2581556 39.5044835,41.2566103 C37.1462549,43.0393024 36.3693726,45.850789 37.7686802,47.5369455 C39.1689072,49.2231019 42.2148376,49.1440346 44.5739856,47.3613425 C45.8289494,46.4125347 46.6306552,45.1722811 46.8991163,43.9642061 C47.0434601,43.3013278 47.0351856,42.6743056 46.8595826,42.1052048 C46.7336266,41.1876562 46.4476971,40.5330524 46.089136,39.8453506 Z" id="Path" fill="#FBF9ED"></path>
        </g>
    </g>
</svg>