<?xml version="1.0" encoding="UTF-8" standalone="no"?>
<svg width="80px" height="78px" viewBox="0 0 80 78" version="1.1" xmlns="http://www.w3.org/2000/svg" xmlns:xlink="http://www.w3.org/1999/xlink">
    <!-- Generator: Sketch 49.1 (51147) - http://www.bohemiancoding.com/sketch -->
    <title>btn/hagada/Music/normal</title>
    <desc>Created with Sketch.</desc>
    <defs>
        <circle id="path-1" cx="35" cy="35" r="35"></circle>
        <filter x="-15.0%" y="-12.1%" width="132.9%" height="132.9%" filterUnits="objectBoundingBox" id="filter-2">
            <feMorphology radius="1.5" operator="dilate" in="SourceAlpha" result="shadowSpreadOuter1"></feMorphology>
            <feOffset dx="1" dy="3" in="shadowSpreadOuter1" result="shadowOffsetOuter1"></feOffset>
            <feMorphology radius="1.5" operator="erode" in="SourceAlpha" result="shadowInner"></feMorphology>
            <feOffset dx="1" dy="3" in="shadowInner" result="shadowInner"></feOffset>
            <feComposite in="shadowOffsetOuter1" in2="shadowInner" operator="out" result="shadowOffsetOuter1"></feComposite>
            <feGaussianBlur stdDeviation="2.5" in="shadowOffsetOuter1" result="shadowBlurOuter1"></feGaussianBlur>
            <feColorMatrix values="0 0 0 0 0   0 0 0 0 0   0 0 0 0 0  0 0 0 0.5 0" type="matrix" in="shadowBlurOuter1"></feColorMatrix>
        </filter>
        <circle id="path-3" cx="34.5" cy="34.5" r="30.5"></circle>
        <filter x="-9.0%" y="-7.4%" width="124.6%" height="124.6%" filterUnits="objectBoundingBox" id="filter-4">
            <feOffset dx="2" dy="3" in="SourceAlpha" result="shadowOffsetOuter1"></feOffset>
            <feGaussianBlur stdDeviation="2" in="shadowOffsetOuter1" result="shadowBlurOuter1"></feGaussianBlur>
            <feColorMatrix values="0 0 0 0 0   0 0 0 0 0   0 0 0 0 0  0 0 0 0.5 0" type="matrix" in="shadowBlurOuter1"></feColorMatrix>
        </filter>
    </defs>
    <g id="btn/hagada/Music/normal" stroke="none" stroke-width="1" fill="none" fill-rule="evenodd">
        <g id="music-icon" transform="translate(4.000000, 2.000000)">
            <g id="Oval-3">
                <use fill="black" fill-opacity="1" filter="url(#filter-2)" xlink:href="#path-1"></use>
                <use stroke="#FBF9ED" stroke-width="2" xlink:href="#path-1"></use>
            </g>
            <g id="Oval-3">
                <use fill="black" fill-opacity="1" filter="url(#filter-4)" xlink:href="#path-3"></use>
                <use fill="#FDFBF1" fill-rule="evenodd" xlink:href="#path-3"></use>
            </g>
        </g>
        <path d="M50.089136,41.8453506 C49.7039127,41.1043244 49.154119,39.6645637 48.8019937,38.8279212 C48.9417405,38.2670949 49.1007946,37.7430441 49.284672,37.2603657 C49.4878566,36.7243629 49.7103484,36.2306519 49.9530667,35.7773939 C48.876464,34.9140891 48.2632326,34.0388323 48.1142919,33.1543817 C47.9028328,31.9012567 48.0058042,29.8767657 48.5087091,29.1329813 C49.0888425,28.073847 48.6677631,27.551635 48.4553846,26.5228405 C48.2163439,25.2881032 48.1115337,22.5621196 48.7615406,20.4797072 L48.4140122,20.3390409 C48.0867103,21.0543243 47.1342249,21.2188947 46.239661,21.5986016 C45.8544377,21.7604138 43.9016589,22.3157238 41.6988067,22.9206807 C41.6859353,22.8820664 41.6592731,22.6577359 41.6151425,22.2430922 C41.5710119,21.8275291 41.4983803,21.2161365 41.398167,20.4070756 C41.9148628,19.9841574 42.0867882,19.4858494 41.9148628,18.9130711 C41.6592731,18.060799 41.1214314,17.7583205 40.3031767,18.003797 C39.451824,18.2593867 39.1530231,18.8128579 39.4086127,19.66513 C39.5713443,20.2048104 39.9354217,20.4971756 40.5017643,20.5422255 L40.5514113,22.1336851 C40.524749,22.7395614 40.4181001,23.1321398 40.2333032,23.3206142 C40.092637,23.3592285 39.9519707,23.3978428 39.8113044,23.4355376 C39.6421371,23.3886489 39.4821637,23.2387887 39.333223,22.9813603 L36.5860935,18.2888071 C36.8398444,17.7675144 36.9097178,17.317934 36.7966332,16.9409852 C36.5511568,16.121811 36.010557,15.8377203 35.1748338,16.0877937 C34.3400301,16.3387864 34.0476649,16.8821444 34.2986577,17.7169481 C34.5101168,18.4211988 35.0148604,18.7337906 35.8119693,18.6556426 C37.1533555,21.877176 37.8346215,23.5210407 37.8539287,23.5863172 C37.8962205,23.7269834 37.9017368,23.8511007 37.871397,23.9568303 C37.5036421,24.0542853 37.1533555,24.1480629 36.826973,24.2344853 C36.5713833,24.1066904 36.2771793,23.8786824 35.9397641,23.5440254 L34.7390442,22.2182687 C34.8751136,21.6592812 34.8962595,21.224411 34.802482,20.9127387 C34.5717157,20.1441308 34.038471,19.8839442 33.2027479,20.1349369 C32.3679442,20.3850103 32.0783371,20.9366427 32.3339268,21.7879954 C32.5895165,22.6402676 33.1760857,22.9280358 34.0927149,22.653139 C34.8493707,23.7462906 35.2456267,24.3512475 35.279644,24.4661709 C35.2971124,24.5240923 35.3063062,24.5792555 35.3118226,24.63258 C34.9302768,24.7309545 34.6719289,24.796231 34.5845871,24.8155381 L31.5956588,25.4692225 C27.9006409,25.8130734 29.4553249,33.3888255 29.7587228,34.1436425 C30.0621206,34.8975402 30.2496756,35.4225104 30.3204685,35.7167143 C30.6670775,37.1601525 30.136591,37.4663085 29.7541258,38.8251631 C30.295645,39.6719188 30.7820009,40.4497206 31.2131936,41.1585682 C31.5671577,41.7396211 31.8852658,42.282979 32.1711953,42.7923196 C32.0728208,43.5140387 31.8779107,44.5593822 31.3961517,45.5697889 C30.0906216,45.3233931 28.5258243,45.5734665 27.0897412,46.3696559 C24.4878749,47.810336 23.2963488,50.4866727 24.4271953,52.3475127 C25.5598806,54.2074334 28.5865038,54.5466873 31.1883701,53.1060073 C32.5720482,52.3392382 33.556712,51.2231019 34.0053731,50.0665126 C34.1230547,49.7631148 34.202122,49.4578782 34.2434944,49.1553997 C34.5478116,47.6237003 34.1331679,46.8578506 33.7994303,45.8906551 C33.5410825,45.1395156 33.0400163,43.6556244 32.687891,42.7141717 C32.7016818,41.9005139 32.7412154,41.1383417 32.8092501,40.4350104 C32.8855593,39.6424985 32.9885306,38.9106661 33.1172449,38.2385939 C31.9643331,36.9716781 31.7436801,36.7804455 31.430169,35.4739961 C30.9686366,33.5570734 31.9523811,32.33153 34.3814025,31.8001241 L36.2358069,31.3937548 C37.1910504,31.1850539 42.1842433,30.2748604 45.5161031,29.6726617 C45.893052,30.6223888 46.30126,31.7164598 46.4502007,32.0777791 C46.6772894,32.6284921 46.8133587,33.0394583 46.8584087,33.3106775 C47.0202209,34.2668404 46.7848577,35.2147288 46.1513998,36.1534233 C46.6184486,36.7289598 47.0367699,37.258527 47.4045248,37.740286 C47.7630859,38.2091735 48.0756776,38.6440438 48.3432194,39.0448967 C48.2586357,39.7500668 48.0995817,40.8036847 47.701487,41.8756904 C46.3591814,41.7947843 44.8247238,42.2581556 43.5044835,43.2566103 C41.1462549,45.0393024 40.3693726,47.850789 41.7686802,49.5369455 C43.1689072,51.2231019 46.2148376,51.1440346 48.5739856,49.3613425 C49.8289494,48.4125347 50.6306552,47.1722811 50.8991163,45.9642061 C51.0434601,45.3013278 51.0351856,44.6743056 50.8595826,44.1052048 C50.7336266,43.1876562 50.4476971,42.5330524 50.089136,41.8453506 Z" id="Path" fill="#0A9CA3"></path>
    </g>
</svg>