<?xml version="1.0" encoding="UTF-8" standalone="no"?>
<svg width="170px" height="40px" viewBox="0 0 170 40" version="1.1" xmlns="http://www.w3.org/2000/svg" xmlns:xlink="http://www.w3.org/1999/xlink">
    <!-- Generator: Sketch 49.1 (51147) - http://www.bohemiancoding.com/sketch -->
    <title>btn/tools/print/normal</title>
    <desc>Created with Sketch.</desc>
    <defs></defs>
    <g id="btn/tools/print/normal" stroke="none" stroke-width="1" fill="none" fill-rule="evenodd">
        <rect id="Rectangle" fill="#FA7F8E" x="0" y="0" width="170" height="40" rx="3"></rect>
        <text id="הגדה-להדפסה" font-family="Assistant-SemiBold, Assistant" font-size="20" font-weight="500" fill="#FBF9ED">
            <tspan x="8" y="27">הגדה להדפסה</tspan>
        </text>
        <path d="M134.625,10 C132.623094,10 131,11.2122831 131,12.7075 L131,26.9218749 C131,28.4170917 132.708281,29.1643617 134.625,29.6293749 L144.59375,31.6599998 L144.59375,12.030625 C140.051625,11.120905 134.625,10 134.625,10 L134.625,10 Z M156.386803,10 C156.386803,10 151.158507,11.0789387 146.40625,12.030625 L146.450512,12.030625 L146.450512,31.6599998 C151.524343,30.6453642 156.386803,29.6293749 156.386803,29.6293749 C158.241276,29.2699542 160,28.4170917 160,26.9218749 L160,12.7075 C160,11.2122831 158.382191,10 156.386803,10 L156.386803,10 Z" id="Fill-215" fill="#FBF9ED"></path>
    </g>
</svg>