<?xml version="1.0" encoding="utf-8"?>
<!-- Generator: Adobe Illustrator 16.0.0, SVG Export Plug-In . SVG Version: 6.00 Build 0)  -->
<!DOCTYPE svg PUBLIC "-//W3C//DTD SVG 1.1//EN" "http://www.w3.org/Graphics/SVG/1.1/DTD/svg11.dtd">
<svg version="1.1" id="Layer_1" xmlns="http://www.w3.org/2000/svg" xmlns:xlink="http://www.w3.org/1999/xlink" x="0px" y="0px"
	 width="95px" height="35px" viewBox="0 0 95 35" enable-background="new 0 0 95 35" xml:space="preserve">
<path fill="#384C62" d="M42.688,13.549c0,0.123-0.021,0.241-0.065,0.355c-0.958,2.391-1.661,4.83-2.109,7.317
	c-0.07,0.422-0.146,0.78-0.224,1.074c-0.08,0.295-0.154,0.529-0.225,0.705c-0.281,0.694-0.677,1.112-1.187,1.253l-4.957,1.437
	c-0.334,0.097-0.821,0.387-1.464,0.87l-0.184-0.092c0.035-0.097,0.053-0.237,0.053-0.422c0-0.633-0.291-1.723-0.871-3.27
	c-0.58-1.538-0.869-2.738-0.869-3.6c0-0.281,0.057-0.663,0.171-1.146c0.123-0.519,0.185-0.888,0.185-1.107
	c0-0.246-0.303-0.369-0.91-0.369c-1.16,0-1.818,0.03-1.977,0.092c-0.158-0.615-0.238-1.428-0.238-2.438
	c0-0.712,0.049-1.323,0.146-1.833c0.062,0.026,0.118,0.04,0.171,0.04c0.098,0,0.146-0.427,0.146-1.279
	c-0.316-0.114-0.475-0.343-0.475-0.686c0-0.457,0.22-0.686,0.659-0.686c0.457,0,0.686,0.229,0.686,0.686
	c0,0.299-0.114,0.497-0.343,0.594c0,0.123,0,0.243,0,0.362c0,0.118,0.005,0.239,0.013,0.362c0.035,0.343,0.15,0.515,0.344,0.515
	c0.184,0,0.347-0.348,0.487-1.042l0.237-1.331c-0.202-0.22-0.303-0.439-0.303-0.659c0-0.439,0.224-0.659,0.672-0.659
	s0.672,0.224,0.672,0.672c0,0.396-0.201,0.633-0.605,0.712l-0.053,1.991c-0.018,0.255,0.092,0.382,0.329,0.382
	c0.149,0,0.29-0.188,0.422-0.566l0.237-0.778c-0.132-0.22-0.197-0.417-0.197-0.593c0-0.431,0.215-0.646,0.646-0.646
	c0.448,0,0.673,0.229,0.673,0.686c0,0.475-0.246,0.712-0.738,0.712c-0.027,0.606-0.04,0.919-0.04,0.937
	c0,0.123,0.013,0.224,0.04,0.303c0.236,0.123,0.355,0.277,0.355,0.462l-0.014,0.132c-0.018,0.422-0.07,1.072-0.158,1.951
	c-0.043,0.422-0.078,0.795-0.105,1.12c-0.025,0.325-0.039,0.603-0.039,0.831c0,0.686,0.229,1.608,0.686,2.769
	c0.413,1.063,0.84,1.938,1.279,2.623l0.276-0.092c0.896-3.384,1.345-5.129,1.345-5.234c0-0.272-0.782-0.501-2.347-0.686
	l-0.093-0.065c0.186-2.496,0.55-4.285,1.095-5.366l0.185,0.093c-0.018,0.088-0.026,0.171-0.026,0.25
	c0,0.703,0.272,1.143,0.817,1.318c0.255,0.026,0.508,0.053,0.758,0.079s0.504,0.058,0.758,0.093
	c0.545,0.105,0.818,0.439,0.818,1.002c0,0.36-0.312,1.67-0.937,3.929l-1.187,4.337c0.413-0.105,0.91-0.255,1.49-0.448
	s1.252-0.431,2.017-0.712c0.246-0.114,0.422-0.343,0.527-0.686c0.457-1.459,0.954-2.487,1.489-3.085
	c0.035-0.035,0.075-0.109,0.119-0.224l-0.092-0.146c-0.379-0.272-1.262-0.408-2.65-0.408l-0.132-0.053
	c0.299-2.426,0.747-4.206,1.345-5.34l0.225,0.093c-0.027,0.123-0.04,0.246-0.04,0.369c0,0.633,0.198,0.979,0.593,1.041l2.004,0.304
	C42.459,12.714,42.688,13.013,42.688,13.549z M50.559,28.209c0,0.158-0.031,0.305-0.092,0.441c-0.062,0.136-0.143,0.255-0.244,0.355
	c-0.102,0.102-0.22,0.183-0.355,0.244c-0.137,0.062-0.284,0.093-0.442,0.093c-0.149,0-0.292-0.031-0.429-0.093
	c-0.136-0.062-0.257-0.143-0.362-0.244c-0.105-0.101-0.188-0.22-0.251-0.355c-0.061-0.137-0.092-0.283-0.092-0.441
	s0.031-0.304,0.092-0.436c0.062-0.132,0.146-0.248,0.251-0.35c0.105-0.101,0.227-0.18,0.362-0.237
	c0.137-0.057,0.279-0.085,0.429-0.085C50.181,27.102,50.559,27.471,50.559,28.209z M54.039,28.209c0,0.158-0.031,0.305-0.092,0.441
	c-0.062,0.136-0.144,0.255-0.244,0.355c-0.102,0.102-0.221,0.183-0.355,0.244c-0.137,0.062-0.284,0.093-0.442,0.093
	s-0.306-0.031-0.442-0.093c-0.136-0.062-0.254-0.143-0.355-0.244c-0.102-0.101-0.182-0.22-0.244-0.355
	c-0.061-0.137-0.092-0.283-0.092-0.441c0-0.308,0.111-0.569,0.336-0.785c0.225-0.215,0.49-0.322,0.798-0.322
	c0.325,0,0.595,0.107,0.812,0.322C53.932,27.64,54.039,27.902,54.039,28.209z M54.369,16.462c-0.281-0.176-0.629-0.264-1.042-0.264
	c-0.264,0-0.487,0.035-0.673,0.105l0.871,1.886c0.271,0.712,0.408,1.384,0.408,2.017c0,1.89-0.457,3.709-1.371,5.458l-0.185-0.132
	c-0.07-2.25-0.589-4.284-1.556-6.104c-0.141-0.272-0.211-0.501-0.211-0.686c0-0.123,0.383-0.958,1.146-2.505
	c-0.447,0.149-1.062,0.224-1.846,0.224h-5.457c-0.291,0-0.436-0.206-0.436-0.619v-5.432h0.277c0,1.266,0.492,1.898,1.477,1.898
	h2.215v-1.306c-0.273-0.185-0.409-0.404-0.409-0.659c0-0.431,0.229-0.646,0.686-0.646s0.686,0.215,0.686,0.646
	c0,0.316-0.158,0.545-0.475,0.686v1.279h4.522c0.518,0,0.883-0.154,1.094-0.462l0.158,0.158c0,0.088-0.014,0.567-0.039,1.438
	c-0.01,0.308-0.014,0.589-0.014,0.844s0.009,0.483,0.026,0.686c0.044,0.554,0.136,1.02,0.276,1.397L54.369,16.462z M48.95,20.563
	c0,0.158-0.03,0.306-0.093,0.441c-0.061,0.137-0.143,0.255-0.244,0.355c-0.101,0.102-0.219,0.183-0.355,0.244
	s-0.283,0.093-0.441,0.093s-0.306-0.031-0.441-0.093c-0.137-0.062-0.256-0.143-0.355-0.244c-0.102-0.101-0.184-0.219-0.244-0.355
	c-0.062-0.136-0.093-0.283-0.093-0.441c0-0.281,0.118-0.536,0.356-0.765c0.246-0.229,0.505-0.343,0.777-0.343
	c0.325,0,0.596,0.104,0.811,0.31C48.842,19.972,48.95,20.238,48.95,20.563z M61.343,29.027c-0.237,0-0.356-0.137-0.356-0.409v-0.87
	c0-0.264,0.119-0.396,0.356-0.396h5.05c0.229,0,0.342,0.132,0.342,0.396v0.87c0,0.272-0.113,0.409-0.342,0.409H61.343z
	 M67.196,17.267c0,1.16-0.593,2.575-1.78,4.245c-0.201,0.29-0.412,0.619-0.633,0.988c-0.219,0.369-0.447,0.778-0.686,1.227
	c-0.518,1.002-1.015,1.503-1.489,1.503c-0.712,0-1.067-0.325-1.067-0.976c0-0.686,0.347-1.389,1.041-2.109l1.925-1.78
	c0.686-0.694,1.028-1.371,1.028-2.03c0-1.169-1.016-1.753-3.045-1.753h-3.428c-0.861,0-1.736,0.114-2.624,0.343
	c-0.176,0.044-0.269,0.065-0.276,0.065c-0.045,0-0.066-0.021-0.066-0.065c0-0.035,0.018-0.119,0.053-0.251
	c0.105-0.352,0.158-0.909,0.158-1.674v-4.43h0.316c0,1.266,0.479,1.898,1.438,1.898h2.834v-1.345
	c-0.255-0.158-0.383-0.365-0.383-0.62c0-0.457,0.229-0.686,0.686-0.686c0.439,0,0.66,0.229,0.66,0.686
	c0,0.308-0.146,0.527-0.436,0.659v1.306c0.167,0,0.355-0.002,0.566-0.007c0.211-0.004,0.449-0.011,0.713-0.02
	s0.487-0.016,0.672-0.021c0.185-0.004,0.325-0.006,0.422-0.006c0.94,0,1.631,0.171,2.07,0.514c0.518,0.431,0.909,1.266,1.173,2.505
	C67.144,15.926,67.196,16.538,67.196,17.267z M59.748,25.058c0,2.206-0.356,4.474-1.068,6.803l-0.225-0.118
	c0.01-0.018,0.014-0.066,0.014-0.146c0-1.222-0.119-2.658-0.355-4.311c-0.123-0.861-0.26-1.642-0.409-2.341
	c-0.149-0.698-0.312-1.324-0.487-1.878l-0.383-0.976c-0.193-0.475-0.29-0.77-0.29-0.884c0-0.158,0.312-0.615,0.937-1.371
	c0.57-0.686,0.979-1.125,1.226-1.318c0.334,0.571,0.598,1.635,0.791,3.19c0.088,0.633,0.151,1.227,0.191,1.78
	C59.728,24.043,59.748,24.566,59.748,25.058z"/>
</svg>
