<?xml version="1.0" encoding="utf-8"?>
<!-- Generator: Adobe Illustrator 16.0.0, SVG Export Plug-In . SVG Version: 6.00 Build 0)  -->
<!DOCTYPE svg PUBLIC "-//W3C//DTD SVG 1.1//EN" "http://www.w3.org/Graphics/SVG/1.1/DTD/svg11.dtd">
<svg version="1.1" id="Layer_1" xmlns="http://www.w3.org/2000/svg" xmlns:xlink="http://www.w3.org/1999/xlink" x="0px" y="0px"
	 width="95px" height="35px" viewBox="0 0 95 35" enable-background="new 0 0 95 35" xml:space="preserve">
<path fill="#384C62" d="M37.177,16.055c0,1.125-0.008,2.083-0.025,2.874s-0.045,1.428-0.08,1.912
	c-0.148,2.092-0.47,3.639-0.962,4.641c-0.123,0.264-0.211,0.395-0.264,0.395c-0.097,0-0.163-0.162-0.198-0.487
	c-0.043-0.387-0.078-0.853-0.105-1.397c-0.025-0.545-0.048-1.174-0.065-1.885c-0.018-0.826-0.035-1.514-0.053-2.064
	c-0.018-0.549-0.035-0.973-0.053-1.271c-0.07-0.8-0.158-1.297-0.264-1.49c-0.202-0.359-0.638-0.54-1.306-0.54h-3.889
	c-0.22,0-0.51,0.044-0.87,0.132c-0.387,0.079-0.646,0.119-0.778,0.119c-0.043,0-0.065-0.022-0.065-0.066s0.011-0.134,0.032-0.27
	c0.022-0.137,0.056-0.319,0.1-0.548c0.053-0.255,0.092-0.462,0.119-0.62c0.025-0.158,0.043-0.268,0.053-0.329l0.5-4.456h0.277
	c0,1.31,0.721,1.965,2.162,1.965c0.132,0,0.303-0.008,0.514-0.02c0.211-0.014,0.462-0.029,0.752-0.047s0.543-0.033,0.758-0.047
	c0.215-0.012,0.398-0.02,0.547-0.02c0.984,0,1.723,0.211,2.215,0.633C36.86,13.712,37.177,14.675,37.177,16.055z M43.255,14.882
	c0,5.404-0.176,8.824-0.527,10.256c-0.105,0.414-0.25,0.62-0.436,0.62c-0.193,0-0.338-0.153-0.435-0.462
	c-0.009-0.018-0.024-0.18-0.046-0.487c-0.022-0.308-0.055-0.765-0.1-1.371c-0.043-0.703-0.094-1.472-0.151-2.308
	c-0.058-0.834-0.116-1.744-0.178-2.729c-0.035-0.58-0.101-0.971-0.198-1.174c-0.158-0.324-0.487-0.487-0.988-0.487
	c-0.659,0-0.984,0.005-0.976,0.013c-0.325-0.061-0.487-0.294-0.487-0.698c0-1.67,0.158-3.454,0.475-5.353h0.276
	c0,0.773,0.093,1.27,0.276,1.49c0.221,0.271,0.721,0.408,1.504,0.408C42.591,12.601,43.255,13.36,43.255,14.882z M42.385,8.712
	c0,0.158-0.03,0.305-0.093,0.441c-0.061,0.137-0.143,0.255-0.243,0.355c-0.102,0.102-0.22,0.183-0.356,0.244
	s-0.283,0.092-0.441,0.092c-0.149,0-0.293-0.03-0.429-0.092S40.565,9.61,40.46,9.509c-0.105-0.101-0.189-0.219-0.25-0.355
	c-0.062-0.137-0.093-0.283-0.093-0.441c0-0.141,0.03-0.279,0.093-0.416c0.061-0.136,0.145-0.254,0.25-0.355s0.227-0.183,0.362-0.244
	s0.279-0.092,0.429-0.092c0.343,0,0.617,0.104,0.824,0.309C42.281,8.12,42.385,8.386,42.385,8.712z M53.67,16.055
	c0,1.125-0.009,2.083-0.026,2.874s-0.044,1.428-0.079,1.912c-0.149,2.092-0.47,3.639-0.962,4.641
	c-0.123,0.264-0.211,0.395-0.264,0.395c-0.098,0-0.163-0.162-0.198-0.487c-0.044-0.387-0.079-0.853-0.105-1.397
	s-0.048-1.174-0.065-1.885c-0.018-0.826-0.035-1.514-0.053-2.064c-0.018-0.549-0.035-0.973-0.053-1.271
	c-0.07-0.8-0.158-1.297-0.264-1.49c-0.203-0.359-0.638-0.54-1.306-0.54h-3.89c-0.219,0-0.51,0.044-0.869,0.132
	c-0.387,0.079-0.646,0.119-0.778,0.119c-0.044,0-0.065-0.022-0.065-0.066s0.01-0.134,0.032-0.27
	c0.022-0.137,0.056-0.319,0.099-0.548c0.053-0.255,0.093-0.462,0.119-0.62s0.044-0.268,0.053-0.329l0.501-4.456h0.276
	c0,1.31,0.721,1.965,2.162,1.965c0.133,0,0.304-0.008,0.515-0.02c0.211-0.014,0.462-0.029,0.751-0.047
	c0.291-0.018,0.543-0.033,0.759-0.047c0.215-0.012,0.397-0.02,0.547-0.02c0.984,0,1.723,0.211,2.215,0.633
	C53.354,13.712,53.67,14.675,53.67,16.055z M64.243,27.669c0.229,0,0.343,0.133,0.343,0.396v0.869c0,0.273-0.114,0.409-0.343,0.409
	H62.16c0,0.422,0.079,0.809,0.237,1.16l0.303,0.673c0.07,0.158,0.105,0.312,0.105,0.461c0,0.308-0.107,0.564-0.322,0.771
	c-0.216,0.206-0.469,0.31-0.758,0.31c-0.15,0-0.291-0.028-0.422-0.085c-0.133-0.059-0.248-0.137-0.35-0.238s-0.18-0.215-0.238-0.342
	c-0.057-0.129-0.085-0.267-0.085-0.416s0.035-0.303,0.105-0.461l0.29-0.673c0.185-0.396,0.277-0.782,0.277-1.16h-2.109
	c-0.238,0-0.356-0.136-0.356-0.409v-0.869c0-0.264,0.118-0.396,0.356-0.396H64.243z M66.801,24.954c0,0.254-0.053,0.461-0.158,0.619
	c-0.272-0.167-0.593-0.25-0.962-0.25h-4.153c-0.844,0-1.499,0.083-1.964,0.25c0.141-1.046,0.244-1.93,0.309-2.65
	c0.066-0.721,0.1-1.283,0.1-1.688c0.114,0.035,0.255,0.053,0.422,0.053l5.129-0.025l-0.383-2.268
	c-0.132-0.844-0.383-1.424-0.752-1.74s-0.971-0.475-1.806-0.475h-1.767c-0.694,0-1.283,0.254-1.767,0.764
	c-0.492,0.52-0.738,1.117-0.738,1.793v3.902c-0.826,0.73-1.468,1.705-1.925,2.928h-0.158v-4.021c0-0.905,0.268-1.934,0.805-3.085
	c0.545-1.169,0.816-1.7,0.816-1.595c0-0.246-0.307-0.427-0.922-0.541c-0.203-0.018-0.407-0.039-0.613-0.066
	c-0.207-0.025-0.411-0.053-0.613-0.078c-0.387-0.062-0.576-0.449-0.566-1.16l0.171-5.287h0.276c0,0.527,0.146,1.006,0.436,1.438
	c0.308,0.475,0.712,0.76,1.213,0.856l1.266,0.237c0.466,0.176,0.699,0.479,0.699,0.91c0,0.035-0.025,0.285-0.072,0.751
	c-0.049,0.466-0.121,1.155-0.219,2.069c0.766-0.166,1.213-0.605,1.346-1.318l0.566-2.953c0.105,0.203,0.299,0.304,0.58,0.304h2.756
	c1.23,0,2.029,0.831,2.398,2.491c0.168,0.73,0.251,2.044,0.251,3.942V24.954z"/>
</svg>
