<?xml version="1.0" encoding="UTF-8" standalone="no"?>
<svg width="94px" height="34px" viewBox="0 0 94 34" version="1.1" xmlns="http://www.w3.org/2000/svg" xmlns:xlink="http://www.w3.org/1999/xlink">
    <!-- Generator: Sketch 49.1 (51147) - http://www.bohemiancoding.com/sketch -->
    <title>img/indexclose/chp1-hover</title>
    <desc>Created with Sketch.</desc>
    <defs></defs>
    <g id="img/indexclose/chp1-hover" stroke="none" stroke-width="1" fill="none" fill-rule="evenodd">
        <path d="M83.944,21.466 C83.944,23.672 83.588,25.94 82.876,28.269 L82.651,28.151 C82.661,28.133 82.665,28.084 82.665,28.005 C82.665,26.783 82.546,25.347 82.309,23.695 C82.186,22.833 82.049,22.053 81.9,21.354 C81.751,20.655 81.589,20.029 81.413,19.476 L81.03,18.5 C80.837,18.026 80.74,17.731 80.74,17.616 C80.74,17.458 81.051,17.001 81.676,16.245 C82.247,15.56 82.656,15.12 82.902,14.927 C83.236,15.498 83.5,16.562 83.693,18.117 C83.781,18.75 83.844,19.344 83.884,19.898 C83.923,20.451 83.944,20.974 83.944,21.466 Z M91.392,13.675 C91.392,14.835 90.799,16.25 89.612,17.92 C89.411,18.21 89.2,18.539 88.979,18.908 C88.76,19.278 88.532,19.687 88.294,20.135 C87.776,21.137 87.279,21.638 86.804,21.638 C86.092,21.638 85.737,21.313 85.737,20.662 C85.737,19.977 86.084,19.274 86.778,18.553 L88.703,16.773 C89.388,16.078 89.731,15.402 89.731,14.742 C89.731,13.573 88.715,12.989 86.686,12.989 L83.258,12.989 C82.397,12.989 81.522,13.104 80.634,13.332 C80.459,13.376 80.366,13.398 80.358,13.398 C80.313,13.398 80.292,13.376 80.292,13.332 C80.292,13.297 80.309,13.213 80.344,13.081 C80.45,12.73 80.503,12.172 80.503,11.407 L80.503,6.978 L80.819,6.978 C80.819,8.243 81.298,8.876 82.257,8.876 L85.09,8.876 L85.09,7.531 C84.836,7.373 84.708,7.166 84.708,6.911 C84.708,6.454 84.936,6.226 85.393,6.226 C85.833,6.226 86.053,6.454 86.053,6.911 C86.053,7.219 85.908,7.439 85.618,7.57 L85.618,8.876 C85.785,8.876 85.973,8.874 86.184,8.869 C86.395,8.865 86.633,8.859 86.897,8.85 C87.161,8.841 87.384,8.834 87.569,8.829 C87.754,8.825 87.894,8.823 87.991,8.823 C88.931,8.823 89.622,8.994 90.061,9.337 C90.579,9.768 90.97,10.603 91.234,11.842 C91.34,12.334 91.392,12.945 91.392,13.675 Z M85.539,25.435 C85.301,25.435 85.182,25.298 85.182,25.026 L85.182,24.155 C85.182,23.892 85.301,23.76 85.539,23.76 L90.589,23.76 C90.817,23.76 90.93,23.892 90.93,24.155 L90.93,25.026 C90.93,25.298 90.817,25.435 90.589,25.435 L85.539,25.435 Z M73.146,16.971 C73.146,17.129 73.116,17.277 73.053,17.412 C72.993,17.549 72.911,17.667 72.809,17.768 C72.709,17.869 72.59,17.95 72.454,18.012 C72.317,18.073 72.171,18.105 72.012,18.105 C71.854,18.105 71.707,18.073 71.571,18.012 C71.434,17.95 71.315,17.869 71.215,17.768 C71.114,17.667 71.032,17.549 70.971,17.412 C70.909,17.277 70.879,17.129 70.879,16.971 C70.879,16.69 70.997,16.435 71.235,16.206 C71.481,15.978 71.74,15.863 72.012,15.863 C72.338,15.863 72.608,15.967 72.823,16.173 C73.038,16.38 73.146,16.646 73.146,16.971 Z M78.565,12.87 C78.284,12.695 77.936,12.607 77.523,12.607 C77.259,12.607 77.036,12.642 76.85,12.712 L77.721,14.598 C77.993,15.31 78.13,15.982 78.13,16.614 C78.13,18.504 77.673,20.323 76.758,22.072 L76.574,21.941 C76.504,19.691 75.985,17.656 75.018,15.837 C74.878,15.565 74.807,15.336 74.807,15.152 C74.807,15.029 75.19,14.194 75.954,12.647 C75.506,12.796 74.891,12.87 74.108,12.87 L68.651,12.87 C68.36,12.87 68.215,12.664 68.215,12.251 L68.215,6.82 L68.493,6.82 C68.493,8.085 68.985,8.718 69.969,8.718 L72.184,8.718 L72.184,7.412 C71.911,7.228 71.775,7.008 71.775,6.753 C71.775,6.322 72.004,6.108 72.461,6.108 C72.918,6.108 73.146,6.322 73.146,6.753 C73.146,7.07 72.988,7.298 72.672,7.439 L72.672,8.718 L77.194,8.718 C77.712,8.718 78.077,8.564 78.288,8.256 L78.446,8.414 C78.446,8.502 78.432,8.982 78.407,9.852 C78.397,10.159 78.393,10.441 78.393,10.695 C78.393,10.95 78.402,11.179 78.42,11.381 C78.464,11.935 78.555,12.401 78.696,12.778 L78.565,12.87 Z M78.235,24.617 C78.235,24.776 78.204,24.922 78.143,25.059 C78.081,25.195 78,25.314 77.899,25.414 C77.798,25.516 77.678,25.597 77.544,25.658 C77.407,25.72 77.259,25.751 77.101,25.751 C76.943,25.751 76.796,25.72 76.659,25.658 C76.523,25.597 76.405,25.516 76.303,25.414 C76.202,25.314 76.122,25.195 76.059,25.059 C75.999,24.922 75.967,24.776 75.967,24.617 C75.967,24.31 76.079,24.048 76.303,23.832 C76.528,23.617 76.794,23.51 77.101,23.51 C77.426,23.51 77.696,23.617 77.913,23.832 C78.128,24.048 78.235,24.31 78.235,24.617 Z M74.755,24.617 C74.755,24.776 74.723,24.922 74.663,25.059 C74.6,25.195 74.52,25.314 74.419,25.414 C74.317,25.516 74.199,25.597 74.063,25.658 C73.926,25.72 73.779,25.751 73.621,25.751 C73.471,25.751 73.329,25.72 73.192,25.658 C73.056,25.597 72.935,25.516 72.83,25.414 C72.724,25.314 72.641,25.195 72.579,25.059 C72.518,24.922 72.487,24.776 72.487,24.617 C72.487,24.459 72.518,24.314 72.579,24.182 C72.641,24.05 72.724,23.934 72.83,23.832 C72.935,23.732 73.056,23.653 73.192,23.595 C73.329,23.538 73.471,23.51 73.621,23.51 C74.377,23.51 74.755,23.879 74.755,24.617 Z M66.883,9.957 C66.883,10.08 66.862,10.198 66.818,10.313 C65.86,12.703 65.157,15.143 64.709,17.63 C64.638,18.052 64.563,18.41 64.485,18.704 C64.405,18.999 64.331,19.234 64.26,19.409 C63.979,20.104 63.584,20.522 63.074,20.662 L58.117,22.099 C57.783,22.195 57.296,22.486 56.653,22.969 L56.469,22.877 C56.505,22.78 56.522,22.64 56.522,22.455 C56.522,21.822 56.231,20.733 55.651,19.186 C55.071,17.648 54.782,16.447 54.782,15.586 C54.782,15.305 54.839,14.923 54.953,14.44 C55.076,13.921 55.137,13.552 55.137,13.332 C55.137,13.086 54.835,12.963 54.227,12.963 C53.067,12.963 52.409,12.993 52.251,13.055 C52.092,12.44 52.012,11.627 52.012,10.616 C52.012,9.904 52.061,9.293 52.158,8.783 C52.219,8.81 52.276,8.823 52.329,8.823 C52.426,8.823 52.474,8.397 52.474,7.544 C52.158,7.43 52,7.201 52,6.859 C52,6.402 52.219,6.173 52.659,6.173 C53.116,6.173 53.344,6.402 53.344,6.859 C53.344,7.157 53.23,7.356 53.002,7.452 L53.002,7.815 C53.002,7.933 53.007,8.054 53.014,8.177 C53.049,8.52 53.165,8.692 53.358,8.692 C53.542,8.692 53.705,8.344 53.845,7.65 L54.083,6.319 C53.881,6.099 53.78,5.879 53.78,5.659 C53.78,5.22 54.004,5 54.452,5 C54.9,5 55.124,5.224 55.124,5.672 C55.124,6.068 54.923,6.305 54.518,6.384 L54.465,8.375 C54.448,8.63 54.557,8.757 54.795,8.757 C54.944,8.757 55.085,8.569 55.216,8.191 L55.454,7.412 C55.322,7.193 55.257,6.995 55.257,6.82 C55.257,6.389 55.471,6.173 55.902,6.173 C56.35,6.173 56.575,6.402 56.575,6.859 C56.575,7.333 56.329,7.57 55.837,7.57 C55.809,8.177 55.797,8.489 55.797,8.507 C55.797,8.63 55.809,8.731 55.837,8.81 C56.073,8.933 56.192,9.087 56.192,9.272 L56.178,9.403 C56.161,9.825 56.108,10.476 56.02,11.355 C55.977,11.777 55.942,12.15 55.915,12.475 C55.889,12.8 55.876,13.077 55.876,13.306 C55.876,13.991 56.104,14.914 56.561,16.074 C56.974,17.138 57.401,18.012 57.84,18.697 L58.117,18.606 C59.013,15.222 59.462,13.477 59.462,13.371 C59.462,13.099 58.679,12.87 57.115,12.686 L57.022,12.62 C57.208,10.124 57.572,8.335 58.117,7.254 L58.301,7.347 C58.284,7.435 58.275,7.518 58.275,7.597 C58.275,8.3 58.548,8.739 59.092,8.915 C59.347,8.942 59.6,8.968 59.85,8.994 C60.1,9.021 60.354,9.052 60.608,9.087 C61.153,9.193 61.426,9.527 61.426,10.089 C61.426,10.449 61.114,11.759 60.49,14.018 L59.303,18.355 C59.716,18.249 60.214,18.1 60.794,17.906 C61.374,17.713 62.046,17.476 62.81,17.195 C63.056,17.08 63.232,16.852 63.338,16.509 C63.795,15.05 64.292,14.022 64.827,13.424 C64.862,13.389 64.902,13.315 64.946,13.2 L64.854,13.055 C64.475,12.782 63.592,12.647 62.204,12.647 L62.072,12.594 C62.371,10.168 62.819,8.388 63.417,7.254 L63.641,7.347 C63.614,7.47 63.601,7.593 63.601,7.716 C63.601,8.349 63.799,8.695 64.194,8.757 L66.198,9.061 C66.655,9.122 66.883,9.421 66.883,9.957 Z" id="Fill-1" fill="#0A9CA3"></path>
    </g>
</svg>