<?xml version="1.0" encoding="UTF-8" standalone="no"?>
<svg width="94px" height="34px" viewBox="0 0 94 34" version="1.1" xmlns="http://www.w3.org/2000/svg" xmlns:xlink="http://www.w3.org/1999/xlink">
    <!-- Generator: Sketch 49.1 (51147) - http://www.bohemiancoding.com/sketch -->
    <title>img/indexclose/chp4-normal</title>
    <desc>Created with Sketch.</desc>
    <defs></defs>
    <g id="img/indexclose/chp4-normal" stroke="none" stroke-width="1" fill="none" fill-rule="evenodd">
        <path d="M91.624,12.697 C91.624,13.822 91.395,14.894 90.938,15.914 C90.437,17.048 89.751,17.878 88.882,18.405 C88.811,18.449 88.745,18.471 88.684,18.471 C88.525,18.471 88.446,18.388 88.446,18.221 C88.446,18.274 88.679,17.922 89.145,17.166 C89.61,16.41 89.844,15.725 89.844,15.11 C89.844,14.582 89.668,14.319 89.316,14.319 L88.038,14.332 C87.792,14.332 87.624,14.442 87.536,14.661 C87.44,14.872 87.383,14.978 87.365,14.978 C87.145,14.793 87.036,13.919 87.036,12.354 C87.036,10.509 87.149,9.151 87.378,8.28 L87.655,8.28 C87.655,8.948 87.765,9.419 87.985,9.691 C88.222,10.016 88.653,10.179 89.276,10.179 L89.751,9.335 C89.593,9.089 89.515,8.878 89.515,8.702 C89.515,8.298 89.738,8.096 90.187,8.096 C90.644,8.096 90.872,8.324 90.872,8.781 C90.872,9.256 90.622,9.493 90.12,9.493 L89.909,10.205 C90.63,10.205 91.118,10.451 91.373,10.944 C91.54,11.278 91.624,11.862 91.624,12.697 Z M87.708,26.922 C87.471,26.922 87.353,26.786 87.353,26.513 L87.353,25.643 C87.353,25.38 87.471,25.248 87.708,25.248 L92.757,25.248 C92.985,25.248 93.101,25.38 93.101,25.643 L93.101,26.513 C93.101,26.786 92.985,26.922 92.757,26.922 L87.708,26.922 Z M85.309,13.58 C85.309,14.02 85.212,14.2 85.019,14.121 C84.764,14.068 84.618,14.042 84.583,14.042 L83.832,14.068 C83.735,14.068 83.687,14.103 83.687,14.174 C83.792,14.314 83.911,14.516 84.043,14.78 C84.605,15.782 84.931,16.678 85.019,17.469 C85.045,17.672 85.062,17.872 85.071,18.069 C85.08,18.267 85.08,18.454 85.071,18.63 C85.036,20.027 84.417,21.657 83.212,23.521 L83.041,23.415 C83.173,22.774 83.239,22.114 83.239,21.438 C83.239,19.935 82.913,18.638 82.263,17.549 C82.097,17.294 82.013,17.087 82.013,16.929 C82.013,16.771 82.052,16.599 82.132,16.415 C82.228,16.186 82.336,15.894 82.454,15.538 C82.573,15.182 82.707,14.767 82.856,14.292 C82.856,14.143 82.549,14.068 81.934,14.068 L81.103,14.068 C80.884,14.068 80.756,13.936 80.721,13.673 C80.562,12.31 80.294,11.401 79.917,10.944 C79.749,10.75 79.64,10.777 79.587,11.023 C79.35,11.989 79.231,12.926 79.231,13.831 C79.231,14.112 79.081,14.209 78.782,14.121 C78.476,14.024 78.114,13.998 77.702,14.042 C77.358,14.059 77.187,14.231 77.187,14.556 C77.187,14.749 77.275,15.083 77.451,15.558 C77.811,16.507 77.991,17.461 77.991,18.419 C77.991,18.928 77.772,19.715 77.333,20.779 C76.901,21.824 76.401,22.765 75.829,23.6 L75.698,23.442 C75.847,22.826 75.922,22.15 75.922,21.411 C75.922,20.023 75.693,18.845 75.236,17.878 C75.184,17.773 75.157,17.654 75.157,17.522 C75.157,17.399 75.21,17.25 75.315,17.074 C75.386,16.933 75.442,16.828 75.487,16.758 C75.53,16.687 75.558,16.648 75.565,16.639 C76.12,15.391 76.396,14.679 76.396,14.503 C76.396,14.213 76.181,14.068 75.751,14.068 L75.184,14.068 C74.929,14.068 74.739,14.103 74.616,14.174 C74.528,14.253 74.485,14.226 74.485,14.094 L74.485,9.942 C74.731,10.082 75.136,10.153 75.698,10.153 C75.979,10.153 76.168,10.021 76.265,9.757 C76.353,9.493 76.436,9.023 76.515,8.346 C76.19,8.232 76.027,8.008 76.027,7.674 C76.027,7.226 76.251,7.002 76.7,7.002 C77.147,7.002 77.372,7.226 77.372,7.674 C77.372,7.999 77.228,8.215 76.936,8.32 L77.056,9.704 C77.064,10.003 77.27,10.153 77.675,10.153 C77.815,10.205 78.177,10.205 78.757,10.153 C79.028,9.151 79.35,8.404 79.719,7.911 C79.965,7.586 80.136,7.424 80.233,7.424 C80.329,7.424 80.448,7.481 80.589,7.595 C81.38,8.263 81.991,9.124 82.421,10.179 C83.995,10.24 84.966,10.17 85.335,9.968 L85.309,13.58 Z M78.321,26.922 C78.084,26.922 77.966,26.786 77.966,26.513 L77.966,25.643 C77.966,25.38 78.084,25.248 78.321,25.248 L83.37,25.248 C83.599,25.248 83.714,25.38 83.714,25.643 L83.714,26.513 C83.714,26.786 83.599,26.922 83.37,26.922 L78.321,26.922 Z M72.665,7.753 C72.481,8.913 72.389,10.97 72.389,13.923 C72.389,14.31 72.042,14.503 71.347,14.503 C71.276,14.503 71.187,14.501 71.077,14.497 C70.967,14.492 70.842,14.486 70.701,14.477 C70.42,14.45 70.244,14.437 70.174,14.437 C69.937,14.437 69.8,14.464 69.765,14.516 C69.765,14.525 69.726,14.661 69.646,14.925 L68.618,18.551 C69.409,19.86 69.805,21.635 69.805,23.877 C69.805,24.325 69.785,24.786 69.745,25.261 C69.706,25.736 69.651,26.228 69.581,26.738 C69.546,26.992 69.501,27.311 69.448,27.693 C69.395,28.076 69.33,28.522 69.251,29.031 C69.242,29.163 69.194,29.379 69.106,29.677 C69.106,29.713 69.093,29.735 69.066,29.743 C68.882,29.743 68.79,29.423 68.79,28.781 C68.79,25.459 67.937,22.541 66.231,20.027 C65.722,19.298 65.401,18.419 65.27,17.39 C65.234,17.153 65.21,16.801 65.197,16.336 C65.184,15.87 65.177,15.285 65.177,14.582 C65.177,14.433 65.142,14.358 65.071,14.358 C64.772,14.358 64.343,14.371 63.78,14.398 C63.208,14.424 62.778,14.437 62.487,14.437 C62.216,14.437 62.075,14.266 62.065,13.923 L62.053,10.693 C62.044,10.552 62.11,10.429 62.251,10.324 C62.399,10.218 62.475,10.069 62.475,9.876 L62.475,8.518 C62.158,8.386 62,8.157 62,7.832 C62,7.384 62.224,7.16 62.673,7.16 C63.13,7.16 63.358,7.384 63.358,7.832 C63.358,8.122 63.218,8.329 62.937,8.452 C62.954,8.628 62.967,8.803 62.976,8.979 L63.002,9.507 C63.063,10.06 63.183,10.337 63.358,10.337 C63.534,10.337 63.714,9.893 63.898,9.006 L64.057,8.162 C64.109,7.881 64.157,7.599 64.202,7.318 C64.009,7.098 63.911,6.879 63.911,6.659 C63.911,6.219 64.136,6 64.584,6 C65.032,6 65.257,6.224 65.257,6.672 C65.257,7.059 65.054,7.292 64.649,7.371 L64.36,10.021 C64.325,10.346 64.448,10.509 64.729,10.509 C64.948,10.509 65.146,10.218 65.322,9.638 L65.599,8.478 C65.458,8.259 65.388,8.056 65.388,7.872 C65.388,7.45 65.608,7.239 66.048,7.239 C66.46,7.239 66.667,7.428 66.667,7.806 C66.667,7.999 66.599,8.181 66.463,8.353 C66.326,8.524 66.166,8.61 65.981,8.61 C65.92,9.093 65.874,9.463 65.843,9.718 C65.812,9.972 65.797,10.113 65.797,10.139 C65.797,10.324 65.845,10.416 65.942,10.416 C66.02,10.416 66.136,10.35 66.284,10.218 L66.284,13.936 C66.284,15.483 66.764,16.63 67.722,17.377 C68.152,15.382 68.368,13.47 68.368,11.642 C68.368,11.045 68.337,10.566 68.275,10.205 C68.469,10.276 69.054,10.311 70.028,10.311 L70.648,10.311 C71.062,10.311 71.431,9.964 71.756,9.269 C71.791,9.164 71.839,9.032 71.901,8.874 C71.954,8.742 72.017,8.579 72.092,8.386 C72.167,8.193 72.257,7.964 72.362,7.7 L72.665,7.753 Z" id="Fill-7" fill="#FBF9ED"></path>
    </g>
</svg>