<?xml version="1.0" encoding="UTF-8" standalone="no"?>
<svg width="40px" height="40px" viewBox="0 0 40 40" version="1.1" xmlns="http://www.w3.org/2000/svg" xmlns:xlink="http://www.w3.org/1999/xlink">
    <!-- Generator: Sketch 49.1 (51147) - http://www.bohemiancoding.com/sketch -->
    <title>btn/tools/zoomout/hover</title>
    <desc>Created with Sketch.</desc>
    <defs>
        <path d="M14.3891305,12.9859878 L18.1883635,16.4780971 C18.6240809,16.8785919 18.6240809,17.5279221 18.1883635,17.9284168 C17.7526461,18.3289116 17.0462086,18.3289116 16.6104912,17.9284168 L12.8617595,14.4827263 C11.5947484,15.4173157 10.0285486,15.969697 8.33333333,15.969697 C4.11588615,15.969697 0.696969697,12.5507805 0.696969697,8.33333333 C0.696969697,4.11588615 4.11588615,0.696969697 8.33333333,0.696969697 C12.5507805,0.696969697 15.969697,4.11588615 15.969697,8.33333333 C15.969697,10.08439 15.3803248,11.6977915 14.3891305,12.9859878 Z M12.0317363,11.8318038 C12.8949019,10.9196246 13.4242424,9.688296 13.4242424,8.33333333 C13.4242424,5.52170188 11.1449648,3.24242424 8.33333333,3.24242424 C5.52170188,3.24242424 3.24242424,5.52170188 3.24242424,8.33333333 C3.24242424,11.1449648 5.52170188,13.4242424 8.33333333,13.4242424 C9.55336451,13.4242424 10.6731593,12.9950794 11.5499889,12.2794821 C11.6020432,12.184856 11.6710772,12.0960983 11.7570911,12.0170377 C11.8400679,11.9407686 11.9328628,11.8790239 12.0317363,11.8318038 Z M5.78787879,9.18181818 C5.31927355,9.18181818 4.93939394,8.80193858 4.93939394,8.33333333 C4.93939394,7.86472809 5.31927355,7.48484848 5.78787879,7.48484848 L10.8787879,7.48484848 C11.3473931,7.48484848 11.7272727,7.86472809 11.7272727,8.33333333 C11.7272727,8.80193858 11.3473931,9.18181818 10.8787879,9.18181818 L5.78787879,9.18181818 Z" id="path-1"></path>
        <path d="M14.5288464,13.3141622 L18.3668471,16.8995273 C18.8070106,17.3107171 18.8070106,17.9773875 18.3668471,18.3885773 C17.9266836,18.7997672 17.2130376,18.7997672 16.7728741,18.3885773 L12.9858901,14.8508707 C11.7059502,15.8104181 10.1237688,16.3775505 8.41125541,16.3775505 C4.15077306,16.3775505 0.696969697,12.8673329 0.696969697,8.53726008 C0.696969697,4.20718727 4.15077306,0.696969697 8.41125541,0.696969697 C12.6717378,0.696969697 16.1255411,4.20718727 16.1255411,8.53726008 C16.1255411,10.3350782 15.530155,11.991565 14.5288464,13.3141622 Z M12.1473972,12.1291561 C13.0193706,11.1926174 13.5541126,9.92840661 13.5541126,8.53726008 C13.5541126,5.65054487 11.251577,3.31039982 8.41125541,3.31039982 C5.57093384,3.31039982 3.26839827,5.65054487 3.26839827,8.53726008 C3.26839827,11.4239753 5.57093384,13.7641203 8.41125541,13.7641203 C9.64373589,13.7641203 10.7749571,13.3234966 11.660734,12.5887896 C11.7133194,12.4916364 11.7830579,12.4005086 11.8699495,12.3193367 C11.953773,12.2410308 12.0475148,12.1776372 12.1473972,12.1291561 Z M5.83982684,9.40840345 C5.36643991,9.40840345 4.98268398,9.01837928 4.98268398,8.53726008 C4.98268398,8.05614088 5.36643991,7.6661167 5.83982684,7.6661167 L10.982684,7.6661167 C11.4560709,7.6661167 11.8398268,8.05614088 11.8398268,8.53726008 C11.8398268,9.01837928 11.4560709,9.40840345 10.982684,9.40840345 L5.83982684,9.40840345 Z" id="path-3"></path>
    </defs>
    <g id="btn/tools/zoomout/hover" stroke="none" stroke-width="1" fill="none" fill-rule="evenodd">
        <rect id="Rectangle" fill="#FBF9ED" x="0" y="0" width="40" height="40" rx="3"></rect>
        <g id="zoom-in" transform="translate(11.181818, 11.181818)">
            <mask id="mask-2" fill="white">
                <use xlink:href="#path-1"></use>
            </mask>
            <use id="Combined-Shape" fill="#FBF9ED" fill-rule="nonzero" xlink:href="#path-1"></use>
        </g>
        <g id="zoom-in" transform="translate(11.181818, 11.181818)">
            <mask id="mask-4" fill="white">
                <use xlink:href="#path-3"></use>
            </mask>
            <use id="Combined-Shape" fill="#384C62" fill-rule="nonzero" xlink:href="#path-3"></use>
            <g id="zoom-shape" mask="url(#mask-4)" fill="#384C62">
                <g transform="translate(-1.000000, -1.000000)" id="Rectangle">
                    <rect x="0" y="0" width="20" height="20"></rect>
                </g>
            </g>
        </g>
    </g>
</svg>