<?xml version="1.0" encoding="UTF-8" standalone="no"?>
<svg width="40px" height="40px" viewBox="0 0 40 40" version="1.1" xmlns="http://www.w3.org/2000/svg" xmlns:xlink="http://www.w3.org/1999/xlink">
    <!-- Generator: Sketch 49.1 (51147) - http://www.bohemiancoding.com/sketch -->
    <title>btn/tools/zoomout/normal</title>
    <desc>Created with Sketch.</desc>
    <defs>
        <path d="M13.8318767,12.6171925 L17.6698774,16.2025576 C18.1100409,16.6137474 18.1100409,17.2804178 17.6698774,17.6916076 C17.2297139,18.1027975 16.5160679,18.1027975 16.0759044,17.6916076 L12.2889204,14.153901 C11.0089805,15.1134484 9.42679915,15.6805808 7.71428571,15.6805808 C3.45380336,15.6805808 0,12.1703632 0,7.84029038 C0,3.51021757 3.45380336,6.39488462e-14 7.71428571,6.39488462e-14 C11.9747681,6.39488462e-14 15.4285714,3.51021757 15.4285714,7.84029038 C15.4285714,9.6381085 14.8331853,11.2945953 13.8318767,12.6171925 Z M11.4504275,11.4321864 C12.3224009,10.4956477 12.8571429,9.23143691 12.8571429,7.84029038 C12.8571429,4.95357517 10.5546073,2.61343013 7.71428571,2.61343013 C4.87396414,2.61343013 2.57142857,4.95357517 2.57142857,7.84029038 C2.57142857,10.7270056 4.87396414,13.0671506 7.71428571,13.0671506 C8.94676619,13.0671506 10.0779874,12.6265269 10.9637643,11.8918199 C11.0163498,11.7946667 11.0860882,11.7035389 11.1729798,11.622367 C11.2568033,11.5440611 11.3505451,11.4806675 11.4504275,11.4321864 Z M5.14285714,8.71143376 C4.66947021,8.71143376 4.28571429,8.32140958 4.28571429,7.84029038 C4.28571429,7.35917118 4.66947021,6.96914701 5.14285714,6.96914701 L10.2857143,6.96914701 C10.7591012,6.96914701 11.1428571,7.35917118 11.1428571,7.84029038 C11.1428571,8.32140958 10.7591012,8.71143376 10.2857143,8.71143376 L5.14285714,8.71143376 Z" id="path-1"></path>
    </defs>
    <g id="btn/tools/zoomout/normal" stroke="none" stroke-width="1" fill="none" fill-rule="evenodd">
        <rect id="Rectangle" fill-opacity="0.8" fill="#384C62" x="0" y="0" width="40" height="40" rx="3"></rect>
        <g id="zoom-in" transform="translate(11.181818, 11.181818)">
            <mask id="mask-2" fill="white">
                <use xlink:href="#path-1"></use>
            </mask>
            <use id="Combined-Shape" fill="#FBF9ED" fill-rule="nonzero" xlink:href="#path-1"></use>
            <g id="COLOR/-black" mask="url(#mask-2)" fill="#FAF7E1">
                <g transform="translate(-1.000000, -1.000000)" id="Rectangle">
                    <rect x="0" y="0" width="20.3636364" height="20.3636364"></rect>
                </g>
            </g>
        </g>
    </g>
</svg>