<?xml version="1.0" encoding="utf-8"?>
<!-- Generator: Adobe Illustrator 16.0.0, SVG Export Plug-In . SVG Version: 6.00 Build 0)  -->
<!DOCTYPE svg PUBLIC "-//W3C//DTD SVG 1.1//EN" "http://www.w3.org/Graphics/SVG/1.1/DTD/svg11.dtd">
<svg version="1.1" id="Layer_1" xmlns="http://www.w3.org/2000/svg" xmlns:xlink="http://www.w3.org/1999/xlink" x="0px" y="0px"
	 width="95px" height="35px" viewBox="0 0 95 35" enable-background="new 0 0 95 35" xml:space="preserve">
<path fill="#FFFFDF" d="M42.615,9.96c-0.184,1.16-0.276,3.217-0.276,6.17c0,0.387-0.347,0.58-1.042,0.58
	c-0.07,0-0.16-0.002-0.27-0.006c-0.11-0.004-0.235-0.011-0.376-0.02c-0.281-0.026-0.457-0.04-0.527-0.04
	c-0.237,0-0.374,0.026-0.409,0.079c0,0.009-0.039,0.145-0.118,0.409l-1.028,3.625c0.791,1.31,1.187,3.085,1.187,5.326
	c0,0.448-0.02,0.91-0.06,1.384c-0.039,0.475-0.094,0.967-0.164,1.477c-0.035,0.255-0.08,0.574-0.133,0.956
	c-0.053,0.383-0.118,0.829-0.197,1.338c-0.009,0.132-0.057,0.347-0.145,0.646c0,0.035-0.014,0.057-0.04,0.066
	c-0.185,0-0.276-0.321-0.276-0.962c0-3.322-0.854-6.24-2.559-8.754c-0.51-0.729-0.83-1.608-0.962-2.637
	c-0.035-0.237-0.06-0.589-0.072-1.055c-0.014-0.466-0.021-1.05-0.021-1.753c0-0.149-0.035-0.224-0.105-0.224
	c-0.299,0-0.729,0.013-1.291,0.04c-0.572,0.026-1.002,0.04-1.293,0.04c-0.271,0-0.412-0.171-0.422-0.514l-0.013-3.23
	c-0.009-0.141,0.058-0.264,0.198-0.369c0.148-0.105,0.224-0.255,0.224-0.448v-1.358c-0.316-0.132-0.475-0.36-0.475-0.686
	c0-0.448,0.224-0.672,0.673-0.672c0.457,0,0.686,0.224,0.686,0.672c0,0.29-0.141,0.497-0.422,0.62
	c0.018,0.176,0.03,0.352,0.039,0.527s0.018,0.352,0.026,0.527c0.062,0.554,0.181,0.831,0.356,0.831s0.355-0.444,0.54-1.332
	c0.053-0.281,0.105-0.562,0.158-0.844s0.101-0.562,0.146-0.844c-0.193-0.22-0.291-0.439-0.291-0.659
	c0-0.439,0.225-0.659,0.673-0.659s0.673,0.224,0.673,0.672c0,0.387-0.203,0.62-0.607,0.699l-0.289,2.65
	c-0.035,0.325,0.088,0.488,0.369,0.488c0.219,0,0.417-0.29,0.593-0.87l0.276-1.16c-0.141-0.22-0.211-0.422-0.211-0.606
	c0-0.422,0.221-0.633,0.66-0.633c0.412,0,0.619,0.189,0.619,0.567c0,0.193-0.068,0.375-0.204,0.547
	c-0.137,0.171-0.297,0.257-0.481,0.257c-0.062,0.483-0.107,0.853-0.139,1.107s-0.046,0.396-0.046,0.422
	c0,0.185,0.048,0.277,0.146,0.277c0.078,0,0.193-0.066,0.342-0.198v3.718c0,1.547,0.479,2.694,1.438,3.441
	c0.431-1.995,0.646-3.907,0.646-5.735c0-0.598-0.031-1.077-0.093-1.437c0.193,0.07,0.778,0.105,1.753,0.105h0.62
	c0.413,0,0.782-0.347,1.107-1.042c0.035-0.105,0.083-0.237,0.146-0.396c0.053-0.132,0.115-0.294,0.19-0.488s0.165-0.422,0.271-0.686
	L42.615,9.96z M48.271,29.129c-0.237,0-0.355-0.136-0.355-0.409v-0.87c0-0.264,0.118-0.396,0.355-0.396h5.049
	c0.229,0,0.344,0.132,0.344,0.396v0.87c0,0.272-0.115,0.409-0.344,0.409H48.271z M55.258,15.788c0,0.439-0.097,0.62-0.29,0.541
	c-0.255-0.053-0.4-0.079-0.436-0.079l-0.751,0.026c-0.097,0-0.146,0.035-0.146,0.105c0.105,0.141,0.225,0.343,0.356,0.606
	c0.562,1.002,0.888,1.898,0.976,2.689c0.026,0.202,0.044,0.402,0.053,0.6c0.009,0.198,0.009,0.385,0,0.561
	c-0.035,1.397-0.654,3.028-1.859,4.891l-0.171-0.105c0.132-0.642,0.198-1.301,0.198-1.978c0-1.503-0.326-2.799-0.977-3.889
	c-0.166-0.255-0.25-0.461-0.25-0.62s0.039-0.33,0.119-0.514c0.096-0.229,0.204-0.521,0.322-0.877
	c0.119-0.355,0.253-0.771,0.402-1.246c0-0.149-0.308-0.224-0.923-0.224h-0.831c-0.219,0-0.347-0.132-0.382-0.396
	c-0.158-1.362-0.427-2.272-0.804-2.729c-0.168-0.193-0.277-0.167-0.33,0.079c-0.237,0.967-0.355,1.903-0.355,2.808
	c0,0.281-0.15,0.378-0.449,0.29c-0.307-0.097-0.668-0.123-1.08-0.079c-0.344,0.018-0.515,0.189-0.515,0.514
	c0,0.193,0.088,0.527,0.264,1.002c0.36,0.949,0.54,1.903,0.54,2.861c0,0.51-0.219,1.296-0.658,2.36
	c-0.432,1.046-0.932,1.986-1.504,2.821l-0.131-0.158c0.148-0.615,0.224-1.292,0.224-2.03c0-1.389-0.229-2.566-0.686-3.533
	c-0.053-0.105-0.079-0.224-0.079-0.356c0-0.123,0.053-0.272,0.158-0.448c0.07-0.141,0.127-0.246,0.172-0.316
	c0.043-0.07,0.07-0.11,0.078-0.119c0.555-1.248,0.831-1.96,0.831-2.136c0-0.29-0.216-0.435-0.646-0.435h-0.567
	c-0.255,0-0.444,0.035-0.567,0.105c-0.088,0.079-0.131,0.053-0.131-0.079v-4.153c0.246,0.141,0.65,0.211,1.213,0.211
	c0.281,0,0.47-0.132,0.566-0.396c0.088-0.264,0.172-0.734,0.25-1.411c-0.324-0.114-0.487-0.338-0.487-0.672
	c0-0.448,0.224-0.672,0.673-0.672c0.447,0,0.672,0.224,0.672,0.672c0,0.325-0.145,0.541-0.436,0.646l0.119,1.384
	c0.009,0.299,0.215,0.448,0.619,0.448c0.141,0.053,0.502,0.053,1.082,0c0.271-1.002,0.593-1.749,0.962-2.241
	c0.246-0.325,0.417-0.488,0.515-0.488c0.096,0,0.215,0.057,0.355,0.171c0.791,0.668,1.402,1.529,1.832,2.584
	c1.574,0.062,2.545-0.009,2.914-0.211L55.258,15.788z M57.658,29.129c-0.237,0-0.355-0.136-0.355-0.409v-0.87
	c0-0.264,0.118-0.396,0.355-0.396h5.049c0.229,0,0.344,0.132,0.344,0.396v0.87c0,0.272-0.115,0.409-0.344,0.409H57.658z
	 M61.574,14.904c0,1.125-0.229,2.197-0.686,3.217c-0.502,1.134-1.188,1.964-2.057,2.492c-0.07,0.044-0.137,0.066-0.198,0.066
	c-0.158,0-0.237-0.083-0.237-0.25c0,0.053,0.232-0.299,0.699-1.055c0.465-0.756,0.698-1.441,0.698-2.057
	c0-0.527-0.176-0.791-0.527-0.791l-1.278,0.013c-0.246,0-0.414,0.11-0.502,0.33c-0.096,0.211-0.153,0.316-0.171,0.316
	c-0.22-0.185-0.329-1.059-0.329-2.624c0-1.846,0.113-3.204,0.342-4.074h0.277c0,0.668,0.109,1.138,0.33,1.411
	c0.236,0.325,0.668,0.488,1.291,0.488l0.475-0.844c-0.158-0.246-0.236-0.457-0.236-0.633c0-0.404,0.224-0.606,0.672-0.606
	c0.457,0,0.686,0.229,0.686,0.686c0,0.475-0.25,0.712-0.752,0.712l-0.211,0.712c0.721,0,1.209,0.246,1.464,0.738
	C61.49,13.485,61.574,14.069,61.574,14.904z"/>
</svg>
