<?xml version="1.0" encoding="UTF-8" standalone="no"?>
<svg width="40px" height="40px" viewBox="0 0 40 40" version="1.1" xmlns="http://www.w3.org/2000/svg" xmlns:xlink="http://www.w3.org/1999/xlink">
    <!-- Generator: Sketch 49.1 (51147) - http://www.bohemiancoding.com/sketch -->
    <title>btn/tools/zoomin/normal</title>
    <desc>Created with Sketch.</desc>
    <defs>
        <path d="M10.1818182,8.48484848 L11.8787879,8.48484848 C12.3473931,8.48484848 12.7272727,8.86472809 12.7272727,9.33333333 C12.7272727,9.80193858 12.3473931,10.1818182 11.8787879,10.1818182 L10.1818182,10.1818182 L10.1818182,11.8787879 C10.1818182,12.3473931 9.80193858,12.7272727 9.33333333,12.7272727 C8.86472809,12.7272727 8.48484848,12.3473931 8.48484848,11.8787879 L8.48484848,10.1818182 L6.78787879,10.1818182 C6.31927355,10.1818182 5.93939394,9.80193858 5.93939394,9.33333333 C5.93939394,8.86472809 6.31927355,8.48484848 6.78787879,8.48484848 L8.48484848,8.48484848 L8.48484848,6.78787879 C8.48484848,6.31927355 8.86472809,5.93939394 9.33333333,5.93939394 C9.80193858,5.93939394 10.1818182,6.31927355 10.1818182,6.78787879 L10.1818182,8.48484848 Z M15.3891305,13.9859878 L19.1883635,17.4780971 C19.6240809,17.8785919 19.6240809,18.5279221 19.1883635,18.9284168 C18.7526461,19.3289116 18.0462086,19.3289116 17.6104912,18.9284168 L13.8617595,15.4827263 C12.5947484,16.4173157 11.0285486,16.969697 9.33333333,16.969697 C5.11588615,16.969697 1.6969697,13.5507805 1.6969697,9.33333333 C1.6969697,5.11588615 5.11588615,1.6969697 9.33333333,1.6969697 C13.5507805,1.6969697 16.969697,5.11588615 16.969697,9.33333333 C16.969697,11.08439 16.3803248,12.6977915 15.3891305,13.9859878 Z M13.0317363,12.8318038 C13.8949019,11.9196246 14.4242424,10.688296 14.4242424,9.33333333 C14.4242424,6.52170188 12.1449648,4.24242424 9.33333333,4.24242424 C6.52170188,4.24242424 4.24242424,6.52170188 4.24242424,9.33333333 C4.24242424,12.1449648 6.52170188,14.4242424 9.33333333,14.4242424 C10.5533645,14.4242424 11.6731593,13.9950794 12.5499889,13.2794821 C12.6020432,13.184856 12.6710772,13.0960983 12.7570911,13.0170377 C12.8400679,12.9407686 12.9328628,12.8790239 13.0317363,12.8318038 Z" id="path-1"></path>
    </defs>
    <g id="btn/tools/zoomin/normal" stroke="none" stroke-width="1" fill="none" fill-rule="evenodd">
        <rect id="Rectangle" fill-opacity="0.8" fill="#384C62" x="0" y="0" width="40" height="40" rx="3"></rect>
        <g id="zoom-in" transform="translate(10.181818, 10.181818)">
            <mask id="mask-2" fill="white">
                <use xlink:href="#path-1"></use>
            </mask>
            <use id="Combined-Shape" fill="#FBF9ED" fill-rule="nonzero" xlink:href="#path-1"></use>
            <g id="COLOR/-black" mask="url(#mask-2)" fill="#FAF7E1">
                <rect id="Rectangle" x="0" y="0" width="20.3636364" height="20.3636364"></rect>
            </g>
        </g>
    </g>
</svg>