<?xml version="1.0" encoding="UTF-8" standalone="no"?>
<svg width="190px" height="55px" viewBox="0 0 190 55" version="1.1" xmlns="http://www.w3.org/2000/svg" xmlns:xlink="http://www.w3.org/1999/xlink">
    <!-- Generator: Sketch 48.2 (47327) - http://www.bohemiancoding.com/sketch -->
    <title>btn/tools/print/normal</title>
    <desc>Created with Sketch.</desc>
    <defs></defs>
    <g id="Symboles" stroke="none" stroke-width="1" fill="none" fill-rule="evenodd">
        <g id="btn/tools/print/normal">
            <rect id="Rectangle" fill="#FA7F8E" x="0" y="0" width="190" height="55" rx="3"></rect>
            <text id="הגדה-להדפסה" font-family="Assistant-Regular, Assistant" font-size="22" font-weight="normal" fill="#FBF9ED">
                <tspan x="12" y="35">הגדה להדפסה</tspan>
            </text>
            <path d="M147,17 C144.791,17 143,18.3992187 143,20.125 L143,36.53125 C143,38.2570313 144.885,39.1195312 147,39.65625 L158,42 L158,19.34375 C152.988,18.29375 147,17 147,17 L147,17 Z M171.013024,17 C171.013024,17 165.24387,18.2453125 160,19.34375 L160.04884,19.34375 L160.04884,42 C165.647551,40.8289062 171.013024,39.65625 171.013024,39.65625 C173.059339,39.2414063 175,38.2570313 175,36.53125 L175,20.125 C175,18.3992187 173.214832,17 171.013024,17 L171.013024,17 Z" id="Fill-215" fill="#FBF9ED"></path>
        </g>
    </g>
</svg>